M48
; DRILL file {KiCad 9.0.2} date 2026-08-13T00:49:23+0530
; FORMAT={-:-/ absolute / metric / decimal}
; #@! TF.CreationDate,2026-08-13T00:49:23+05:30
; #@! TF.GenerationSoftware,Kicad,Pcbnew,9.0.2
; #@! TF.FileFunction,Plated,1,2,PTH
FMAT,2
METRIC
; #@! TA.AperFunction,Plated,PTH,ViaDrill
T1C0.300
; #@! TA.AperFunction,Plated,PTH,ViaDrill
T2C0.400
; #@! TA.AperFunction,Plated,PTH,ComponentDrill
T3C1.000
; #@! TA.AperFunction,Plated,PTH,ComponentDrill
T4C1.100
; #@! TA.AperFunction,Plated,PTH,ComponentDrill
T5C1.300
; #@! TA.AperFunction,Plated,PTH,ComponentDrill
T6C1.600
%
G90
G05
T1
X37.274Y-103.065
X40.504Y-110.765
X40.784Y-117.655
X46.104Y-105.975
X55.88Y-99.06
X55.88Y-101.6
X55.88Y-106.68
X55.88Y-109.22
X55.88Y-114.3
X55.88Y-116.84
X55.88Y-119.38
X55.88Y-121.92
X55.88Y-124.46
X55.88Y-127.0
X55.88Y-129.54
X55.88Y-132.08
X55.88Y-134.62
X55.88Y-137.16
X55.88Y-139.7
X55.88Y-142.24
X55.88Y-144.78
X55.88Y-147.32
X55.88Y-149.86
X55.88Y-152.4
X55.88Y-154.94
X66.04Y-160.02
X68.58Y-154.94
X73.66Y-157.48
X73.66Y-160.02
X81.28Y-154.94
X81.28Y-160.02
X83.82Y-101.6
X88.9Y-160.02
X91.44Y-101.6
X96.52Y-157.48
X96.52Y-160.02
X101.6Y-99.06
X104.14Y-157.48
X106.68Y-134.62
X109.22Y-114.3
X109.22Y-119.38
X111.76Y-114.3
X114.3Y-111.76
X116.84Y-106.68
X116.84Y-109.22
X119.38Y-129.54
X119.38Y-132.08
T2
X104.14Y-160.02
T3
X60.67Y-100.58
X60.67Y-103.12
X60.67Y-105.66
X60.67Y-108.2
X60.67Y-110.74
X60.67Y-113.28
X60.67Y-115.82
X60.67Y-118.36
X60.67Y-120.9
X60.67Y-123.44
X60.67Y-125.98
X60.67Y-128.52
X60.67Y-131.06
X60.67Y-133.6
X60.67Y-136.14
X60.67Y-138.68
X60.67Y-141.22
X60.67Y-143.76
X60.67Y-146.3
X60.67Y-148.84
X60.67Y-151.38
X60.67Y-153.92
X86.07Y-100.85
X86.07Y-103.39
X86.07Y-105.93
X86.07Y-108.47
X86.07Y-111.01
X86.07Y-113.55
X86.07Y-116.09
X86.07Y-118.63
X86.07Y-121.17
X86.07Y-123.71
X86.07Y-126.25
X86.07Y-128.79
X86.07Y-131.33
X86.07Y-133.87
X86.07Y-136.41
X86.07Y-138.95
X86.07Y-141.49
X86.07Y-144.03
X86.07Y-146.57
X86.07Y-149.11
X86.07Y-151.65
X86.07Y-154.19
X114.3Y-119.38
X119.3Y-119.38
X121.92Y-104.14
X121.92Y-106.68
X121.92Y-109.22
X121.92Y-111.76
X124.46Y-127.0
X124.46Y-129.54
X124.46Y-132.08
X124.46Y-134.62
T4
X96.52Y-128.27
X96.52Y-135.89
X106.68Y-116.84
X106.68Y-119.38
X106.68Y-121.92
T5
X31.054Y-128.625
X36.054Y-128.625
X41.054Y-128.625
X93.98Y-120.65
X99.06Y-120.65
X106.76Y-106.68
X111.76Y-106.68
T6
X101.6Y-128.27
X101.6Y-143.51
T3
G00X91.82Y-107.76
M15
G01X91.82Y-109.76
M16
G05
G00X97.52Y-105.76
M15
G01X95.52Y-105.76
M16
G05
G00X97.52Y-111.76
M15
G01X95.52Y-111.76
M16
G05
M30
