%TF.GenerationSoftware,KiCad,Pcbnew,9.0.2*%
%TF.CreationDate,2026-08-13T00:49:29+05:30*%
%TF.ProjectId,CORTICAL EXOSLEEVE,434f5254-4943-4414-9c20-45584f534c45,rev?*%
%TF.SameCoordinates,Original*%
%TF.FileFunction,Soldermask,Top*%
%TF.FilePolarity,Negative*%
%FSLAX46Y46*%
G04 Gerber Fmt 4.6, Leading zero omitted, Abs format (unit mm)*
G04 Created by KiCad (PCBNEW 9.0.2) date 2026-08-13 00:49:29*
%MOMM*%
%LPD*%
G01*
G04 APERTURE LIST*
G04 Aperture macros list*
%AMRoundRect*
0 Rectangle with rounded corners*
0 $1 Rounding radius*
0 $2 $3 $4 $5 $6 $7 $8 $9 X,Y pos of 4 corners*
0 Add a 4 corners polygon primitive as box body*
4,1,4,$2,$3,$4,$5,$6,$7,$8,$9,$2,$3,0*
0 Add four circle primitives for the rounded corners*
1,1,$1+$1,$2,$3*
1,1,$1+$1,$4,$5*
1,1,$1+$1,$6,$7*
1,1,$1+$1,$8,$9*
0 Add four rect primitives between the rounded corners*
20,1,$1+$1,$2,$3,$4,$5,0*
20,1,$1+$1,$4,$5,$6,$7,0*
20,1,$1+$1,$6,$7,$8,$9,0*
20,1,$1+$1,$8,$9,$2,$3,0*%
G04 Aperture macros list end*
%ADD10RoundRect,0.875000X-0.875000X0.875000X-0.875000X-0.875000X0.875000X-0.875000X0.875000X0.875000X0*%
%ADD11RoundRect,0.750000X-1.000000X0.750000X-1.000000X-0.750000X1.000000X-0.750000X1.000000X0.750000X0*%
%ADD12R,3.500000X3.500000*%
%ADD13C,2.600000*%
%ADD14RoundRect,0.250000X-1.050000X-1.050000X1.050000X-1.050000X1.050000X1.050000X-1.050000X1.050000X0*%
%ADD15C,2.000000*%
%ADD16RoundRect,0.250000X0.750000X0.750000X-0.750000X0.750000X-0.750000X-0.750000X0.750000X-0.750000X0*%
%ADD17C,3.200000*%
%ADD18RoundRect,0.250000X-1.350000X1.350000X-1.350000X-1.350000X1.350000X-1.350000X1.350000X1.350000X0*%
%ADD19C,2.200000*%
%ADD20RoundRect,0.249999X-0.850001X0.850001X-0.850001X-0.850001X0.850001X-0.850001X0.850001X0.850001X0*%
%ADD21RoundRect,0.150000X0.150000X-0.587500X0.150000X0.587500X-0.150000X0.587500X-0.150000X-0.587500X0*%
%ADD22R,2.000000X1.905000*%
%ADD23O,2.000000X1.905000*%
%ADD24RoundRect,0.250000X-0.350000X-0.450000X0.350000X-0.450000X0.350000X0.450000X-0.350000X0.450000X0*%
%ADD25R,1.700000X1.700000*%
%ADD26C,1.700000*%
%ADD27RoundRect,0.250000X0.475000X-0.250000X0.475000X0.250000X-0.475000X0.250000X-0.475000X-0.250000X0*%
%ADD28RoundRect,0.100000X0.100000X-0.712500X0.100000X0.712500X-0.100000X0.712500X-0.100000X-0.712500X0*%
%ADD29RoundRect,0.250000X0.450000X-0.350000X0.450000X0.350000X-0.450000X0.350000X-0.450000X-0.350000X0*%
%ADD30RoundRect,0.150000X0.150000X-0.512500X0.150000X0.512500X-0.150000X0.512500X-0.150000X-0.512500X0*%
%ADD31RoundRect,0.250000X-0.337500X-0.475000X0.337500X-0.475000X0.337500X0.475000X-0.337500X0.475000X0*%
%ADD32RoundRect,0.250000X0.350000X0.450000X-0.350000X0.450000X-0.350000X-0.450000X0.350000X-0.450000X0*%
%ADD33RoundRect,0.250000X-0.475000X0.250000X-0.475000X-0.250000X0.475000X-0.250000X0.475000X0.250000X0*%
%ADD34RoundRect,0.225000X-0.225000X-0.375000X0.225000X-0.375000X0.225000X0.375000X-0.225000X0.375000X0*%
%ADD35RoundRect,0.250000X-0.450000X0.350000X-0.450000X-0.350000X0.450000X-0.350000X0.450000X0.350000X0*%
G04 APERTURE END LIST*
D10*
%TO.C,J5*%
X91820000Y-108760000D03*
D11*
X96520000Y-105760000D03*
D12*
X96520000Y-111760000D03*
%TD*%
D13*
%TO.C,J6*%
X111760000Y-106680000D03*
D14*
X106760000Y-106680000D03*
%TD*%
D15*
%TO.C,C3*%
X114300000Y-119380000D03*
D16*
X119300000Y-119380000D03*
%TD*%
D13*
%TO.C,J4*%
X99060000Y-120650000D03*
D14*
X93980000Y-120650000D03*
%TD*%
D17*
%TO.C,D2*%
X101600000Y-143510000D03*
D18*
X101600000Y-128270000D03*
%TD*%
D19*
%TO.C,D1*%
X96520000Y-135890000D03*
D20*
X96520000Y-128270000D03*
%TD*%
D21*
%TO.C,Q2*%
X106680000Y-129552500D03*
X107630000Y-131427500D03*
X105730000Y-131427500D03*
%TD*%
D22*
%TO.C,Q1*%
X106680000Y-121920000D03*
D23*
X106680000Y-119380000D03*
X106680000Y-116840000D03*
%TD*%
D24*
%TO.C,R7*%
X108680000Y-127000000D03*
X106680000Y-127000000D03*
%TD*%
D25*
%TO.C,U3*%
X124460000Y-134620000D03*
D26*
X124460000Y-132080000D03*
X124460000Y-129540000D03*
X124460000Y-127000000D03*
%TD*%
D27*
%TO.C,C6*%
X49113750Y-107475000D03*
X49113750Y-109375000D03*
%TD*%
D28*
%TO.C,U2*%
X36853750Y-116897500D03*
X37503750Y-116897500D03*
X38153750Y-116897500D03*
X38803750Y-116897500D03*
X38803750Y-112672500D03*
X38153750Y-112672500D03*
X37503750Y-112672500D03*
X36853750Y-112672500D03*
%TD*%
D29*
%TO.C,R4*%
X46103750Y-109445000D03*
X46103750Y-107445000D03*
%TD*%
D14*
%TO.C,J2*%
X31053750Y-128625000D03*
D13*
X36053750Y-128625000D03*
X41053750Y-128625000D03*
%TD*%
D25*
%TO.C,J1*%
X60670000Y-100580000D03*
D26*
X60670000Y-103120000D03*
X60670000Y-105660000D03*
X60670000Y-108200000D03*
X60670000Y-110740000D03*
X60670000Y-113280000D03*
X60670000Y-115820000D03*
X60670000Y-118360000D03*
X60670000Y-120900000D03*
X60670000Y-123440000D03*
X60670000Y-125980000D03*
X60670000Y-128520000D03*
X60670000Y-131060000D03*
X60670000Y-133600000D03*
X60670000Y-136140000D03*
X60670000Y-138680000D03*
X60670000Y-141220000D03*
X60670000Y-143760000D03*
X60670000Y-146300000D03*
X60670000Y-148840000D03*
X60670000Y-151380000D03*
X60670000Y-153920000D03*
%TD*%
D29*
%TO.C,R2*%
X36363750Y-121935000D03*
X36363750Y-119935000D03*
%TD*%
D27*
%TO.C,C1*%
X38693750Y-104875000D03*
X38693750Y-102975000D03*
%TD*%
D24*
%TO.C,R9*%
X44423750Y-114715000D03*
X46423750Y-114715000D03*
%TD*%
D30*
%TO.C,U5*%
X38853750Y-109290000D03*
X39803750Y-109290000D03*
X40753750Y-109290000D03*
X40753750Y-107015000D03*
X38853750Y-107015000D03*
%TD*%
D31*
%TO.C,C4*%
X50800000Y-114475000D03*
X52875000Y-114475000D03*
%TD*%
D32*
%TO.C,R8*%
X113760000Y-137160000D03*
X111760000Y-137160000D03*
%TD*%
D33*
%TO.C,C2*%
X40788750Y-113735000D03*
X40788750Y-115635000D03*
%TD*%
D29*
%TO.C,R6*%
X109220000Y-135620000D03*
X109220000Y-133620000D03*
%TD*%
D25*
%TO.C,J3*%
X86070000Y-100850000D03*
D26*
X86070000Y-103390000D03*
X86070000Y-105930000D03*
X86070000Y-108470000D03*
X86070000Y-111010000D03*
X86070000Y-113550000D03*
X86070000Y-116090000D03*
X86070000Y-118630000D03*
X86070000Y-121170000D03*
X86070000Y-123710000D03*
X86070000Y-126250000D03*
X86070000Y-128790000D03*
X86070000Y-131330000D03*
X86070000Y-133870000D03*
X86070000Y-136410000D03*
X86070000Y-138950000D03*
X86070000Y-141490000D03*
X86070000Y-144030000D03*
X86070000Y-146570000D03*
X86070000Y-149110000D03*
X86070000Y-151650000D03*
X86070000Y-154190000D03*
%TD*%
D29*
%TO.C,R5*%
X39053750Y-122075000D03*
X39053750Y-120075000D03*
%TD*%
D34*
%TO.C,D4*%
X120140000Y-127000000D03*
X116840000Y-127000000D03*
%TD*%
D35*
%TO.C,R1*%
X34983750Y-113805000D03*
X34983750Y-115805000D03*
%TD*%
D25*
%TO.C,U4*%
X121920000Y-104140000D03*
D26*
X121920000Y-106680000D03*
X121920000Y-109220000D03*
X121920000Y-111760000D03*
%TD*%
D29*
%TO.C,R3*%
X43113750Y-109615000D03*
X43113750Y-107615000D03*
%TD*%
M02*
