%TF.GenerationSoftware,KiCad,Pcbnew,9.0.2*%
%TF.CreationDate,2026-08-13T00:51:52+05:30*%
%TF.ProjectId,CORTICAL EXOSLEEVE,434f5254-4943-4414-9c20-45584f534c45,rev?*%
%TF.SameCoordinates,Original*%
%TF.FileFunction,Copper,L2,Bot*%
%TF.FilePolarity,Positive*%
%FSLAX46Y46*%
G04 Gerber Fmt 4.6, Leading zero omitted, Abs format (unit mm)*
G04 Created by KiCad (PCBNEW 9.0.2) date 2026-08-13 00:51:52*
%MOMM*%
%LPD*%
G01*
G04 APERTURE LIST*
G04 Aperture macros list*
%AMRoundRect*
0 Rectangle with rounded corners*
0 $1 Rounding radius*
0 $2 $3 $4 $5 $6 $7 $8 $9 X,Y pos of 4 corners*
0 Add a 4 corners polygon primitive as box body*
4,1,4,$2,$3,$4,$5,$6,$7,$8,$9,$2,$3,0*
0 Add four circle primitives for the rounded corners*
1,1,$1+$1,$2,$3*
1,1,$1+$1,$4,$5*
1,1,$1+$1,$6,$7*
1,1,$1+$1,$8,$9*
0 Add four rect primitives between the rounded corners*
20,1,$1+$1,$2,$3,$4,$5,0*
20,1,$1+$1,$4,$5,$6,$7,0*
20,1,$1+$1,$6,$7,$8,$9,0*
20,1,$1+$1,$8,$9,$2,$3,0*%
G04 Aperture macros list end*
%TA.AperFunction,ComponentPad*%
%ADD10RoundRect,0.875000X-0.875000X0.875000X-0.875000X-0.875000X0.875000X-0.875000X0.875000X0.875000X0*%
%TD*%
%TA.AperFunction,ComponentPad*%
%ADD11RoundRect,0.750000X-1.000000X0.750000X-1.000000X-0.750000X1.000000X-0.750000X1.000000X0.750000X0*%
%TD*%
%TA.AperFunction,ComponentPad*%
%ADD12R,3.500000X3.500000*%
%TD*%
%TA.AperFunction,ComponentPad*%
%ADD13C,2.600000*%
%TD*%
%TA.AperFunction,ComponentPad*%
%ADD14RoundRect,0.250000X-1.050000X-1.050000X1.050000X-1.050000X1.050000X1.050000X-1.050000X1.050000X0*%
%TD*%
%TA.AperFunction,ComponentPad*%
%ADD15C,2.000000*%
%TD*%
%TA.AperFunction,ComponentPad*%
%ADD16RoundRect,0.250000X0.750000X0.750000X-0.750000X0.750000X-0.750000X-0.750000X0.750000X-0.750000X0*%
%TD*%
%TA.AperFunction,ComponentPad*%
%ADD17C,3.200000*%
%TD*%
%TA.AperFunction,ComponentPad*%
%ADD18RoundRect,0.250000X-1.350000X1.350000X-1.350000X-1.350000X1.350000X-1.350000X1.350000X1.350000X0*%
%TD*%
%TA.AperFunction,ComponentPad*%
%ADD19C,2.200000*%
%TD*%
%TA.AperFunction,ComponentPad*%
%ADD20RoundRect,0.249999X-0.850001X0.850001X-0.850001X-0.850001X0.850001X-0.850001X0.850001X0.850001X0*%
%TD*%
%TA.AperFunction,ComponentPad*%
%ADD21R,2.000000X1.905000*%
%TD*%
%TA.AperFunction,ComponentPad*%
%ADD22O,2.000000X1.905000*%
%TD*%
%TA.AperFunction,ComponentPad*%
%ADD23R,1.700000X1.700000*%
%TD*%
%TA.AperFunction,ComponentPad*%
%ADD24C,1.700000*%
%TD*%
%TA.AperFunction,ViaPad*%
%ADD25C,0.600000*%
%TD*%
%TA.AperFunction,ViaPad*%
%ADD26C,0.800000*%
%TD*%
%TA.AperFunction,Conductor*%
%ADD27C,0.800000*%
%TD*%
%TA.AperFunction,Conductor*%
%ADD28C,1.000000*%
%TD*%
G04 APERTURE END LIST*
D10*
%TO.P,J5,3*%
%TO.N,GND*%
X91820000Y-108760000D03*
D11*
%TO.P,J5,2*%
X96520000Y-105760000D03*
D12*
%TO.P,J5,1*%
%TO.N,Net-(J6-Pin_1)*%
X96520000Y-111760000D03*
%TD*%
D13*
%TO.P,J6,2,Pin_2*%
%TO.N,+11.1V_SW*%
X111760000Y-106680000D03*
D14*
%TO.P,J6,1,Pin_1*%
%TO.N,Net-(J6-Pin_1)*%
X106760000Y-106680000D03*
%TD*%
D15*
%TO.P,C3,2*%
%TO.N,GND*%
X114300000Y-119380000D03*
D16*
%TO.P,C3,1*%
%TO.N,+24V*%
X119300000Y-119380000D03*
%TD*%
D13*
%TO.P,J4,2,Pin_2*%
%TO.N,Net-(D2-K)*%
X99060000Y-120650000D03*
D14*
%TO.P,J4,1,Pin_1*%
%TO.N,+24V*%
X93980000Y-120650000D03*
%TD*%
D17*
%TO.P,D2,2,A*%
%TO.N,Net-(D1-A)*%
X101600000Y-143510000D03*
D18*
%TO.P,D2,1,K*%
%TO.N,Net-(D2-K)*%
X101600000Y-128270000D03*
%TD*%
D19*
%TO.P,D1,2,A*%
%TO.N,Net-(D1-A)*%
X96520000Y-135890000D03*
D20*
%TO.P,D1,1,K*%
%TO.N,+24V*%
X96520000Y-128270000D03*
%TD*%
D21*
%TO.P,Q1,1,G*%
%TO.N,Net-(Q1-G)*%
X106680000Y-121920000D03*
D22*
%TO.P,Q1,2,D*%
%TO.N,Net-(D2-K)*%
X106680000Y-119380000D03*
%TO.P,Q1,3,S*%
%TO.N,GND*%
X106680000Y-116840000D03*
%TD*%
D23*
%TO.P,U3,1,Pin_1*%
%TO.N,+11.1V_SW*%
X124460000Y-134620000D03*
D24*
%TO.P,U3,2,Pin_2*%
%TO.N,GND*%
X124460000Y-132080000D03*
%TO.P,U3,3,Pin_3*%
X124460000Y-129540000D03*
%TO.P,U3,4,Pin_4*%
%TO.N,Net-(D4-A)*%
X124460000Y-127000000D03*
%TD*%
D14*
%TO.P,J2,1,Pin_1*%
%TO.N,/V_REF*%
X31053750Y-128625000D03*
D13*
%TO.P,J2,2,Pin_2*%
%TO.N,Net-(J2-Pin_2)*%
X36053750Y-128625000D03*
%TO.P,J2,3,Pin_3*%
%TO.N,Net-(J2-Pin_3)*%
X41053750Y-128625000D03*
%TD*%
D23*
%TO.P,J1,1,Pin_1*%
%TO.N,+3.3V*%
X60670000Y-100580000D03*
D24*
%TO.P,J1,2,Pin_2*%
X60670000Y-103120000D03*
%TO.P,J1,3,Pin_3*%
%TO.N,unconnected-(J1-Pin_3-Pad3)*%
X60670000Y-105660000D03*
%TO.P,J1,4,Pin_4*%
%TO.N,sEMG_ANALOG*%
X60670000Y-108200000D03*
%TO.P,J1,5,Pin_5*%
%TO.N,unconnected-(J1-Pin_5-Pad5)*%
X60670000Y-110740000D03*
%TO.P,J1,6,Pin_6*%
%TO.N,unconnected-(J1-Pin_6-Pad6)*%
X60670000Y-113280000D03*
%TO.P,J1,7,Pin_7*%
%TO.N,unconnected-(J1-Pin_7-Pad7)*%
X60670000Y-115820000D03*
%TO.P,J1,8,Pin_8*%
%TO.N,unconnected-(J1-Pin_8-Pad8)*%
X60670000Y-118360000D03*
%TO.P,J1,9,Pin_9*%
%TO.N,unconnected-(J1-Pin_9-Pad9)*%
X60670000Y-120900000D03*
%TO.P,J1,10,Pin_10*%
%TO.N,unconnected-(J1-Pin_10-Pad10)*%
X60670000Y-123440000D03*
%TO.P,J1,11,Pin_11*%
%TO.N,unconnected-(J1-Pin_11-Pad11)*%
X60670000Y-125980000D03*
%TO.P,J1,12,Pin_12*%
%TO.N,unconnected-(J1-Pin_12-Pad12)*%
X60670000Y-128520000D03*
%TO.P,J1,13,Pin_13*%
%TO.N,unconnected-(J1-Pin_13-Pad13)*%
X60670000Y-131060000D03*
%TO.P,J1,14,Pin_14*%
%TO.N,unconnected-(J1-Pin_14-Pad14)*%
X60670000Y-133600000D03*
%TO.P,J1,15,Pin_15*%
%TO.N,unconnected-(J1-Pin_15-Pad15)*%
X60670000Y-136140000D03*
%TO.P,J1,16,Pin_16*%
%TO.N,unconnected-(J1-Pin_16-Pad16)*%
X60670000Y-138680000D03*
%TO.P,J1,17,Pin_17*%
%TO.N,unconnected-(J1-Pin_17-Pad17)*%
X60670000Y-141220000D03*
%TO.P,J1,18,Pin_18*%
%TO.N,unconnected-(J1-Pin_18-Pad18)*%
X60670000Y-143760000D03*
%TO.P,J1,19,Pin_19*%
%TO.N,unconnected-(J1-Pin_19-Pad19)*%
X60670000Y-146300000D03*
%TO.P,J1,20,Pin_20*%
%TO.N,unconnected-(J1-Pin_20-Pad20)*%
X60670000Y-148840000D03*
%TO.P,J1,21,Pin_21*%
%TO.N,+5V*%
X60670000Y-151380000D03*
%TO.P,J1,22,Pin_22*%
%TO.N,GND*%
X60670000Y-153920000D03*
%TD*%
D23*
%TO.P,J3,1,Pin_1*%
%TO.N,GND*%
X86070000Y-100850000D03*
D24*
%TO.P,J3,2,Pin_2*%
%TO.N,unconnected-(J3-Pin_2-Pad2)*%
X86070000Y-103390000D03*
%TO.P,J3,3,Pin_3*%
%TO.N,unconnected-(J3-Pin_3-Pad3)*%
X86070000Y-105930000D03*
%TO.P,J3,4,Pin_4*%
%TO.N,unconnected-(J3-Pin_4-Pad4)*%
X86070000Y-108470000D03*
%TO.P,J3,5,Pin_5*%
%TO.N,VALVE_PWM*%
X86070000Y-111010000D03*
%TO.P,J3,6,Pin_6*%
%TO.N,unconnected-(J3-Pin_6-Pad6)*%
X86070000Y-113550000D03*
%TO.P,J3,7,Pin_7*%
%TO.N,unconnected-(J3-Pin_7-Pad7)*%
X86070000Y-116090000D03*
%TO.P,J3,8,Pin_8*%
%TO.N,unconnected-(J3-Pin_8-Pad8)*%
X86070000Y-118630000D03*
%TO.P,J3,9,Pin_9*%
%TO.N,unconnected-(J3-Pin_9-Pad9)*%
X86070000Y-121170000D03*
%TO.P,J3,10,Pin_10*%
%TO.N,unconnected-(J3-Pin_10-Pad10)*%
X86070000Y-123710000D03*
%TO.P,J3,11,Pin_11*%
%TO.N,unconnected-(J3-Pin_11-Pad11)*%
X86070000Y-126250000D03*
%TO.P,J3,12,Pin_12*%
%TO.N,unconnected-(J3-Pin_12-Pad12)*%
X86070000Y-128790000D03*
%TO.P,J3,13,Pin_13*%
%TO.N,unconnected-(J3-Pin_13-Pad13)*%
X86070000Y-131330000D03*
%TO.P,J3,14,Pin_14*%
%TO.N,unconnected-(J3-Pin_14-Pad14)*%
X86070000Y-133870000D03*
%TO.P,J3,15,Pin_15*%
%TO.N,unconnected-(J3-Pin_15-Pad15)*%
X86070000Y-136410000D03*
%TO.P,J3,16,Pin_16*%
%TO.N,unconnected-(J3-Pin_16-Pad16)*%
X86070000Y-138950000D03*
%TO.P,J3,17,Pin_17*%
%TO.N,unconnected-(J3-Pin_17-Pad17)*%
X86070000Y-141490000D03*
%TO.P,J3,18,Pin_18*%
%TO.N,unconnected-(J3-Pin_18-Pad18)*%
X86070000Y-144030000D03*
%TO.P,J3,19,Pin_19*%
%TO.N,unconnected-(J3-Pin_19-Pad19)*%
X86070000Y-146570000D03*
%TO.P,J3,20,Pin_20*%
%TO.N,unconnected-(J3-Pin_20-Pad20)*%
X86070000Y-149110000D03*
%TO.P,J3,21,Pin_21*%
%TO.N,GND*%
X86070000Y-151650000D03*
%TO.P,J3,22,Pin_22*%
X86070000Y-154190000D03*
%TD*%
D23*
%TO.P,U4,1,Pin_1*%
%TO.N,+11.1V_SW*%
X121920000Y-104140000D03*
D24*
%TO.P,U4,2,Pin_2*%
%TO.N,GND*%
X121920000Y-106680000D03*
%TO.P,U4,3,Pin_3*%
X121920000Y-109220000D03*
%TO.P,U4,4,Pin_4*%
%TO.N,+24V*%
X121920000Y-111760000D03*
%TD*%
D25*
%TO.N,GND*%
X116840000Y-106680000D03*
X116840000Y-109220000D03*
X46103750Y-105975000D03*
X66040000Y-160020000D03*
X68580000Y-154940000D03*
X114300000Y-111760000D03*
X91440000Y-101600000D03*
X101600000Y-99060000D03*
X109220000Y-119380000D03*
X104140000Y-157480000D03*
X88900000Y-160020000D03*
X81280000Y-160020000D03*
X83820000Y-101600000D03*
X111760000Y-114300000D03*
X96520000Y-160020000D03*
X73660000Y-160020000D03*
X73660000Y-157480000D03*
X96520000Y-157480000D03*
D26*
%TO.N,+5V*%
X104140000Y-160020000D03*
D25*
%TO.N,GND*%
X106680000Y-134620000D03*
X119380000Y-132080000D03*
X119380000Y-129540000D03*
X109220000Y-114300000D03*
X81280000Y-154940000D03*
X55880000Y-154940000D03*
X55880000Y-106680000D03*
X55880000Y-149860000D03*
X55880000Y-152400000D03*
X55880000Y-147320000D03*
X55880000Y-142240000D03*
X55880000Y-144780000D03*
X55880000Y-139700000D03*
X55880000Y-137160000D03*
X55880000Y-134620000D03*
X55880000Y-132080000D03*
X55880000Y-129540000D03*
X55880000Y-127000000D03*
X55880000Y-124460000D03*
X55880000Y-121920000D03*
X55880000Y-119380000D03*
X55880000Y-116840000D03*
X55880000Y-109220000D03*
X55880000Y-101600000D03*
X55880000Y-99060000D03*
X55880000Y-114300000D03*
X40783750Y-117655000D03*
X37273750Y-103065000D03*
X40503750Y-110765000D03*
%TD*%
D27*
%TO.N,+5V*%
X71850000Y-157480000D02*
X69310000Y-160020000D01*
X72709000Y-157480000D02*
X71850000Y-157480000D01*
X72709000Y-157873918D02*
X72709000Y-157480000D01*
X73266082Y-158431000D02*
X72709000Y-157873918D01*
X74053918Y-158431000D02*
X73266082Y-158431000D01*
X74611000Y-157873918D02*
X74053918Y-158431000D01*
X74611000Y-157480000D02*
X74611000Y-157873918D01*
X96126082Y-158431000D02*
X95569000Y-157873918D01*
X95569000Y-157480000D02*
X74611000Y-157480000D01*
X96913918Y-158431000D02*
X96126082Y-158431000D01*
X97471000Y-157873918D02*
X96913918Y-158431000D01*
X101600000Y-157480000D02*
X97471000Y-157480000D01*
X97471000Y-157480000D02*
X97471000Y-157873918D01*
X104140000Y-160020000D02*
X101600000Y-157480000D01*
X95569000Y-157873918D02*
X95569000Y-157480000D01*
D28*
X69310000Y-160020000D02*
X60670000Y-151380000D01*
%TD*%
%TA.AperFunction,Conductor*%
%TO.N,GND*%
G36*
X127981789Y-93734206D02*
G01*
X128027922Y-93786680D01*
X128039500Y-93839000D01*
X128039500Y-164475500D01*
X128019815Y-164542539D01*
X127967011Y-164588294D01*
X127915500Y-164599500D01*
X21234826Y-164599500D01*
X21167787Y-164579815D01*
X21122032Y-164527011D01*
X21110827Y-164476011D01*
X21109007Y-164034108D01*
X20958652Y-127524983D01*
X29253250Y-127524983D01*
X29253250Y-129725001D01*
X29253251Y-129725018D01*
X29263750Y-129827796D01*
X29263751Y-129827799D01*
X29289317Y-129904951D01*
X29318936Y-129994334D01*
X29411038Y-130143656D01*
X29535094Y-130267712D01*
X29684416Y-130359814D01*
X29850953Y-130414999D01*
X29953741Y-130425500D01*
X32153758Y-130425499D01*
X32256547Y-130414999D01*
X32423084Y-130359814D01*
X32572406Y-130267712D01*
X32696462Y-130143656D01*
X32788564Y-129994334D01*
X32843749Y-129827797D01*
X32854250Y-129725009D01*
X32854249Y-128506995D01*
X34253250Y-128506995D01*
X34253250Y-128743004D01*
X34253251Y-128743020D01*
X34284056Y-128977010D01*
X34345144Y-129204993D01*
X34435464Y-129423045D01*
X34435469Y-129423056D01*
X34478635Y-129497820D01*
X34553477Y-129627450D01*
X34553479Y-129627453D01*
X34553480Y-129627454D01*
X34697156Y-129814697D01*
X34697162Y-129814704D01*
X34864045Y-129981587D01*
X34864052Y-129981593D01*
X34880659Y-129994336D01*
X35051300Y-130125273D01*
X35146459Y-130180213D01*
X35255693Y-130243280D01*
X35255698Y-130243282D01*
X35255701Y-130243284D01*
X35473757Y-130333606D01*
X35701736Y-130394693D01*
X35935739Y-130425500D01*
X35935746Y-130425500D01*
X36171754Y-130425500D01*
X36171761Y-130425500D01*
X36405764Y-130394693D01*
X36633743Y-130333606D01*
X36851799Y-130243284D01*
X37056200Y-130125273D01*
X37243449Y-129981592D01*
X37410342Y-129814699D01*
X37554023Y-129627450D01*
X37672034Y-129423049D01*
X37762356Y-129204993D01*
X37823443Y-128977014D01*
X37854250Y-128743011D01*
X37854250Y-128506995D01*
X39253250Y-128506995D01*
X39253250Y-128743004D01*
X39253251Y-128743020D01*
X39284056Y-128977010D01*
X39345144Y-129204993D01*
X39435464Y-129423045D01*
X39435469Y-129423056D01*
X39478635Y-129497820D01*
X39553477Y-129627450D01*
X39553479Y-129627453D01*
X39553480Y-129627454D01*
X39697156Y-129814697D01*
X39697162Y-129814704D01*
X39864045Y-129981587D01*
X39864052Y-129981593D01*
X39880659Y-129994336D01*
X40051300Y-130125273D01*
X40146459Y-130180213D01*
X40255693Y-130243280D01*
X40255698Y-130243282D01*
X40255701Y-130243284D01*
X40473757Y-130333606D01*
X40701736Y-130394693D01*
X40935739Y-130425500D01*
X40935746Y-130425500D01*
X41171754Y-130425500D01*
X41171761Y-130425500D01*
X41405764Y-130394693D01*
X41633743Y-130333606D01*
X41851799Y-130243284D01*
X42056200Y-130125273D01*
X42243449Y-129981592D01*
X42410342Y-129814699D01*
X42554023Y-129627450D01*
X42672034Y-129423049D01*
X42762356Y-129204993D01*
X42823443Y-128977014D01*
X42854250Y-128743011D01*
X42854250Y-128506989D01*
X42823443Y-128272986D01*
X42762356Y-128045007D01*
X42672034Y-127826951D01*
X42672032Y-127826948D01*
X42672030Y-127826943D01*
X42629868Y-127753918D01*
X42554023Y-127622550D01*
X42410342Y-127435301D01*
X42410337Y-127435295D01*
X42243454Y-127268412D01*
X42243447Y-127268406D01*
X42056204Y-127124730D01*
X42056203Y-127124729D01*
X42056200Y-127124727D01*
X41974707Y-127077677D01*
X41851806Y-127006719D01*
X41851795Y-127006714D01*
X41633743Y-126916394D01*
X41405760Y-126855306D01*
X41171770Y-126824501D01*
X41171767Y-126824500D01*
X41171761Y-126824500D01*
X40935739Y-126824500D01*
X40935733Y-126824500D01*
X40935729Y-126824501D01*
X40701739Y-126855306D01*
X40473756Y-126916394D01*
X40255704Y-127006714D01*
X40255693Y-127006719D01*
X40051295Y-127124730D01*
X39864052Y-127268406D01*
X39864045Y-127268412D01*
X39697162Y-127435295D01*
X39697156Y-127435302D01*
X39553480Y-127622545D01*
X39435469Y-127826943D01*
X39435464Y-127826954D01*
X39345144Y-128045006D01*
X39284056Y-128272989D01*
X39253251Y-128506979D01*
X39253250Y-128506995D01*
X37854250Y-128506995D01*
X37854250Y-128506989D01*
X37823443Y-128272986D01*
X37762356Y-128045007D01*
X37672034Y-127826951D01*
X37672032Y-127826948D01*
X37672030Y-127826943D01*
X37629868Y-127753918D01*
X37554023Y-127622550D01*
X37410342Y-127435301D01*
X37410337Y-127435295D01*
X37243454Y-127268412D01*
X37243447Y-127268406D01*
X37056204Y-127124730D01*
X37056203Y-127124729D01*
X37056200Y-127124727D01*
X36974707Y-127077677D01*
X36851806Y-127006719D01*
X36851795Y-127006714D01*
X36633743Y-126916394D01*
X36405760Y-126855306D01*
X36171770Y-126824501D01*
X36171767Y-126824500D01*
X36171761Y-126824500D01*
X35935739Y-126824500D01*
X35935733Y-126824500D01*
X35935729Y-126824501D01*
X35701739Y-126855306D01*
X35473756Y-126916394D01*
X35255704Y-127006714D01*
X35255693Y-127006719D01*
X35051295Y-127124730D01*
X34864052Y-127268406D01*
X34864045Y-127268412D01*
X34697162Y-127435295D01*
X34697156Y-127435302D01*
X34553480Y-127622545D01*
X34435469Y-127826943D01*
X34435464Y-127826954D01*
X34345144Y-128045006D01*
X34284056Y-128272989D01*
X34253251Y-128506979D01*
X34253250Y-128506995D01*
X32854249Y-128506995D01*
X32854249Y-127524992D01*
X32843749Y-127422203D01*
X32788564Y-127255666D01*
X32696462Y-127106344D01*
X32572406Y-126982288D01*
X32465574Y-126916394D01*
X32423086Y-126890187D01*
X32423081Y-126890185D01*
X32419025Y-126888841D01*
X32256547Y-126835001D01*
X32256545Y-126835000D01*
X32153760Y-126824500D01*
X29953748Y-126824500D01*
X29953731Y-126824501D01*
X29850953Y-126835000D01*
X29850950Y-126835001D01*
X29684418Y-126890185D01*
X29684413Y-126890187D01*
X29535092Y-126982289D01*
X29411039Y-127106342D01*
X29318937Y-127255663D01*
X29318935Y-127255668D01*
X29310836Y-127280109D01*
X29263751Y-127422203D01*
X29263751Y-127422204D01*
X29263750Y-127422204D01*
X29253250Y-127524983D01*
X20958652Y-127524983D01*
X20843987Y-99682135D01*
X59319500Y-99682135D01*
X59319500Y-101477870D01*
X59319501Y-101477876D01*
X59325908Y-101537483D01*
X59376202Y-101672328D01*
X59376206Y-101672335D01*
X59462452Y-101787544D01*
X59462455Y-101787547D01*
X59577664Y-101873793D01*
X59577671Y-101873797D01*
X59709082Y-101922810D01*
X59765016Y-101964681D01*
X59789433Y-102030145D01*
X59774582Y-102098418D01*
X59753431Y-102126673D01*
X59639889Y-102240215D01*
X59514951Y-102412179D01*
X59418444Y-102601585D01*
X59352753Y-102803760D01*
X59332370Y-102932454D01*
X59319500Y-103013713D01*
X59319500Y-103226287D01*
X59328595Y-103283713D01*
X59352753Y-103436239D01*
X59352753Y-103436241D01*
X59352754Y-103436243D01*
X59372263Y-103496286D01*
X59418444Y-103638414D01*
X59514951Y-103827820D01*
X59639890Y-103999786D01*
X59790213Y-104150109D01*
X59962182Y-104275050D01*
X59970946Y-104279516D01*
X60021742Y-104327491D01*
X60038536Y-104395312D01*
X60015998Y-104461447D01*
X59970946Y-104500484D01*
X59962182Y-104504949D01*
X59790213Y-104629890D01*
X59639890Y-104780213D01*
X59514951Y-104952179D01*
X59418444Y-105141585D01*
X59352753Y-105343760D01*
X59319500Y-105553713D01*
X59319500Y-105766286D01*
X59352151Y-105972439D01*
X59352754Y-105976243D01*
X59392967Y-106100006D01*
X59418444Y-106178414D01*
X59514951Y-106367820D01*
X59639890Y-106539786D01*
X59790213Y-106690109D01*
X59962182Y-106815050D01*
X59970946Y-106819516D01*
X60021742Y-106867491D01*
X60038536Y-106935312D01*
X60015998Y-107001447D01*
X59970946Y-107040484D01*
X59962182Y-107044949D01*
X59790213Y-107169890D01*
X59639890Y-107320213D01*
X59514951Y-107492179D01*
X59418444Y-107681585D01*
X59352753Y-107883760D01*
X59319500Y-108093713D01*
X59319500Y-108306287D01*
X59328595Y-108363713D01*
X59352151Y-108512439D01*
X59352754Y-108516243D01*
X59372263Y-108576286D01*
X59418444Y-108718414D01*
X59514951Y-108907820D01*
X59639890Y-109079786D01*
X59790213Y-109230109D01*
X59962182Y-109355050D01*
X59970946Y-109359516D01*
X60021742Y-109407491D01*
X60038536Y-109475312D01*
X60015998Y-109541447D01*
X59970946Y-109580484D01*
X59962182Y-109584949D01*
X59790213Y-109709890D01*
X59639890Y-109860213D01*
X59514951Y-110032179D01*
X59418444Y-110221585D01*
X59352753Y-110423760D01*
X59319500Y-110633713D01*
X59319500Y-110846286D01*
X59345429Y-111009999D01*
X59352754Y-111056243D01*
X59372263Y-111116286D01*
X59418444Y-111258414D01*
X59514951Y-111447820D01*
X59639890Y-111619786D01*
X59790213Y-111770109D01*
X59962182Y-111895050D01*
X59970946Y-111899516D01*
X60021742Y-111947491D01*
X60038536Y-112015312D01*
X60015998Y-112081447D01*
X59970946Y-112120484D01*
X59962182Y-112124949D01*
X59790213Y-112249890D01*
X59639890Y-112400213D01*
X59514951Y-112572179D01*
X59418444Y-112761585D01*
X59352753Y-112963760D01*
X59319500Y-113173713D01*
X59319500Y-113386286D01*
X59346676Y-113557873D01*
X59352754Y-113596243D01*
X59403470Y-113752331D01*
X59418444Y-113798414D01*
X59514951Y-113987820D01*
X59639890Y-114159786D01*
X59790213Y-114310109D01*
X59962182Y-114435050D01*
X59970946Y-114439516D01*
X60021742Y-114487491D01*
X60038536Y-114555312D01*
X60015998Y-114621447D01*
X59970946Y-114660484D01*
X59962182Y-114664949D01*
X59790213Y-114789890D01*
X59639890Y-114940213D01*
X59514951Y-115112179D01*
X59418444Y-115301585D01*
X59352753Y-115503760D01*
X59319500Y-115713713D01*
X59319500Y-115926286D01*
X59343643Y-116078723D01*
X59352754Y-116136243D01*
X59372263Y-116196286D01*
X59418444Y-116338414D01*
X59514951Y-116527820D01*
X59639890Y-116699786D01*
X59790213Y-116850109D01*
X59962182Y-116975050D01*
X59970946Y-116979516D01*
X60021742Y-117027491D01*
X60038536Y-117095312D01*
X60015998Y-117161447D01*
X59970946Y-117200484D01*
X59962182Y-117204949D01*
X59790213Y-117329890D01*
X59639890Y-117480213D01*
X59514951Y-117652179D01*
X59418444Y-117841585D01*
X59352753Y-118043760D01*
X59334764Y-118157338D01*
X59319500Y-118253713D01*
X59319500Y-118466287D01*
X59352754Y-118676243D01*
X59409049Y-118849501D01*
X59418444Y-118878414D01*
X59514951Y-119067820D01*
X59639890Y-119239786D01*
X59790213Y-119390109D01*
X59962182Y-119515050D01*
X59970946Y-119519516D01*
X60021742Y-119567491D01*
X60038536Y-119635312D01*
X60015998Y-119701447D01*
X59970946Y-119740484D01*
X59962182Y-119744949D01*
X59790213Y-119869890D01*
X59639890Y-120020213D01*
X59514951Y-120192179D01*
X59418444Y-120381585D01*
X59352753Y-120583760D01*
X59330357Y-120725164D01*
X59319500Y-120793713D01*
X59319500Y-121006287D01*
X59352754Y-121216243D01*
X59372263Y-121276286D01*
X59418444Y-121418414D01*
X59514951Y-121607820D01*
X59639890Y-121779786D01*
X59790213Y-121930109D01*
X59962182Y-122055050D01*
X59970946Y-122059516D01*
X60021742Y-122107491D01*
X60038536Y-122175312D01*
X60015998Y-122241447D01*
X59970946Y-122280484D01*
X59962182Y-122284949D01*
X59790213Y-122409890D01*
X59639890Y-122560213D01*
X59514951Y-122732179D01*
X59418444Y-122921585D01*
X59352753Y-123123760D01*
X59335919Y-123230046D01*
X59319500Y-123333713D01*
X59319500Y-123546287D01*
X59352754Y-123756243D01*
X59372263Y-123816286D01*
X59418444Y-123958414D01*
X59514951Y-124147820D01*
X59639890Y-124319786D01*
X59790213Y-124470109D01*
X59962182Y-124595050D01*
X59970946Y-124599516D01*
X60021742Y-124647491D01*
X60038536Y-124715312D01*
X60015998Y-124781447D01*
X59970946Y-124820484D01*
X59962182Y-124824949D01*
X59790213Y-124949890D01*
X59639890Y-125100213D01*
X59514951Y-125272179D01*
X59418444Y-125461585D01*
X59352753Y-125663760D01*
X59319500Y-125873713D01*
X59319500Y-126086286D01*
X59343083Y-126235187D01*
X59352754Y-126296243D01*
X59372263Y-126356286D01*
X59418444Y-126498414D01*
X59514951Y-126687820D01*
X59639890Y-126859786D01*
X59790213Y-127010109D01*
X59962182Y-127135050D01*
X59970946Y-127139516D01*
X60021742Y-127187491D01*
X60038536Y-127255312D01*
X60015998Y-127321447D01*
X59970946Y-127360484D01*
X59962182Y-127364949D01*
X59790213Y-127489890D01*
X59639890Y-127640213D01*
X59514951Y-127812179D01*
X59418444Y-128001585D01*
X59352753Y-128203760D01*
X59319500Y-128413713D01*
X59319500Y-128626286D01*
X59352151Y-128832439D01*
X59352754Y-128836243D01*
X59398493Y-128977014D01*
X59418444Y-129038414D01*
X59514951Y-129227820D01*
X59639890Y-129399786D01*
X59790213Y-129550109D01*
X59962182Y-129675050D01*
X59970946Y-129679516D01*
X60021742Y-129727491D01*
X60038536Y-129795312D01*
X60015998Y-129861447D01*
X59970946Y-129900484D01*
X59962182Y-129904949D01*
X59790213Y-130029890D01*
X59639890Y-130180213D01*
X59514951Y-130352179D01*
X59418444Y-130541585D01*
X59352753Y-130743760D01*
X59319500Y-130953713D01*
X59319500Y-131166286D01*
X59352151Y-131372439D01*
X59352754Y-131376243D01*
X59372263Y-131436286D01*
X59418444Y-131578414D01*
X59514951Y-131767820D01*
X59639890Y-131939786D01*
X59790213Y-132090109D01*
X59962182Y-132215050D01*
X59970946Y-132219516D01*
X60021742Y-132267491D01*
X60038536Y-132335312D01*
X60015998Y-132401447D01*
X59970946Y-132440484D01*
X59962182Y-132444949D01*
X59790213Y-132569890D01*
X59639890Y-132720213D01*
X59514951Y-132892179D01*
X59418444Y-133081585D01*
X59352753Y-133283760D01*
X59332370Y-133412454D01*
X59319500Y-133493713D01*
X59319500Y-133706287D01*
X59352754Y-133916243D01*
X59372263Y-133976286D01*
X59418444Y-134118414D01*
X59514951Y-134307820D01*
X59639890Y-134479786D01*
X59790213Y-134630109D01*
X59962182Y-134755050D01*
X59970946Y-134759516D01*
X60021742Y-134807491D01*
X60038536Y-134875312D01*
X60015998Y-134941447D01*
X59970946Y-134980484D01*
X59962182Y-134984949D01*
X59790213Y-135109890D01*
X59639890Y-135260213D01*
X59514951Y-135432179D01*
X59418444Y-135621585D01*
X59352753Y-135823760D01*
X59319500Y-136033713D01*
X59319500Y-136246287D01*
X59352754Y-136456243D01*
X59372263Y-136516286D01*
X59418444Y-136658414D01*
X59514951Y-136847820D01*
X59639890Y-137019786D01*
X59790213Y-137170109D01*
X59962182Y-137295050D01*
X59970946Y-137299516D01*
X60021742Y-137347491D01*
X60038536Y-137415312D01*
X60015998Y-137481447D01*
X59970946Y-137520484D01*
X59962182Y-137524949D01*
X59790213Y-137649890D01*
X59639890Y-137800213D01*
X59514951Y-137972179D01*
X59418444Y-138161585D01*
X59352753Y-138363760D01*
X59319500Y-138573713D01*
X59319500Y-138786287D01*
X59352754Y-138996243D01*
X59372263Y-139056286D01*
X59418444Y-139198414D01*
X59514951Y-139387820D01*
X59639890Y-139559786D01*
X59790213Y-139710109D01*
X59962182Y-139835050D01*
X59970946Y-139839516D01*
X60021742Y-139887491D01*
X60038536Y-139955312D01*
X60015998Y-140021447D01*
X59970946Y-140060484D01*
X59962182Y-140064949D01*
X59790213Y-140189890D01*
X59639890Y-140340213D01*
X59514951Y-140512179D01*
X59418444Y-140701585D01*
X59352753Y-140903760D01*
X59319500Y-141113713D01*
X59319500Y-141326287D01*
X59352754Y-141536243D01*
X59380644Y-141622080D01*
X59418444Y-141738414D01*
X59514951Y-141927820D01*
X59639890Y-142099786D01*
X59790213Y-142250109D01*
X59962182Y-142375050D01*
X59970946Y-142379516D01*
X60021742Y-142427491D01*
X60038536Y-142495312D01*
X60015998Y-142561447D01*
X59970946Y-142600484D01*
X59962182Y-142604949D01*
X59790213Y-142729890D01*
X59639890Y-142880213D01*
X59514951Y-143052179D01*
X59418444Y-143241585D01*
X59352753Y-143443760D01*
X59320458Y-143647667D01*
X59319500Y-143653713D01*
X59319500Y-143866287D01*
X59352754Y-144076243D01*
X59372263Y-144136286D01*
X59418444Y-144278414D01*
X59514951Y-144467820D01*
X59639890Y-144639786D01*
X59790213Y-144790109D01*
X59962182Y-144915050D01*
X59970946Y-144919516D01*
X60021742Y-144967491D01*
X60038536Y-145035312D01*
X60015998Y-145101447D01*
X59970946Y-145140484D01*
X59962182Y-145144949D01*
X59790213Y-145269890D01*
X59639890Y-145420213D01*
X59514951Y-145592179D01*
X59418444Y-145781585D01*
X59352753Y-145983760D01*
X59319500Y-146193713D01*
X59319500Y-146406287D01*
X59352754Y-146616243D01*
X59372263Y-146676286D01*
X59418444Y-146818414D01*
X59514951Y-147007820D01*
X59639890Y-147179786D01*
X59790213Y-147330109D01*
X59962182Y-147455050D01*
X59970946Y-147459516D01*
X60021742Y-147507491D01*
X60038536Y-147575312D01*
X60015998Y-147641447D01*
X59970946Y-147680484D01*
X59962182Y-147684949D01*
X59790213Y-147809890D01*
X59639890Y-147960213D01*
X59514951Y-148132179D01*
X59418444Y-148321585D01*
X59352753Y-148523760D01*
X59319500Y-148733713D01*
X59319500Y-148946287D01*
X59352754Y-149156243D01*
X59372263Y-149216286D01*
X59418444Y-149358414D01*
X59514951Y-149547820D01*
X59639890Y-149719786D01*
X59790213Y-149870109D01*
X59962182Y-149995050D01*
X59970946Y-149999516D01*
X60021742Y-150047491D01*
X60038536Y-150115312D01*
X60015998Y-150181447D01*
X59970946Y-150220484D01*
X59962182Y-150224949D01*
X59790213Y-150349890D01*
X59639890Y-150500213D01*
X59514951Y-150672179D01*
X59418444Y-150861585D01*
X59352753Y-151063760D01*
X59319500Y-151273713D01*
X59319500Y-151486286D01*
X59345429Y-151649999D01*
X59352754Y-151696243D01*
X59400436Y-151842993D01*
X59418444Y-151898414D01*
X59514951Y-152087820D01*
X59639890Y-152259786D01*
X59790213Y-152410109D01*
X59962179Y-152535048D01*
X59962181Y-152535049D01*
X59962184Y-152535051D01*
X59971493Y-152539794D01*
X60022290Y-152587766D01*
X60039087Y-152655587D01*
X60016552Y-152721722D01*
X59971505Y-152760760D01*
X59962446Y-152765376D01*
X59962440Y-152765380D01*
X59908282Y-152804727D01*
X59908282Y-152804728D01*
X60540591Y-153437037D01*
X60477007Y-153454075D01*
X60362993Y-153519901D01*
X60269901Y-153612993D01*
X60204075Y-153727007D01*
X60187037Y-153790591D01*
X59554728Y-153158282D01*
X59554727Y-153158282D01*
X59515380Y-153212439D01*
X59418904Y-153401782D01*
X59353242Y-153603869D01*
X59353242Y-153603872D01*
X59320000Y-153813753D01*
X59320000Y-154026246D01*
X59353242Y-154236127D01*
X59353242Y-154236130D01*
X59418904Y-154438217D01*
X59515375Y-154627550D01*
X59554728Y-154681716D01*
X60187037Y-154049408D01*
X60204075Y-154112993D01*
X60269901Y-154227007D01*
X60362993Y-154320099D01*
X60477007Y-154385925D01*
X60540590Y-154402962D01*
X59908282Y-155035269D01*
X59908282Y-155035270D01*
X59962449Y-155074624D01*
X60151782Y-155171095D01*
X60353870Y-155236757D01*
X60563754Y-155270000D01*
X60776246Y-155270000D01*
X60986127Y-155236757D01*
X60986130Y-155236757D01*
X61188217Y-155171095D01*
X61377554Y-155074622D01*
X61431716Y-155035270D01*
X61431717Y-155035270D01*
X60799408Y-154402962D01*
X60862993Y-154385925D01*
X60977007Y-154320099D01*
X61070099Y-154227007D01*
X61135925Y-154112993D01*
X61152962Y-154049408D01*
X61785270Y-154681717D01*
X61785270Y-154681716D01*
X61824622Y-154627554D01*
X61921096Y-154438215D01*
X61954748Y-154334644D01*
X61994185Y-154276968D01*
X62058543Y-154249769D01*
X62127390Y-154261683D01*
X62160360Y-154285280D01*
X68672215Y-160797136D01*
X68672219Y-160797139D01*
X68836079Y-160906627D01*
X68836083Y-160906629D01*
X68836086Y-160906631D01*
X69018164Y-160982051D01*
X69211455Y-161020499D01*
X69211458Y-161020500D01*
X69211460Y-161020500D01*
X69408542Y-161020500D01*
X69408543Y-161020499D01*
X69601836Y-160982051D01*
X69783914Y-160906631D01*
X69947781Y-160797139D01*
X70087139Y-160657781D01*
X70196631Y-160493914D01*
X70248743Y-160368102D01*
X70275621Y-160327877D01*
X71994859Y-158608638D01*
X72056182Y-158575154D01*
X72125874Y-158580138D01*
X72170221Y-158608639D01*
X72692048Y-159130466D01*
X72726408Y-159153423D01*
X72751122Y-159169936D01*
X72839535Y-159229013D01*
X72921475Y-159262953D01*
X72927562Y-159265474D01*
X72927567Y-159265477D01*
X72964022Y-159280577D01*
X73003416Y-159296895D01*
X73177385Y-159331499D01*
X73177389Y-159331500D01*
X73177390Y-159331500D01*
X74142611Y-159331500D01*
X74142612Y-159331499D01*
X74316584Y-159296895D01*
X74398524Y-159262953D01*
X74480465Y-159229013D01*
X74568877Y-159169936D01*
X74627954Y-159130464D01*
X75310464Y-158447954D01*
X75318713Y-158435609D01*
X75372325Y-158390804D01*
X75421815Y-158380500D01*
X94758185Y-158380500D01*
X94825224Y-158400185D01*
X94861287Y-158435609D01*
X94869535Y-158447953D01*
X94869538Y-158447957D01*
X95552046Y-159130464D01*
X95552048Y-159130466D01*
X95586408Y-159153423D01*
X95611122Y-159169936D01*
X95699535Y-159229013D01*
X95781475Y-159262953D01*
X95787562Y-159265474D01*
X95787567Y-159265477D01*
X95824022Y-159280577D01*
X95863416Y-159296895D01*
X96037385Y-159331499D01*
X96037389Y-159331500D01*
X96037390Y-159331500D01*
X97002611Y-159331500D01*
X97002612Y-159331499D01*
X97176584Y-159296895D01*
X97258524Y-159262953D01*
X97340465Y-159229013D01*
X97428877Y-159169936D01*
X97487954Y-159130464D01*
X98170464Y-158447954D01*
X98178713Y-158435609D01*
X98232325Y-158390804D01*
X98281815Y-158380500D01*
X101175638Y-158380500D01*
X101242677Y-158400185D01*
X101263319Y-158416819D01*
X103440536Y-160594035D01*
X103504277Y-160657776D01*
X103565966Y-160719465D01*
X103713446Y-160818009D01*
X103713459Y-160818016D01*
X103836363Y-160868923D01*
X103877334Y-160885894D01*
X103877336Y-160885894D01*
X103877341Y-160885896D01*
X104051304Y-160920499D01*
X104051307Y-160920500D01*
X104051309Y-160920500D01*
X104228693Y-160920500D01*
X104228694Y-160920499D01*
X104298435Y-160906627D01*
X104402658Y-160885896D01*
X104402661Y-160885894D01*
X104402666Y-160885894D01*
X104566547Y-160818013D01*
X104714035Y-160719464D01*
X104839464Y-160594035D01*
X104938013Y-160446547D01*
X105005894Y-160282666D01*
X105040500Y-160108691D01*
X105040500Y-159931309D01*
X105040500Y-159931306D01*
X105040499Y-159931304D01*
X105005896Y-159757341D01*
X105005893Y-159757332D01*
X104938016Y-159593459D01*
X104938009Y-159593446D01*
X104839465Y-159445966D01*
X104839464Y-159445965D01*
X104714035Y-159320536D01*
X102174036Y-156780536D01*
X102174035Y-156780535D01*
X102174030Y-156780531D01*
X102119622Y-156744178D01*
X102119616Y-156744175D01*
X102114959Y-156741063D01*
X102026547Y-156681987D01*
X101944606Y-156648046D01*
X101862666Y-156614105D01*
X101862658Y-156614103D01*
X101688696Y-156579500D01*
X101688692Y-156579500D01*
X101688691Y-156579500D01*
X97559691Y-156579500D01*
X97382309Y-156579500D01*
X97382306Y-156579500D01*
X97208341Y-156614103D01*
X97208332Y-156614106D01*
X97044459Y-156681983D01*
X97044446Y-156681990D01*
X96896965Y-156780535D01*
X96896963Y-156780537D01*
X96771538Y-156905961D01*
X96771535Y-156905965D01*
X96672990Y-157053446D01*
X96672983Y-157053459D01*
X96634561Y-157146222D01*
X96590721Y-157200626D01*
X96524427Y-157222691D01*
X96456727Y-157205412D01*
X96409116Y-157154275D01*
X96405439Y-157146222D01*
X96367016Y-157053459D01*
X96367009Y-157053446D01*
X96268464Y-156905965D01*
X96268461Y-156905961D01*
X96143037Y-156780537D01*
X96143034Y-156780535D01*
X95995553Y-156681990D01*
X95995540Y-156681983D01*
X95831667Y-156614106D01*
X95831658Y-156614103D01*
X95657694Y-156579500D01*
X95657691Y-156579500D01*
X74699691Y-156579500D01*
X74522309Y-156579500D01*
X74522306Y-156579500D01*
X74348341Y-156614103D01*
X74348332Y-156614106D01*
X74184459Y-156681983D01*
X74184446Y-156681990D01*
X74036965Y-156780535D01*
X74036963Y-156780537D01*
X73911538Y-156905961D01*
X73911535Y-156905965D01*
X73812990Y-157053446D01*
X73812983Y-157053459D01*
X73774561Y-157146222D01*
X73730721Y-157200626D01*
X73664427Y-157222691D01*
X73596727Y-157205412D01*
X73549116Y-157154275D01*
X73545439Y-157146222D01*
X73507016Y-157053459D01*
X73507009Y-157053446D01*
X73408464Y-156905965D01*
X73408461Y-156905961D01*
X73283037Y-156780537D01*
X73283034Y-156780535D01*
X73135553Y-156681990D01*
X73135540Y-156681983D01*
X72971667Y-156614106D01*
X72971658Y-156614103D01*
X72797694Y-156579500D01*
X72797691Y-156579500D01*
X71761309Y-156579500D01*
X71761306Y-156579500D01*
X71587341Y-156614103D01*
X71587332Y-156614106D01*
X71423459Y-156681983D01*
X71423446Y-156681990D01*
X71275966Y-156780534D01*
X71275964Y-156780537D01*
X69468391Y-158588109D01*
X69407068Y-158621594D01*
X69337376Y-158616610D01*
X69293029Y-158588109D01*
X62056423Y-151351503D01*
X62022938Y-151290180D01*
X62020657Y-151274708D01*
X62020500Y-151273716D01*
X62020500Y-151273713D01*
X61987246Y-151063757D01*
X61921557Y-150861588D01*
X61825051Y-150672184D01*
X61825049Y-150672181D01*
X61825048Y-150672179D01*
X61700109Y-150500213D01*
X61549786Y-150349890D01*
X61377820Y-150224951D01*
X61377115Y-150224591D01*
X61369054Y-150220485D01*
X61318259Y-150172512D01*
X61301463Y-150104692D01*
X61323999Y-150038556D01*
X61369054Y-149999515D01*
X61377816Y-149995051D01*
X61399789Y-149979086D01*
X61549786Y-149870109D01*
X61549788Y-149870106D01*
X61549792Y-149870104D01*
X61700104Y-149719792D01*
X61700106Y-149719788D01*
X61700109Y-149719786D01*
X61825048Y-149547820D01*
X61825047Y-149547820D01*
X61825051Y-149547816D01*
X61921557Y-149358412D01*
X61987246Y-149156243D01*
X62020500Y-148946287D01*
X62020500Y-148733713D01*
X61987246Y-148523757D01*
X61921557Y-148321588D01*
X61825051Y-148132184D01*
X61825049Y-148132181D01*
X61825048Y-148132179D01*
X61700109Y-147960213D01*
X61549786Y-147809890D01*
X61377820Y-147684951D01*
X61377115Y-147684591D01*
X61369054Y-147680485D01*
X61318259Y-147632512D01*
X61301463Y-147564692D01*
X61323999Y-147498556D01*
X61369054Y-147459515D01*
X61377816Y-147455051D01*
X61399789Y-147439086D01*
X61549786Y-147330109D01*
X61549788Y-147330106D01*
X61549792Y-147330104D01*
X61700104Y-147179792D01*
X61700106Y-147179788D01*
X61700109Y-147179786D01*
X61825048Y-147007820D01*
X61825047Y-147007820D01*
X61825051Y-147007816D01*
X61921557Y-146818412D01*
X61987246Y-146616243D01*
X62020500Y-146406287D01*
X62020500Y-146193713D01*
X61987246Y-145983757D01*
X61921557Y-145781588D01*
X61825051Y-145592184D01*
X61825049Y-145592181D01*
X61825048Y-145592179D01*
X61700109Y-145420213D01*
X61549786Y-145269890D01*
X61377820Y-145144951D01*
X61377115Y-145144591D01*
X61369054Y-145140485D01*
X61318259Y-145092512D01*
X61301463Y-145024692D01*
X61323999Y-144958556D01*
X61369054Y-144919515D01*
X61377816Y-144915051D01*
X61401387Y-144897926D01*
X61549786Y-144790109D01*
X61549788Y-144790106D01*
X61549792Y-144790104D01*
X61700104Y-144639792D01*
X61700106Y-144639788D01*
X61700109Y-144639786D01*
X61825048Y-144467820D01*
X61825047Y-144467820D01*
X61825051Y-144467816D01*
X61921557Y-144278412D01*
X61987246Y-144076243D01*
X62020500Y-143866287D01*
X62020500Y-143653713D01*
X61987246Y-143443757D01*
X61921557Y-143241588D01*
X61825051Y-143052184D01*
X61825049Y-143052181D01*
X61825048Y-143052179D01*
X61700109Y-142880213D01*
X61549786Y-142729890D01*
X61377820Y-142604951D01*
X61377115Y-142604591D01*
X61369054Y-142600485D01*
X61318259Y-142552512D01*
X61301463Y-142484692D01*
X61323999Y-142418556D01*
X61369054Y-142379515D01*
X61377816Y-142375051D01*
X61425350Y-142340516D01*
X61549786Y-142250109D01*
X61549788Y-142250106D01*
X61549792Y-142250104D01*
X61700104Y-142099792D01*
X61700106Y-142099788D01*
X61700109Y-142099786D01*
X61825048Y-141927820D01*
X61825047Y-141927820D01*
X61825051Y-141927816D01*
X61921557Y-141738412D01*
X61987246Y-141536243D01*
X62020500Y-141326287D01*
X62020500Y-141113713D01*
X61987246Y-140903757D01*
X61921557Y-140701588D01*
X61825051Y-140512184D01*
X61825049Y-140512181D01*
X61825048Y-140512179D01*
X61700109Y-140340213D01*
X61549786Y-140189890D01*
X61377820Y-140064951D01*
X61377115Y-140064591D01*
X61369054Y-140060485D01*
X61318259Y-140012512D01*
X61301463Y-139944692D01*
X61323999Y-139878556D01*
X61369054Y-139839515D01*
X61377816Y-139835051D01*
X61399789Y-139819086D01*
X61549786Y-139710109D01*
X61549788Y-139710106D01*
X61549792Y-139710104D01*
X61700104Y-139559792D01*
X61700106Y-139559788D01*
X61700109Y-139559786D01*
X61825048Y-139387820D01*
X61825047Y-139387820D01*
X61825051Y-139387816D01*
X61921557Y-139198412D01*
X61987246Y-138996243D01*
X62020500Y-138786287D01*
X62020500Y-138573713D01*
X61987246Y-138363757D01*
X61921557Y-138161588D01*
X61825051Y-137972184D01*
X61825049Y-137972181D01*
X61825048Y-137972179D01*
X61700109Y-137800213D01*
X61549786Y-137649890D01*
X61377820Y-137524951D01*
X61377115Y-137524591D01*
X61369054Y-137520485D01*
X61318259Y-137472512D01*
X61301463Y-137404692D01*
X61323999Y-137338556D01*
X61369054Y-137299515D01*
X61377816Y-137295051D01*
X61427615Y-137258870D01*
X61549786Y-137170109D01*
X61549788Y-137170106D01*
X61549792Y-137170104D01*
X61700104Y-137019792D01*
X61700106Y-137019788D01*
X61700109Y-137019786D01*
X61825048Y-136847820D01*
X61825047Y-136847820D01*
X61825051Y-136847816D01*
X61921557Y-136658412D01*
X61987246Y-136456243D01*
X62020500Y-136246287D01*
X62020500Y-136033713D01*
X61987246Y-135823757D01*
X61921557Y-135621588D01*
X61825051Y-135432184D01*
X61825049Y-135432181D01*
X61825048Y-135432179D01*
X61700109Y-135260213D01*
X61549786Y-135109890D01*
X61377820Y-134984951D01*
X61377115Y-134984591D01*
X61369054Y-134980485D01*
X61318259Y-134932512D01*
X61301463Y-134864692D01*
X61323999Y-134798556D01*
X61369054Y-134759515D01*
X61377816Y-134755051D01*
X61399789Y-134739086D01*
X61549786Y-134630109D01*
X61549788Y-134630106D01*
X61549792Y-134630104D01*
X61700104Y-134479792D01*
X61700106Y-134479788D01*
X61700109Y-134479786D01*
X61825048Y-134307820D01*
X61825047Y-134307820D01*
X61825051Y-134307816D01*
X61921557Y-134118412D01*
X61987246Y-133916243D01*
X62020500Y-133706287D01*
X62020500Y-133493713D01*
X61987246Y-133283757D01*
X61921557Y-133081588D01*
X61825051Y-132892184D01*
X61825049Y-132892181D01*
X61825048Y-132892179D01*
X61700109Y-132720213D01*
X61549786Y-132569890D01*
X61377820Y-132444951D01*
X61377115Y-132444591D01*
X61369054Y-132440485D01*
X61318259Y-132392512D01*
X61301463Y-132324692D01*
X61323999Y-132258556D01*
X61369054Y-132219515D01*
X61377816Y-132215051D01*
X61473097Y-132145826D01*
X61549786Y-132090109D01*
X61549788Y-132090106D01*
X61549792Y-132090104D01*
X61700104Y-131939792D01*
X61700106Y-131939788D01*
X61700109Y-131939786D01*
X61825048Y-131767820D01*
X61825047Y-131767820D01*
X61825051Y-131767816D01*
X61921557Y-131578412D01*
X61987246Y-131376243D01*
X62020500Y-131166287D01*
X62020500Y-130953713D01*
X61987246Y-130743757D01*
X61921557Y-130541588D01*
X61825051Y-130352184D01*
X61825049Y-130352181D01*
X61825048Y-130352179D01*
X61700109Y-130180213D01*
X61549786Y-130029890D01*
X61377820Y-129904951D01*
X61377115Y-129904591D01*
X61369054Y-129900485D01*
X61318259Y-129852512D01*
X61301463Y-129784692D01*
X61323999Y-129718556D01*
X61369054Y-129679515D01*
X61377816Y-129675051D01*
X61473097Y-129605826D01*
X61549786Y-129550109D01*
X61549788Y-129550106D01*
X61549792Y-129550104D01*
X61700104Y-129399792D01*
X61700106Y-129399788D01*
X61700109Y-129399786D01*
X61825048Y-129227820D01*
X61825047Y-129227820D01*
X61825051Y-129227816D01*
X61921557Y-129038412D01*
X61987246Y-128836243D01*
X62020500Y-128626287D01*
X62020500Y-128413713D01*
X61987246Y-128203757D01*
X61921557Y-128001588D01*
X61825051Y-127812184D01*
X61825049Y-127812181D01*
X61825048Y-127812179D01*
X61700109Y-127640213D01*
X61549786Y-127489890D01*
X61377820Y-127364951D01*
X61377115Y-127364591D01*
X61369054Y-127360485D01*
X61318259Y-127312512D01*
X61301463Y-127244692D01*
X61323999Y-127178556D01*
X61369054Y-127139515D01*
X61377816Y-127135051D01*
X61425149Y-127100662D01*
X61549786Y-127010109D01*
X61549788Y-127010106D01*
X61549792Y-127010104D01*
X61700104Y-126859792D01*
X61700106Y-126859788D01*
X61700109Y-126859786D01*
X61825048Y-126687820D01*
X61825047Y-126687820D01*
X61825051Y-126687816D01*
X61921557Y-126498412D01*
X61987246Y-126296243D01*
X62020500Y-126086287D01*
X62020500Y-125873713D01*
X61987246Y-125663757D01*
X61921557Y-125461588D01*
X61825051Y-125272184D01*
X61825049Y-125272181D01*
X61825048Y-125272179D01*
X61700109Y-125100213D01*
X61549786Y-124949890D01*
X61377820Y-124824951D01*
X61377115Y-124824591D01*
X61369054Y-124820485D01*
X61318259Y-124772512D01*
X61301463Y-124704692D01*
X61323999Y-124638556D01*
X61369054Y-124599515D01*
X61377816Y-124595051D01*
X61399789Y-124579086D01*
X61549786Y-124470109D01*
X61549788Y-124470106D01*
X61549792Y-124470104D01*
X61700104Y-124319792D01*
X61700106Y-124319788D01*
X61700109Y-124319786D01*
X61825048Y-124147820D01*
X61825047Y-124147820D01*
X61825051Y-124147816D01*
X61921557Y-123958412D01*
X61987246Y-123756243D01*
X62020500Y-123546287D01*
X62020500Y-123333713D01*
X61987246Y-123123757D01*
X61921557Y-122921588D01*
X61825051Y-122732184D01*
X61825049Y-122732181D01*
X61825048Y-122732179D01*
X61700109Y-122560213D01*
X61549786Y-122409890D01*
X61377820Y-122284951D01*
X61377115Y-122284591D01*
X61369054Y-122280485D01*
X61318259Y-122232512D01*
X61301463Y-122164692D01*
X61323999Y-122098556D01*
X61369054Y-122059515D01*
X61377816Y-122055051D01*
X61444515Y-122006592D01*
X61549786Y-121930109D01*
X61549788Y-121930106D01*
X61549792Y-121930104D01*
X61700104Y-121779792D01*
X61700106Y-121779788D01*
X61700109Y-121779786D01*
X61825048Y-121607820D01*
X61825047Y-121607820D01*
X61825051Y-121607816D01*
X61921557Y-121418412D01*
X61987246Y-121216243D01*
X62020500Y-121006287D01*
X62020500Y-120793713D01*
X61987246Y-120583757D01*
X61921557Y-120381588D01*
X61825051Y-120192184D01*
X61825049Y-120192181D01*
X61825048Y-120192179D01*
X61700109Y-120020213D01*
X61549786Y-119869890D01*
X61377820Y-119744951D01*
X61377115Y-119744591D01*
X61369054Y-119740485D01*
X61318259Y-119692512D01*
X61301463Y-119624692D01*
X61323999Y-119558556D01*
X61369054Y-119519515D01*
X61377816Y-119515051D01*
X61406305Y-119494353D01*
X61549786Y-119390109D01*
X61549788Y-119390106D01*
X61549792Y-119390104D01*
X61700104Y-119239792D01*
X61700106Y-119239788D01*
X61700109Y-119239786D01*
X61825048Y-119067820D01*
X61825047Y-119067820D01*
X61825051Y-119067816D01*
X61921557Y-118878412D01*
X61987246Y-118676243D01*
X62020500Y-118466287D01*
X62020500Y-118253713D01*
X61987246Y-118043757D01*
X61921557Y-117841588D01*
X61825051Y-117652184D01*
X61825049Y-117652181D01*
X61825048Y-117652179D01*
X61700109Y-117480213D01*
X61549786Y-117329890D01*
X61377820Y-117204951D01*
X61377115Y-117204591D01*
X61369054Y-117200485D01*
X61318259Y-117152512D01*
X61301463Y-117084692D01*
X61323999Y-117018556D01*
X61369054Y-116979515D01*
X61377816Y-116975051D01*
X61464036Y-116912409D01*
X61549786Y-116850109D01*
X61549788Y-116850106D01*
X61549792Y-116850104D01*
X61700104Y-116699792D01*
X61700106Y-116699788D01*
X61700109Y-116699786D01*
X61825048Y-116527820D01*
X61825047Y-116527820D01*
X61825051Y-116527816D01*
X61921557Y-116338412D01*
X61987246Y-116136243D01*
X62020500Y-115926287D01*
X62020500Y-115713713D01*
X61987246Y-115503757D01*
X61921557Y-115301588D01*
X61825051Y-115112184D01*
X61825049Y-115112181D01*
X61825048Y-115112179D01*
X61700109Y-114940213D01*
X61549786Y-114789890D01*
X61377820Y-114664951D01*
X61377115Y-114664591D01*
X61369054Y-114660485D01*
X61318259Y-114612512D01*
X61301463Y-114544692D01*
X61323999Y-114478556D01*
X61369054Y-114439515D01*
X61377816Y-114435051D01*
X61399789Y-114419086D01*
X61549786Y-114310109D01*
X61549788Y-114310106D01*
X61549792Y-114310104D01*
X61700104Y-114159792D01*
X61700106Y-114159788D01*
X61700109Y-114159786D01*
X61825048Y-113987820D01*
X61825047Y-113987820D01*
X61825051Y-113987816D01*
X61921557Y-113798412D01*
X61987246Y-113596243D01*
X62020500Y-113386287D01*
X62020500Y-113173713D01*
X61987246Y-112963757D01*
X61921557Y-112761588D01*
X61825051Y-112572184D01*
X61825049Y-112572181D01*
X61825048Y-112572179D01*
X61700109Y-112400213D01*
X61549786Y-112249890D01*
X61377820Y-112124951D01*
X61377115Y-112124591D01*
X61369054Y-112120485D01*
X61318259Y-112072512D01*
X61301463Y-112004692D01*
X61323999Y-111938556D01*
X61369054Y-111899515D01*
X61377816Y-111895051D01*
X61417408Y-111866286D01*
X61549786Y-111770109D01*
X61549788Y-111770106D01*
X61549792Y-111770104D01*
X61700104Y-111619792D01*
X61700106Y-111619788D01*
X61700109Y-111619786D01*
X61825048Y-111447820D01*
X61825047Y-111447820D01*
X61825051Y-111447816D01*
X61921557Y-111258412D01*
X61987246Y-111056243D01*
X62020500Y-110846287D01*
X62020500Y-110633713D01*
X61987246Y-110423757D01*
X61921557Y-110221588D01*
X61825051Y-110032184D01*
X61825049Y-110032181D01*
X61825048Y-110032179D01*
X61700109Y-109860213D01*
X61549786Y-109709890D01*
X61377820Y-109584951D01*
X61377115Y-109584591D01*
X61369054Y-109580485D01*
X61318259Y-109532512D01*
X61301463Y-109464692D01*
X61323999Y-109398556D01*
X61369054Y-109359515D01*
X61377816Y-109355051D01*
X61473097Y-109285826D01*
X61549786Y-109230109D01*
X61549788Y-109230106D01*
X61549792Y-109230104D01*
X61700104Y-109079792D01*
X61700106Y-109079788D01*
X61700109Y-109079786D01*
X61825048Y-108907820D01*
X61825047Y-108907820D01*
X61825051Y-108907816D01*
X61921557Y-108718412D01*
X61987246Y-108516243D01*
X62020500Y-108306287D01*
X62020500Y-108093713D01*
X61987246Y-107883757D01*
X61921557Y-107681588D01*
X61825051Y-107492184D01*
X61825049Y-107492181D01*
X61825048Y-107492179D01*
X61700109Y-107320213D01*
X61549786Y-107169890D01*
X61377820Y-107044951D01*
X61377115Y-107044591D01*
X61369054Y-107040485D01*
X61318259Y-106992512D01*
X61301463Y-106924692D01*
X61323999Y-106858556D01*
X61369054Y-106819515D01*
X61377816Y-106815051D01*
X61473097Y-106745826D01*
X61549786Y-106690109D01*
X61549788Y-106690106D01*
X61549792Y-106690104D01*
X61700104Y-106539792D01*
X61700106Y-106539788D01*
X61700109Y-106539786D01*
X61825048Y-106367820D01*
X61825047Y-106367820D01*
X61825051Y-106367816D01*
X61921557Y-106178412D01*
X61987246Y-105976243D01*
X62020500Y-105766287D01*
X62020500Y-105553713D01*
X61987246Y-105343757D01*
X61921557Y-105141588D01*
X61825051Y-104952184D01*
X61825049Y-104952181D01*
X61825048Y-104952179D01*
X61700109Y-104780213D01*
X61549786Y-104629890D01*
X61377820Y-104504951D01*
X61377115Y-104504591D01*
X61369054Y-104500485D01*
X61318259Y-104452512D01*
X61301463Y-104384692D01*
X61323999Y-104318556D01*
X61369054Y-104279515D01*
X61377816Y-104275051D01*
X61399789Y-104259086D01*
X61549786Y-104150109D01*
X61549788Y-104150106D01*
X61549792Y-104150104D01*
X61700104Y-103999792D01*
X61700106Y-103999788D01*
X61700109Y-103999786D01*
X61825048Y-103827820D01*
X61825047Y-103827820D01*
X61825051Y-103827816D01*
X61921557Y-103638412D01*
X61987246Y-103436243D01*
X62011405Y-103283713D01*
X84719500Y-103283713D01*
X84719500Y-103496286D01*
X84752753Y-103706239D01*
X84818444Y-103908414D01*
X84914951Y-104097820D01*
X85039890Y-104269786D01*
X85190213Y-104420109D01*
X85362182Y-104545050D01*
X85370946Y-104549516D01*
X85421742Y-104597491D01*
X85438536Y-104665312D01*
X85415998Y-104731447D01*
X85370946Y-104770484D01*
X85362182Y-104774949D01*
X85190213Y-104899890D01*
X85039890Y-105050213D01*
X84914951Y-105222179D01*
X84818444Y-105411585D01*
X84752753Y-105613760D01*
X84719500Y-105823713D01*
X84719500Y-106036286D01*
X84742010Y-106178412D01*
X84752754Y-106246243D01*
X84790973Y-106363869D01*
X84818444Y-106448414D01*
X84914951Y-106637820D01*
X85039890Y-106809786D01*
X85190213Y-106960109D01*
X85362182Y-107085050D01*
X85370946Y-107089516D01*
X85421742Y-107137491D01*
X85438536Y-107205312D01*
X85415998Y-107271447D01*
X85370946Y-107310484D01*
X85362182Y-107314949D01*
X85190213Y-107439890D01*
X85039890Y-107590213D01*
X84914951Y-107762179D01*
X84818444Y-107951585D01*
X84818443Y-107951587D01*
X84818443Y-107951588D01*
X84797856Y-108014947D01*
X84752753Y-108153760D01*
X84719500Y-108363713D01*
X84719500Y-108576286D01*
X84742010Y-108718412D01*
X84752754Y-108786243D01*
X84796318Y-108920320D01*
X84818444Y-108988414D01*
X84914951Y-109177820D01*
X85039890Y-109349786D01*
X85190213Y-109500109D01*
X85362182Y-109625050D01*
X85370946Y-109629516D01*
X85421742Y-109677491D01*
X85438536Y-109745312D01*
X85415998Y-109811447D01*
X85370946Y-109850484D01*
X85362182Y-109854949D01*
X85190213Y-109979890D01*
X85039890Y-110130213D01*
X84914951Y-110302179D01*
X84818444Y-110491585D01*
X84752753Y-110693760D01*
X84719500Y-110903713D01*
X84719500Y-111116286D01*
X84752753Y-111326239D01*
X84818444Y-111528414D01*
X84914951Y-111717820D01*
X85039890Y-111889786D01*
X85190213Y-112040109D01*
X85362182Y-112165050D01*
X85370946Y-112169516D01*
X85421742Y-112217491D01*
X85438536Y-112285312D01*
X85415998Y-112351447D01*
X85370946Y-112390484D01*
X85362182Y-112394949D01*
X85190213Y-112519890D01*
X85039890Y-112670213D01*
X84914951Y-112842179D01*
X84818444Y-113031585D01*
X84752753Y-113233760D01*
X84719500Y-113443713D01*
X84719500Y-113656286D01*
X84742010Y-113798412D01*
X84752754Y-113866243D01*
X84753177Y-113867546D01*
X84818444Y-114068414D01*
X84914951Y-114257820D01*
X85039890Y-114429786D01*
X85190213Y-114580109D01*
X85362182Y-114705050D01*
X85370946Y-114709516D01*
X85421742Y-114757491D01*
X85438536Y-114825312D01*
X85415998Y-114891447D01*
X85370946Y-114930484D01*
X85362182Y-114934949D01*
X85190213Y-115059890D01*
X85039890Y-115210213D01*
X84914951Y-115382179D01*
X84818444Y-115571585D01*
X84752753Y-115773760D01*
X84719500Y-115983713D01*
X84719500Y-116196286D01*
X84751747Y-116399890D01*
X84752754Y-116406243D01*
X84812052Y-116588744D01*
X84818444Y-116608414D01*
X84914951Y-116797820D01*
X85039890Y-116969786D01*
X85190213Y-117120109D01*
X85362182Y-117245050D01*
X85370946Y-117249516D01*
X85421742Y-117297491D01*
X85438536Y-117365312D01*
X85415998Y-117431447D01*
X85370946Y-117470484D01*
X85362182Y-117474949D01*
X85190213Y-117599890D01*
X85039890Y-117750213D01*
X84914951Y-117922179D01*
X84818444Y-118111585D01*
X84752753Y-118313760D01*
X84719500Y-118523713D01*
X84719500Y-118736286D01*
X84742310Y-118880307D01*
X84752754Y-118946243D01*
X84812897Y-119131344D01*
X84818444Y-119148414D01*
X84914951Y-119337820D01*
X85039890Y-119509786D01*
X85190213Y-119660109D01*
X85362182Y-119785050D01*
X85370946Y-119789516D01*
X85421742Y-119837491D01*
X85438536Y-119905312D01*
X85415998Y-119971447D01*
X85370946Y-120010484D01*
X85362182Y-120014949D01*
X85190213Y-120139890D01*
X85039890Y-120290213D01*
X84914951Y-120462179D01*
X84818444Y-120651585D01*
X84752753Y-120853760D01*
X84719500Y-121063713D01*
X84719500Y-121276286D01*
X84746705Y-121448056D01*
X84752754Y-121486243D01*
X84806759Y-121652454D01*
X84818444Y-121688414D01*
X84914951Y-121877820D01*
X85039890Y-122049786D01*
X85190213Y-122200109D01*
X85362182Y-122325050D01*
X85370946Y-122329516D01*
X85421742Y-122377491D01*
X85438536Y-122445312D01*
X85415998Y-122511447D01*
X85370946Y-122550484D01*
X85362182Y-122554949D01*
X85190213Y-122679890D01*
X85039890Y-122830213D01*
X84914951Y-123002179D01*
X84818444Y-123191585D01*
X84752753Y-123393760D01*
X84719500Y-123603713D01*
X84719500Y-123816286D01*
X84752753Y-124026239D01*
X84818444Y-124228414D01*
X84914951Y-124417820D01*
X85039890Y-124589786D01*
X85190213Y-124740109D01*
X85362182Y-124865050D01*
X85370946Y-124869516D01*
X85421742Y-124917491D01*
X85438536Y-124985312D01*
X85415998Y-125051447D01*
X85370946Y-125090484D01*
X85362182Y-125094949D01*
X85190213Y-125219890D01*
X85039890Y-125370213D01*
X84914951Y-125542179D01*
X84818444Y-125731585D01*
X84752753Y-125933760D01*
X84719500Y-126143713D01*
X84719500Y-126356286D01*
X84742010Y-126498412D01*
X84752754Y-126566243D01*
X84818050Y-126767204D01*
X84818444Y-126768414D01*
X84914951Y-126957820D01*
X85039890Y-127129786D01*
X85190213Y-127280109D01*
X85362182Y-127405050D01*
X85370946Y-127409516D01*
X85421742Y-127457491D01*
X85438536Y-127525312D01*
X85415998Y-127591447D01*
X85370946Y-127630484D01*
X85362182Y-127634949D01*
X85190213Y-127759890D01*
X85039890Y-127910213D01*
X84914951Y-128082179D01*
X84818444Y-128271585D01*
X84752753Y-128473760D01*
X84719500Y-128683713D01*
X84719500Y-128896286D01*
X84742010Y-129038412D01*
X84752754Y-129106243D01*
X84806871Y-129272798D01*
X84818444Y-129308414D01*
X84914951Y-129497820D01*
X85039890Y-129669786D01*
X85190213Y-129820109D01*
X85362182Y-129945050D01*
X85370946Y-129949516D01*
X85421742Y-129997491D01*
X85438536Y-130065312D01*
X85415998Y-130131447D01*
X85370946Y-130170484D01*
X85362182Y-130174949D01*
X85190213Y-130299890D01*
X85039890Y-130450213D01*
X84914951Y-130622179D01*
X84818444Y-130811585D01*
X84818443Y-130811587D01*
X84818443Y-130811588D01*
X84797856Y-130874947D01*
X84752753Y-131013760D01*
X84719500Y-131223713D01*
X84719500Y-131436286D01*
X84742010Y-131578412D01*
X84752754Y-131646243D01*
X84790973Y-131763869D01*
X84818444Y-131848414D01*
X84914951Y-132037820D01*
X85039890Y-132209786D01*
X85190213Y-132360109D01*
X85362182Y-132485050D01*
X85370946Y-132489516D01*
X85421742Y-132537491D01*
X85438536Y-132605312D01*
X85415998Y-132671447D01*
X85370946Y-132710484D01*
X85362182Y-132714949D01*
X85190213Y-132839890D01*
X85039890Y-132990213D01*
X84914951Y-133162179D01*
X84818444Y-133351585D01*
X84752753Y-133553760D01*
X84719500Y-133763713D01*
X84719500Y-133976286D01*
X84742010Y-134118412D01*
X84752754Y-134186243D01*
X84786304Y-134289500D01*
X84818444Y-134388414D01*
X84914951Y-134577820D01*
X85039890Y-134749786D01*
X85190213Y-134900109D01*
X85362182Y-135025050D01*
X85370946Y-135029516D01*
X85421742Y-135077491D01*
X85438536Y-135145312D01*
X85415998Y-135211447D01*
X85370946Y-135250484D01*
X85362182Y-135254949D01*
X85190213Y-135379890D01*
X85039890Y-135530213D01*
X84914951Y-135702179D01*
X84818444Y-135891585D01*
X84752753Y-136093760D01*
X84719500Y-136303713D01*
X84719500Y-136516286D01*
X84742010Y-136658412D01*
X84752754Y-136726243D01*
X84753600Y-136728848D01*
X84818444Y-136928414D01*
X84914951Y-137117820D01*
X85039890Y-137289786D01*
X85190213Y-137440109D01*
X85362182Y-137565050D01*
X85370946Y-137569516D01*
X85421742Y-137617491D01*
X85438536Y-137685312D01*
X85415998Y-137751447D01*
X85370946Y-137790484D01*
X85362182Y-137794949D01*
X85190213Y-137919890D01*
X85039890Y-138070213D01*
X84914951Y-138242179D01*
X84818444Y-138431585D01*
X84752753Y-138633760D01*
X84719500Y-138843713D01*
X84719500Y-139056286D01*
X84752753Y-139266239D01*
X84818444Y-139468414D01*
X84914951Y-139657820D01*
X85039890Y-139829786D01*
X85190213Y-139980109D01*
X85362182Y-140105050D01*
X85370946Y-140109516D01*
X85421742Y-140157491D01*
X85438536Y-140225312D01*
X85415998Y-140291447D01*
X85370946Y-140330484D01*
X85362182Y-140334949D01*
X85190213Y-140459890D01*
X85039890Y-140610213D01*
X84914951Y-140782179D01*
X84818444Y-140971585D01*
X84752753Y-141173760D01*
X84728595Y-141326287D01*
X84719500Y-141383713D01*
X84719500Y-141596287D01*
X84723585Y-141622077D01*
X84742010Y-141738412D01*
X84752754Y-141806243D01*
X84792111Y-141927372D01*
X84818444Y-142008414D01*
X84914951Y-142197820D01*
X85039890Y-142369786D01*
X85190213Y-142520109D01*
X85362182Y-142645050D01*
X85370946Y-142649516D01*
X85421742Y-142697491D01*
X85438536Y-142765312D01*
X85415998Y-142831447D01*
X85370946Y-142870484D01*
X85362182Y-142874949D01*
X85190213Y-142999890D01*
X85039890Y-143150213D01*
X84914951Y-143322179D01*
X84818444Y-143511585D01*
X84752753Y-143713760D01*
X84719500Y-143923713D01*
X84719500Y-144136286D01*
X84742010Y-144278412D01*
X84752754Y-144346243D01*
X84783549Y-144441021D01*
X84818444Y-144548414D01*
X84914951Y-144737820D01*
X85039890Y-144909786D01*
X85190213Y-145060109D01*
X85362182Y-145185050D01*
X85370946Y-145189516D01*
X85421742Y-145237491D01*
X85438536Y-145305312D01*
X85415998Y-145371447D01*
X85370946Y-145410484D01*
X85362182Y-145414949D01*
X85190213Y-145539890D01*
X85039890Y-145690213D01*
X84914951Y-145862179D01*
X84818444Y-146051585D01*
X84752753Y-146253760D01*
X84719500Y-146463713D01*
X84719500Y-146676286D01*
X84752753Y-146886239D01*
X84818444Y-147088414D01*
X84914951Y-147277820D01*
X85039890Y-147449786D01*
X85190213Y-147600109D01*
X85362182Y-147725050D01*
X85370946Y-147729516D01*
X85421742Y-147777491D01*
X85438536Y-147845312D01*
X85415998Y-147911447D01*
X85370946Y-147950484D01*
X85362182Y-147954949D01*
X85190213Y-148079890D01*
X85039890Y-148230213D01*
X84914951Y-148402179D01*
X84818444Y-148591585D01*
X84752753Y-148793760D01*
X84719500Y-149003713D01*
X84719500Y-149216286D01*
X84752753Y-149426239D01*
X84818444Y-149628414D01*
X84914951Y-149817820D01*
X85039890Y-149989786D01*
X85190213Y-150140109D01*
X85362179Y-150265048D01*
X85362181Y-150265049D01*
X85362184Y-150265051D01*
X85371493Y-150269794D01*
X85422290Y-150317766D01*
X85439087Y-150385587D01*
X85416552Y-150451722D01*
X85371505Y-150490760D01*
X85362446Y-150495376D01*
X85362440Y-150495380D01*
X85308282Y-150534727D01*
X85308282Y-150534728D01*
X85940591Y-151167037D01*
X85877007Y-151184075D01*
X85762993Y-151249901D01*
X85669901Y-151342993D01*
X85604075Y-151457007D01*
X85587037Y-151520591D01*
X84954728Y-150888282D01*
X84954727Y-150888282D01*
X84915380Y-150942439D01*
X84818904Y-151131782D01*
X84753242Y-151333869D01*
X84753242Y-151333872D01*
X84720000Y-151543753D01*
X84720000Y-151756246D01*
X84753242Y-151966127D01*
X84753242Y-151966130D01*
X84818904Y-152168217D01*
X84915375Y-152357550D01*
X84954728Y-152411716D01*
X85587037Y-151779408D01*
X85604075Y-151842993D01*
X85669901Y-151957007D01*
X85762993Y-152050099D01*
X85877007Y-152115925D01*
X85940591Y-152132962D01*
X85339971Y-152733581D01*
X85418711Y-152850895D01*
X85419920Y-152854729D01*
X85422844Y-152857491D01*
X85430343Y-152887778D01*
X85439727Y-152917529D01*
X85438671Y-152921408D01*
X85439638Y-152925312D01*
X85429573Y-152954844D01*
X85421383Y-152984947D01*
X85418397Y-152987640D01*
X85417100Y-152991447D01*
X85372051Y-153030483D01*
X85362440Y-153035380D01*
X85308282Y-153074727D01*
X85308282Y-153074728D01*
X85940591Y-153707037D01*
X85877007Y-153724075D01*
X85762993Y-153789901D01*
X85669901Y-153882993D01*
X85604075Y-153997007D01*
X85587037Y-154060591D01*
X84954728Y-153428282D01*
X84954727Y-153428282D01*
X84915380Y-153482439D01*
X84818904Y-153671782D01*
X84753242Y-153873869D01*
X84753242Y-153873872D01*
X84720000Y-154083753D01*
X84720000Y-154296246D01*
X84753242Y-154506127D01*
X84753242Y-154506130D01*
X84818904Y-154708217D01*
X84915375Y-154897550D01*
X84954728Y-154951716D01*
X85587037Y-154319408D01*
X85604075Y-154382993D01*
X85669901Y-154497007D01*
X85762993Y-154590099D01*
X85877007Y-154655925D01*
X85940590Y-154672962D01*
X85308282Y-155305269D01*
X85308282Y-155305270D01*
X85362449Y-155344624D01*
X85551782Y-155441095D01*
X85753870Y-155506757D01*
X85963754Y-155540000D01*
X86176246Y-155540000D01*
X86386127Y-155506757D01*
X86386130Y-155506757D01*
X86588217Y-155441095D01*
X86777554Y-155344622D01*
X86831716Y-155305270D01*
X86831717Y-155305270D01*
X86199408Y-154672962D01*
X86262993Y-154655925D01*
X86377007Y-154590099D01*
X86470099Y-154497007D01*
X86535925Y-154382993D01*
X86552962Y-154319408D01*
X87185270Y-154951717D01*
X87185270Y-154951716D01*
X87224622Y-154897554D01*
X87321095Y-154708217D01*
X87386757Y-154506130D01*
X87386757Y-154506127D01*
X87420000Y-154296246D01*
X87420000Y-154083753D01*
X87386757Y-153873872D01*
X87386757Y-153873869D01*
X87321095Y-153671782D01*
X87224624Y-153482449D01*
X87185270Y-153428282D01*
X87185269Y-153428282D01*
X86552962Y-154060590D01*
X86535925Y-153997007D01*
X86470099Y-153882993D01*
X86377007Y-153789901D01*
X86262993Y-153724075D01*
X86199409Y-153707037D01*
X86831716Y-153074728D01*
X86777550Y-153035375D01*
X86767954Y-153030486D01*
X86717157Y-152982512D01*
X86700361Y-152914692D01*
X86722897Y-152848556D01*
X86767954Y-152809514D01*
X86777554Y-152804622D01*
X86831716Y-152765270D01*
X86831717Y-152765270D01*
X86199408Y-152132962D01*
X86262993Y-152115925D01*
X86377007Y-152050099D01*
X86470099Y-151957007D01*
X86535925Y-151842993D01*
X86552962Y-151779408D01*
X87185270Y-152411717D01*
X87185270Y-152411716D01*
X87224622Y-152357554D01*
X87321095Y-152168217D01*
X87386757Y-151966130D01*
X87386757Y-151966127D01*
X87420000Y-151756246D01*
X87420000Y-151543753D01*
X87386757Y-151333872D01*
X87386757Y-151333869D01*
X87321095Y-151131782D01*
X87224624Y-150942449D01*
X87185270Y-150888282D01*
X87185269Y-150888282D01*
X86552962Y-151520590D01*
X86535925Y-151457007D01*
X86470099Y-151342993D01*
X86377007Y-151249901D01*
X86262993Y-151184075D01*
X86199409Y-151167037D01*
X86831716Y-150534728D01*
X86777547Y-150495373D01*
X86777547Y-150495372D01*
X86768500Y-150490763D01*
X86717706Y-150442788D01*
X86700912Y-150374966D01*
X86723451Y-150308832D01*
X86768508Y-150269793D01*
X86777816Y-150265051D01*
X86905186Y-150172512D01*
X86949786Y-150140109D01*
X86949788Y-150140106D01*
X86949792Y-150140104D01*
X87100104Y-149989792D01*
X87100106Y-149989788D01*
X87100109Y-149989786D01*
X87225048Y-149817820D01*
X87225047Y-149817820D01*
X87225051Y-149817816D01*
X87321557Y-149628412D01*
X87387246Y-149426243D01*
X87420500Y-149216287D01*
X87420500Y-149003713D01*
X87387246Y-148793757D01*
X87321557Y-148591588D01*
X87225051Y-148402184D01*
X87225049Y-148402181D01*
X87225048Y-148402179D01*
X87100109Y-148230213D01*
X86949786Y-148079890D01*
X86777820Y-147954951D01*
X86777115Y-147954591D01*
X86769054Y-147950485D01*
X86718259Y-147902512D01*
X86701463Y-147834692D01*
X86723999Y-147768556D01*
X86769054Y-147729515D01*
X86777816Y-147725051D01*
X86892888Y-147641447D01*
X86949786Y-147600109D01*
X86949788Y-147600106D01*
X86949792Y-147600104D01*
X87100104Y-147449792D01*
X87100106Y-147449788D01*
X87100109Y-147449786D01*
X87225048Y-147277820D01*
X87225047Y-147277820D01*
X87225051Y-147277816D01*
X87321557Y-147088412D01*
X87387246Y-146886243D01*
X87420500Y-146676287D01*
X87420500Y-146463713D01*
X87387246Y-146253757D01*
X87321557Y-146051588D01*
X87225051Y-145862184D01*
X87225049Y-145862181D01*
X87225048Y-145862179D01*
X87100109Y-145690213D01*
X86949786Y-145539890D01*
X86777820Y-145414951D01*
X86777115Y-145414591D01*
X86769054Y-145410485D01*
X86718259Y-145362512D01*
X86701463Y-145294692D01*
X86723999Y-145228556D01*
X86769054Y-145189515D01*
X86777816Y-145185051D01*
X86905025Y-145092629D01*
X86949786Y-145060109D01*
X86949788Y-145060106D01*
X86949792Y-145060104D01*
X87100104Y-144909792D01*
X87100106Y-144909788D01*
X87100109Y-144909786D01*
X87225048Y-144737820D01*
X87225047Y-144737820D01*
X87225051Y-144737816D01*
X87321557Y-144548412D01*
X87387246Y-144346243D01*
X87420500Y-144136287D01*
X87420500Y-143923713D01*
X87387246Y-143713757D01*
X87321557Y-143511588D01*
X87250603Y-143372332D01*
X99499500Y-143372332D01*
X99499500Y-143647667D01*
X99499501Y-143647684D01*
X99535438Y-143920655D01*
X99535439Y-143920660D01*
X99535440Y-143920666D01*
X99571072Y-144053649D01*
X99606704Y-144186630D01*
X99712075Y-144441017D01*
X99712080Y-144441028D01*
X99727549Y-144467820D01*
X99849751Y-144679479D01*
X99849753Y-144679482D01*
X99849754Y-144679483D01*
X100017370Y-144897926D01*
X100017376Y-144897933D01*
X100212066Y-145092623D01*
X100212072Y-145092628D01*
X100430521Y-145260249D01*
X100531316Y-145318443D01*
X100668971Y-145397919D01*
X100668976Y-145397921D01*
X100668979Y-145397923D01*
X100923368Y-145503295D01*
X101189334Y-145574560D01*
X101462326Y-145610500D01*
X101462333Y-145610500D01*
X101737667Y-145610500D01*
X101737674Y-145610500D01*
X102010666Y-145574560D01*
X102276632Y-145503295D01*
X102531021Y-145397923D01*
X102769479Y-145260249D01*
X102987928Y-145092628D01*
X103182628Y-144897928D01*
X103350249Y-144679479D01*
X103487923Y-144441021D01*
X103593295Y-144186632D01*
X103664560Y-143920666D01*
X103700500Y-143647674D01*
X103700500Y-143372326D01*
X103664560Y-143099334D01*
X103593295Y-142833368D01*
X103487923Y-142578979D01*
X103487921Y-142578976D01*
X103487919Y-142578971D01*
X103400461Y-142427491D01*
X103350249Y-142340521D01*
X103182628Y-142122072D01*
X103182623Y-142122066D01*
X102987933Y-141927376D01*
X102987926Y-141927370D01*
X102769483Y-141759754D01*
X102769482Y-141759753D01*
X102769479Y-141759751D01*
X102674407Y-141704861D01*
X102531028Y-141622080D01*
X102531017Y-141622075D01*
X102276630Y-141516704D01*
X102143649Y-141481072D01*
X102010666Y-141445440D01*
X102010660Y-141445439D01*
X102010655Y-141445438D01*
X101737684Y-141409501D01*
X101737679Y-141409500D01*
X101737674Y-141409500D01*
X101462326Y-141409500D01*
X101462320Y-141409500D01*
X101462315Y-141409501D01*
X101189344Y-141445438D01*
X101189337Y-141445439D01*
X101189334Y-141445440D01*
X101133125Y-141460500D01*
X100923369Y-141516704D01*
X100668982Y-141622075D01*
X100668971Y-141622080D01*
X100430516Y-141759754D01*
X100212073Y-141927370D01*
X100212066Y-141927376D01*
X100017376Y-142122066D01*
X100017370Y-142122073D01*
X99849754Y-142340516D01*
X99712080Y-142578971D01*
X99712075Y-142578982D01*
X99606704Y-142833369D01*
X99535441Y-143099331D01*
X99535438Y-143099344D01*
X99499501Y-143372315D01*
X99499500Y-143372332D01*
X87250603Y-143372332D01*
X87225051Y-143322184D01*
X87225049Y-143322181D01*
X87225048Y-143322179D01*
X87100109Y-143150213D01*
X86949786Y-142999890D01*
X86777820Y-142874951D01*
X86777115Y-142874591D01*
X86769054Y-142870485D01*
X86718259Y-142822512D01*
X86701463Y-142754692D01*
X86723999Y-142688556D01*
X86769054Y-142649515D01*
X86777816Y-142645051D01*
X86892888Y-142561447D01*
X86949786Y-142520109D01*
X86949788Y-142520106D01*
X86949792Y-142520104D01*
X87100104Y-142369792D01*
X87100106Y-142369788D01*
X87100109Y-142369786D01*
X87225048Y-142197820D01*
X87225047Y-142197820D01*
X87225051Y-142197816D01*
X87321557Y-142008412D01*
X87387246Y-141806243D01*
X87420500Y-141596287D01*
X87420500Y-141383713D01*
X87387246Y-141173757D01*
X87321557Y-140971588D01*
X87225051Y-140782184D01*
X87225049Y-140782181D01*
X87225048Y-140782179D01*
X87100109Y-140610213D01*
X86949786Y-140459890D01*
X86777820Y-140334951D01*
X86777115Y-140334591D01*
X86769054Y-140330485D01*
X86718259Y-140282512D01*
X86701463Y-140214692D01*
X86723999Y-140148556D01*
X86769054Y-140109515D01*
X86777816Y-140105051D01*
X86892888Y-140021447D01*
X86949786Y-139980109D01*
X86949788Y-139980106D01*
X86949792Y-139980104D01*
X87100104Y-139829792D01*
X87100106Y-139829788D01*
X87100109Y-139829786D01*
X87225048Y-139657820D01*
X87225047Y-139657820D01*
X87225051Y-139657816D01*
X87321557Y-139468412D01*
X87387246Y-139266243D01*
X87420500Y-139056287D01*
X87420500Y-138843713D01*
X87387246Y-138633757D01*
X87321557Y-138431588D01*
X87225051Y-138242184D01*
X87225049Y-138242181D01*
X87225048Y-138242179D01*
X87100109Y-138070213D01*
X86949786Y-137919890D01*
X86777820Y-137794951D01*
X86777115Y-137794591D01*
X86769054Y-137790485D01*
X86718259Y-137742512D01*
X86701463Y-137674692D01*
X86723999Y-137608556D01*
X86769054Y-137569515D01*
X86777816Y-137565051D01*
X86839158Y-137520484D01*
X86949786Y-137440109D01*
X86949788Y-137440106D01*
X86949792Y-137440104D01*
X87100104Y-137289792D01*
X87100106Y-137289788D01*
X87100109Y-137289786D01*
X87225048Y-137117820D01*
X87225047Y-137117820D01*
X87225051Y-137117816D01*
X87321557Y-136928412D01*
X87387246Y-136726243D01*
X87420500Y-136516287D01*
X87420500Y-136303713D01*
X87387246Y-136093757D01*
X87321557Y-135891588D01*
X87256567Y-135764038D01*
X94919500Y-135764038D01*
X94919500Y-136015961D01*
X94958910Y-136264785D01*
X95036760Y-136504383D01*
X95115243Y-136658412D01*
X95149804Y-136726243D01*
X95151132Y-136728848D01*
X95299201Y-136932649D01*
X95299205Y-136932654D01*
X95477345Y-137110794D01*
X95477350Y-137110798D01*
X95655117Y-137239952D01*
X95681155Y-137258870D01*
X95824184Y-137331747D01*
X95905616Y-137373239D01*
X95905618Y-137373239D01*
X95905621Y-137373241D01*
X96145215Y-137451090D01*
X96394038Y-137490500D01*
X96394039Y-137490500D01*
X96645961Y-137490500D01*
X96645962Y-137490500D01*
X96894785Y-137451090D01*
X97134379Y-137373241D01*
X97358845Y-137258870D01*
X97562656Y-137110793D01*
X97740793Y-136932656D01*
X97888870Y-136728845D01*
X98003241Y-136504379D01*
X98081090Y-136264785D01*
X98120500Y-136015962D01*
X98120500Y-135764038D01*
X98081090Y-135515215D01*
X98003241Y-135275621D01*
X98003239Y-135275618D01*
X98003239Y-135275616D01*
X97936845Y-135145312D01*
X97888870Y-135051155D01*
X97779129Y-134900109D01*
X97740798Y-134847350D01*
X97740794Y-134847345D01*
X97562654Y-134669205D01*
X97562649Y-134669201D01*
X97358848Y-134521132D01*
X97358847Y-134521131D01*
X97358845Y-134521130D01*
X97277703Y-134479786D01*
X97134383Y-134406760D01*
X96894785Y-134328910D01*
X96645962Y-134289500D01*
X96394038Y-134289500D01*
X96278396Y-134307816D01*
X96145214Y-134328910D01*
X95905616Y-134406760D01*
X95681151Y-134521132D01*
X95477350Y-134669201D01*
X95477345Y-134669205D01*
X95299205Y-134847345D01*
X95299201Y-134847350D01*
X95151132Y-135051151D01*
X95036760Y-135275616D01*
X94958910Y-135515214D01*
X94919500Y-135764038D01*
X87256567Y-135764038D01*
X87225051Y-135702184D01*
X87225049Y-135702181D01*
X87225048Y-135702179D01*
X87100109Y-135530213D01*
X86949786Y-135379890D01*
X86777820Y-135254951D01*
X86777115Y-135254591D01*
X86769054Y-135250485D01*
X86718259Y-135202512D01*
X86701463Y-135134692D01*
X86723999Y-135068556D01*
X86769054Y-135029515D01*
X86777816Y-135025051D01*
X86892888Y-134941447D01*
X86949786Y-134900109D01*
X86949788Y-134900106D01*
X86949792Y-134900104D01*
X87100104Y-134749792D01*
X87100106Y-134749788D01*
X87100109Y-134749786D01*
X87225048Y-134577820D01*
X87225047Y-134577820D01*
X87225051Y-134577816D01*
X87321557Y-134388412D01*
X87387246Y-134186243D01*
X87420500Y-133976287D01*
X87420500Y-133763713D01*
X87387246Y-133553757D01*
X87321557Y-133351588D01*
X87225051Y-133162184D01*
X87225049Y-133162181D01*
X87225048Y-133162179D01*
X87100109Y-132990213D01*
X86949786Y-132839890D01*
X86777820Y-132714951D01*
X86777115Y-132714591D01*
X86769054Y-132710485D01*
X86718259Y-132662512D01*
X86701463Y-132594692D01*
X86723999Y-132528556D01*
X86769054Y-132489515D01*
X86777816Y-132485051D01*
X86892888Y-132401447D01*
X86949786Y-132360109D01*
X86949788Y-132360106D01*
X86949792Y-132360104D01*
X87100104Y-132209792D01*
X87100106Y-132209788D01*
X87100109Y-132209786D01*
X87187058Y-132090109D01*
X87225051Y-132037816D01*
X87321557Y-131848412D01*
X87387246Y-131646243D01*
X87420500Y-131436287D01*
X87420500Y-131223713D01*
X87387246Y-131013757D01*
X87321557Y-130811588D01*
X87225051Y-130622184D01*
X87225049Y-130622181D01*
X87225048Y-130622179D01*
X87100109Y-130450213D01*
X86949786Y-130299890D01*
X86777820Y-130174951D01*
X86777115Y-130174591D01*
X86769054Y-130170485D01*
X86718259Y-130122512D01*
X86701463Y-130054692D01*
X86723999Y-129988556D01*
X86769054Y-129949515D01*
X86777816Y-129945051D01*
X86848696Y-129893554D01*
X86949786Y-129820109D01*
X86949788Y-129820106D01*
X86949792Y-129820104D01*
X87100104Y-129669792D01*
X87100106Y-129669788D01*
X87100109Y-129669786D01*
X87225048Y-129497820D01*
X87225047Y-129497820D01*
X87225051Y-129497816D01*
X87321557Y-129308412D01*
X87387246Y-129106243D01*
X87420500Y-128896287D01*
X87420500Y-128683713D01*
X87387246Y-128473757D01*
X87321557Y-128271588D01*
X87225051Y-128082184D01*
X87225049Y-128082181D01*
X87225048Y-128082179D01*
X87100109Y-127910213D01*
X86949786Y-127759890D01*
X86777820Y-127634951D01*
X86777115Y-127634591D01*
X86769054Y-127630485D01*
X86718259Y-127582512D01*
X86701463Y-127514692D01*
X86723999Y-127448556D01*
X86769054Y-127409515D01*
X86777816Y-127405051D01*
X86826085Y-127369982D01*
X94919500Y-127369982D01*
X94919500Y-129170017D01*
X94930000Y-129272796D01*
X94930001Y-129272798D01*
X94985186Y-129439335D01*
X95077288Y-129588656D01*
X95201344Y-129712712D01*
X95350665Y-129804814D01*
X95517202Y-129859999D01*
X95619990Y-129870500D01*
X95619995Y-129870500D01*
X97420005Y-129870500D01*
X97420010Y-129870500D01*
X97522798Y-129859999D01*
X97689335Y-129804814D01*
X97838656Y-129712712D01*
X97962712Y-129588656D01*
X98054814Y-129439335D01*
X98109999Y-129272798D01*
X98120500Y-129170010D01*
X98120500Y-127369990D01*
X98109999Y-127267202D01*
X98054814Y-127100665D01*
X97962712Y-126951344D01*
X97881351Y-126869983D01*
X99499500Y-126869983D01*
X99499500Y-129670001D01*
X99499501Y-129670018D01*
X99510000Y-129772796D01*
X99510001Y-129772799D01*
X99565185Y-129939331D01*
X99565187Y-129939336D01*
X99568712Y-129945051D01*
X99657288Y-130088656D01*
X99781344Y-130212712D01*
X99930666Y-130304814D01*
X100097203Y-130359999D01*
X100199991Y-130370500D01*
X103000008Y-130370499D01*
X103102797Y-130359999D01*
X103269334Y-130304814D01*
X103418656Y-130212712D01*
X103542712Y-130088656D01*
X103634814Y-129939334D01*
X103689999Y-129772797D01*
X103700500Y-129670009D01*
X103700499Y-128264966D01*
X103700499Y-126893713D01*
X123109500Y-126893713D01*
X123109500Y-127106286D01*
X123135177Y-127268408D01*
X123142754Y-127316243D01*
X123207234Y-127514692D01*
X123208444Y-127518414D01*
X123304951Y-127707820D01*
X123429890Y-127879786D01*
X123580213Y-128030109D01*
X123752179Y-128155048D01*
X123752181Y-128155049D01*
X123752184Y-128155051D01*
X123761493Y-128159794D01*
X123812290Y-128207766D01*
X123829087Y-128275587D01*
X123806552Y-128341722D01*
X123761505Y-128380760D01*
X123752446Y-128385376D01*
X123752440Y-128385380D01*
X123698282Y-128424727D01*
X123698282Y-128424728D01*
X124330591Y-129057037D01*
X124267007Y-129074075D01*
X124152993Y-129139901D01*
X124059901Y-129232993D01*
X123994075Y-129347007D01*
X123977037Y-129410591D01*
X123344728Y-128778282D01*
X123344727Y-128778282D01*
X123305380Y-128832439D01*
X123208904Y-129021782D01*
X123143242Y-129223869D01*
X123143242Y-129223872D01*
X123110000Y-129433753D01*
X123110000Y-129646246D01*
X123143242Y-129856127D01*
X123143242Y-129856130D01*
X123208904Y-130058217D01*
X123305375Y-130247550D01*
X123344728Y-130301716D01*
X123977037Y-129669408D01*
X123994075Y-129732993D01*
X124059901Y-129847007D01*
X124152993Y-129940099D01*
X124267007Y-130005925D01*
X124330591Y-130022962D01*
X123729971Y-130623581D01*
X123808711Y-130740895D01*
X123809920Y-130744729D01*
X123812844Y-130747491D01*
X123820343Y-130777778D01*
X123829727Y-130807529D01*
X123828671Y-130811408D01*
X123829638Y-130815312D01*
X123819573Y-130844844D01*
X123811383Y-130874947D01*
X123808397Y-130877640D01*
X123807100Y-130881447D01*
X123762051Y-130920483D01*
X123752440Y-130925380D01*
X123698282Y-130964727D01*
X123698282Y-130964728D01*
X124330591Y-131597037D01*
X124267007Y-131614075D01*
X124152993Y-131679901D01*
X124059901Y-131772993D01*
X123994075Y-131887007D01*
X123977037Y-131950591D01*
X123344728Y-131318282D01*
X123344727Y-131318282D01*
X123305380Y-131372439D01*
X123208904Y-131561782D01*
X123143242Y-131763869D01*
X123143242Y-131763872D01*
X123110000Y-131973753D01*
X123110000Y-132186246D01*
X123143242Y-132396127D01*
X123143242Y-132396130D01*
X123208904Y-132598217D01*
X123305375Y-132787550D01*
X123344728Y-132841716D01*
X123977037Y-132209408D01*
X123994075Y-132272993D01*
X124059901Y-132387007D01*
X124152993Y-132480099D01*
X124267007Y-132545925D01*
X124330590Y-132562962D01*
X123660370Y-133233181D01*
X123599047Y-133266666D01*
X123572698Y-133269500D01*
X123562134Y-133269500D01*
X123562123Y-133269501D01*
X123502516Y-133275908D01*
X123367671Y-133326202D01*
X123367664Y-133326206D01*
X123252455Y-133412452D01*
X123252452Y-133412455D01*
X123166206Y-133527664D01*
X123166202Y-133527671D01*
X123115908Y-133662517D01*
X123111203Y-133706286D01*
X123109501Y-133722123D01*
X123109500Y-133722135D01*
X123109500Y-135517870D01*
X123109501Y-135517876D01*
X123115908Y-135577483D01*
X123166202Y-135712328D01*
X123166206Y-135712335D01*
X123252452Y-135827544D01*
X123252455Y-135827547D01*
X123367664Y-135913793D01*
X123367671Y-135913797D01*
X123502517Y-135964091D01*
X123502516Y-135964091D01*
X123509444Y-135964835D01*
X123562127Y-135970500D01*
X125357872Y-135970499D01*
X125417483Y-135964091D01*
X125552331Y-135913796D01*
X125667546Y-135827546D01*
X125753796Y-135712331D01*
X125804091Y-135577483D01*
X125810500Y-135517873D01*
X125810499Y-133722128D01*
X125804091Y-133662517D01*
X125763527Y-133553760D01*
X125753797Y-133527671D01*
X125753793Y-133527664D01*
X125667547Y-133412455D01*
X125667544Y-133412452D01*
X125552335Y-133326206D01*
X125552328Y-133326202D01*
X125417482Y-133275908D01*
X125417483Y-133275908D01*
X125357883Y-133269501D01*
X125357881Y-133269500D01*
X125357873Y-133269500D01*
X125357865Y-133269500D01*
X125347309Y-133269500D01*
X125280270Y-133249815D01*
X125259628Y-133233181D01*
X124589408Y-132562962D01*
X124652993Y-132545925D01*
X124767007Y-132480099D01*
X124860099Y-132387007D01*
X124925925Y-132272993D01*
X124942962Y-132209409D01*
X125575270Y-132841717D01*
X125575270Y-132841716D01*
X125614622Y-132787554D01*
X125711095Y-132598217D01*
X125776757Y-132396130D01*
X125776757Y-132396127D01*
X125810000Y-132186246D01*
X125810000Y-131973753D01*
X125776757Y-131763872D01*
X125776757Y-131763869D01*
X125711095Y-131561782D01*
X125614624Y-131372449D01*
X125575270Y-131318282D01*
X125575269Y-131318282D01*
X124942962Y-131950590D01*
X124925925Y-131887007D01*
X124860099Y-131772993D01*
X124767007Y-131679901D01*
X124652993Y-131614075D01*
X124589409Y-131597037D01*
X125221716Y-130964728D01*
X125167550Y-130925375D01*
X125157954Y-130920486D01*
X125107157Y-130872512D01*
X125090361Y-130804692D01*
X125112897Y-130738556D01*
X125157954Y-130699514D01*
X125167554Y-130694622D01*
X125221716Y-130655270D01*
X125221717Y-130655270D01*
X124589408Y-130022962D01*
X124652993Y-130005925D01*
X124767007Y-129940099D01*
X124860099Y-129847007D01*
X124925925Y-129732993D01*
X124942962Y-129669409D01*
X125575270Y-130301717D01*
X125575270Y-130301716D01*
X125614622Y-130247554D01*
X125711095Y-130058217D01*
X125776757Y-129856130D01*
X125776757Y-129856127D01*
X125810000Y-129646246D01*
X125810000Y-129433753D01*
X125776757Y-129223872D01*
X125776757Y-129223869D01*
X125711095Y-129021782D01*
X125614624Y-128832449D01*
X125575270Y-128778282D01*
X125575269Y-128778282D01*
X124942962Y-129410590D01*
X124925925Y-129347007D01*
X124860099Y-129232993D01*
X124767007Y-129139901D01*
X124652993Y-129074075D01*
X124589409Y-129057037D01*
X125221716Y-128424728D01*
X125167547Y-128385373D01*
X125167547Y-128385372D01*
X125158500Y-128380763D01*
X125107706Y-128332788D01*
X125090912Y-128264966D01*
X125113451Y-128198832D01*
X125158508Y-128159793D01*
X125167816Y-128155051D01*
X125268110Y-128082184D01*
X125339786Y-128030109D01*
X125339788Y-128030106D01*
X125339792Y-128030104D01*
X125490104Y-127879792D01*
X125490106Y-127879788D01*
X125490109Y-127879786D01*
X125615048Y-127707820D01*
X125615047Y-127707820D01*
X125615051Y-127707816D01*
X125711557Y-127518412D01*
X125777246Y-127316243D01*
X125810500Y-127106287D01*
X125810500Y-126893713D01*
X125777246Y-126683757D01*
X125711557Y-126481588D01*
X125615051Y-126292184D01*
X125615049Y-126292181D01*
X125615048Y-126292179D01*
X125490109Y-126120213D01*
X125339786Y-125969890D01*
X125167820Y-125844951D01*
X124978414Y-125748444D01*
X124978413Y-125748443D01*
X124978412Y-125748443D01*
X124776243Y-125682754D01*
X124776241Y-125682753D01*
X124776240Y-125682753D01*
X124614957Y-125657208D01*
X124566287Y-125649500D01*
X124353713Y-125649500D01*
X124305042Y-125657208D01*
X124143760Y-125682753D01*
X123941585Y-125748444D01*
X123752179Y-125844951D01*
X123580213Y-125969890D01*
X123429890Y-126120213D01*
X123304951Y-126292179D01*
X123208444Y-126481585D01*
X123142753Y-126683760D01*
X123109500Y-126893713D01*
X103700499Y-126893713D01*
X103700499Y-126888841D01*
X103700499Y-126869998D01*
X103700498Y-126869981D01*
X103689999Y-126767203D01*
X103689998Y-126767200D01*
X103679390Y-126735187D01*
X103634814Y-126600666D01*
X103542712Y-126451344D01*
X103418656Y-126327288D01*
X103269334Y-126235186D01*
X103102797Y-126180001D01*
X103102795Y-126180000D01*
X103000010Y-126169500D01*
X100199998Y-126169500D01*
X100199981Y-126169501D01*
X100097203Y-126180000D01*
X100097200Y-126180001D01*
X99930668Y-126235185D01*
X99930663Y-126235187D01*
X99781342Y-126327289D01*
X99657289Y-126451342D01*
X99565187Y-126600663D01*
X99565186Y-126600666D01*
X99510001Y-126767203D01*
X99510001Y-126767204D01*
X99510000Y-126767204D01*
X99499500Y-126869983D01*
X97881351Y-126869983D01*
X97838656Y-126827288D01*
X97689335Y-126735186D01*
X97522798Y-126680001D01*
X97522796Y-126680000D01*
X97420017Y-126669500D01*
X97420010Y-126669500D01*
X95619990Y-126669500D01*
X95619982Y-126669500D01*
X95517203Y-126680000D01*
X95517202Y-126680001D01*
X95434669Y-126707349D01*
X95350667Y-126735185D01*
X95350662Y-126735187D01*
X95201342Y-126827289D01*
X95077289Y-126951342D01*
X94985187Y-127100662D01*
X94985185Y-127100667D01*
X94972313Y-127139514D01*
X94930001Y-127267202D01*
X94930001Y-127267203D01*
X94930000Y-127267203D01*
X94919500Y-127369982D01*
X86826085Y-127369982D01*
X86900051Y-127316243D01*
X86949786Y-127280109D01*
X86949788Y-127280106D01*
X86949792Y-127280104D01*
X87100104Y-127129792D01*
X87100106Y-127129788D01*
X87100109Y-127129786D01*
X87225048Y-126957820D01*
X87225047Y-126957820D01*
X87225051Y-126957816D01*
X87321557Y-126768412D01*
X87387246Y-126566243D01*
X87420500Y-126356287D01*
X87420500Y-126143713D01*
X87387246Y-125933757D01*
X87321557Y-125731588D01*
X87225051Y-125542184D01*
X87225049Y-125542181D01*
X87225048Y-125542179D01*
X87100109Y-125370213D01*
X86949786Y-125219890D01*
X86777820Y-125094951D01*
X86777115Y-125094591D01*
X86769054Y-125090485D01*
X86718259Y-125042512D01*
X86701463Y-124974692D01*
X86723999Y-124908556D01*
X86769054Y-124869515D01*
X86777816Y-124865051D01*
X86892888Y-124781447D01*
X86949786Y-124740109D01*
X86949788Y-124740106D01*
X86949792Y-124740104D01*
X87100104Y-124589792D01*
X87100106Y-124589788D01*
X87100109Y-124589786D01*
X87225048Y-124417820D01*
X87225047Y-124417820D01*
X87225051Y-124417816D01*
X87321557Y-124228412D01*
X87387246Y-124026243D01*
X87420500Y-123816287D01*
X87420500Y-123603713D01*
X87387246Y-123393757D01*
X87321557Y-123191588D01*
X87225051Y-123002184D01*
X87225049Y-123002181D01*
X87225048Y-123002179D01*
X87100109Y-122830213D01*
X86949786Y-122679890D01*
X86777820Y-122554951D01*
X86777115Y-122554591D01*
X86769054Y-122550485D01*
X86718259Y-122502512D01*
X86701463Y-122434692D01*
X86723999Y-122368556D01*
X86769054Y-122329515D01*
X86777816Y-122325051D01*
X86839158Y-122280484D01*
X86949786Y-122200109D01*
X86949788Y-122200106D01*
X86949792Y-122200104D01*
X87100104Y-122049792D01*
X87100106Y-122049788D01*
X87100109Y-122049786D01*
X87225048Y-121877820D01*
X87225047Y-121877820D01*
X87225051Y-121877816D01*
X87321557Y-121688412D01*
X87387246Y-121486243D01*
X87420500Y-121276287D01*
X87420500Y-121063713D01*
X87387246Y-120853757D01*
X87321557Y-120651588D01*
X87225051Y-120462184D01*
X87225049Y-120462181D01*
X87225048Y-120462179D01*
X87100109Y-120290213D01*
X86949786Y-120139890D01*
X86777820Y-120014951D01*
X86777115Y-120014591D01*
X86769054Y-120010485D01*
X86718259Y-119962512D01*
X86701463Y-119894692D01*
X86723999Y-119828556D01*
X86769054Y-119789515D01*
X86777816Y-119785051D01*
X86848696Y-119733554D01*
X86949786Y-119660109D01*
X86949788Y-119660106D01*
X86949792Y-119660104D01*
X87059913Y-119549983D01*
X92179500Y-119549983D01*
X92179500Y-121750001D01*
X92179501Y-121750018D01*
X92190000Y-121852796D01*
X92190001Y-121852799D01*
X92245185Y-122019331D01*
X92245187Y-122019336D01*
X92267214Y-122055048D01*
X92337288Y-122168656D01*
X92461344Y-122292712D01*
X92610666Y-122384814D01*
X92777203Y-122439999D01*
X92879991Y-122450500D01*
X95080008Y-122450499D01*
X95182797Y-122439999D01*
X95349334Y-122384814D01*
X95498656Y-122292712D01*
X95622712Y-122168656D01*
X95714814Y-122019334D01*
X95769999Y-121852797D01*
X95780500Y-121750009D01*
X95780499Y-120531995D01*
X97259500Y-120531995D01*
X97259500Y-120768004D01*
X97259501Y-120768020D01*
X97290306Y-121002010D01*
X97351394Y-121229993D01*
X97441714Y-121448045D01*
X97441719Y-121448056D01*
X97463767Y-121486243D01*
X97559727Y-121652450D01*
X97559729Y-121652453D01*
X97559730Y-121652454D01*
X97703406Y-121839697D01*
X97703412Y-121839704D01*
X97870295Y-122006587D01*
X97870302Y-122006593D01*
X97926600Y-122049792D01*
X98057550Y-122150273D01*
X98188918Y-122226118D01*
X98261943Y-122268280D01*
X98261948Y-122268282D01*
X98261951Y-122268284D01*
X98480007Y-122358606D01*
X98707986Y-122419693D01*
X98941989Y-122450500D01*
X98941996Y-122450500D01*
X99178004Y-122450500D01*
X99178011Y-122450500D01*
X99412014Y-122419693D01*
X99639993Y-122358606D01*
X99858049Y-122268284D01*
X100062450Y-122150273D01*
X100249699Y-122006592D01*
X100416592Y-121839699D01*
X100560273Y-121652450D01*
X100678284Y-121448049D01*
X100768606Y-121229993D01*
X100829693Y-121002014D01*
X100860500Y-120768011D01*
X100860500Y-120531989D01*
X100829693Y-120297986D01*
X100768606Y-120070007D01*
X100678284Y-119851951D01*
X100678282Y-119851948D01*
X100678280Y-119851943D01*
X100636118Y-119778918D01*
X100560273Y-119647550D01*
X100442721Y-119494353D01*
X100416593Y-119460302D01*
X100416587Y-119460295D01*
X100249704Y-119293412D01*
X100249697Y-119293406D01*
X100213519Y-119265646D01*
X105179500Y-119265646D01*
X105179500Y-119494353D01*
X105215278Y-119720246D01*
X105215278Y-119720249D01*
X105285950Y-119937755D01*
X105353336Y-120070007D01*
X105389783Y-120141538D01*
X105522525Y-120324242D01*
X105546005Y-120390046D01*
X105530180Y-120458100D01*
X105480074Y-120506795D01*
X105465541Y-120513308D01*
X105437670Y-120523703D01*
X105437664Y-120523706D01*
X105322455Y-120609952D01*
X105322452Y-120609955D01*
X105236206Y-120725164D01*
X105236202Y-120725171D01*
X105185908Y-120860017D01*
X105179501Y-120919616D01*
X105179501Y-120919623D01*
X105179500Y-120919635D01*
X105179500Y-122920370D01*
X105179501Y-122920376D01*
X105185908Y-122979983D01*
X105236202Y-123114828D01*
X105236206Y-123114835D01*
X105322452Y-123230044D01*
X105322455Y-123230047D01*
X105437664Y-123316293D01*
X105437671Y-123316297D01*
X105572517Y-123366591D01*
X105572516Y-123366591D01*
X105579444Y-123367335D01*
X105632127Y-123373000D01*
X107727872Y-123372999D01*
X107787483Y-123366591D01*
X107922331Y-123316296D01*
X108037546Y-123230046D01*
X108123796Y-123114831D01*
X108174091Y-122979983D01*
X108180500Y-122920373D01*
X108180499Y-120919628D01*
X108174091Y-120860017D01*
X108171757Y-120853760D01*
X108123797Y-120725171D01*
X108123796Y-120725169D01*
X108052335Y-120629710D01*
X108037546Y-120609954D01*
X108037544Y-120609953D01*
X108037544Y-120609952D01*
X107922335Y-120523706D01*
X107922328Y-120523702D01*
X107894459Y-120513308D01*
X107838525Y-120471437D01*
X107814108Y-120405973D01*
X107828960Y-120337700D01*
X107837460Y-120324260D01*
X107970217Y-120141538D01*
X108074048Y-119937758D01*
X108122215Y-119789514D01*
X108144721Y-119720249D01*
X108144721Y-119720248D01*
X108144722Y-119720245D01*
X108180500Y-119494354D01*
X108180500Y-119265646D01*
X108179914Y-119261947D01*
X112800000Y-119261947D01*
X112800000Y-119498052D01*
X112836934Y-119731247D01*
X112909897Y-119955802D01*
X113017087Y-120166174D01*
X113077338Y-120249104D01*
X113077340Y-120249105D01*
X113817037Y-119509408D01*
X113834075Y-119572993D01*
X113899901Y-119687007D01*
X113992993Y-119780099D01*
X114107007Y-119845925D01*
X114170590Y-119862962D01*
X113430893Y-120602658D01*
X113513828Y-120662914D01*
X113724197Y-120770102D01*
X113948752Y-120843065D01*
X113948751Y-120843065D01*
X114181948Y-120880000D01*
X114418052Y-120880000D01*
X114651247Y-120843065D01*
X114875802Y-120770102D01*
X115086163Y-120662918D01*
X115086169Y-120662914D01*
X115169104Y-120602658D01*
X115169105Y-120602658D01*
X114429408Y-119862962D01*
X114492993Y-119845925D01*
X114607007Y-119780099D01*
X114700099Y-119687007D01*
X114765925Y-119572993D01*
X114782962Y-119509409D01*
X115522658Y-120249105D01*
X115522658Y-120249104D01*
X115582914Y-120166169D01*
X115582918Y-120166163D01*
X115690102Y-119955802D01*
X115763065Y-119731247D01*
X115800000Y-119498052D01*
X115800000Y-119261947D01*
X115763065Y-119028752D01*
X115690102Y-118804197D01*
X115602939Y-118633129D01*
X115602938Y-118633127D01*
X115582916Y-118593830D01*
X115572855Y-118579983D01*
X117799500Y-118579983D01*
X117799500Y-120180001D01*
X117799501Y-120180018D01*
X117810000Y-120282796D01*
X117810001Y-120282799D01*
X117865185Y-120449331D01*
X117865186Y-120449334D01*
X117957288Y-120598656D01*
X118081344Y-120722712D01*
X118230666Y-120814814D01*
X118397203Y-120869999D01*
X118499991Y-120880500D01*
X120100008Y-120880499D01*
X120202797Y-120869999D01*
X120369334Y-120814814D01*
X120518656Y-120722712D01*
X120642712Y-120598656D01*
X120734814Y-120449334D01*
X120789999Y-120282797D01*
X120800500Y-120180009D01*
X120800499Y-118579992D01*
X120793440Y-118510893D01*
X120789999Y-118477203D01*
X120789998Y-118477200D01*
X120735838Y-118313757D01*
X120734814Y-118310666D01*
X120642712Y-118161344D01*
X120518656Y-118037288D01*
X120425888Y-117980069D01*
X120369336Y-117945187D01*
X120369331Y-117945185D01*
X120314452Y-117927000D01*
X120202797Y-117890001D01*
X120202795Y-117890000D01*
X120100010Y-117879500D01*
X118499998Y-117879500D01*
X118499981Y-117879501D01*
X118397203Y-117890000D01*
X118397200Y-117890001D01*
X118230668Y-117945185D01*
X118230663Y-117945187D01*
X118081342Y-118037289D01*
X117957289Y-118161342D01*
X117865187Y-118310663D01*
X117865185Y-118310668D01*
X117837349Y-118394670D01*
X117810001Y-118477203D01*
X117810001Y-118477204D01*
X117810000Y-118477204D01*
X117799500Y-118579983D01*
X115572855Y-118579983D01*
X115522658Y-118510894D01*
X115522658Y-118510893D01*
X114782962Y-119250590D01*
X114765925Y-119187007D01*
X114700099Y-119072993D01*
X114607007Y-118979901D01*
X114492993Y-118914075D01*
X114429409Y-118897037D01*
X115169105Y-118157340D01*
X115169104Y-118157338D01*
X115086174Y-118097087D01*
X114875802Y-117989897D01*
X114651247Y-117916934D01*
X114651248Y-117916934D01*
X114418052Y-117880000D01*
X114181948Y-117880000D01*
X113948752Y-117916934D01*
X113724197Y-117989897D01*
X113513830Y-118097084D01*
X113430894Y-118157340D01*
X114170591Y-118897037D01*
X114107007Y-118914075D01*
X113992993Y-118979901D01*
X113899901Y-119072993D01*
X113834075Y-119187007D01*
X113817037Y-119250591D01*
X113077340Y-118510894D01*
X113017084Y-118593830D01*
X112909897Y-118804197D01*
X112836934Y-119028752D01*
X112800000Y-119261947D01*
X108179914Y-119261947D01*
X108144722Y-119039755D01*
X108144721Y-119039751D01*
X108144721Y-119039750D01*
X108074049Y-118822244D01*
X107999658Y-118676243D01*
X107970217Y-118618462D01*
X107835786Y-118433434D01*
X107674066Y-118271714D01*
X107587153Y-118208568D01*
X107585214Y-118207038D01*
X107566359Y-118180472D01*
X107546470Y-118154678D01*
X107546251Y-118152139D01*
X107544776Y-118150060D01*
X107543277Y-118117506D01*
X107540491Y-118085064D01*
X107541680Y-118082810D01*
X107541563Y-118080264D01*
X107557895Y-118052079D01*
X107573097Y-118023269D01*
X107576095Y-118020670D01*
X107576594Y-118019811D01*
X107577806Y-118019188D01*
X107589137Y-118009371D01*
X107673739Y-117947905D01*
X107835402Y-117786242D01*
X107969788Y-117601276D01*
X108073582Y-117397570D01*
X108144234Y-117180128D01*
X108158509Y-117090000D01*
X107170748Y-117090000D01*
X107192518Y-117052292D01*
X107230000Y-116912409D01*
X107230000Y-116767591D01*
X107192518Y-116627708D01*
X107170748Y-116590000D01*
X108158509Y-116590000D01*
X108144234Y-116499871D01*
X108073582Y-116282429D01*
X107969788Y-116078723D01*
X107835402Y-115893757D01*
X107673742Y-115732097D01*
X107488776Y-115597711D01*
X107285068Y-115493917D01*
X107067625Y-115423265D01*
X107067626Y-115423265D01*
X106930000Y-115401467D01*
X106930000Y-116349252D01*
X106892292Y-116327482D01*
X106752409Y-116290000D01*
X106607591Y-116290000D01*
X106467708Y-116327482D01*
X106430000Y-116349252D01*
X106430000Y-115401467D01*
X106292374Y-115423265D01*
X106074931Y-115493917D01*
X105871223Y-115597711D01*
X105686257Y-115732097D01*
X105524597Y-115893757D01*
X105390211Y-116078723D01*
X105286417Y-116282429D01*
X105215765Y-116499871D01*
X105201491Y-116590000D01*
X106189252Y-116590000D01*
X106167482Y-116627708D01*
X106130000Y-116767591D01*
X106130000Y-116912409D01*
X106167482Y-117052292D01*
X106189252Y-117090000D01*
X105201491Y-117090000D01*
X105215765Y-117180128D01*
X105286417Y-117397570D01*
X105390211Y-117601276D01*
X105524597Y-117786242D01*
X105686257Y-117947902D01*
X105686263Y-117947907D01*
X105770863Y-118009372D01*
X105813529Y-118064701D01*
X105819508Y-118134315D01*
X105786903Y-118196110D01*
X105770864Y-118210007D01*
X105685940Y-118271709D01*
X105685931Y-118271716D01*
X105524216Y-118433431D01*
X105524216Y-118433432D01*
X105524214Y-118433434D01*
X105500346Y-118466286D01*
X105389783Y-118618461D01*
X105285950Y-118822244D01*
X105215278Y-119039750D01*
X105215278Y-119039753D01*
X105179500Y-119265646D01*
X100213519Y-119265646D01*
X100062454Y-119149730D01*
X100062453Y-119149729D01*
X100062450Y-119149727D01*
X99980957Y-119102677D01*
X99858056Y-119031719D01*
X99858045Y-119031714D01*
X99639993Y-118941394D01*
X99412010Y-118880306D01*
X99178020Y-118849501D01*
X99178017Y-118849500D01*
X99178011Y-118849500D01*
X98941989Y-118849500D01*
X98941983Y-118849500D01*
X98941979Y-118849501D01*
X98707989Y-118880306D01*
X98480006Y-118941394D01*
X98261954Y-119031714D01*
X98261943Y-119031719D01*
X98057545Y-119149730D01*
X97870302Y-119293406D01*
X97870295Y-119293412D01*
X97703412Y-119460295D01*
X97703406Y-119460302D01*
X97559730Y-119647545D01*
X97559727Y-119647549D01*
X97559727Y-119647550D01*
X97552479Y-119660104D01*
X97441719Y-119851943D01*
X97441714Y-119851954D01*
X97351394Y-120070006D01*
X97290306Y-120297989D01*
X97259501Y-120531979D01*
X97259500Y-120531995D01*
X95780499Y-120531995D01*
X95780499Y-119549992D01*
X95776929Y-119515048D01*
X95769999Y-119447203D01*
X95769998Y-119447200D01*
X95747730Y-119380000D01*
X95714814Y-119280666D01*
X95622712Y-119131344D01*
X95498656Y-119007288D01*
X95349334Y-118915186D01*
X95182797Y-118860001D01*
X95182795Y-118860000D01*
X95080010Y-118849500D01*
X92879998Y-118849500D01*
X92879981Y-118849501D01*
X92777203Y-118860000D01*
X92777200Y-118860001D01*
X92610668Y-118915185D01*
X92610663Y-118915187D01*
X92461342Y-119007289D01*
X92337289Y-119131342D01*
X92245187Y-119280663D01*
X92245185Y-119280668D01*
X92226248Y-119337816D01*
X92190001Y-119447203D01*
X92190001Y-119447204D01*
X92190000Y-119447204D01*
X92179500Y-119549983D01*
X87059913Y-119549983D01*
X87100104Y-119509792D01*
X87136066Y-119460295D01*
X87187058Y-119390109D01*
X87225051Y-119337816D01*
X87321557Y-119148412D01*
X87387246Y-118946243D01*
X87420500Y-118736287D01*
X87420500Y-118523713D01*
X87387246Y-118313757D01*
X87321557Y-118111588D01*
X87225051Y-117922184D01*
X87225049Y-117922181D01*
X87225048Y-117922179D01*
X87100109Y-117750213D01*
X86949786Y-117599890D01*
X86777820Y-117474951D01*
X86777115Y-117474591D01*
X86769054Y-117470485D01*
X86718259Y-117422512D01*
X86701463Y-117354692D01*
X86723999Y-117288556D01*
X86769054Y-117249515D01*
X86777816Y-117245051D01*
X86839158Y-117200484D01*
X86949786Y-117120109D01*
X86949788Y-117120106D01*
X86949792Y-117120104D01*
X87100104Y-116969792D01*
X87100106Y-116969788D01*
X87100109Y-116969786D01*
X87225048Y-116797820D01*
X87225047Y-116797820D01*
X87225051Y-116797816D01*
X87321557Y-116608412D01*
X87387246Y-116406243D01*
X87420500Y-116196287D01*
X87420500Y-115983713D01*
X87387246Y-115773757D01*
X87321557Y-115571588D01*
X87225051Y-115382184D01*
X87225049Y-115382181D01*
X87225048Y-115382179D01*
X87100109Y-115210213D01*
X86949786Y-115059890D01*
X86777820Y-114934951D01*
X86777115Y-114934591D01*
X86769054Y-114930485D01*
X86718259Y-114882512D01*
X86701463Y-114814692D01*
X86723999Y-114748556D01*
X86769054Y-114709515D01*
X86777816Y-114705051D01*
X86892888Y-114621447D01*
X86949786Y-114580109D01*
X86949788Y-114580106D01*
X86949792Y-114580104D01*
X87100104Y-114429792D01*
X87100106Y-114429788D01*
X87100109Y-114429786D01*
X87225048Y-114257820D01*
X87225047Y-114257820D01*
X87225051Y-114257816D01*
X87321557Y-114068412D01*
X87387246Y-113866243D01*
X87420500Y-113656287D01*
X87420500Y-113443713D01*
X87387246Y-113233757D01*
X87321557Y-113031588D01*
X87225051Y-112842184D01*
X87225049Y-112842181D01*
X87225048Y-112842179D01*
X87100109Y-112670213D01*
X86949786Y-112519890D01*
X86777820Y-112394951D01*
X86777115Y-112394591D01*
X86769054Y-112390485D01*
X86718259Y-112342512D01*
X86701463Y-112274692D01*
X86723999Y-112208556D01*
X86769054Y-112169515D01*
X86777816Y-112165051D01*
X86900051Y-112076243D01*
X86949786Y-112040109D01*
X86949788Y-112040106D01*
X86949792Y-112040104D01*
X87100104Y-111889792D01*
X87100106Y-111889788D01*
X87100109Y-111889786D01*
X87225048Y-111717820D01*
X87225047Y-111717820D01*
X87225051Y-111717816D01*
X87321557Y-111528412D01*
X87387246Y-111326243D01*
X87420500Y-111116287D01*
X87420500Y-110903713D01*
X87387246Y-110693757D01*
X87321557Y-110491588D01*
X87225051Y-110302184D01*
X87225049Y-110302181D01*
X87225048Y-110302179D01*
X87100109Y-110130213D01*
X86949786Y-109979890D01*
X86777820Y-109854951D01*
X86777115Y-109854591D01*
X86769054Y-109850485D01*
X86718259Y-109802512D01*
X86701463Y-109734692D01*
X86723999Y-109668556D01*
X86769054Y-109629515D01*
X86777816Y-109625051D01*
X86858813Y-109566204D01*
X86949786Y-109500109D01*
X86949788Y-109500106D01*
X86949792Y-109500104D01*
X87100104Y-109349792D01*
X87100106Y-109349788D01*
X87100109Y-109349786D01*
X87225048Y-109177820D01*
X87225047Y-109177820D01*
X87225051Y-109177816D01*
X87321557Y-108988412D01*
X87387246Y-108786243D01*
X87420500Y-108576287D01*
X87420500Y-108363713D01*
X87387246Y-108153757D01*
X87321557Y-107951588D01*
X87239948Y-107791421D01*
X89570000Y-107791421D01*
X89570000Y-108510000D01*
X91320000Y-108510000D01*
X91320000Y-109010000D01*
X89570001Y-109010000D01*
X89570001Y-109728588D01*
X89572794Y-109781191D01*
X89617237Y-110010987D01*
X89699879Y-110229975D01*
X89818339Y-110431841D01*
X89818344Y-110431848D01*
X89969211Y-110610786D01*
X89969213Y-110610788D01*
X90148151Y-110761655D01*
X90148158Y-110761660D01*
X90350024Y-110880120D01*
X90569012Y-110962762D01*
X90798809Y-111007205D01*
X90851382Y-111009998D01*
X90851421Y-111009999D01*
X91569999Y-111009999D01*
X91570000Y-111009998D01*
X91570000Y-110193012D01*
X91627007Y-110225925D01*
X91754174Y-110260000D01*
X91885826Y-110260000D01*
X92012993Y-110225925D01*
X92070000Y-110193012D01*
X92070000Y-111009999D01*
X92788576Y-111009999D01*
X92788588Y-111009998D01*
X92841191Y-111007205D01*
X93070987Y-110962762D01*
X93289975Y-110880120D01*
X93491841Y-110761660D01*
X93491848Y-110761655D01*
X93670786Y-110610788D01*
X93670788Y-110610786D01*
X93821655Y-110431848D01*
X93821660Y-110431841D01*
X93940120Y-110229975D01*
X94022762Y-110010986D01*
X94023756Y-110005851D01*
X94055811Y-109943769D01*
X94116342Y-109908872D01*
X94186130Y-109912240D01*
X94243019Y-109952805D01*
X94268946Y-110017686D01*
X94269500Y-110029395D01*
X94269500Y-113557870D01*
X94269501Y-113557876D01*
X94275908Y-113617483D01*
X94326202Y-113752328D01*
X94326206Y-113752335D01*
X94412452Y-113867544D01*
X94412455Y-113867547D01*
X94527664Y-113953793D01*
X94527671Y-113953797D01*
X94662517Y-114004091D01*
X94662516Y-114004091D01*
X94669444Y-114004835D01*
X94722127Y-114010500D01*
X98317872Y-114010499D01*
X98377483Y-114004091D01*
X98512331Y-113953796D01*
X98627546Y-113867546D01*
X98713796Y-113752331D01*
X98764091Y-113617483D01*
X98770500Y-113557873D01*
X98770499Y-109962128D01*
X98764091Y-109902517D01*
X98761980Y-109896858D01*
X98713797Y-109767671D01*
X98713793Y-109767664D01*
X98627547Y-109652455D01*
X98627544Y-109652452D01*
X98512335Y-109566206D01*
X98512328Y-109566202D01*
X98377482Y-109515908D01*
X98377483Y-109515908D01*
X98317883Y-109509501D01*
X98317881Y-109509500D01*
X98317873Y-109509500D01*
X98317864Y-109509500D01*
X94722129Y-109509500D01*
X94722123Y-109509501D01*
X94662516Y-109515908D01*
X94527671Y-109566202D01*
X94527664Y-109566206D01*
X94412455Y-109652452D01*
X94412452Y-109652455D01*
X94326206Y-109767664D01*
X94326202Y-109767671D01*
X94307988Y-109816507D01*
X94266117Y-109872441D01*
X94200652Y-109896858D01*
X94132379Y-109882006D01*
X94082974Y-109832601D01*
X94067981Y-109766594D01*
X94069999Y-109728615D01*
X94070000Y-109728578D01*
X94070000Y-109010000D01*
X92320000Y-109010000D01*
X92320000Y-108510000D01*
X94069999Y-108510000D01*
X94069999Y-107791423D01*
X94069998Y-107791411D01*
X94067205Y-107738808D01*
X94022762Y-107509012D01*
X93940120Y-107290024D01*
X93821660Y-107088158D01*
X93821655Y-107088151D01*
X93670788Y-106909213D01*
X93670786Y-106909211D01*
X93491848Y-106758344D01*
X93491841Y-106758339D01*
X93289975Y-106639879D01*
X93070987Y-106557237D01*
X92841190Y-106512794D01*
X92788617Y-106510001D01*
X92788579Y-106510000D01*
X92070000Y-106510000D01*
X92070000Y-107326988D01*
X92012993Y-107294075D01*
X91885826Y-107260000D01*
X91754174Y-107260000D01*
X91627007Y-107294075D01*
X91570000Y-107326988D01*
X91570000Y-106510000D01*
X90851423Y-106510000D01*
X90851411Y-106510001D01*
X90798808Y-106512794D01*
X90569012Y-106557237D01*
X90350024Y-106639879D01*
X90148158Y-106758339D01*
X90148151Y-106758344D01*
X89969213Y-106909211D01*
X89969211Y-106909213D01*
X89818344Y-107088151D01*
X89818339Y-107088158D01*
X89699879Y-107290024D01*
X89617237Y-107509012D01*
X89572794Y-107738808D01*
X89572794Y-107738809D01*
X89570001Y-107791382D01*
X89570000Y-107791421D01*
X87239948Y-107791421D01*
X87225051Y-107762184D01*
X87225050Y-107762182D01*
X87100109Y-107590213D01*
X86949786Y-107439890D01*
X86777820Y-107314951D01*
X86776587Y-107314323D01*
X86769054Y-107310485D01*
X86718259Y-107262512D01*
X86701463Y-107194692D01*
X86723999Y-107128556D01*
X86769054Y-107089515D01*
X86777816Y-107085051D01*
X86892888Y-107001447D01*
X86949786Y-106960109D01*
X86949788Y-106960106D01*
X86949792Y-106960104D01*
X87100104Y-106809792D01*
X87100106Y-106809788D01*
X87100109Y-106809786D01*
X87225048Y-106637820D01*
X87225047Y-106637820D01*
X87225051Y-106637816D01*
X87321557Y-106448412D01*
X87387246Y-106246243D01*
X87420500Y-106036287D01*
X87420500Y-105823713D01*
X87387246Y-105613757D01*
X87321557Y-105411588D01*
X87225051Y-105222184D01*
X87225049Y-105222181D01*
X87225048Y-105222179D01*
X87100109Y-105050213D01*
X86995699Y-104945803D01*
X94270000Y-104945803D01*
X94270000Y-105510000D01*
X95086988Y-105510000D01*
X95054075Y-105567007D01*
X95020000Y-105694174D01*
X95020000Y-105825826D01*
X95054075Y-105952993D01*
X95086988Y-106010000D01*
X94270001Y-106010000D01*
X94270001Y-106574197D01*
X94280400Y-106706332D01*
X94335377Y-106924519D01*
X94428428Y-107129374D01*
X94428431Y-107129380D01*
X94556559Y-107314323D01*
X94556569Y-107314335D01*
X94715664Y-107473430D01*
X94715676Y-107473440D01*
X94900619Y-107601568D01*
X94900625Y-107601571D01*
X95105480Y-107694622D01*
X95323667Y-107749599D01*
X95455810Y-107759999D01*
X96269999Y-107759999D01*
X96270000Y-107759998D01*
X96270000Y-106260000D01*
X96770000Y-106260000D01*
X96770000Y-107759999D01*
X97584182Y-107759999D01*
X97584197Y-107759998D01*
X97716332Y-107749599D01*
X97934519Y-107694622D01*
X98139374Y-107601571D01*
X98139380Y-107601568D01*
X98324323Y-107473440D01*
X98324335Y-107473430D01*
X98483430Y-107314335D01*
X98483440Y-107314323D01*
X98611568Y-107129380D01*
X98611571Y-107129374D01*
X98704622Y-106924519D01*
X98759599Y-106706332D01*
X98769999Y-106574196D01*
X98770000Y-106574184D01*
X98770000Y-106010000D01*
X97953012Y-106010000D01*
X97985925Y-105952993D01*
X98020000Y-105825826D01*
X98020000Y-105694174D01*
X97989402Y-105579983D01*
X104959500Y-105579983D01*
X104959500Y-107780001D01*
X104959501Y-107780018D01*
X104970000Y-107882796D01*
X104970001Y-107882799D01*
X105025185Y-108049331D01*
X105025187Y-108049336D01*
X105035080Y-108065375D01*
X105117288Y-108198656D01*
X105241344Y-108322712D01*
X105390666Y-108414814D01*
X105557203Y-108469999D01*
X105659991Y-108480500D01*
X107860008Y-108480499D01*
X107962797Y-108469999D01*
X108129334Y-108414814D01*
X108278656Y-108322712D01*
X108402712Y-108198656D01*
X108494814Y-108049334D01*
X108549999Y-107882797D01*
X108560500Y-107780009D01*
X108560499Y-106561995D01*
X109959500Y-106561995D01*
X109959500Y-106798004D01*
X109959501Y-106798020D01*
X109986282Y-107001447D01*
X109990307Y-107032014D01*
X110029960Y-107180000D01*
X110051394Y-107259993D01*
X110141714Y-107478045D01*
X110141719Y-107478056D01*
X110193076Y-107567007D01*
X110259727Y-107682450D01*
X110259728Y-107682451D01*
X110259730Y-107682454D01*
X110403406Y-107869697D01*
X110403412Y-107869704D01*
X110570295Y-108036587D01*
X110570302Y-108036593D01*
X110586909Y-108049336D01*
X110757550Y-108180273D01*
X110888918Y-108256118D01*
X110961943Y-108298280D01*
X110961948Y-108298282D01*
X110961951Y-108298284D01*
X111180007Y-108388606D01*
X111407986Y-108449693D01*
X111641989Y-108480500D01*
X111641996Y-108480500D01*
X111878004Y-108480500D01*
X111878011Y-108480500D01*
X112112014Y-108449693D01*
X112339993Y-108388606D01*
X112558049Y-108298284D01*
X112762450Y-108180273D01*
X112949699Y-108036592D01*
X113116592Y-107869699D01*
X113260273Y-107682450D01*
X113378284Y-107478049D01*
X113468606Y-107259993D01*
X113529693Y-107032014D01*
X113560500Y-106798011D01*
X113560500Y-106561989D01*
X113529693Y-106327986D01*
X113468606Y-106100007D01*
X113378284Y-105881951D01*
X113378282Y-105881948D01*
X113378280Y-105881943D01*
X113311505Y-105766287D01*
X113260273Y-105677550D01*
X113185406Y-105579981D01*
X113116593Y-105490302D01*
X113116587Y-105490295D01*
X112949704Y-105323412D01*
X112949697Y-105323406D01*
X112762454Y-105179730D01*
X112762453Y-105179729D01*
X112762450Y-105179727D01*
X112680957Y-105132677D01*
X112558056Y-105061719D01*
X112558045Y-105061714D01*
X112339993Y-104971394D01*
X112112014Y-104910307D01*
X112112013Y-104910306D01*
X112112010Y-104910306D01*
X111878020Y-104879501D01*
X111878017Y-104879500D01*
X111878011Y-104879500D01*
X111641989Y-104879500D01*
X111641983Y-104879500D01*
X111641979Y-104879501D01*
X111407989Y-104910306D01*
X111180006Y-104971394D01*
X110961954Y-105061714D01*
X110961943Y-105061719D01*
X110757545Y-105179730D01*
X110570302Y-105323406D01*
X110570295Y-105323412D01*
X110403412Y-105490295D01*
X110403406Y-105490302D01*
X110259730Y-105677545D01*
X110141719Y-105881943D01*
X110141714Y-105881954D01*
X110051394Y-106100006D01*
X109990306Y-106327989D01*
X109959501Y-106561979D01*
X109959500Y-106561995D01*
X108560499Y-106561995D01*
X108560499Y-105579992D01*
X108549999Y-105477203D01*
X108494814Y-105310666D01*
X108402712Y-105161344D01*
X108278656Y-105037288D01*
X108130357Y-104945817D01*
X108129336Y-104945187D01*
X108129331Y-104945185D01*
X108127862Y-104944698D01*
X107962797Y-104890001D01*
X107962795Y-104890000D01*
X107860010Y-104879500D01*
X105659998Y-104879500D01*
X105659981Y-104879501D01*
X105557203Y-104890000D01*
X105557200Y-104890001D01*
X105390668Y-104945185D01*
X105390663Y-104945187D01*
X105241342Y-105037289D01*
X105117289Y-105161342D01*
X105025187Y-105310663D01*
X105025185Y-105310668D01*
X105020962Y-105323412D01*
X104970001Y-105477203D01*
X104970001Y-105477204D01*
X104970000Y-105477204D01*
X104959500Y-105579983D01*
X97989402Y-105579983D01*
X97985925Y-105567007D01*
X97953012Y-105510000D01*
X98769999Y-105510000D01*
X98769999Y-104945817D01*
X98769998Y-104945802D01*
X98759599Y-104813667D01*
X98704622Y-104595480D01*
X98611571Y-104390625D01*
X98611568Y-104390619D01*
X98483440Y-104205676D01*
X98483430Y-104205664D01*
X98324335Y-104046569D01*
X98324323Y-104046559D01*
X98139380Y-103918431D01*
X98139374Y-103918428D01*
X97934519Y-103825377D01*
X97716332Y-103770400D01*
X97584196Y-103760000D01*
X96770000Y-103760000D01*
X96770000Y-105260000D01*
X96270000Y-105260000D01*
X96270000Y-103760000D01*
X95455817Y-103760000D01*
X95455802Y-103760001D01*
X95323667Y-103770400D01*
X95105480Y-103825377D01*
X94900625Y-103918428D01*
X94900619Y-103918431D01*
X94715676Y-104046559D01*
X94715664Y-104046569D01*
X94556569Y-104205664D01*
X94556559Y-104205676D01*
X94428431Y-104390619D01*
X94428428Y-104390625D01*
X94335377Y-104595480D01*
X94280400Y-104813667D01*
X94270000Y-104945803D01*
X86995699Y-104945803D01*
X86949786Y-104899890D01*
X86777820Y-104774951D01*
X86777115Y-104774591D01*
X86769054Y-104770485D01*
X86718259Y-104722512D01*
X86701463Y-104654692D01*
X86723999Y-104588556D01*
X86769054Y-104549515D01*
X86777816Y-104545051D01*
X86892888Y-104461447D01*
X86949786Y-104420109D01*
X86949788Y-104420106D01*
X86949792Y-104420104D01*
X87100104Y-104269792D01*
X87100106Y-104269788D01*
X87100109Y-104269786D01*
X87225048Y-104097820D01*
X87225047Y-104097820D01*
X87225051Y-104097816D01*
X87321557Y-103908412D01*
X87387246Y-103706243D01*
X87420500Y-103496287D01*
X87420500Y-103283713D01*
X87413915Y-103242135D01*
X120569500Y-103242135D01*
X120569500Y-105037870D01*
X120569501Y-105037876D01*
X120575908Y-105097483D01*
X120626202Y-105232328D01*
X120626206Y-105232335D01*
X120712452Y-105347544D01*
X120712455Y-105347547D01*
X120827664Y-105433793D01*
X120827671Y-105433797D01*
X120872618Y-105450561D01*
X120962517Y-105484091D01*
X121022127Y-105490500D01*
X121032685Y-105490499D01*
X121099723Y-105510179D01*
X121120372Y-105526818D01*
X121790591Y-106197037D01*
X121727007Y-106214075D01*
X121612993Y-106279901D01*
X121519901Y-106372993D01*
X121454075Y-106487007D01*
X121437037Y-106550591D01*
X120804728Y-105918282D01*
X120804727Y-105918282D01*
X120765380Y-105972439D01*
X120668904Y-106161782D01*
X120603242Y-106363869D01*
X120603242Y-106363872D01*
X120570000Y-106573753D01*
X120570000Y-106786246D01*
X120603242Y-106996127D01*
X120603242Y-106996130D01*
X120668904Y-107198217D01*
X120765375Y-107387550D01*
X120804728Y-107441716D01*
X121437037Y-106809408D01*
X121454075Y-106872993D01*
X121519901Y-106987007D01*
X121612993Y-107080099D01*
X121727007Y-107145925D01*
X121790591Y-107162962D01*
X121189971Y-107763581D01*
X121268711Y-107880895D01*
X121269920Y-107884729D01*
X121272844Y-107887491D01*
X121280343Y-107917778D01*
X121289727Y-107947529D01*
X121288671Y-107951408D01*
X121289638Y-107955312D01*
X121279573Y-107984844D01*
X121271383Y-108014947D01*
X121268397Y-108017640D01*
X121267100Y-108021447D01*
X121222051Y-108060483D01*
X121212440Y-108065380D01*
X121158282Y-108104727D01*
X121158282Y-108104728D01*
X121790591Y-108737037D01*
X121727007Y-108754075D01*
X121612993Y-108819901D01*
X121519901Y-108912993D01*
X121454075Y-109027007D01*
X121437037Y-109090591D01*
X120804728Y-108458282D01*
X120804727Y-108458282D01*
X120765380Y-108512439D01*
X120668904Y-108701782D01*
X120603242Y-108903869D01*
X120603242Y-108903872D01*
X120570000Y-109113753D01*
X120570000Y-109326246D01*
X120603242Y-109536127D01*
X120603242Y-109536130D01*
X120668904Y-109738217D01*
X120765375Y-109927550D01*
X120804728Y-109981716D01*
X121437037Y-109349408D01*
X121454075Y-109412993D01*
X121519901Y-109527007D01*
X121612993Y-109620099D01*
X121727007Y-109685925D01*
X121790590Y-109702962D01*
X121158282Y-110335269D01*
X121158282Y-110335270D01*
X121212452Y-110374626D01*
X121212451Y-110374626D01*
X121221495Y-110379234D01*
X121272292Y-110427208D01*
X121289087Y-110495029D01*
X121266550Y-110561164D01*
X121221499Y-110600202D01*
X121212182Y-110604949D01*
X121040213Y-110729890D01*
X120889890Y-110880213D01*
X120764951Y-111052179D01*
X120668444Y-111241585D01*
X120602753Y-111443760D01*
X120569500Y-111653713D01*
X120569500Y-111866286D01*
X120582361Y-111947491D01*
X120602754Y-112076243D01*
X120667234Y-112274692D01*
X120668444Y-112278414D01*
X120764951Y-112467820D01*
X120889890Y-112639786D01*
X121040213Y-112790109D01*
X121212179Y-112915048D01*
X121212181Y-112915049D01*
X121212184Y-112915051D01*
X121401588Y-113011557D01*
X121603757Y-113077246D01*
X121813713Y-113110500D01*
X121813714Y-113110500D01*
X122026286Y-113110500D01*
X122026287Y-113110500D01*
X122236243Y-113077246D01*
X122438412Y-113011557D01*
X122627816Y-112915051D01*
X122728110Y-112842184D01*
X122799786Y-112790109D01*
X122799788Y-112790106D01*
X122799792Y-112790104D01*
X122950104Y-112639792D01*
X122950106Y-112639788D01*
X122950109Y-112639786D01*
X123075048Y-112467820D01*
X123075047Y-112467820D01*
X123075051Y-112467816D01*
X123171557Y-112278412D01*
X123237246Y-112076243D01*
X123270500Y-111866287D01*
X123270500Y-111653713D01*
X123237246Y-111443757D01*
X123171557Y-111241588D01*
X123075051Y-111052184D01*
X123075049Y-111052181D01*
X123075048Y-111052179D01*
X122950109Y-110880213D01*
X122799786Y-110729890D01*
X122627817Y-110604949D01*
X122618504Y-110600204D01*
X122567707Y-110552230D01*
X122550912Y-110484409D01*
X122573449Y-110418274D01*
X122618507Y-110379232D01*
X122627555Y-110374622D01*
X122681716Y-110335270D01*
X122681717Y-110335270D01*
X122049408Y-109702962D01*
X122112993Y-109685925D01*
X122227007Y-109620099D01*
X122320099Y-109527007D01*
X122385925Y-109412993D01*
X122402962Y-109349408D01*
X123035270Y-109981717D01*
X123035270Y-109981716D01*
X123074622Y-109927554D01*
X123171095Y-109738217D01*
X123236757Y-109536130D01*
X123236757Y-109536127D01*
X123270000Y-109326246D01*
X123270000Y-109113753D01*
X123236757Y-108903872D01*
X123236757Y-108903869D01*
X123171095Y-108701782D01*
X123074624Y-108512449D01*
X123035270Y-108458282D01*
X123035269Y-108458282D01*
X122402962Y-109090590D01*
X122385925Y-109027007D01*
X122320099Y-108912993D01*
X122227007Y-108819901D01*
X122112993Y-108754075D01*
X122049409Y-108737037D01*
X122681716Y-108104728D01*
X122627550Y-108065375D01*
X122617954Y-108060486D01*
X122567157Y-108012512D01*
X122550361Y-107944692D01*
X122572897Y-107878556D01*
X122617954Y-107839514D01*
X122627554Y-107834622D01*
X122681716Y-107795270D01*
X122681717Y-107795270D01*
X122049408Y-107162962D01*
X122112993Y-107145925D01*
X122227007Y-107080099D01*
X122320099Y-106987007D01*
X122385925Y-106872993D01*
X122402962Y-106809408D01*
X123035270Y-107441717D01*
X123035270Y-107441716D01*
X123074622Y-107387554D01*
X123171095Y-107198217D01*
X123236757Y-106996130D01*
X123236757Y-106996127D01*
X123270000Y-106786246D01*
X123270000Y-106573753D01*
X123236757Y-106363872D01*
X123236757Y-106363869D01*
X123171095Y-106161782D01*
X123074624Y-105972449D01*
X123035270Y-105918282D01*
X123035269Y-105918282D01*
X122402962Y-106550590D01*
X122385925Y-106487007D01*
X122320099Y-106372993D01*
X122227007Y-106279901D01*
X122112993Y-106214075D01*
X122049409Y-106197037D01*
X122719627Y-105526818D01*
X122780950Y-105493333D01*
X122807307Y-105490499D01*
X122817872Y-105490499D01*
X122877483Y-105484091D01*
X123012331Y-105433796D01*
X123127546Y-105347546D01*
X123213796Y-105232331D01*
X123264091Y-105097483D01*
X123270500Y-105037873D01*
X123270499Y-103242128D01*
X123264091Y-103182517D01*
X123223527Y-103073760D01*
X123213797Y-103047671D01*
X123213793Y-103047664D01*
X123127547Y-102932455D01*
X123127544Y-102932452D01*
X123012335Y-102846206D01*
X123012328Y-102846202D01*
X122877482Y-102795908D01*
X122877483Y-102795908D01*
X122817883Y-102789501D01*
X122817881Y-102789500D01*
X122817873Y-102789500D01*
X122817864Y-102789500D01*
X121022129Y-102789500D01*
X121022123Y-102789501D01*
X120962516Y-102795908D01*
X120827671Y-102846202D01*
X120827664Y-102846206D01*
X120712455Y-102932452D01*
X120712452Y-102932455D01*
X120626206Y-103047664D01*
X120626202Y-103047671D01*
X120575908Y-103182517D01*
X120571203Y-103226284D01*
X120569501Y-103242123D01*
X120569500Y-103242135D01*
X87413915Y-103242135D01*
X87387246Y-103073757D01*
X87321557Y-102871588D01*
X87225051Y-102682184D01*
X87225049Y-102682181D01*
X87225048Y-102682179D01*
X87100109Y-102510213D01*
X86986181Y-102396285D01*
X86952696Y-102334962D01*
X86957680Y-102265270D01*
X86999552Y-102209337D01*
X87030529Y-102192422D01*
X87162086Y-102143354D01*
X87162093Y-102143350D01*
X87277187Y-102057190D01*
X87277190Y-102057187D01*
X87363350Y-101942093D01*
X87363354Y-101942086D01*
X87413596Y-101807379D01*
X87413598Y-101807372D01*
X87419999Y-101747844D01*
X87420000Y-101747827D01*
X87420000Y-101100000D01*
X86503012Y-101100000D01*
X86535925Y-101042993D01*
X86570000Y-100915826D01*
X86570000Y-100784174D01*
X86535925Y-100657007D01*
X86503012Y-100600000D01*
X87420000Y-100600000D01*
X87420000Y-99952172D01*
X87419999Y-99952155D01*
X87413598Y-99892627D01*
X87413596Y-99892620D01*
X87363354Y-99757913D01*
X87363350Y-99757906D01*
X87277190Y-99642812D01*
X87277187Y-99642809D01*
X87162093Y-99556649D01*
X87162086Y-99556645D01*
X87027379Y-99506403D01*
X87027372Y-99506401D01*
X86967844Y-99500000D01*
X86320000Y-99500000D01*
X86320000Y-100416988D01*
X86262993Y-100384075D01*
X86135826Y-100350000D01*
X86004174Y-100350000D01*
X85877007Y-100384075D01*
X85820000Y-100416988D01*
X85820000Y-99500000D01*
X85172155Y-99500000D01*
X85112627Y-99506401D01*
X85112620Y-99506403D01*
X84977913Y-99556645D01*
X84977906Y-99556649D01*
X84862812Y-99642809D01*
X84862809Y-99642812D01*
X84776649Y-99757906D01*
X84776645Y-99757913D01*
X84726403Y-99892620D01*
X84726401Y-99892627D01*
X84720000Y-99952155D01*
X84720000Y-100600000D01*
X85636988Y-100600000D01*
X85604075Y-100657007D01*
X85570000Y-100784174D01*
X85570000Y-100915826D01*
X85604075Y-101042993D01*
X85636988Y-101100000D01*
X84720000Y-101100000D01*
X84720000Y-101747844D01*
X84726401Y-101807372D01*
X84726403Y-101807379D01*
X84776645Y-101942086D01*
X84776649Y-101942093D01*
X84862809Y-102057187D01*
X84862812Y-102057190D01*
X84977906Y-102143350D01*
X84977913Y-102143354D01*
X85109470Y-102192422D01*
X85165404Y-102234293D01*
X85189821Y-102299758D01*
X85174969Y-102368031D01*
X85153819Y-102396285D01*
X85039889Y-102510215D01*
X84914951Y-102682179D01*
X84818444Y-102871585D01*
X84752753Y-103073760D01*
X84719500Y-103283713D01*
X62011405Y-103283713D01*
X62020500Y-103226287D01*
X62020500Y-103013713D01*
X61987246Y-102803757D01*
X61921557Y-102601588D01*
X61825051Y-102412184D01*
X61825049Y-102412181D01*
X61825048Y-102412179D01*
X61700109Y-102240213D01*
X61586569Y-102126673D01*
X61553084Y-102065350D01*
X61558068Y-101995658D01*
X61599940Y-101939725D01*
X61630915Y-101922810D01*
X61762331Y-101873796D01*
X61877546Y-101787546D01*
X61963796Y-101672331D01*
X62014091Y-101537483D01*
X62020500Y-101477873D01*
X62020499Y-99682128D01*
X62014091Y-99622517D01*
X61989522Y-99556645D01*
X61963797Y-99487671D01*
X61963793Y-99487664D01*
X61877547Y-99372455D01*
X61877544Y-99372452D01*
X61762335Y-99286206D01*
X61762328Y-99286202D01*
X61627482Y-99235908D01*
X61627483Y-99235908D01*
X61567883Y-99229501D01*
X61567881Y-99229500D01*
X61567873Y-99229500D01*
X61567864Y-99229500D01*
X59772129Y-99229500D01*
X59772123Y-99229501D01*
X59712516Y-99235908D01*
X59577671Y-99286202D01*
X59577664Y-99286206D01*
X59462455Y-99372452D01*
X59462452Y-99372455D01*
X59376206Y-99487664D01*
X59376202Y-99487671D01*
X59325908Y-99622517D01*
X59319802Y-99679317D01*
X59319501Y-99682123D01*
X59319500Y-99682135D01*
X20843987Y-99682135D01*
X20823078Y-94605011D01*
X20842486Y-94537891D01*
X20895101Y-94491919D01*
X20947077Y-94480500D01*
X21255937Y-94480500D01*
X21257704Y-94480960D01*
X21321758Y-94480500D01*
X21385892Y-94480500D01*
X21389441Y-94480500D01*
X21397268Y-94479956D01*
X127914613Y-93715003D01*
X127981789Y-93734206D01*
G37*
%TD.AperFunction*%
%TD*%
M02*
