%TF.GenerationSoftware,KiCad,Pcbnew,9.0.2*%
%TF.CreationDate,2026-08-13T00:51:52+05:30*%
%TF.ProjectId,CORTICAL EXOSLEEVE,434f5254-4943-4414-9c20-45584f534c45,rev?*%
%TF.SameCoordinates,Original*%
%TF.FileFunction,Legend,Top*%
%TF.FilePolarity,Positive*%
%FSLAX46Y46*%
G04 Gerber Fmt 4.6, Leading zero omitted, Abs format (unit mm)*
G04 Created by KiCad (PCBNEW 9.0.2) date 2026-08-13 00:51:52*
%MOMM*%
%LPD*%
G01*
G04 APERTURE LIST*
G04 Aperture macros list*
%AMRoundRect*
0 Rectangle with rounded corners*
0 $1 Rounding radius*
0 $2 $3 $4 $5 $6 $7 $8 $9 X,Y pos of 4 corners*
0 Add a 4 corners polygon primitive as box body*
4,1,4,$2,$3,$4,$5,$6,$7,$8,$9,$2,$3,0*
0 Add four circle primitives for the rounded corners*
1,1,$1+$1,$2,$3*
1,1,$1+$1,$4,$5*
1,1,$1+$1,$6,$7*
1,1,$1+$1,$8,$9*
0 Add four rect primitives between the rounded corners*
20,1,$1+$1,$2,$3,$4,$5,0*
20,1,$1+$1,$4,$5,$6,$7,0*
20,1,$1+$1,$6,$7,$8,$9,0*
20,1,$1+$1,$8,$9,$2,$3,0*%
G04 Aperture macros list end*
%ADD10C,0.150000*%
%ADD11C,0.120000*%
%ADD12RoundRect,0.875000X-0.875000X0.875000X-0.875000X-0.875000X0.875000X-0.875000X0.875000X0.875000X0*%
%ADD13RoundRect,0.750000X-1.000000X0.750000X-1.000000X-0.750000X1.000000X-0.750000X1.000000X0.750000X0*%
%ADD14R,3.500000X3.500000*%
%ADD15C,2.600000*%
%ADD16RoundRect,0.250000X-1.050000X-1.050000X1.050000X-1.050000X1.050000X1.050000X-1.050000X1.050000X0*%
%ADD17C,2.000000*%
%ADD18RoundRect,0.250000X0.750000X0.750000X-0.750000X0.750000X-0.750000X-0.750000X0.750000X-0.750000X0*%
%ADD19C,3.200000*%
%ADD20RoundRect,0.250000X-1.350000X1.350000X-1.350000X-1.350000X1.350000X-1.350000X1.350000X1.350000X0*%
%ADD21C,2.200000*%
%ADD22RoundRect,0.249999X-0.850001X0.850001X-0.850001X-0.850001X0.850001X-0.850001X0.850001X0.850001X0*%
%ADD23RoundRect,0.150000X0.150000X-0.587500X0.150000X0.587500X-0.150000X0.587500X-0.150000X-0.587500X0*%
%ADD24R,2.000000X1.905000*%
%ADD25O,2.000000X1.905000*%
%ADD26RoundRect,0.250000X-0.350000X-0.450000X0.350000X-0.450000X0.350000X0.450000X-0.350000X0.450000X0*%
%ADD27R,1.700000X1.700000*%
%ADD28C,1.700000*%
%ADD29RoundRect,0.250000X0.475000X-0.250000X0.475000X0.250000X-0.475000X0.250000X-0.475000X-0.250000X0*%
%ADD30RoundRect,0.100000X0.100000X-0.712500X0.100000X0.712500X-0.100000X0.712500X-0.100000X-0.712500X0*%
%ADD31RoundRect,0.250000X0.450000X-0.350000X0.450000X0.350000X-0.450000X0.350000X-0.450000X-0.350000X0*%
%ADD32RoundRect,0.150000X0.150000X-0.512500X0.150000X0.512500X-0.150000X0.512500X-0.150000X-0.512500X0*%
%ADD33RoundRect,0.250000X-0.337500X-0.475000X0.337500X-0.475000X0.337500X0.475000X-0.337500X0.475000X0*%
%ADD34RoundRect,0.250000X0.350000X0.450000X-0.350000X0.450000X-0.350000X-0.450000X0.350000X-0.450000X0*%
%ADD35RoundRect,0.250000X-0.475000X0.250000X-0.475000X-0.250000X0.475000X-0.250000X0.475000X0.250000X0*%
%ADD36RoundRect,0.225000X-0.225000X-0.375000X0.225000X-0.375000X0.225000X0.375000X-0.225000X0.375000X0*%
%ADD37RoundRect,0.250000X-0.450000X0.350000X-0.450000X-0.350000X0.450000X-0.350000X0.450000X0.350000X0*%
G04 APERTURE END LIST*
D10*
X96186666Y-98514819D02*
X96186666Y-99229104D01*
X96186666Y-99229104D02*
X96139047Y-99371961D01*
X96139047Y-99371961D02*
X96043809Y-99467200D01*
X96043809Y-99467200D02*
X95900952Y-99514819D01*
X95900952Y-99514819D02*
X95805714Y-99514819D01*
X97139047Y-98514819D02*
X96662857Y-98514819D01*
X96662857Y-98514819D02*
X96615238Y-98991009D01*
X96615238Y-98991009D02*
X96662857Y-98943390D01*
X96662857Y-98943390D02*
X96758095Y-98895771D01*
X96758095Y-98895771D02*
X96996190Y-98895771D01*
X96996190Y-98895771D02*
X97091428Y-98943390D01*
X97091428Y-98943390D02*
X97139047Y-98991009D01*
X97139047Y-98991009D02*
X97186666Y-99086247D01*
X97186666Y-99086247D02*
X97186666Y-99324342D01*
X97186666Y-99324342D02*
X97139047Y-99419580D01*
X97139047Y-99419580D02*
X97091428Y-99467200D01*
X97091428Y-99467200D02*
X96996190Y-99514819D01*
X96996190Y-99514819D02*
X96758095Y-99514819D01*
X96758095Y-99514819D02*
X96662857Y-99467200D01*
X96662857Y-99467200D02*
X96615238Y-99419580D01*
X108926666Y-101014819D02*
X108926666Y-101729104D01*
X108926666Y-101729104D02*
X108879047Y-101871961D01*
X108879047Y-101871961D02*
X108783809Y-101967200D01*
X108783809Y-101967200D02*
X108640952Y-102014819D01*
X108640952Y-102014819D02*
X108545714Y-102014819D01*
X109831428Y-101014819D02*
X109640952Y-101014819D01*
X109640952Y-101014819D02*
X109545714Y-101062438D01*
X109545714Y-101062438D02*
X109498095Y-101110057D01*
X109498095Y-101110057D02*
X109402857Y-101252914D01*
X109402857Y-101252914D02*
X109355238Y-101443390D01*
X109355238Y-101443390D02*
X109355238Y-101824342D01*
X109355238Y-101824342D02*
X109402857Y-101919580D01*
X109402857Y-101919580D02*
X109450476Y-101967200D01*
X109450476Y-101967200D02*
X109545714Y-102014819D01*
X109545714Y-102014819D02*
X109736190Y-102014819D01*
X109736190Y-102014819D02*
X109831428Y-101967200D01*
X109831428Y-101967200D02*
X109879047Y-101919580D01*
X109879047Y-101919580D02*
X109926666Y-101824342D01*
X109926666Y-101824342D02*
X109926666Y-101586247D01*
X109926666Y-101586247D02*
X109879047Y-101491009D01*
X109879047Y-101491009D02*
X109831428Y-101443390D01*
X109831428Y-101443390D02*
X109736190Y-101395771D01*
X109736190Y-101395771D02*
X109545714Y-101395771D01*
X109545714Y-101395771D02*
X109450476Y-101443390D01*
X109450476Y-101443390D02*
X109402857Y-101491009D01*
X109402857Y-101491009D02*
X109355238Y-101586247D01*
X111593333Y-124818580D02*
X111545714Y-124866200D01*
X111545714Y-124866200D02*
X111402857Y-124913819D01*
X111402857Y-124913819D02*
X111307619Y-124913819D01*
X111307619Y-124913819D02*
X111164762Y-124866200D01*
X111164762Y-124866200D02*
X111069524Y-124770961D01*
X111069524Y-124770961D02*
X111021905Y-124675723D01*
X111021905Y-124675723D02*
X110974286Y-124485247D01*
X110974286Y-124485247D02*
X110974286Y-124342390D01*
X110974286Y-124342390D02*
X111021905Y-124151914D01*
X111021905Y-124151914D02*
X111069524Y-124056676D01*
X111069524Y-124056676D02*
X111164762Y-123961438D01*
X111164762Y-123961438D02*
X111307619Y-123913819D01*
X111307619Y-123913819D02*
X111402857Y-123913819D01*
X111402857Y-123913819D02*
X111545714Y-123961438D01*
X111545714Y-123961438D02*
X111593333Y-124009057D01*
X111926667Y-123913819D02*
X112545714Y-123913819D01*
X112545714Y-123913819D02*
X112212381Y-124294771D01*
X112212381Y-124294771D02*
X112355238Y-124294771D01*
X112355238Y-124294771D02*
X112450476Y-124342390D01*
X112450476Y-124342390D02*
X112498095Y-124390009D01*
X112498095Y-124390009D02*
X112545714Y-124485247D01*
X112545714Y-124485247D02*
X112545714Y-124723342D01*
X112545714Y-124723342D02*
X112498095Y-124818580D01*
X112498095Y-124818580D02*
X112450476Y-124866200D01*
X112450476Y-124866200D02*
X112355238Y-124913819D01*
X112355238Y-124913819D02*
X112069524Y-124913819D01*
X112069524Y-124913819D02*
X111974286Y-124866200D01*
X111974286Y-124866200D02*
X111926667Y-124818580D01*
X96186666Y-116294819D02*
X96186666Y-117009104D01*
X96186666Y-117009104D02*
X96139047Y-117151961D01*
X96139047Y-117151961D02*
X96043809Y-117247200D01*
X96043809Y-117247200D02*
X95900952Y-117294819D01*
X95900952Y-117294819D02*
X95805714Y-117294819D01*
X97091428Y-116628152D02*
X97091428Y-117294819D01*
X96853333Y-116247200D02*
X96615238Y-116961485D01*
X96615238Y-116961485D02*
X97234285Y-116961485D01*
X103401905Y-127454819D02*
X103401905Y-126454819D01*
X103401905Y-126454819D02*
X103640000Y-126454819D01*
X103640000Y-126454819D02*
X103782857Y-126502438D01*
X103782857Y-126502438D02*
X103878095Y-126597676D01*
X103878095Y-126597676D02*
X103925714Y-126692914D01*
X103925714Y-126692914D02*
X103973333Y-126883390D01*
X103973333Y-126883390D02*
X103973333Y-127026247D01*
X103973333Y-127026247D02*
X103925714Y-127216723D01*
X103925714Y-127216723D02*
X103878095Y-127311961D01*
X103878095Y-127311961D02*
X103782857Y-127407200D01*
X103782857Y-127407200D02*
X103640000Y-127454819D01*
X103640000Y-127454819D02*
X103401905Y-127454819D01*
X104354286Y-126550057D02*
X104401905Y-126502438D01*
X104401905Y-126502438D02*
X104497143Y-126454819D01*
X104497143Y-126454819D02*
X104735238Y-126454819D01*
X104735238Y-126454819D02*
X104830476Y-126502438D01*
X104830476Y-126502438D02*
X104878095Y-126550057D01*
X104878095Y-126550057D02*
X104925714Y-126645295D01*
X104925714Y-126645295D02*
X104925714Y-126740533D01*
X104925714Y-126740533D02*
X104878095Y-126883390D01*
X104878095Y-126883390D02*
X104306667Y-127454819D01*
X104306667Y-127454819D02*
X104925714Y-127454819D01*
X93718095Y-136344819D02*
X93718095Y-135344819D01*
X94289523Y-136344819D02*
X93860952Y-135773390D01*
X94289523Y-135344819D02*
X93718095Y-135916247D01*
X91894819Y-132818094D02*
X90894819Y-132818094D01*
X90894819Y-132818094D02*
X90894819Y-132579999D01*
X90894819Y-132579999D02*
X90942438Y-132437142D01*
X90942438Y-132437142D02*
X91037676Y-132341904D01*
X91037676Y-132341904D02*
X91132914Y-132294285D01*
X91132914Y-132294285D02*
X91323390Y-132246666D01*
X91323390Y-132246666D02*
X91466247Y-132246666D01*
X91466247Y-132246666D02*
X91656723Y-132294285D01*
X91656723Y-132294285D02*
X91751961Y-132341904D01*
X91751961Y-132341904D02*
X91847200Y-132437142D01*
X91847200Y-132437142D02*
X91894819Y-132579999D01*
X91894819Y-132579999D02*
X91894819Y-132818094D01*
X91894819Y-131294285D02*
X91894819Y-131865713D01*
X91894819Y-131579999D02*
X90894819Y-131579999D01*
X90894819Y-131579999D02*
X91037676Y-131675237D01*
X91037676Y-131675237D02*
X91132914Y-131770475D01*
X91132914Y-131770475D02*
X91180533Y-131865713D01*
X93718095Y-132534819D02*
X93718095Y-131534819D01*
X94289523Y-132534819D02*
X93860952Y-131963390D01*
X94289523Y-131534819D02*
X93718095Y-132106247D01*
X111664761Y-130704832D02*
X111569523Y-130657213D01*
X111569523Y-130657213D02*
X111474285Y-130561975D01*
X111474285Y-130561975D02*
X111331428Y-130419117D01*
X111331428Y-130419117D02*
X111236190Y-130371498D01*
X111236190Y-130371498D02*
X111140952Y-130371498D01*
X111188571Y-130609594D02*
X111093333Y-130561975D01*
X111093333Y-130561975D02*
X110998095Y-130466736D01*
X110998095Y-130466736D02*
X110950476Y-130276260D01*
X110950476Y-130276260D02*
X110950476Y-129942927D01*
X110950476Y-129942927D02*
X110998095Y-129752451D01*
X110998095Y-129752451D02*
X111093333Y-129657213D01*
X111093333Y-129657213D02*
X111188571Y-129609594D01*
X111188571Y-129609594D02*
X111379047Y-129609594D01*
X111379047Y-129609594D02*
X111474285Y-129657213D01*
X111474285Y-129657213D02*
X111569523Y-129752451D01*
X111569523Y-129752451D02*
X111617142Y-129942927D01*
X111617142Y-129942927D02*
X111617142Y-130276260D01*
X111617142Y-130276260D02*
X111569523Y-130466736D01*
X111569523Y-130466736D02*
X111474285Y-130561975D01*
X111474285Y-130561975D02*
X111379047Y-130609594D01*
X111379047Y-130609594D02*
X111188571Y-130609594D01*
X111998095Y-129704832D02*
X112045714Y-129657213D01*
X112045714Y-129657213D02*
X112140952Y-129609594D01*
X112140952Y-129609594D02*
X112379047Y-129609594D01*
X112379047Y-129609594D02*
X112474285Y-129657213D01*
X112474285Y-129657213D02*
X112521904Y-129704832D01*
X112521904Y-129704832D02*
X112569523Y-129800070D01*
X112569523Y-129800070D02*
X112569523Y-129895308D01*
X112569523Y-129895308D02*
X112521904Y-130038165D01*
X112521904Y-130038165D02*
X111950476Y-130609594D01*
X111950476Y-130609594D02*
X112569523Y-130609594D01*
X109770057Y-119475238D02*
X109722438Y-119570476D01*
X109722438Y-119570476D02*
X109627200Y-119665714D01*
X109627200Y-119665714D02*
X109484342Y-119808571D01*
X109484342Y-119808571D02*
X109436723Y-119903809D01*
X109436723Y-119903809D02*
X109436723Y-119999047D01*
X109674819Y-119951428D02*
X109627200Y-120046666D01*
X109627200Y-120046666D02*
X109531961Y-120141904D01*
X109531961Y-120141904D02*
X109341485Y-120189523D01*
X109341485Y-120189523D02*
X109008152Y-120189523D01*
X109008152Y-120189523D02*
X108817676Y-120141904D01*
X108817676Y-120141904D02*
X108722438Y-120046666D01*
X108722438Y-120046666D02*
X108674819Y-119951428D01*
X108674819Y-119951428D02*
X108674819Y-119760952D01*
X108674819Y-119760952D02*
X108722438Y-119665714D01*
X108722438Y-119665714D02*
X108817676Y-119570476D01*
X108817676Y-119570476D02*
X109008152Y-119522857D01*
X109008152Y-119522857D02*
X109341485Y-119522857D01*
X109341485Y-119522857D02*
X109531961Y-119570476D01*
X109531961Y-119570476D02*
X109627200Y-119665714D01*
X109627200Y-119665714D02*
X109674819Y-119760952D01*
X109674819Y-119760952D02*
X109674819Y-119951428D01*
X109674819Y-118570476D02*
X109674819Y-119141904D01*
X109674819Y-118856190D02*
X108674819Y-118856190D01*
X108674819Y-118856190D02*
X108817676Y-118951428D01*
X108817676Y-118951428D02*
X108912914Y-119046666D01*
X108912914Y-119046666D02*
X108960533Y-119141904D01*
X111593333Y-127454819D02*
X111260000Y-126978628D01*
X111021905Y-127454819D02*
X111021905Y-126454819D01*
X111021905Y-126454819D02*
X111402857Y-126454819D01*
X111402857Y-126454819D02*
X111498095Y-126502438D01*
X111498095Y-126502438D02*
X111545714Y-126550057D01*
X111545714Y-126550057D02*
X111593333Y-126645295D01*
X111593333Y-126645295D02*
X111593333Y-126788152D01*
X111593333Y-126788152D02*
X111545714Y-126883390D01*
X111545714Y-126883390D02*
X111498095Y-126931009D01*
X111498095Y-126931009D02*
X111402857Y-126978628D01*
X111402857Y-126978628D02*
X111021905Y-126978628D01*
X111926667Y-126454819D02*
X112593333Y-126454819D01*
X112593333Y-126454819D02*
X112164762Y-127454819D01*
X123698095Y-136614819D02*
X123698095Y-137424342D01*
X123698095Y-137424342D02*
X123745714Y-137519580D01*
X123745714Y-137519580D02*
X123793333Y-137567200D01*
X123793333Y-137567200D02*
X123888571Y-137614819D01*
X123888571Y-137614819D02*
X124079047Y-137614819D01*
X124079047Y-137614819D02*
X124174285Y-137567200D01*
X124174285Y-137567200D02*
X124221904Y-137519580D01*
X124221904Y-137519580D02*
X124269523Y-137424342D01*
X124269523Y-137424342D02*
X124269523Y-136614819D01*
X124650476Y-136614819D02*
X125269523Y-136614819D01*
X125269523Y-136614819D02*
X124936190Y-136995771D01*
X124936190Y-136995771D02*
X125079047Y-136995771D01*
X125079047Y-136995771D02*
X125174285Y-137043390D01*
X125174285Y-137043390D02*
X125221904Y-137091009D01*
X125221904Y-137091009D02*
X125269523Y-137186247D01*
X125269523Y-137186247D02*
X125269523Y-137424342D01*
X125269523Y-137424342D02*
X125221904Y-137519580D01*
X125221904Y-137519580D02*
X125174285Y-137567200D01*
X125174285Y-137567200D02*
X125079047Y-137614819D01*
X125079047Y-137614819D02*
X124793333Y-137614819D01*
X124793333Y-137614819D02*
X124698095Y-137567200D01*
X124698095Y-137567200D02*
X124650476Y-137519580D01*
X51363330Y-108821666D02*
X51410950Y-108869285D01*
X51410950Y-108869285D02*
X51458569Y-109012142D01*
X51458569Y-109012142D02*
X51458569Y-109107380D01*
X51458569Y-109107380D02*
X51410950Y-109250237D01*
X51410950Y-109250237D02*
X51315711Y-109345475D01*
X51315711Y-109345475D02*
X51220473Y-109393094D01*
X51220473Y-109393094D02*
X51029997Y-109440713D01*
X51029997Y-109440713D02*
X50887140Y-109440713D01*
X50887140Y-109440713D02*
X50696664Y-109393094D01*
X50696664Y-109393094D02*
X50601426Y-109345475D01*
X50601426Y-109345475D02*
X50506188Y-109250237D01*
X50506188Y-109250237D02*
X50458569Y-109107380D01*
X50458569Y-109107380D02*
X50458569Y-109012142D01*
X50458569Y-109012142D02*
X50506188Y-108869285D01*
X50506188Y-108869285D02*
X50553807Y-108821666D01*
X50458569Y-107964523D02*
X50458569Y-108154999D01*
X50458569Y-108154999D02*
X50506188Y-108250237D01*
X50506188Y-108250237D02*
X50553807Y-108297856D01*
X50553807Y-108297856D02*
X50696664Y-108393094D01*
X50696664Y-108393094D02*
X50887140Y-108440713D01*
X50887140Y-108440713D02*
X51268092Y-108440713D01*
X51268092Y-108440713D02*
X51363330Y-108393094D01*
X51363330Y-108393094D02*
X51410950Y-108345475D01*
X51410950Y-108345475D02*
X51458569Y-108250237D01*
X51458569Y-108250237D02*
X51458569Y-108059761D01*
X51458569Y-108059761D02*
X51410950Y-107964523D01*
X51410950Y-107964523D02*
X51363330Y-107916904D01*
X51363330Y-107916904D02*
X51268092Y-107869285D01*
X51268092Y-107869285D02*
X51029997Y-107869285D01*
X51029997Y-107869285D02*
X50934759Y-107916904D01*
X50934759Y-107916904D02*
X50887140Y-107964523D01*
X50887140Y-107964523D02*
X50839521Y-108059761D01*
X50839521Y-108059761D02*
X50839521Y-108250237D01*
X50839521Y-108250237D02*
X50887140Y-108345475D01*
X50887140Y-108345475D02*
X50934759Y-108393094D01*
X50934759Y-108393094D02*
X51029997Y-108440713D01*
X37283569Y-115546904D02*
X38093092Y-115546904D01*
X38093092Y-115546904D02*
X38188330Y-115499285D01*
X38188330Y-115499285D02*
X38235950Y-115451666D01*
X38235950Y-115451666D02*
X38283569Y-115356428D01*
X38283569Y-115356428D02*
X38283569Y-115165952D01*
X38283569Y-115165952D02*
X38235950Y-115070714D01*
X38235950Y-115070714D02*
X38188330Y-115023095D01*
X38188330Y-115023095D02*
X38093092Y-114975476D01*
X38093092Y-114975476D02*
X37283569Y-114975476D01*
X37378807Y-114546904D02*
X37331188Y-114499285D01*
X37331188Y-114499285D02*
X37283569Y-114404047D01*
X37283569Y-114404047D02*
X37283569Y-114165952D01*
X37283569Y-114165952D02*
X37331188Y-114070714D01*
X37331188Y-114070714D02*
X37378807Y-114023095D01*
X37378807Y-114023095D02*
X37474045Y-113975476D01*
X37474045Y-113975476D02*
X37569283Y-113975476D01*
X37569283Y-113975476D02*
X37712140Y-114023095D01*
X37712140Y-114023095D02*
X38283569Y-114594523D01*
X38283569Y-114594523D02*
X38283569Y-113975476D01*
X25598569Y-128458333D02*
X26312854Y-128458333D01*
X26312854Y-128458333D02*
X26455711Y-128505952D01*
X26455711Y-128505952D02*
X26550950Y-128601190D01*
X26550950Y-128601190D02*
X26598569Y-128744047D01*
X26598569Y-128744047D02*
X26598569Y-128839285D01*
X25693807Y-128029761D02*
X25646188Y-127982142D01*
X25646188Y-127982142D02*
X25598569Y-127886904D01*
X25598569Y-127886904D02*
X25598569Y-127648809D01*
X25598569Y-127648809D02*
X25646188Y-127553571D01*
X25646188Y-127553571D02*
X25693807Y-127505952D01*
X25693807Y-127505952D02*
X25789045Y-127458333D01*
X25789045Y-127458333D02*
X25884283Y-127458333D01*
X25884283Y-127458333D02*
X26027140Y-127505952D01*
X26027140Y-127505952D02*
X26598569Y-128077380D01*
X26598569Y-128077380D02*
X26598569Y-127458333D01*
X60336666Y-97654819D02*
X60336666Y-98369104D01*
X60336666Y-98369104D02*
X60289047Y-98511961D01*
X60289047Y-98511961D02*
X60193809Y-98607200D01*
X60193809Y-98607200D02*
X60050952Y-98654819D01*
X60050952Y-98654819D02*
X59955714Y-98654819D01*
X61336666Y-98654819D02*
X60765238Y-98654819D01*
X61050952Y-98654819D02*
X61050952Y-97654819D01*
X61050952Y-97654819D02*
X60955714Y-97797676D01*
X60955714Y-97797676D02*
X60860476Y-97892914D01*
X60860476Y-97892914D02*
X60765238Y-97940533D01*
X33938569Y-121141666D02*
X33462378Y-121474999D01*
X33938569Y-121713094D02*
X32938569Y-121713094D01*
X32938569Y-121713094D02*
X32938569Y-121332142D01*
X32938569Y-121332142D02*
X32986188Y-121236904D01*
X32986188Y-121236904D02*
X33033807Y-121189285D01*
X33033807Y-121189285D02*
X33129045Y-121141666D01*
X33129045Y-121141666D02*
X33271902Y-121141666D01*
X33271902Y-121141666D02*
X33367140Y-121189285D01*
X33367140Y-121189285D02*
X33414759Y-121236904D01*
X33414759Y-121236904D02*
X33462378Y-121332142D01*
X33462378Y-121332142D02*
X33462378Y-121713094D01*
X33033807Y-120760713D02*
X32986188Y-120713094D01*
X32986188Y-120713094D02*
X32938569Y-120617856D01*
X32938569Y-120617856D02*
X32938569Y-120379761D01*
X32938569Y-120379761D02*
X32986188Y-120284523D01*
X32986188Y-120284523D02*
X33033807Y-120236904D01*
X33033807Y-120236904D02*
X33129045Y-120189285D01*
X33129045Y-120189285D02*
X33224283Y-120189285D01*
X33224283Y-120189285D02*
X33367140Y-120236904D01*
X33367140Y-120236904D02*
X33938569Y-120808332D01*
X33938569Y-120808332D02*
X33938569Y-120189285D01*
X38183330Y-100981666D02*
X38230950Y-101029285D01*
X38230950Y-101029285D02*
X38278569Y-101172142D01*
X38278569Y-101172142D02*
X38278569Y-101267380D01*
X38278569Y-101267380D02*
X38230950Y-101410237D01*
X38230950Y-101410237D02*
X38135711Y-101505475D01*
X38135711Y-101505475D02*
X38040473Y-101553094D01*
X38040473Y-101553094D02*
X37849997Y-101600713D01*
X37849997Y-101600713D02*
X37707140Y-101600713D01*
X37707140Y-101600713D02*
X37516664Y-101553094D01*
X37516664Y-101553094D02*
X37421426Y-101505475D01*
X37421426Y-101505475D02*
X37326188Y-101410237D01*
X37326188Y-101410237D02*
X37278569Y-101267380D01*
X37278569Y-101267380D02*
X37278569Y-101172142D01*
X37278569Y-101172142D02*
X37326188Y-101029285D01*
X37326188Y-101029285D02*
X37373807Y-100981666D01*
X38278569Y-100029285D02*
X38278569Y-100600713D01*
X38278569Y-100314999D02*
X37278569Y-100314999D01*
X37278569Y-100314999D02*
X37421426Y-100410237D01*
X37421426Y-100410237D02*
X37516664Y-100505475D01*
X37516664Y-100505475D02*
X37564283Y-100600713D01*
X45257083Y-113519819D02*
X44923750Y-113043628D01*
X44685655Y-113519819D02*
X44685655Y-112519819D01*
X44685655Y-112519819D02*
X45066607Y-112519819D01*
X45066607Y-112519819D02*
X45161845Y-112567438D01*
X45161845Y-112567438D02*
X45209464Y-112615057D01*
X45209464Y-112615057D02*
X45257083Y-112710295D01*
X45257083Y-112710295D02*
X45257083Y-112853152D01*
X45257083Y-112853152D02*
X45209464Y-112948390D01*
X45209464Y-112948390D02*
X45161845Y-112996009D01*
X45161845Y-112996009D02*
X45066607Y-113043628D01*
X45066607Y-113043628D02*
X44685655Y-113043628D01*
X45733274Y-113519819D02*
X45923750Y-113519819D01*
X45923750Y-113519819D02*
X46018988Y-113472200D01*
X46018988Y-113472200D02*
X46066607Y-113424580D01*
X46066607Y-113424580D02*
X46161845Y-113281723D01*
X46161845Y-113281723D02*
X46209464Y-113091247D01*
X46209464Y-113091247D02*
X46209464Y-112710295D01*
X46209464Y-112710295D02*
X46161845Y-112615057D01*
X46161845Y-112615057D02*
X46114226Y-112567438D01*
X46114226Y-112567438D02*
X46018988Y-112519819D01*
X46018988Y-112519819D02*
X45828512Y-112519819D01*
X45828512Y-112519819D02*
X45733274Y-112567438D01*
X45733274Y-112567438D02*
X45685655Y-112615057D01*
X45685655Y-112615057D02*
X45638036Y-112710295D01*
X45638036Y-112710295D02*
X45638036Y-112948390D01*
X45638036Y-112948390D02*
X45685655Y-113043628D01*
X45685655Y-113043628D02*
X45733274Y-113091247D01*
X45733274Y-113091247D02*
X45828512Y-113138866D01*
X45828512Y-113138866D02*
X46018988Y-113138866D01*
X46018988Y-113138866D02*
X46114226Y-113091247D01*
X46114226Y-113091247D02*
X46161845Y-113043628D01*
X46161845Y-113043628D02*
X46209464Y-112948390D01*
X36898569Y-108196904D02*
X37708092Y-108196904D01*
X37708092Y-108196904D02*
X37803330Y-108149285D01*
X37803330Y-108149285D02*
X37850950Y-108101666D01*
X37850950Y-108101666D02*
X37898569Y-108006428D01*
X37898569Y-108006428D02*
X37898569Y-107815952D01*
X37898569Y-107815952D02*
X37850950Y-107720714D01*
X37850950Y-107720714D02*
X37803330Y-107673095D01*
X37803330Y-107673095D02*
X37708092Y-107625476D01*
X37708092Y-107625476D02*
X36898569Y-107625476D01*
X36898569Y-106673095D02*
X36898569Y-107149285D01*
X36898569Y-107149285D02*
X37374759Y-107196904D01*
X37374759Y-107196904D02*
X37327140Y-107149285D01*
X37327140Y-107149285D02*
X37279521Y-107054047D01*
X37279521Y-107054047D02*
X37279521Y-106815952D01*
X37279521Y-106815952D02*
X37327140Y-106720714D01*
X37327140Y-106720714D02*
X37374759Y-106673095D01*
X37374759Y-106673095D02*
X37469997Y-106625476D01*
X37469997Y-106625476D02*
X37708092Y-106625476D01*
X37708092Y-106625476D02*
X37803330Y-106673095D01*
X37803330Y-106673095D02*
X37850950Y-106720714D01*
X37850950Y-106720714D02*
X37898569Y-106815952D01*
X37898569Y-106815952D02*
X37898569Y-107054047D01*
X37898569Y-107054047D02*
X37850950Y-107149285D01*
X37850950Y-107149285D02*
X37803330Y-107196904D01*
X51670833Y-113154580D02*
X51623214Y-113202200D01*
X51623214Y-113202200D02*
X51480357Y-113249819D01*
X51480357Y-113249819D02*
X51385119Y-113249819D01*
X51385119Y-113249819D02*
X51242262Y-113202200D01*
X51242262Y-113202200D02*
X51147024Y-113106961D01*
X51147024Y-113106961D02*
X51099405Y-113011723D01*
X51099405Y-113011723D02*
X51051786Y-112821247D01*
X51051786Y-112821247D02*
X51051786Y-112678390D01*
X51051786Y-112678390D02*
X51099405Y-112487914D01*
X51099405Y-112487914D02*
X51147024Y-112392676D01*
X51147024Y-112392676D02*
X51242262Y-112297438D01*
X51242262Y-112297438D02*
X51385119Y-112249819D01*
X51385119Y-112249819D02*
X51480357Y-112249819D01*
X51480357Y-112249819D02*
X51623214Y-112297438D01*
X51623214Y-112297438D02*
X51670833Y-112345057D01*
X52527976Y-112583152D02*
X52527976Y-113249819D01*
X52289881Y-112202200D02*
X52051786Y-112916485D01*
X52051786Y-112916485D02*
X52670833Y-112916485D01*
X109053333Y-138349819D02*
X108720000Y-137873628D01*
X108481905Y-138349819D02*
X108481905Y-137349819D01*
X108481905Y-137349819D02*
X108862857Y-137349819D01*
X108862857Y-137349819D02*
X108958095Y-137397438D01*
X108958095Y-137397438D02*
X109005714Y-137445057D01*
X109005714Y-137445057D02*
X109053333Y-137540295D01*
X109053333Y-137540295D02*
X109053333Y-137683152D01*
X109053333Y-137683152D02*
X109005714Y-137778390D01*
X109005714Y-137778390D02*
X108958095Y-137826009D01*
X108958095Y-137826009D02*
X108862857Y-137873628D01*
X108862857Y-137873628D02*
X108481905Y-137873628D01*
X109624762Y-137778390D02*
X109529524Y-137730771D01*
X109529524Y-137730771D02*
X109481905Y-137683152D01*
X109481905Y-137683152D02*
X109434286Y-137587914D01*
X109434286Y-137587914D02*
X109434286Y-137540295D01*
X109434286Y-137540295D02*
X109481905Y-137445057D01*
X109481905Y-137445057D02*
X109529524Y-137397438D01*
X109529524Y-137397438D02*
X109624762Y-137349819D01*
X109624762Y-137349819D02*
X109815238Y-137349819D01*
X109815238Y-137349819D02*
X109910476Y-137397438D01*
X109910476Y-137397438D02*
X109958095Y-137445057D01*
X109958095Y-137445057D02*
X110005714Y-137540295D01*
X110005714Y-137540295D02*
X110005714Y-137587914D01*
X110005714Y-137587914D02*
X109958095Y-137683152D01*
X109958095Y-137683152D02*
X109910476Y-137730771D01*
X109910476Y-137730771D02*
X109815238Y-137778390D01*
X109815238Y-137778390D02*
X109624762Y-137778390D01*
X109624762Y-137778390D02*
X109529524Y-137826009D01*
X109529524Y-137826009D02*
X109481905Y-137873628D01*
X109481905Y-137873628D02*
X109434286Y-137968866D01*
X109434286Y-137968866D02*
X109434286Y-138159342D01*
X109434286Y-138159342D02*
X109481905Y-138254580D01*
X109481905Y-138254580D02*
X109529524Y-138302200D01*
X109529524Y-138302200D02*
X109624762Y-138349819D01*
X109624762Y-138349819D02*
X109815238Y-138349819D01*
X109815238Y-138349819D02*
X109910476Y-138302200D01*
X109910476Y-138302200D02*
X109958095Y-138254580D01*
X109958095Y-138254580D02*
X110005714Y-138159342D01*
X110005714Y-138159342D02*
X110005714Y-137968866D01*
X110005714Y-137968866D02*
X109958095Y-137873628D01*
X109958095Y-137873628D02*
X109910476Y-137826009D01*
X109910476Y-137826009D02*
X109815238Y-137778390D01*
X42828330Y-114851666D02*
X42875950Y-114899285D01*
X42875950Y-114899285D02*
X42923569Y-115042142D01*
X42923569Y-115042142D02*
X42923569Y-115137380D01*
X42923569Y-115137380D02*
X42875950Y-115280237D01*
X42875950Y-115280237D02*
X42780711Y-115375475D01*
X42780711Y-115375475D02*
X42685473Y-115423094D01*
X42685473Y-115423094D02*
X42494997Y-115470713D01*
X42494997Y-115470713D02*
X42352140Y-115470713D01*
X42352140Y-115470713D02*
X42161664Y-115423094D01*
X42161664Y-115423094D02*
X42066426Y-115375475D01*
X42066426Y-115375475D02*
X41971188Y-115280237D01*
X41971188Y-115280237D02*
X41923569Y-115137380D01*
X41923569Y-115137380D02*
X41923569Y-115042142D01*
X41923569Y-115042142D02*
X41971188Y-114899285D01*
X41971188Y-114899285D02*
X42018807Y-114851666D01*
X42018807Y-114470713D02*
X41971188Y-114423094D01*
X41971188Y-114423094D02*
X41923569Y-114327856D01*
X41923569Y-114327856D02*
X41923569Y-114089761D01*
X41923569Y-114089761D02*
X41971188Y-113994523D01*
X41971188Y-113994523D02*
X42018807Y-113946904D01*
X42018807Y-113946904D02*
X42114045Y-113899285D01*
X42114045Y-113899285D02*
X42209283Y-113899285D01*
X42209283Y-113899285D02*
X42352140Y-113946904D01*
X42352140Y-113946904D02*
X42923569Y-114518332D01*
X42923569Y-114518332D02*
X42923569Y-113899285D01*
X111593333Y-134847755D02*
X111260000Y-134371564D01*
X111021905Y-134847755D02*
X111021905Y-133847755D01*
X111021905Y-133847755D02*
X111402857Y-133847755D01*
X111402857Y-133847755D02*
X111498095Y-133895374D01*
X111498095Y-133895374D02*
X111545714Y-133942993D01*
X111545714Y-133942993D02*
X111593333Y-134038231D01*
X111593333Y-134038231D02*
X111593333Y-134181088D01*
X111593333Y-134181088D02*
X111545714Y-134276326D01*
X111545714Y-134276326D02*
X111498095Y-134323945D01*
X111498095Y-134323945D02*
X111402857Y-134371564D01*
X111402857Y-134371564D02*
X111021905Y-134371564D01*
X112450476Y-133847755D02*
X112260000Y-133847755D01*
X112260000Y-133847755D02*
X112164762Y-133895374D01*
X112164762Y-133895374D02*
X112117143Y-133942993D01*
X112117143Y-133942993D02*
X112021905Y-134085850D01*
X112021905Y-134085850D02*
X111974286Y-134276326D01*
X111974286Y-134276326D02*
X111974286Y-134657278D01*
X111974286Y-134657278D02*
X112021905Y-134752516D01*
X112021905Y-134752516D02*
X112069524Y-134800136D01*
X112069524Y-134800136D02*
X112164762Y-134847755D01*
X112164762Y-134847755D02*
X112355238Y-134847755D01*
X112355238Y-134847755D02*
X112450476Y-134800136D01*
X112450476Y-134800136D02*
X112498095Y-134752516D01*
X112498095Y-134752516D02*
X112545714Y-134657278D01*
X112545714Y-134657278D02*
X112545714Y-134419183D01*
X112545714Y-134419183D02*
X112498095Y-134323945D01*
X112498095Y-134323945D02*
X112450476Y-134276326D01*
X112450476Y-134276326D02*
X112355238Y-134228707D01*
X112355238Y-134228707D02*
X112164762Y-134228707D01*
X112164762Y-134228707D02*
X112069524Y-134276326D01*
X112069524Y-134276326D02*
X112021905Y-134323945D01*
X112021905Y-134323945D02*
X111974286Y-134419183D01*
X85736666Y-97924819D02*
X85736666Y-98639104D01*
X85736666Y-98639104D02*
X85689047Y-98781961D01*
X85689047Y-98781961D02*
X85593809Y-98877200D01*
X85593809Y-98877200D02*
X85450952Y-98924819D01*
X85450952Y-98924819D02*
X85355714Y-98924819D01*
X86117619Y-97924819D02*
X86736666Y-97924819D01*
X86736666Y-97924819D02*
X86403333Y-98305771D01*
X86403333Y-98305771D02*
X86546190Y-98305771D01*
X86546190Y-98305771D02*
X86641428Y-98353390D01*
X86641428Y-98353390D02*
X86689047Y-98401009D01*
X86689047Y-98401009D02*
X86736666Y-98496247D01*
X86736666Y-98496247D02*
X86736666Y-98734342D01*
X86736666Y-98734342D02*
X86689047Y-98829580D01*
X86689047Y-98829580D02*
X86641428Y-98877200D01*
X86641428Y-98877200D02*
X86546190Y-98924819D01*
X86546190Y-98924819D02*
X86260476Y-98924819D01*
X86260476Y-98924819D02*
X86165238Y-98877200D01*
X86165238Y-98877200D02*
X86117619Y-98829580D01*
X41258569Y-121171666D02*
X40782378Y-121504999D01*
X41258569Y-121743094D02*
X40258569Y-121743094D01*
X40258569Y-121743094D02*
X40258569Y-121362142D01*
X40258569Y-121362142D02*
X40306188Y-121266904D01*
X40306188Y-121266904D02*
X40353807Y-121219285D01*
X40353807Y-121219285D02*
X40449045Y-121171666D01*
X40449045Y-121171666D02*
X40591902Y-121171666D01*
X40591902Y-121171666D02*
X40687140Y-121219285D01*
X40687140Y-121219285D02*
X40734759Y-121266904D01*
X40734759Y-121266904D02*
X40782378Y-121362142D01*
X40782378Y-121362142D02*
X40782378Y-121743094D01*
X40258569Y-120266904D02*
X40258569Y-120743094D01*
X40258569Y-120743094D02*
X40734759Y-120790713D01*
X40734759Y-120790713D02*
X40687140Y-120743094D01*
X40687140Y-120743094D02*
X40639521Y-120647856D01*
X40639521Y-120647856D02*
X40639521Y-120409761D01*
X40639521Y-120409761D02*
X40687140Y-120314523D01*
X40687140Y-120314523D02*
X40734759Y-120266904D01*
X40734759Y-120266904D02*
X40829997Y-120219285D01*
X40829997Y-120219285D02*
X41068092Y-120219285D01*
X41068092Y-120219285D02*
X41163330Y-120266904D01*
X41163330Y-120266904D02*
X41210950Y-120314523D01*
X41210950Y-120314523D02*
X41258569Y-120409761D01*
X41258569Y-120409761D02*
X41258569Y-120647856D01*
X41258569Y-120647856D02*
X41210950Y-120743094D01*
X41210950Y-120743094D02*
X41163330Y-120790713D01*
X121181905Y-124909638D02*
X121181905Y-123909638D01*
X121181905Y-123909638D02*
X121420000Y-123909638D01*
X121420000Y-123909638D02*
X121562857Y-123957257D01*
X121562857Y-123957257D02*
X121658095Y-124052495D01*
X121658095Y-124052495D02*
X121705714Y-124147733D01*
X121705714Y-124147733D02*
X121753333Y-124338209D01*
X121753333Y-124338209D02*
X121753333Y-124481066D01*
X121753333Y-124481066D02*
X121705714Y-124671542D01*
X121705714Y-124671542D02*
X121658095Y-124766780D01*
X121658095Y-124766780D02*
X121562857Y-124862019D01*
X121562857Y-124862019D02*
X121420000Y-124909638D01*
X121420000Y-124909638D02*
X121181905Y-124909638D01*
X122610476Y-124242971D02*
X122610476Y-124909638D01*
X122372381Y-123862019D02*
X122134286Y-124576304D01*
X122134286Y-124576304D02*
X122753333Y-124576304D01*
X32548569Y-114991666D02*
X32072378Y-115324999D01*
X32548569Y-115563094D02*
X31548569Y-115563094D01*
X31548569Y-115563094D02*
X31548569Y-115182142D01*
X31548569Y-115182142D02*
X31596188Y-115086904D01*
X31596188Y-115086904D02*
X31643807Y-115039285D01*
X31643807Y-115039285D02*
X31739045Y-114991666D01*
X31739045Y-114991666D02*
X31881902Y-114991666D01*
X31881902Y-114991666D02*
X31977140Y-115039285D01*
X31977140Y-115039285D02*
X32024759Y-115086904D01*
X32024759Y-115086904D02*
X32072378Y-115182142D01*
X32072378Y-115182142D02*
X32072378Y-115563094D01*
X32548569Y-114039285D02*
X32548569Y-114610713D01*
X32548569Y-114324999D02*
X31548569Y-114324999D01*
X31548569Y-114324999D02*
X31691426Y-114420237D01*
X31691426Y-114420237D02*
X31786664Y-114515475D01*
X31786664Y-114515475D02*
X31834283Y-114610713D01*
X121158095Y-101214819D02*
X121158095Y-102024342D01*
X121158095Y-102024342D02*
X121205714Y-102119580D01*
X121205714Y-102119580D02*
X121253333Y-102167200D01*
X121253333Y-102167200D02*
X121348571Y-102214819D01*
X121348571Y-102214819D02*
X121539047Y-102214819D01*
X121539047Y-102214819D02*
X121634285Y-102167200D01*
X121634285Y-102167200D02*
X121681904Y-102119580D01*
X121681904Y-102119580D02*
X121729523Y-102024342D01*
X121729523Y-102024342D02*
X121729523Y-101214819D01*
X122634285Y-101548152D02*
X122634285Y-102214819D01*
X122396190Y-101167200D02*
X122158095Y-101881485D01*
X122158095Y-101881485D02*
X122777142Y-101881485D01*
D11*
%TO.C,J5*%
X100270000Y-112860000D02*
X101320000Y-112860000D01*
X91920000Y-112660000D02*
X91920000Y-110760000D01*
X94620000Y-112660000D02*
X91920000Y-112660000D01*
X101120000Y-112660000D02*
X98520000Y-112660000D01*
X101320000Y-111810000D02*
X101320000Y-112860000D01*
X91920000Y-106760000D02*
X91920000Y-97960000D01*
X91920000Y-97960000D02*
X101120000Y-97960000D01*
X101120000Y-97960000D02*
X101120000Y-112660000D01*
%TO.C,J6*%
X107200000Y-112410000D02*
X106320000Y-112410000D01*
X106760000Y-111800000D01*
X107200000Y-112410000D01*
G36*
X107200000Y-112410000D02*
G01*
X106320000Y-112410000D01*
X106760000Y-111800000D01*
X107200000Y-112410000D01*
G37*
X114380000Y-102560000D02*
X114380000Y-111800000D01*
X107060000Y-111800000D02*
X114380000Y-111800000D01*
X104140000Y-111800000D02*
X106460000Y-111800000D01*
X104140000Y-111280000D02*
X114380000Y-111280000D01*
X104140000Y-110180000D02*
X114380000Y-110180000D01*
X104140000Y-102560000D02*
X114380000Y-102560000D01*
X104140000Y-102560000D02*
X104140000Y-111800000D01*
%TO.C,C3*%
X121920000Y-119380000D02*
G75*
G02*
X111680000Y-119380000I-5120000J0D01*
G01*
X111680000Y-119380000D02*
G75*
G02*
X121920000Y-119380000I5120000J0D01*
G01*
X111720000Y-119979000D02*
X111720000Y-118781000D01*
X111760000Y-120242000D02*
X111760000Y-118518000D01*
X111800000Y-120442000D02*
X111800000Y-118318000D01*
X111840000Y-120610000D02*
X111840000Y-118150000D01*
X111880000Y-120757000D02*
X111880000Y-118003000D01*
X111920000Y-120889000D02*
X111920000Y-117871000D01*
X111960000Y-121010000D02*
X111960000Y-117750000D01*
X112000000Y-121122000D02*
X112000000Y-117638000D01*
X112040000Y-121226000D02*
X112040000Y-117534000D01*
X112080000Y-121324000D02*
X112080000Y-117436000D01*
X112120000Y-121417000D02*
X112120000Y-117343000D01*
X112160000Y-121504000D02*
X112160000Y-117256000D01*
X112200000Y-121588000D02*
X112200000Y-117172000D01*
X112240000Y-121668000D02*
X112240000Y-117092000D01*
X112280000Y-121745000D02*
X112280000Y-117015000D01*
X112320000Y-121819000D02*
X112320000Y-116941000D01*
X112360000Y-121890000D02*
X112360000Y-116870000D01*
X112400000Y-121958000D02*
X112400000Y-116802000D01*
X112440000Y-122024000D02*
X112440000Y-116736000D01*
X112480000Y-122088000D02*
X112480000Y-116672000D01*
X112520000Y-122150000D02*
X112520000Y-116610000D01*
X112560000Y-122210000D02*
X112560000Y-116550000D01*
X112600000Y-122268000D02*
X112600000Y-116492000D01*
X112640000Y-122325000D02*
X112640000Y-116435000D01*
X112680000Y-122380000D02*
X112680000Y-116380000D01*
X112720000Y-122433000D02*
X112720000Y-116327000D01*
X112760000Y-122485000D02*
X112760000Y-116275000D01*
X112800000Y-122536000D02*
X112800000Y-116224000D01*
X112840000Y-122585000D02*
X112840000Y-116175000D01*
X112880000Y-122634000D02*
X112880000Y-116126000D01*
X112920000Y-122681000D02*
X112920000Y-116079000D01*
X112960000Y-122727000D02*
X112960000Y-116033000D01*
X113000000Y-122771000D02*
X113000000Y-115989000D01*
X113040000Y-122815000D02*
X113040000Y-115945000D01*
X113080000Y-118140000D02*
X113080000Y-115902000D01*
X113080000Y-122858000D02*
X113080000Y-120620000D01*
X113120000Y-118140000D02*
X113120000Y-115860000D01*
X113120000Y-122900000D02*
X113120000Y-120620000D01*
X113160000Y-118140000D02*
X113160000Y-115819000D01*
X113160000Y-122941000D02*
X113160000Y-120620000D01*
X113200000Y-118140000D02*
X113200000Y-115779000D01*
X113200000Y-122981000D02*
X113200000Y-120620000D01*
X113240000Y-118140000D02*
X113240000Y-115740000D01*
X113240000Y-123020000D02*
X113240000Y-120620000D01*
X113280000Y-118140000D02*
X113280000Y-115702000D01*
X113280000Y-123058000D02*
X113280000Y-120620000D01*
X113320000Y-118140000D02*
X113320000Y-115664000D01*
X113320000Y-123096000D02*
X113320000Y-120620000D01*
X113360000Y-118140000D02*
X113360000Y-115628000D01*
X113360000Y-123132000D02*
X113360000Y-120620000D01*
X113400000Y-118140000D02*
X113400000Y-115592000D01*
X113400000Y-123168000D02*
X113400000Y-120620000D01*
X113440000Y-118140000D02*
X113440000Y-115557000D01*
X113440000Y-123203000D02*
X113440000Y-120620000D01*
X113480000Y-118140000D02*
X113480000Y-115522000D01*
X113480000Y-123238000D02*
X113480000Y-120620000D01*
X113520000Y-118140000D02*
X113520000Y-115489000D01*
X113520000Y-123271000D02*
X113520000Y-120620000D01*
X113560000Y-118140000D02*
X113560000Y-115456000D01*
X113560000Y-123304000D02*
X113560000Y-120620000D01*
X113600000Y-118140000D02*
X113600000Y-115423000D01*
X113600000Y-123337000D02*
X113600000Y-120620000D01*
X113640000Y-118140000D02*
X113640000Y-115392000D01*
X113640000Y-123368000D02*
X113640000Y-120620000D01*
X113680000Y-118140000D02*
X113680000Y-115360000D01*
X113680000Y-123400000D02*
X113680000Y-120620000D01*
X113720000Y-118140000D02*
X113720000Y-115330000D01*
X113720000Y-123430000D02*
X113720000Y-120620000D01*
X113760000Y-118140000D02*
X113760000Y-115300000D01*
X113760000Y-123460000D02*
X113760000Y-120620000D01*
X113800000Y-118140000D02*
X113800000Y-115271000D01*
X113800000Y-123489000D02*
X113800000Y-120620000D01*
X113840000Y-118140000D02*
X113840000Y-115242000D01*
X113840000Y-123518000D02*
X113840000Y-120620000D01*
X113880000Y-118140000D02*
X113880000Y-115214000D01*
X113880000Y-123546000D02*
X113880000Y-120620000D01*
X113920000Y-118140000D02*
X113920000Y-115187000D01*
X113920000Y-123573000D02*
X113920000Y-120620000D01*
X113960000Y-118140000D02*
X113960000Y-115160000D01*
X113960000Y-123600000D02*
X113960000Y-120620000D01*
X114000000Y-118140000D02*
X114000000Y-115133000D01*
X114000000Y-123627000D02*
X114000000Y-120620000D01*
X114040000Y-118140000D02*
X114040000Y-115108000D01*
X114040000Y-123652000D02*
X114040000Y-120620000D01*
X114080000Y-118140000D02*
X114080000Y-115082000D01*
X114080000Y-123678000D02*
X114080000Y-120620000D01*
X114120000Y-118140000D02*
X114120000Y-115057000D01*
X114120000Y-123703000D02*
X114120000Y-120620000D01*
X114160000Y-118140000D02*
X114160000Y-115033000D01*
X114160000Y-123727000D02*
X114160000Y-120620000D01*
X114200000Y-118140000D02*
X114200000Y-115009000D01*
X114200000Y-123751000D02*
X114200000Y-120620000D01*
X114240000Y-118140000D02*
X114240000Y-114986000D01*
X114240000Y-123774000D02*
X114240000Y-120620000D01*
X114280000Y-118140000D02*
X114280000Y-114963000D01*
X114280000Y-123797000D02*
X114280000Y-120620000D01*
X114320000Y-118140000D02*
X114320000Y-114941000D01*
X114320000Y-123819000D02*
X114320000Y-120620000D01*
X114360000Y-118140000D02*
X114360000Y-114919000D01*
X114360000Y-123841000D02*
X114360000Y-120620000D01*
X114400000Y-118140000D02*
X114400000Y-114897000D01*
X114400000Y-123863000D02*
X114400000Y-120620000D01*
X114440000Y-118140000D02*
X114440000Y-114876000D01*
X114440000Y-123884000D02*
X114440000Y-120620000D01*
X114480000Y-118140000D02*
X114480000Y-114856000D01*
X114480000Y-123904000D02*
X114480000Y-120620000D01*
X114520000Y-118140000D02*
X114520000Y-114836000D01*
X114520000Y-123924000D02*
X114520000Y-120620000D01*
X114560000Y-118140000D02*
X114560000Y-114816000D01*
X114560000Y-123944000D02*
X114560000Y-120620000D01*
X114600000Y-118140000D02*
X114600000Y-114797000D01*
X114600000Y-123963000D02*
X114600000Y-120620000D01*
X114640000Y-118140000D02*
X114640000Y-114778000D01*
X114640000Y-123982000D02*
X114640000Y-120620000D01*
X114680000Y-118140000D02*
X114680000Y-114760000D01*
X114680000Y-124000000D02*
X114680000Y-120620000D01*
X114720000Y-118140000D02*
X114720000Y-114742000D01*
X114720000Y-124018000D02*
X114720000Y-120620000D01*
X114760000Y-118140000D02*
X114760000Y-114724000D01*
X114760000Y-124036000D02*
X114760000Y-120620000D01*
X114800000Y-118140000D02*
X114800000Y-114707000D01*
X114800000Y-124053000D02*
X114800000Y-120620000D01*
X114840000Y-118140000D02*
X114840000Y-114690000D01*
X114840000Y-124070000D02*
X114840000Y-120620000D01*
X114880000Y-118140000D02*
X114880000Y-114674000D01*
X114880000Y-124086000D02*
X114880000Y-120620000D01*
X114920000Y-118140000D02*
X114920000Y-114658000D01*
X114920000Y-124102000D02*
X114920000Y-120620000D01*
X114960000Y-118140000D02*
X114960000Y-114642000D01*
X114960000Y-124118000D02*
X114960000Y-120620000D01*
X115000000Y-118140000D02*
X115000000Y-114627000D01*
X115000000Y-124133000D02*
X115000000Y-120620000D01*
X115040000Y-118140000D02*
X115040000Y-114612000D01*
X115040000Y-124148000D02*
X115040000Y-120620000D01*
X115080000Y-118140000D02*
X115080000Y-114598000D01*
X115080000Y-124162000D02*
X115080000Y-120620000D01*
X115120000Y-118140000D02*
X115120000Y-114583000D01*
X115120000Y-124177000D02*
X115120000Y-120620000D01*
X115160000Y-118140000D02*
X115160000Y-114570000D01*
X115160000Y-124190000D02*
X115160000Y-120620000D01*
X115200000Y-118140000D02*
X115200000Y-114556000D01*
X115200000Y-124204000D02*
X115200000Y-120620000D01*
X115240000Y-118140000D02*
X115240000Y-114543000D01*
X115240000Y-124217000D02*
X115240000Y-120620000D01*
X115280000Y-118140000D02*
X115280000Y-114531000D01*
X115280000Y-124229000D02*
X115280000Y-120620000D01*
X115320000Y-118140000D02*
X115320000Y-114519000D01*
X115320000Y-124241000D02*
X115320000Y-120620000D01*
X115360000Y-118140000D02*
X115360000Y-114507000D01*
X115360000Y-124253000D02*
X115360000Y-120620000D01*
X115400000Y-118140000D02*
X115400000Y-114495000D01*
X115400000Y-124265000D02*
X115400000Y-120620000D01*
X115440000Y-118140000D02*
X115440000Y-114484000D01*
X115440000Y-124276000D02*
X115440000Y-120620000D01*
X115480000Y-118140000D02*
X115480000Y-114473000D01*
X115480000Y-124287000D02*
X115480000Y-120620000D01*
X115520000Y-118140000D02*
X115520000Y-114463000D01*
X115520000Y-124297000D02*
X115520000Y-120620000D01*
X115560000Y-124308000D02*
X115560000Y-114452000D01*
X115600000Y-124317000D02*
X115600000Y-114443000D01*
X115640000Y-124327000D02*
X115640000Y-114433000D01*
X115680000Y-124336000D02*
X115680000Y-114424000D01*
X115720000Y-124345000D02*
X115720000Y-114415000D01*
X115760000Y-124353000D02*
X115760000Y-114407000D01*
X115800000Y-124361000D02*
X115800000Y-114399000D01*
X115840000Y-124369000D02*
X115840000Y-114391000D01*
X115880000Y-124377000D02*
X115880000Y-114383000D01*
X115920000Y-124384000D02*
X115920000Y-114376000D01*
X115960000Y-124391000D02*
X115960000Y-114369000D01*
X116000000Y-124397000D02*
X116000000Y-114363000D01*
X116040000Y-124403000D02*
X116040000Y-114357000D01*
X116080000Y-124409000D02*
X116080000Y-114351000D01*
X116120000Y-124415000D02*
X116120000Y-114345000D01*
X116160000Y-124420000D02*
X116160000Y-114340000D01*
X116200000Y-124425000D02*
X116200000Y-114335000D01*
X116240000Y-124429000D02*
X116240000Y-114331000D01*
X116280000Y-124434000D02*
X116280000Y-114326000D01*
X116320000Y-124437000D02*
X116320000Y-114323000D01*
X116360000Y-124441000D02*
X116360000Y-114319000D01*
X116400000Y-124444000D02*
X116400000Y-114316000D01*
X116440000Y-124447000D02*
X116440000Y-114313000D01*
X116480000Y-124450000D02*
X116480000Y-114310000D01*
X116520000Y-124452000D02*
X116520000Y-114308000D01*
X116560000Y-124454000D02*
X116560000Y-114306000D01*
X116600000Y-124456000D02*
X116600000Y-114304000D01*
X116640000Y-124457000D02*
X116640000Y-114303000D01*
X116680000Y-124459000D02*
X116680000Y-114301000D01*
X116720000Y-124459000D02*
X116720000Y-114301000D01*
X116760000Y-124460000D02*
X116760000Y-114300000D01*
X116800000Y-124460000D02*
X116800000Y-114300000D01*
X121779646Y-122755000D02*
X121779646Y-121755000D01*
X122279646Y-122255000D02*
X121279646Y-122255000D01*
%TO.C,J4*%
X94420000Y-125980000D02*
X93540000Y-125980000D01*
X93980000Y-125370000D01*
X94420000Y-125980000D01*
G36*
X94420000Y-125980000D02*
G01*
X93540000Y-125980000D01*
X93980000Y-125370000D01*
X94420000Y-125980000D01*
G37*
X101720000Y-115330000D02*
X101720000Y-125370000D01*
X94280000Y-125370000D02*
X101720000Y-125370000D01*
X91320000Y-125370000D02*
X93680000Y-125370000D01*
X91320000Y-124750000D02*
X101720000Y-124750000D01*
X91320000Y-123250000D02*
X101720000Y-123250000D01*
X91320000Y-118350000D02*
X101720000Y-118350000D01*
X91320000Y-115330000D02*
X101720000Y-115330000D01*
X91320000Y-115330000D02*
X91320000Y-125370000D01*
%TO.C,D2*%
X104320000Y-131020000D02*
X98880000Y-131020000D01*
X98880000Y-140760000D01*
X104320000Y-140760000D01*
X104320000Y-131020000D01*
X101600000Y-141670000D02*
X101600000Y-140760000D01*
X104320000Y-132685000D02*
X98880000Y-132685000D01*
X104320000Y-132565000D02*
X98880000Y-132565000D01*
X104320000Y-132445000D02*
X98880000Y-132445000D01*
X101600000Y-130110000D02*
X101600000Y-131020000D01*
%TO.C,D1*%
X95050000Y-134800000D02*
X95180000Y-134800000D01*
X97990000Y-134800000D02*
X97860000Y-134800000D01*
X97990000Y-130380000D02*
X95050000Y-130380000D01*
X97990000Y-130260000D02*
X95050000Y-130260000D01*
X97990000Y-130140000D02*
X95050000Y-130140000D01*
X95050000Y-129360000D02*
X95050000Y-134800000D01*
X95180000Y-129360000D02*
X95050000Y-129360000D01*
X97860000Y-129360000D02*
X97990000Y-129360000D01*
X97990000Y-129360000D02*
X97990000Y-134800000D01*
%TO.C,Q2*%
X105170000Y-131652500D02*
X104840000Y-131892500D01*
X104840000Y-131412500D01*
X105170000Y-131652500D01*
G36*
X105170000Y-131652500D02*
G01*
X104840000Y-131892500D01*
X104840000Y-131412500D01*
X105170000Y-131652500D01*
G37*
X108240000Y-130490000D02*
X108240000Y-129840000D01*
X108240000Y-130490000D02*
X108240000Y-131140000D01*
X105120000Y-130490000D02*
X105120000Y-129840000D01*
X105120000Y-130490000D02*
X105120000Y-131140000D01*
%TO.C,Q1*%
X103420000Y-124490000D02*
X108040000Y-124490000D01*
X103420000Y-124490000D02*
X103420000Y-114270000D01*
X104800000Y-124490000D02*
X104800000Y-114270000D01*
X108040000Y-124490000D02*
X108040000Y-114270000D01*
X103420000Y-121230000D02*
X104800000Y-121230000D01*
X103420000Y-117530000D02*
X104800000Y-117530000D01*
X103420000Y-114270000D02*
X108040000Y-114270000D01*
%TO.C,R7*%
X107452936Y-127735000D02*
X107907064Y-127735000D01*
X107452936Y-126265000D02*
X107907064Y-126265000D01*
%TO.C,U3*%
X125840000Y-136000000D02*
X124460000Y-136000000D01*
X125840000Y-134620000D02*
X125840000Y-136000000D01*
X125840000Y-133350000D02*
X125840000Y-125620000D01*
X125840000Y-133350000D02*
X123080000Y-133350000D01*
X125840000Y-125620000D02*
X123080000Y-125620000D01*
X123080000Y-133350000D02*
X123080000Y-125620000D01*
%TO.C,C6*%
X49848750Y-108686252D02*
X49848750Y-108163748D01*
X48378750Y-108686252D02*
X48378750Y-108163748D01*
%TO.C,U2*%
X36218750Y-114785000D02*
X36218750Y-113285000D01*
X36218750Y-114785000D02*
X36218750Y-116285000D01*
X39438750Y-114785000D02*
X39438750Y-113285000D01*
X39438750Y-114785000D02*
X39438750Y-116285000D01*
X36393750Y-116997500D02*
X36063750Y-117237500D01*
X36063750Y-116757500D01*
X36393750Y-116997500D01*
G36*
X36393750Y-116997500D02*
G01*
X36063750Y-117237500D01*
X36063750Y-116757500D01*
X36393750Y-116997500D01*
G37*
%TO.C,R4*%
X45368750Y-108672064D02*
X45368750Y-108217936D01*
X46838750Y-108672064D02*
X46838750Y-108217936D01*
%TO.C,J2*%
X28433750Y-124505000D02*
X28433750Y-133745000D01*
X28433750Y-124505000D02*
X43673750Y-124505000D01*
X28433750Y-132125000D02*
X43673750Y-132125000D01*
X28433750Y-133225000D02*
X43673750Y-133225000D01*
X28433750Y-133745000D02*
X30753750Y-133745000D01*
X31353750Y-133745000D02*
X43673750Y-133745000D01*
X43673750Y-124505000D02*
X43673750Y-133745000D01*
X31493750Y-134355000D02*
X30613750Y-134355000D01*
X31053750Y-133745000D01*
X31493750Y-134355000D01*
G36*
X31493750Y-134355000D02*
G01*
X30613750Y-134355000D01*
X31053750Y-133745000D01*
X31493750Y-134355000D01*
G37*
%TO.C,J1*%
X59290000Y-99200000D02*
X60670000Y-99200000D01*
X59290000Y-100580000D02*
X59290000Y-99200000D01*
X59290000Y-101850000D02*
X59290000Y-155300000D01*
X59290000Y-101850000D02*
X62050000Y-101850000D01*
X59290000Y-155300000D02*
X62050000Y-155300000D01*
X62050000Y-101850000D02*
X62050000Y-155300000D01*
%TO.C,R2*%
X35628750Y-121162064D02*
X35628750Y-120707936D01*
X37098750Y-121162064D02*
X37098750Y-120707936D01*
%TO.C,C1*%
X37958750Y-104186252D02*
X37958750Y-103663748D01*
X39428750Y-104186252D02*
X39428750Y-103663748D01*
%TO.C,R9*%
X45196686Y-113980000D02*
X45650814Y-113980000D01*
X45196686Y-115450000D02*
X45650814Y-115450000D01*
%TO.C,U5*%
X38243750Y-108152500D02*
X38243750Y-107352500D01*
X38243750Y-108152500D02*
X38243750Y-108952500D01*
X41363750Y-108152500D02*
X41363750Y-107352500D01*
X41363750Y-108152500D02*
X41363750Y-108952500D01*
X38293750Y-109452500D02*
X37963750Y-109692500D01*
X37963750Y-109212500D01*
X38293750Y-109452500D01*
G36*
X38293750Y-109452500D02*
G01*
X37963750Y-109692500D01*
X37963750Y-109212500D01*
X38293750Y-109452500D01*
G37*
%TO.C,C4*%
X51576248Y-113740000D02*
X52098752Y-113740000D01*
X51576248Y-115210000D02*
X52098752Y-115210000D01*
%TO.C,R8*%
X112987064Y-137895000D02*
X112532936Y-137895000D01*
X112987064Y-136425000D02*
X112532936Y-136425000D01*
%TO.C,C2*%
X40053750Y-114423748D02*
X40053750Y-114946252D01*
X41523750Y-114423748D02*
X41523750Y-114946252D01*
%TO.C,R6*%
X108485000Y-134847064D02*
X108485000Y-134392936D01*
X109955000Y-134847064D02*
X109955000Y-134392936D01*
%TO.C,J3*%
X84690000Y-99470000D02*
X86070000Y-99470000D01*
X84690000Y-100850000D02*
X84690000Y-99470000D01*
X84690000Y-102120000D02*
X84690000Y-155570000D01*
X84690000Y-102120000D02*
X87450000Y-102120000D01*
X84690000Y-155570000D02*
X87450000Y-155570000D01*
X87450000Y-102120000D02*
X87450000Y-155570000D01*
%TO.C,R5*%
X38318750Y-121302064D02*
X38318750Y-120847936D01*
X39788750Y-121302064D02*
X39788750Y-120847936D01*
%TO.C,D4*%
X116130000Y-128000000D02*
X120140000Y-128000000D01*
X116130000Y-126000000D02*
X120140000Y-126000000D01*
X116130000Y-126000000D02*
X116130000Y-128000000D01*
%TO.C,R1*%
X34248750Y-114577936D02*
X34248750Y-115032064D01*
X35718750Y-114577936D02*
X35718750Y-115032064D01*
%TO.C,U4*%
X120540000Y-102760000D02*
X121920000Y-102760000D01*
X120540000Y-104140000D02*
X120540000Y-102760000D01*
X120540000Y-105410000D02*
X120540000Y-113140000D01*
X120540000Y-105410000D02*
X123300000Y-105410000D01*
X120540000Y-113140000D02*
X123300000Y-113140000D01*
X123300000Y-105410000D02*
X123300000Y-113140000D01*
%TO.C,R3*%
X42378750Y-108842064D02*
X42378750Y-108387936D01*
X43848750Y-108842064D02*
X43848750Y-108387936D01*
%TD*%
%LPC*%
D12*
%TO.C,J5*%
X91820000Y-108760000D03*
D13*
X96520000Y-105760000D03*
D14*
X96520000Y-111760000D03*
%TD*%
D15*
%TO.C,J6*%
X111760000Y-106680000D03*
D16*
X106760000Y-106680000D03*
%TD*%
D17*
%TO.C,C3*%
X114300000Y-119380000D03*
D18*
X119300000Y-119380000D03*
%TD*%
D15*
%TO.C,J4*%
X99060000Y-120650000D03*
D16*
X93980000Y-120650000D03*
%TD*%
D19*
%TO.C,D2*%
X101600000Y-143510000D03*
D20*
X101600000Y-128270000D03*
%TD*%
D21*
%TO.C,D1*%
X96520000Y-135890000D03*
D22*
X96520000Y-128270000D03*
%TD*%
D23*
%TO.C,Q2*%
X106680000Y-129552500D03*
X107630000Y-131427500D03*
X105730000Y-131427500D03*
%TD*%
D24*
%TO.C,Q1*%
X106680000Y-121920000D03*
D25*
X106680000Y-119380000D03*
X106680000Y-116840000D03*
%TD*%
D26*
%TO.C,R7*%
X108680000Y-127000000D03*
X106680000Y-127000000D03*
%TD*%
D27*
%TO.C,U3*%
X124460000Y-134620000D03*
D28*
X124460000Y-132080000D03*
X124460000Y-129540000D03*
X124460000Y-127000000D03*
%TD*%
D29*
%TO.C,C6*%
X49113750Y-107475000D03*
X49113750Y-109375000D03*
%TD*%
D30*
%TO.C,U2*%
X36853750Y-116897500D03*
X37503750Y-116897500D03*
X38153750Y-116897500D03*
X38803750Y-116897500D03*
X38803750Y-112672500D03*
X38153750Y-112672500D03*
X37503750Y-112672500D03*
X36853750Y-112672500D03*
%TD*%
D31*
%TO.C,R4*%
X46103750Y-109445000D03*
X46103750Y-107445000D03*
%TD*%
D16*
%TO.C,J2*%
X31053750Y-128625000D03*
D15*
X36053750Y-128625000D03*
X41053750Y-128625000D03*
%TD*%
D27*
%TO.C,J1*%
X60670000Y-100580000D03*
D28*
X60670000Y-103120000D03*
X60670000Y-105660000D03*
X60670000Y-108200000D03*
X60670000Y-110740000D03*
X60670000Y-113280000D03*
X60670000Y-115820000D03*
X60670000Y-118360000D03*
X60670000Y-120900000D03*
X60670000Y-123440000D03*
X60670000Y-125980000D03*
X60670000Y-128520000D03*
X60670000Y-131060000D03*
X60670000Y-133600000D03*
X60670000Y-136140000D03*
X60670000Y-138680000D03*
X60670000Y-141220000D03*
X60670000Y-143760000D03*
X60670000Y-146300000D03*
X60670000Y-148840000D03*
X60670000Y-151380000D03*
X60670000Y-153920000D03*
%TD*%
D31*
%TO.C,R2*%
X36363750Y-121935000D03*
X36363750Y-119935000D03*
%TD*%
D29*
%TO.C,C1*%
X38693750Y-104875000D03*
X38693750Y-102975000D03*
%TD*%
D26*
%TO.C,R9*%
X44423750Y-114715000D03*
X46423750Y-114715000D03*
%TD*%
D32*
%TO.C,U5*%
X38853750Y-109290000D03*
X39803750Y-109290000D03*
X40753750Y-109290000D03*
X40753750Y-107015000D03*
X38853750Y-107015000D03*
%TD*%
D33*
%TO.C,C4*%
X50800000Y-114475000D03*
X52875000Y-114475000D03*
%TD*%
D34*
%TO.C,R8*%
X113760000Y-137160000D03*
X111760000Y-137160000D03*
%TD*%
D35*
%TO.C,C2*%
X40788750Y-113735000D03*
X40788750Y-115635000D03*
%TD*%
D31*
%TO.C,R6*%
X109220000Y-135620000D03*
X109220000Y-133620000D03*
%TD*%
D27*
%TO.C,J3*%
X86070000Y-100850000D03*
D28*
X86070000Y-103390000D03*
X86070000Y-105930000D03*
X86070000Y-108470000D03*
X86070000Y-111010000D03*
X86070000Y-113550000D03*
X86070000Y-116090000D03*
X86070000Y-118630000D03*
X86070000Y-121170000D03*
X86070000Y-123710000D03*
X86070000Y-126250000D03*
X86070000Y-128790000D03*
X86070000Y-131330000D03*
X86070000Y-133870000D03*
X86070000Y-136410000D03*
X86070000Y-138950000D03*
X86070000Y-141490000D03*
X86070000Y-144030000D03*
X86070000Y-146570000D03*
X86070000Y-149110000D03*
X86070000Y-151650000D03*
X86070000Y-154190000D03*
%TD*%
D31*
%TO.C,R5*%
X39053750Y-122075000D03*
X39053750Y-120075000D03*
%TD*%
D36*
%TO.C,D4*%
X120140000Y-127000000D03*
X116840000Y-127000000D03*
%TD*%
D37*
%TO.C,R1*%
X34983750Y-113805000D03*
X34983750Y-115805000D03*
%TD*%
D27*
%TO.C,U4*%
X121920000Y-104140000D03*
D28*
X121920000Y-106680000D03*
X121920000Y-109220000D03*
X121920000Y-111760000D03*
%TD*%
D31*
%TO.C,R3*%
X43113750Y-109615000D03*
X43113750Y-107615000D03*
%TD*%
%LPD*%
M02*
