%TF.GenerationSoftware,KiCad,Pcbnew,9.0.2*%
%TF.CreationDate,2026-08-13T00:51:52+05:30*%
%TF.ProjectId,CORTICAL EXOSLEEVE,434f5254-4943-4414-9c20-45584f534c45,rev?*%
%TF.SameCoordinates,Original*%
%TF.FileFunction,Copper,L1,Top*%
%TF.FilePolarity,Positive*%
%FSLAX46Y46*%
G04 Gerber Fmt 4.6, Leading zero omitted, Abs format (unit mm)*
G04 Created by KiCad (PCBNEW 9.0.2) date 2026-08-13 00:51:52*
%MOMM*%
%LPD*%
G01*
G04 APERTURE LIST*
G04 Aperture macros list*
%AMRoundRect*
0 Rectangle with rounded corners*
0 $1 Rounding radius*
0 $2 $3 $4 $5 $6 $7 $8 $9 X,Y pos of 4 corners*
0 Add a 4 corners polygon primitive as box body*
4,1,4,$2,$3,$4,$5,$6,$7,$8,$9,$2,$3,0*
0 Add four circle primitives for the rounded corners*
1,1,$1+$1,$2,$3*
1,1,$1+$1,$4,$5*
1,1,$1+$1,$6,$7*
1,1,$1+$1,$8,$9*
0 Add four rect primitives between the rounded corners*
20,1,$1+$1,$2,$3,$4,$5,0*
20,1,$1+$1,$4,$5,$6,$7,0*
20,1,$1+$1,$6,$7,$8,$9,0*
20,1,$1+$1,$8,$9,$2,$3,0*%
G04 Aperture macros list end*
%TA.AperFunction,Conductor*%
%ADD10C,0.200000*%
%TD*%
%TA.AperFunction,ComponentPad*%
%ADD11RoundRect,0.875000X-0.875000X0.875000X-0.875000X-0.875000X0.875000X-0.875000X0.875000X0.875000X0*%
%TD*%
%TA.AperFunction,ComponentPad*%
%ADD12RoundRect,0.750000X-1.000000X0.750000X-1.000000X-0.750000X1.000000X-0.750000X1.000000X0.750000X0*%
%TD*%
%TA.AperFunction,ComponentPad*%
%ADD13R,3.500000X3.500000*%
%TD*%
%TA.AperFunction,ComponentPad*%
%ADD14C,2.600000*%
%TD*%
%TA.AperFunction,ComponentPad*%
%ADD15RoundRect,0.250000X-1.050000X-1.050000X1.050000X-1.050000X1.050000X1.050000X-1.050000X1.050000X0*%
%TD*%
%TA.AperFunction,ComponentPad*%
%ADD16C,2.000000*%
%TD*%
%TA.AperFunction,ComponentPad*%
%ADD17RoundRect,0.250000X0.750000X0.750000X-0.750000X0.750000X-0.750000X-0.750000X0.750000X-0.750000X0*%
%TD*%
%TA.AperFunction,ComponentPad*%
%ADD18C,3.200000*%
%TD*%
%TA.AperFunction,ComponentPad*%
%ADD19RoundRect,0.250000X-1.350000X1.350000X-1.350000X-1.350000X1.350000X-1.350000X1.350000X1.350000X0*%
%TD*%
%TA.AperFunction,ComponentPad*%
%ADD20C,2.200000*%
%TD*%
%TA.AperFunction,ComponentPad*%
%ADD21RoundRect,0.249999X-0.850001X0.850001X-0.850001X-0.850001X0.850001X-0.850001X0.850001X0.850001X0*%
%TD*%
%TA.AperFunction,SMDPad,CuDef*%
%ADD22RoundRect,0.150000X0.150000X-0.587500X0.150000X0.587500X-0.150000X0.587500X-0.150000X-0.587500X0*%
%TD*%
%TA.AperFunction,ComponentPad*%
%ADD23R,2.000000X1.905000*%
%TD*%
%TA.AperFunction,ComponentPad*%
%ADD24O,2.000000X1.905000*%
%TD*%
%TA.AperFunction,SMDPad,CuDef*%
%ADD25RoundRect,0.250000X-0.350000X-0.450000X0.350000X-0.450000X0.350000X0.450000X-0.350000X0.450000X0*%
%TD*%
%TA.AperFunction,ComponentPad*%
%ADD26R,1.700000X1.700000*%
%TD*%
%TA.AperFunction,ComponentPad*%
%ADD27C,1.700000*%
%TD*%
%TA.AperFunction,SMDPad,CuDef*%
%ADD28RoundRect,0.250000X0.475000X-0.250000X0.475000X0.250000X-0.475000X0.250000X-0.475000X-0.250000X0*%
%TD*%
%TA.AperFunction,SMDPad,CuDef*%
%ADD29RoundRect,0.100000X0.100000X-0.712500X0.100000X0.712500X-0.100000X0.712500X-0.100000X-0.712500X0*%
%TD*%
%TA.AperFunction,SMDPad,CuDef*%
%ADD30RoundRect,0.250000X0.450000X-0.350000X0.450000X0.350000X-0.450000X0.350000X-0.450000X-0.350000X0*%
%TD*%
%TA.AperFunction,SMDPad,CuDef*%
%ADD31RoundRect,0.150000X0.150000X-0.512500X0.150000X0.512500X-0.150000X0.512500X-0.150000X-0.512500X0*%
%TD*%
%TA.AperFunction,SMDPad,CuDef*%
%ADD32RoundRect,0.250000X-0.337500X-0.475000X0.337500X-0.475000X0.337500X0.475000X-0.337500X0.475000X0*%
%TD*%
%TA.AperFunction,SMDPad,CuDef*%
%ADD33RoundRect,0.250000X0.350000X0.450000X-0.350000X0.450000X-0.350000X-0.450000X0.350000X-0.450000X0*%
%TD*%
%TA.AperFunction,SMDPad,CuDef*%
%ADD34RoundRect,0.250000X-0.475000X0.250000X-0.475000X-0.250000X0.475000X-0.250000X0.475000X0.250000X0*%
%TD*%
%TA.AperFunction,SMDPad,CuDef*%
%ADD35RoundRect,0.225000X-0.225000X-0.375000X0.225000X-0.375000X0.225000X0.375000X-0.225000X0.375000X0*%
%TD*%
%TA.AperFunction,SMDPad,CuDef*%
%ADD36RoundRect,0.250000X-0.450000X0.350000X-0.450000X-0.350000X0.450000X-0.350000X0.450000X0.350000X0*%
%TD*%
%TA.AperFunction,ViaPad*%
%ADD37C,0.600000*%
%TD*%
%TA.AperFunction,ViaPad*%
%ADD38C,0.800000*%
%TD*%
%TA.AperFunction,Conductor*%
%ADD39C,1.200000*%
%TD*%
%TA.AperFunction,Conductor*%
%ADD40C,0.800000*%
%TD*%
%TA.AperFunction,Conductor*%
%ADD41C,0.250000*%
%TD*%
%TA.AperFunction,Conductor*%
%ADD42C,1.000000*%
%TD*%
%TA.AperFunction,Conductor*%
%ADD43C,0.400000*%
%TD*%
%TA.AperFunction,Conductor*%
%ADD44C,0.500000*%
%TD*%
G04 APERTURE END LIST*
D10*
%TO.N,GND*%
X38828750Y-117135000D02*
X38828750Y-116935000D01*
X25500000Y-96500000D02*
X126250000Y-96500000D01*
X126250000Y-162250000D01*
X25500000Y-162250000D01*
X25500000Y-96500000D01*
%TD*%
D11*
%TO.P,J5,3*%
%TO.N,GND*%
X91820000Y-108760000D03*
D12*
%TO.P,J5,2*%
X96520000Y-105760000D03*
D13*
%TO.P,J5,1*%
%TO.N,Net-(J6-Pin_1)*%
X96520000Y-111760000D03*
%TD*%
D14*
%TO.P,J6,2,Pin_2*%
%TO.N,+11.1V_SW*%
X111760000Y-106680000D03*
D15*
%TO.P,J6,1,Pin_1*%
%TO.N,Net-(J6-Pin_1)*%
X106760000Y-106680000D03*
%TD*%
D16*
%TO.P,C3,2*%
%TO.N,GND*%
X114300000Y-119380000D03*
D17*
%TO.P,C3,1*%
%TO.N,+24V*%
X119300000Y-119380000D03*
%TD*%
D14*
%TO.P,J4,2,Pin_2*%
%TO.N,Net-(D2-K)*%
X99060000Y-120650000D03*
D15*
%TO.P,J4,1,Pin_1*%
%TO.N,+24V*%
X93980000Y-120650000D03*
%TD*%
D18*
%TO.P,D2,2,A*%
%TO.N,Net-(D1-A)*%
X101600000Y-143510000D03*
D19*
%TO.P,D2,1,K*%
%TO.N,Net-(D2-K)*%
X101600000Y-128270000D03*
%TD*%
D20*
%TO.P,D1,2,A*%
%TO.N,Net-(D1-A)*%
X96520000Y-135890000D03*
D21*
%TO.P,D1,1,K*%
%TO.N,+24V*%
X96520000Y-128270000D03*
%TD*%
D22*
%TO.P,Q2,3,C*%
%TO.N,Net-(Q1-G)*%
X106680000Y-129552500D03*
%TO.P,Q2,2,B*%
%TO.N,Net-(Q2-B)*%
X107630000Y-131427500D03*
%TO.P,Q2,1,E*%
%TO.N,GND*%
X105730000Y-131427500D03*
%TD*%
D23*
%TO.P,Q1,1,G*%
%TO.N,Net-(Q1-G)*%
X106680000Y-121920000D03*
D24*
%TO.P,Q1,2,D*%
%TO.N,Net-(D2-K)*%
X106680000Y-119380000D03*
%TO.P,Q1,3,S*%
%TO.N,GND*%
X106680000Y-116840000D03*
%TD*%
D25*
%TO.P,R7,2*%
%TO.N,+5V*%
X108680000Y-127000000D03*
%TO.P,R7,1*%
%TO.N,Net-(Q1-G)*%
X106680000Y-127000000D03*
%TD*%
D26*
%TO.P,U3,1,Pin_1*%
%TO.N,+11.1V_SW*%
X124460000Y-134620000D03*
D27*
%TO.P,U3,2,Pin_2*%
%TO.N,GND*%
X124460000Y-132080000D03*
%TO.P,U3,3,Pin_3*%
X124460000Y-129540000D03*
%TO.P,U3,4,Pin_4*%
%TO.N,Net-(D4-A)*%
X124460000Y-127000000D03*
%TD*%
D28*
%TO.P,C6,2*%
%TO.N,GND*%
X49113750Y-107475000D03*
%TO.P,C6,1*%
%TO.N,Net-(U5-+)*%
X49113750Y-109375000D03*
%TD*%
D29*
%TO.P,U2,1,Rg*%
%TO.N,Net-(R1-Pad2)*%
X36853750Y-116897500D03*
%TO.P,U2,2,-*%
%TO.N,Net-(U2--)*%
X37503750Y-116897500D03*
%TO.P,U2,3,+*%
%TO.N,Net-(U2-+)*%
X38153750Y-116897500D03*
%TO.P,U2,4,V-*%
%TO.N,GND*%
X38803750Y-116897500D03*
%TO.P,U2,5,Ref*%
%TO.N,/V_REF*%
X38803750Y-112672500D03*
%TO.P,U2,6*%
%TO.N,Net-(R9-Pad1)*%
X38153750Y-112672500D03*
%TO.P,U2,7,V+*%
%TO.N,+3.3V*%
X37503750Y-112672500D03*
%TO.P,U2,8,Rg*%
%TO.N,Net-(R1-Pad1)*%
X36853750Y-112672500D03*
%TD*%
D30*
%TO.P,R4,1*%
%TO.N,Net-(U5-+)*%
X46103750Y-109445000D03*
%TO.P,R4,2*%
%TO.N,GND*%
X46103750Y-107445000D03*
%TD*%
D15*
%TO.P,J2,1,Pin_1*%
%TO.N,/V_REF*%
X31053750Y-128625000D03*
D14*
%TO.P,J2,2,Pin_2*%
%TO.N,Net-(J2-Pin_2)*%
X36053750Y-128625000D03*
%TO.P,J2,3,Pin_3*%
%TO.N,Net-(J2-Pin_3)*%
X41053750Y-128625000D03*
%TD*%
D26*
%TO.P,J1,1,Pin_1*%
%TO.N,+3.3V*%
X60670000Y-100580000D03*
D27*
%TO.P,J1,2,Pin_2*%
X60670000Y-103120000D03*
%TO.P,J1,3,Pin_3*%
%TO.N,unconnected-(J1-Pin_3-Pad3)*%
X60670000Y-105660000D03*
%TO.P,J1,4,Pin_4*%
%TO.N,sEMG_ANALOG*%
X60670000Y-108200000D03*
%TO.P,J1,5,Pin_5*%
%TO.N,unconnected-(J1-Pin_5-Pad5)*%
X60670000Y-110740000D03*
%TO.P,J1,6,Pin_6*%
%TO.N,unconnected-(J1-Pin_6-Pad6)*%
X60670000Y-113280000D03*
%TO.P,J1,7,Pin_7*%
%TO.N,unconnected-(J1-Pin_7-Pad7)*%
X60670000Y-115820000D03*
%TO.P,J1,8,Pin_8*%
%TO.N,unconnected-(J1-Pin_8-Pad8)*%
X60670000Y-118360000D03*
%TO.P,J1,9,Pin_9*%
%TO.N,unconnected-(J1-Pin_9-Pad9)*%
X60670000Y-120900000D03*
%TO.P,J1,10,Pin_10*%
%TO.N,unconnected-(J1-Pin_10-Pad10)*%
X60670000Y-123440000D03*
%TO.P,J1,11,Pin_11*%
%TO.N,unconnected-(J1-Pin_11-Pad11)*%
X60670000Y-125980000D03*
%TO.P,J1,12,Pin_12*%
%TO.N,unconnected-(J1-Pin_12-Pad12)*%
X60670000Y-128520000D03*
%TO.P,J1,13,Pin_13*%
%TO.N,unconnected-(J1-Pin_13-Pad13)*%
X60670000Y-131060000D03*
%TO.P,J1,14,Pin_14*%
%TO.N,unconnected-(J1-Pin_14-Pad14)*%
X60670000Y-133600000D03*
%TO.P,J1,15,Pin_15*%
%TO.N,unconnected-(J1-Pin_15-Pad15)*%
X60670000Y-136140000D03*
%TO.P,J1,16,Pin_16*%
%TO.N,unconnected-(J1-Pin_16-Pad16)*%
X60670000Y-138680000D03*
%TO.P,J1,17,Pin_17*%
%TO.N,unconnected-(J1-Pin_17-Pad17)*%
X60670000Y-141220000D03*
%TO.P,J1,18,Pin_18*%
%TO.N,unconnected-(J1-Pin_18-Pad18)*%
X60670000Y-143760000D03*
%TO.P,J1,19,Pin_19*%
%TO.N,unconnected-(J1-Pin_19-Pad19)*%
X60670000Y-146300000D03*
%TO.P,J1,20,Pin_20*%
%TO.N,unconnected-(J1-Pin_20-Pad20)*%
X60670000Y-148840000D03*
%TO.P,J1,21,Pin_21*%
%TO.N,+5V*%
X60670000Y-151380000D03*
%TO.P,J1,22,Pin_22*%
%TO.N,GND*%
X60670000Y-153920000D03*
%TD*%
D30*
%TO.P,R2,1*%
%TO.N,Net-(J2-Pin_2)*%
X36363750Y-121935000D03*
%TO.P,R2,2*%
%TO.N,Net-(U2--)*%
X36363750Y-119935000D03*
%TD*%
D28*
%TO.P,C1,1*%
%TO.N,+3.3V*%
X38693750Y-104875000D03*
%TO.P,C1,2*%
%TO.N,GND*%
X38693750Y-102975000D03*
%TD*%
D25*
%TO.P,R9,1*%
%TO.N,Net-(R9-Pad1)*%
X44423750Y-114715000D03*
%TO.P,R9,2*%
%TO.N,sEMG_ANALOG*%
X46423750Y-114715000D03*
%TD*%
D31*
%TO.P,U5,1*%
%TO.N,/V_REF*%
X38853750Y-109290000D03*
%TO.P,U5,2,V-*%
%TO.N,GND*%
X39803750Y-109290000D03*
%TO.P,U5,3,+*%
%TO.N,Net-(U5-+)*%
X40753750Y-109290000D03*
%TO.P,U5,4,-*%
%TO.N,/V_REF*%
X40753750Y-107015000D03*
%TO.P,U5,5,V+*%
%TO.N,+3.3V*%
X38853750Y-107015000D03*
%TD*%
D32*
%TO.P,C4,1*%
%TO.N,sEMG_ANALOG*%
X50800000Y-114475000D03*
%TO.P,C4,2*%
%TO.N,GND*%
X52875000Y-114475000D03*
%TD*%
D33*
%TO.P,R8,1*%
%TO.N,+3.3V*%
X113760000Y-137160000D03*
%TO.P,R8,2*%
%TO.N,VALVE_PWM*%
X111760000Y-137160000D03*
%TD*%
D34*
%TO.P,C2,1*%
%TO.N,+3.3V*%
X40788750Y-113735000D03*
%TO.P,C2,2*%
%TO.N,GND*%
X40788750Y-115635000D03*
%TD*%
D30*
%TO.P,R6,1*%
%TO.N,VALVE_PWM*%
X109220000Y-135620000D03*
%TO.P,R6,2*%
%TO.N,Net-(Q2-B)*%
X109220000Y-133620000D03*
%TD*%
D26*
%TO.P,J3,1,Pin_1*%
%TO.N,GND*%
X86070000Y-100850000D03*
D27*
%TO.P,J3,2,Pin_2*%
%TO.N,unconnected-(J3-Pin_2-Pad2)*%
X86070000Y-103390000D03*
%TO.P,J3,3,Pin_3*%
%TO.N,unconnected-(J3-Pin_3-Pad3)*%
X86070000Y-105930000D03*
%TO.P,J3,4,Pin_4*%
%TO.N,unconnected-(J3-Pin_4-Pad4)*%
X86070000Y-108470000D03*
%TO.P,J3,5,Pin_5*%
%TO.N,VALVE_PWM*%
X86070000Y-111010000D03*
%TO.P,J3,6,Pin_6*%
%TO.N,unconnected-(J3-Pin_6-Pad6)*%
X86070000Y-113550000D03*
%TO.P,J3,7,Pin_7*%
%TO.N,unconnected-(J3-Pin_7-Pad7)*%
X86070000Y-116090000D03*
%TO.P,J3,8,Pin_8*%
%TO.N,unconnected-(J3-Pin_8-Pad8)*%
X86070000Y-118630000D03*
%TO.P,J3,9,Pin_9*%
%TO.N,unconnected-(J3-Pin_9-Pad9)*%
X86070000Y-121170000D03*
%TO.P,J3,10,Pin_10*%
%TO.N,unconnected-(J3-Pin_10-Pad10)*%
X86070000Y-123710000D03*
%TO.P,J3,11,Pin_11*%
%TO.N,unconnected-(J3-Pin_11-Pad11)*%
X86070000Y-126250000D03*
%TO.P,J3,12,Pin_12*%
%TO.N,unconnected-(J3-Pin_12-Pad12)*%
X86070000Y-128790000D03*
%TO.P,J3,13,Pin_13*%
%TO.N,unconnected-(J3-Pin_13-Pad13)*%
X86070000Y-131330000D03*
%TO.P,J3,14,Pin_14*%
%TO.N,unconnected-(J3-Pin_14-Pad14)*%
X86070000Y-133870000D03*
%TO.P,J3,15,Pin_15*%
%TO.N,unconnected-(J3-Pin_15-Pad15)*%
X86070000Y-136410000D03*
%TO.P,J3,16,Pin_16*%
%TO.N,unconnected-(J3-Pin_16-Pad16)*%
X86070000Y-138950000D03*
%TO.P,J3,17,Pin_17*%
%TO.N,unconnected-(J3-Pin_17-Pad17)*%
X86070000Y-141490000D03*
%TO.P,J3,18,Pin_18*%
%TO.N,unconnected-(J3-Pin_18-Pad18)*%
X86070000Y-144030000D03*
%TO.P,J3,19,Pin_19*%
%TO.N,unconnected-(J3-Pin_19-Pad19)*%
X86070000Y-146570000D03*
%TO.P,J3,20,Pin_20*%
%TO.N,unconnected-(J3-Pin_20-Pad20)*%
X86070000Y-149110000D03*
%TO.P,J3,21,Pin_21*%
%TO.N,GND*%
X86070000Y-151650000D03*
%TO.P,J3,22,Pin_22*%
X86070000Y-154190000D03*
%TD*%
D30*
%TO.P,R5,1*%
%TO.N,Net-(J2-Pin_3)*%
X39053750Y-122075000D03*
%TO.P,R5,2*%
%TO.N,Net-(U2-+)*%
X39053750Y-120075000D03*
%TD*%
D35*
%TO.P,D4,2,A*%
%TO.N,Net-(D4-A)*%
X120140000Y-127000000D03*
%TO.P,D4,1,K*%
%TO.N,+5V*%
X116840000Y-127000000D03*
%TD*%
D36*
%TO.P,R1,1*%
%TO.N,Net-(R1-Pad1)*%
X34983750Y-113805000D03*
%TO.P,R1,2*%
%TO.N,Net-(R1-Pad2)*%
X34983750Y-115805000D03*
%TD*%
D26*
%TO.P,U4,1,Pin_1*%
%TO.N,+11.1V_SW*%
X121920000Y-104140000D03*
D27*
%TO.P,U4,2,Pin_2*%
%TO.N,GND*%
X121920000Y-106680000D03*
%TO.P,U4,3,Pin_3*%
X121920000Y-109220000D03*
%TO.P,U4,4,Pin_4*%
%TO.N,+24V*%
X121920000Y-111760000D03*
%TD*%
D30*
%TO.P,R3,1*%
%TO.N,Net-(U5-+)*%
X43113750Y-109615000D03*
%TO.P,R3,2*%
%TO.N,+3.3V*%
X43113750Y-107615000D03*
%TD*%
D37*
%TO.N,GND*%
X116840000Y-106680000D03*
X116840000Y-109220000D03*
X46103750Y-105975000D03*
X66040000Y-160020000D03*
X68580000Y-154940000D03*
X114300000Y-111760000D03*
X91440000Y-101600000D03*
X101600000Y-99060000D03*
X109220000Y-119380000D03*
X104140000Y-157480000D03*
X88900000Y-160020000D03*
X81280000Y-160020000D03*
X83820000Y-101600000D03*
X111760000Y-114300000D03*
X96520000Y-160020000D03*
X73660000Y-160020000D03*
X73660000Y-157480000D03*
X96520000Y-157480000D03*
D38*
%TO.N,+5V*%
X104140000Y-160020000D03*
D37*
%TO.N,GND*%
X106680000Y-134620000D03*
X119380000Y-132080000D03*
X119380000Y-129540000D03*
X109220000Y-114300000D03*
X81280000Y-154940000D03*
X55880000Y-154940000D03*
X55880000Y-106680000D03*
X55880000Y-149860000D03*
X55880000Y-152400000D03*
X55880000Y-147320000D03*
X55880000Y-142240000D03*
X55880000Y-144780000D03*
X55880000Y-139700000D03*
X55880000Y-137160000D03*
X55880000Y-134620000D03*
X55880000Y-132080000D03*
X55880000Y-129540000D03*
X55880000Y-127000000D03*
X55880000Y-124460000D03*
X55880000Y-121920000D03*
X55880000Y-119380000D03*
X55880000Y-116840000D03*
X55880000Y-109220000D03*
X55880000Y-101600000D03*
X55880000Y-99060000D03*
X55880000Y-114300000D03*
X40783750Y-117655000D03*
X37273750Y-103065000D03*
X40503750Y-110765000D03*
%TD*%
D39*
%TO.N,+24V*%
X96520000Y-119380000D02*
X96520000Y-128270000D01*
X100633000Y-112849000D02*
X99121000Y-114361000D01*
X112769000Y-112849000D02*
X100633000Y-112849000D01*
X99121000Y-114361000D02*
X91501000Y-114361000D01*
X91501000Y-114361000D02*
X96520000Y-119380000D01*
X119300000Y-119380000D02*
X112769000Y-112849000D01*
X96520000Y-128270000D02*
X93980000Y-125730000D01*
D40*
%TO.N,+11.1V_SW*%
X124460000Y-99060000D02*
X111760000Y-99060000D01*
X124460000Y-120834914D02*
X124460000Y-99060000D01*
X118129000Y-127165914D02*
X124460000Y-120834914D01*
X111760000Y-99060000D02*
X111760000Y-106680000D01*
X118129000Y-129540000D02*
X118129000Y-127165914D01*
D39*
%TO.N,Net-(J6-Pin_1)*%
X101600000Y-106680000D02*
X106760000Y-106680000D01*
X96520000Y-111760000D02*
X101600000Y-106680000D01*
%TO.N,+11.1V_SW*%
X114300000Y-104140000D02*
X111760000Y-106680000D01*
X121920000Y-104140000D02*
X114300000Y-104140000D01*
%TO.N,GND*%
X116840000Y-106680000D02*
X116840000Y-109220000D01*
%TO.N,+24V*%
X121920000Y-116760000D02*
X119300000Y-119380000D01*
X121920000Y-111760000D02*
X121920000Y-116760000D01*
%TO.N,GND*%
X116840000Y-109220000D02*
X121920000Y-109220000D01*
X116840000Y-106680000D02*
X121920000Y-106680000D01*
D41*
X46083750Y-105955000D02*
X46103750Y-105975000D01*
%TO.N,+3.3V*%
X37853812Y-113861000D02*
X37503750Y-113510938D01*
X40662750Y-113861000D02*
X37853812Y-113861000D01*
X37503750Y-113510938D02*
X37503750Y-112672500D01*
X40788750Y-113735000D02*
X40662750Y-113861000D01*
D40*
%TO.N,+11.1V_SW*%
X118129000Y-132598181D02*
X118129000Y-129540000D01*
X120150819Y-134620000D02*
X118129000Y-132598181D01*
X124460000Y-134620000D02*
X120150819Y-134620000D01*
%TO.N,GND*%
X89280000Y-103760000D02*
X91440000Y-101600000D01*
X89280000Y-108760000D02*
X89280000Y-103760000D01*
X94900000Y-105760000D02*
X101600000Y-99060000D01*
X93980000Y-105760000D02*
X94900000Y-105760000D01*
X89280000Y-108760000D02*
X90980000Y-108760000D01*
X90980000Y-108760000D02*
X93980000Y-105760000D01*
X109220000Y-119380000D02*
X109220000Y-116840000D01*
D39*
X109220000Y-116840000D02*
X111840000Y-116840000D01*
D42*
%TO.N,+3.3V*%
X66040000Y-104140000D02*
X61690000Y-104140000D01*
X66040000Y-141186339D02*
X66040000Y-104140000D01*
X95629000Y-155991000D02*
X80844661Y-155991000D01*
X80844661Y-155991000D02*
X66040000Y-141186339D01*
X113760000Y-137860000D02*
X95629000Y-155991000D01*
X61690000Y-104140000D02*
X60670000Y-103120000D01*
X113760000Y-137160000D02*
X113760000Y-137860000D01*
D40*
%TO.N,VALVE_PWM*%
X87571000Y-112511000D02*
X86070000Y-111010000D01*
X87571000Y-123131000D02*
X87571000Y-112511000D01*
X100060000Y-135620000D02*
X87571000Y-123131000D01*
X109220000Y-135620000D02*
X100060000Y-135620000D01*
D42*
%TO.N,GND*%
X84570000Y-100850000D02*
X83820000Y-101600000D01*
X86070000Y-100850000D02*
X84570000Y-100850000D01*
D40*
%TO.N,+5V*%
X106680000Y-160020000D02*
X116840000Y-149860000D01*
X104140000Y-160020000D02*
X106680000Y-160020000D01*
X116840000Y-149860000D02*
X116840000Y-127000000D01*
%TO.N,VALVE_PWM*%
X110760000Y-137160000D02*
X109220000Y-135620000D01*
X111760000Y-137160000D02*
X110760000Y-137160000D01*
D39*
%TO.N,GND*%
X114380000Y-116920000D02*
X111760000Y-114300000D01*
X114380000Y-119380000D02*
X114380000Y-116920000D01*
D40*
%TO.N,Net-(Q2-B)*%
X109220000Y-133017500D02*
X107630000Y-131427500D01*
X109220000Y-133620000D02*
X109220000Y-133017500D01*
D43*
%TO.N,GND*%
X105730000Y-133670000D02*
X106680000Y-134620000D01*
X105730000Y-131427500D02*
X105730000Y-133670000D01*
D39*
X121920000Y-132080000D02*
X119380000Y-132080000D01*
X121920000Y-129540000D02*
X119380000Y-129540000D01*
X121920000Y-129540000D02*
X124460000Y-129540000D01*
X121920000Y-132080000D02*
X121920000Y-129540000D01*
X124460000Y-132080000D02*
X121920000Y-132080000D01*
D40*
%TO.N,+5V*%
X116840000Y-127000000D02*
X108680000Y-127000000D01*
%TO.N,Net-(D4-A)*%
X120140000Y-127000000D02*
X124460000Y-127000000D01*
D39*
%TO.N,+24V*%
X93980000Y-125730000D02*
X93980000Y-120650000D01*
%TO.N,Net-(D2-K)*%
X100330000Y-119380000D02*
X106680000Y-119380000D01*
X99060000Y-120650000D02*
X100330000Y-119380000D01*
%TO.N,GND*%
X106680000Y-116840000D02*
X109220000Y-116840000D01*
X111840000Y-116840000D02*
X114380000Y-119380000D01*
D44*
%TO.N,Net-(Q1-G)*%
X106680000Y-127000000D02*
X106680000Y-129552500D01*
D39*
%TO.N,GND*%
X106680000Y-116840000D02*
X109220000Y-114300000D01*
X114380000Y-119380000D02*
X111760000Y-116760000D01*
%TO.N,Net-(D1-A)*%
X96520000Y-135890000D02*
X96520000Y-138430000D01*
%TO.N,Net-(D2-K)*%
X99060000Y-125730000D02*
X101600000Y-128270000D01*
%TO.N,Net-(D1-A)*%
X96520000Y-138430000D02*
X101600000Y-143510000D01*
%TO.N,Net-(D2-K)*%
X99060000Y-120650000D02*
X99060000Y-125730000D01*
D44*
%TO.N,Net-(Q1-G)*%
X106680000Y-127000000D02*
X106680000Y-121920000D01*
D43*
%TO.N,GND*%
X81280000Y-153440000D02*
X81280000Y-154940000D01*
X81280000Y-153440000D02*
X81280000Y-152400000D01*
X82030000Y-154190000D02*
X81280000Y-153440000D01*
X82030000Y-154190000D02*
X86070000Y-154190000D01*
X86070000Y-151650000D02*
X82030000Y-151650000D01*
X82030000Y-151650000D02*
X81280000Y-152400000D01*
X59650000Y-154940000D02*
X55880000Y-154940000D01*
X60670000Y-153920000D02*
X59650000Y-154940000D01*
D40*
%TO.N,+3.3V*%
X43113750Y-107615000D02*
X43113750Y-104905000D01*
X38853750Y-105035000D02*
X38693750Y-104875000D01*
X38853750Y-107015000D02*
X38853750Y-105035000D01*
X53340000Y-109220000D02*
X53340000Y-104875000D01*
X42763750Y-111760000D02*
X40788750Y-113735000D01*
X38693750Y-104875000D02*
X53340000Y-104875000D01*
X53340000Y-104875000D02*
X58915000Y-104875000D01*
X53340000Y-109220000D02*
X50800000Y-111760000D01*
X58915000Y-104875000D02*
X60670000Y-103120000D01*
X50800000Y-111760000D02*
X42763750Y-111760000D01*
D41*
%TO.N,sEMG_ANALOG*%
X54341000Y-110934000D02*
X56706000Y-110934000D01*
X59440000Y-108200000D02*
X60670000Y-108200000D01*
X50800000Y-114475000D02*
X54341000Y-110934000D01*
X56706000Y-110934000D02*
X59440000Y-108200000D01*
D44*
%TO.N,GND*%
X55705000Y-114475000D02*
X55880000Y-114300000D01*
X52875000Y-114475000D02*
X55705000Y-114475000D01*
D41*
%TO.N,+3.3V*%
X41034750Y-113489000D02*
X40788750Y-113735000D01*
D40*
X60670000Y-100580000D02*
X60670000Y-103120000D01*
D41*
%TO.N,GND*%
X38846250Y-116855000D02*
X38803750Y-116897500D01*
X40283750Y-110765000D02*
X39803750Y-110285000D01*
X40503750Y-110765000D02*
X40283750Y-110765000D01*
X52803750Y-114475000D02*
X52853750Y-114425000D01*
X40803750Y-116855000D02*
X38846250Y-116855000D01*
X49113750Y-106155000D02*
X49113750Y-107475000D01*
X39803750Y-109290000D02*
X39803750Y-108660756D01*
X38693750Y-102975000D02*
X37363750Y-102975000D01*
X49033750Y-106075000D02*
X49113750Y-106155000D01*
X46143750Y-105895000D02*
X49033750Y-105895000D01*
X46083750Y-107435000D02*
X45973750Y-107325000D01*
X40788750Y-116840000D02*
X40803750Y-116855000D01*
X49033750Y-105895000D02*
X49033750Y-106075000D01*
X40803750Y-116855000D02*
X40803750Y-117635000D01*
X39803750Y-110285000D02*
X39803750Y-109290000D01*
X37363750Y-102975000D02*
X37273750Y-103065000D01*
X40788750Y-115635000D02*
X40788750Y-116840000D01*
X46083750Y-105955000D02*
X46143750Y-105895000D01*
X40803750Y-117635000D02*
X40783750Y-117655000D01*
X46103750Y-107445000D02*
X46103750Y-105975000D01*
%TO.N,Net-(R1-Pad2)*%
X35023750Y-116965000D02*
X36633750Y-116965000D01*
X34983750Y-115805000D02*
X34983750Y-116885000D01*
X34963750Y-116905000D02*
X35023750Y-116965000D01*
X34983750Y-116885000D02*
X34963750Y-116905000D01*
%TO.N,/V_REF*%
X38803750Y-109340000D02*
X38853750Y-109290000D01*
X37559750Y-109009000D02*
X38890916Y-109009000D01*
X39012833Y-109130917D02*
X39012833Y-108455918D01*
X38803750Y-112672500D02*
X38803750Y-111565000D01*
X33403750Y-117145000D02*
X33403750Y-112685000D01*
X31053750Y-128625000D02*
X31053750Y-123285000D01*
X36903750Y-109665000D02*
X37559750Y-109009000D01*
X34843750Y-111245000D02*
X35224141Y-111245000D01*
X31633750Y-122705000D02*
X34853750Y-122705000D01*
X38803750Y-111565000D02*
X36903750Y-109665000D01*
X34173750Y-117915000D02*
X33403750Y-117145000D01*
X34853750Y-119485000D02*
X35923750Y-118415000D01*
X35224141Y-111245000D02*
X36804141Y-109665000D01*
X33403750Y-112685000D02*
X34843750Y-111245000D01*
X38853750Y-112622500D02*
X38803750Y-112672500D01*
X35923750Y-118415000D02*
X35923750Y-117915000D01*
X39012833Y-108455918D02*
X40453751Y-107015000D01*
X36804141Y-109665000D02*
X36903750Y-109665000D01*
X40453751Y-107015000D02*
X40753750Y-107015000D01*
X34853750Y-122705000D02*
X34853750Y-119485000D01*
X35923750Y-117915000D02*
X34173750Y-117915000D01*
X31053750Y-123285000D02*
X31633750Y-122705000D01*
X38890916Y-109009000D02*
X39012833Y-109130917D01*
%TO.N,+3.3V*%
X43003750Y-104875000D02*
X38693750Y-104875000D01*
X43043750Y-104835000D02*
X43003750Y-104875000D01*
X43113750Y-104905000D02*
X43043750Y-104835000D01*
%TO.N,Net-(U2--)*%
X37503750Y-117765000D02*
X36363750Y-118905000D01*
X37503750Y-116897500D02*
X37503750Y-117765000D01*
X36363750Y-119935000D02*
X36363750Y-118905000D01*
%TO.N,sEMG_ANALOG*%
X50800000Y-114475000D02*
X48260000Y-114475000D01*
X46663750Y-114475000D02*
X46423750Y-114715000D01*
X48260000Y-114475000D02*
X46663750Y-114475000D01*
%TO.N,Net-(R1-Pad1)*%
X35133750Y-112645000D02*
X36826250Y-112645000D01*
X34983750Y-112795000D02*
X35133750Y-112645000D01*
X36826250Y-112645000D02*
X36853750Y-112672500D01*
X34983750Y-113805000D02*
X34983750Y-112795000D01*
%TO.N,Net-(U2-+)*%
X39053750Y-120075000D02*
X38153750Y-119175000D01*
X38153750Y-119175000D02*
X38153750Y-116897500D01*
%TO.N,Net-(U5-+)*%
X43113750Y-110895000D02*
X43073750Y-110935000D01*
X46103750Y-110915000D02*
X46123750Y-110935000D01*
X43113750Y-109615000D02*
X43113750Y-110895000D01*
X46113750Y-109465000D02*
X46083750Y-109435000D01*
X46123750Y-110935000D02*
X49093750Y-110935000D01*
X42398750Y-110935000D02*
X43073750Y-110935000D01*
X43073750Y-110935000D02*
X46123750Y-110935000D01*
X49113750Y-110795000D02*
X49113750Y-109375000D01*
X46103750Y-109445000D02*
X46103750Y-110915000D01*
X40753750Y-109290000D02*
X42398750Y-110935000D01*
X49093750Y-110935000D02*
X49173750Y-110855000D01*
X49173750Y-110855000D02*
X49113750Y-110795000D01*
%TO.N,Net-(J2-Pin_3)*%
X39053750Y-126625000D02*
X39053750Y-122075000D01*
X41053750Y-128625000D02*
X39053750Y-126625000D01*
X40013750Y-129100000D02*
X42108750Y-129100000D01*
%TO.N,Net-(J2-Pin_2)*%
X36053750Y-128625000D02*
X36053750Y-122245000D01*
X36053750Y-122245000D02*
X36363750Y-121935000D01*
%TO.N,Net-(R9-Pad1)*%
X38153750Y-112672500D02*
X38153750Y-111623520D01*
X33904750Y-114418226D02*
X34267524Y-114781000D01*
X34267524Y-114781000D02*
X37764000Y-114781000D01*
X36853945Y-110323715D02*
X35431662Y-111746000D01*
X35051270Y-111746000D02*
X33904750Y-112892520D01*
X37830000Y-114715000D02*
X44423750Y-114715000D01*
X33904750Y-112892520D02*
X33904750Y-114418226D01*
X37764000Y-114781000D02*
X37830000Y-114715000D01*
X38153750Y-111623520D02*
X36853945Y-110323715D01*
X35431662Y-111746000D02*
X35051270Y-111746000D01*
%TD*%
%TA.AperFunction,Conductor*%
%TO.N,GND*%
G36*
X87450764Y-124286832D02*
G01*
X87467000Y-124300500D01*
X97475588Y-134309088D01*
X97509073Y-134370411D01*
X97504089Y-134440103D01*
X97462217Y-134496036D01*
X97396753Y-134520453D01*
X97331612Y-134507254D01*
X97134383Y-134406760D01*
X96894785Y-134328910D01*
X96645962Y-134289500D01*
X96394038Y-134289500D01*
X96278396Y-134307816D01*
X96145214Y-134328910D01*
X95905616Y-134406760D01*
X95681151Y-134521132D01*
X95477350Y-134669201D01*
X95477345Y-134669205D01*
X95299205Y-134847345D01*
X95299201Y-134847350D01*
X95151132Y-135051151D01*
X95036760Y-135275616D01*
X94958910Y-135515214D01*
X94919500Y-135764038D01*
X94919500Y-136015961D01*
X94958910Y-136264785D01*
X95036760Y-136504383D01*
X95113408Y-136654812D01*
X95149804Y-136726243D01*
X95151132Y-136728848D01*
X95299201Y-136932649D01*
X95299205Y-136932654D01*
X95383181Y-137016630D01*
X95416666Y-137077953D01*
X95419500Y-137104311D01*
X95419500Y-138516610D01*
X95438054Y-138633760D01*
X95446598Y-138687701D01*
X95500127Y-138852445D01*
X95578768Y-139006788D01*
X95680586Y-139146928D01*
X95680588Y-139146930D01*
X99505432Y-142971774D01*
X99538917Y-143033097D01*
X99537528Y-143091540D01*
X99535442Y-143099325D01*
X99535438Y-143099344D01*
X99499501Y-143372315D01*
X99499500Y-143372332D01*
X99499500Y-143647667D01*
X99499501Y-143647684D01*
X99535438Y-143920655D01*
X99535439Y-143920660D01*
X99535440Y-143920666D01*
X99571072Y-144053649D01*
X99606704Y-144186630D01*
X99712075Y-144441017D01*
X99712080Y-144441028D01*
X99727549Y-144467820D01*
X99849751Y-144679479D01*
X99849753Y-144679482D01*
X99849754Y-144679483D01*
X100017370Y-144897926D01*
X100017376Y-144897933D01*
X100212066Y-145092623D01*
X100212072Y-145092628D01*
X100430521Y-145260249D01*
X100531316Y-145318443D01*
X100668971Y-145397919D01*
X100668976Y-145397921D01*
X100668979Y-145397923D01*
X100923368Y-145503295D01*
X101189334Y-145574560D01*
X101462326Y-145610500D01*
X101462333Y-145610500D01*
X101737667Y-145610500D01*
X101737674Y-145610500D01*
X102010666Y-145574560D01*
X102276632Y-145503295D01*
X102531021Y-145397923D01*
X102769479Y-145260249D01*
X102987928Y-145092628D01*
X103182628Y-144897928D01*
X103350249Y-144679479D01*
X103487923Y-144441021D01*
X103593295Y-144186632D01*
X103664560Y-143920666D01*
X103700500Y-143647674D01*
X103700500Y-143372326D01*
X103664560Y-143099334D01*
X103593295Y-142833368D01*
X103487923Y-142578979D01*
X103487921Y-142578976D01*
X103487919Y-142578971D01*
X103400461Y-142427491D01*
X103350249Y-142340521D01*
X103182628Y-142122072D01*
X103182623Y-142122066D01*
X102987933Y-141927376D01*
X102987926Y-141927370D01*
X102769483Y-141759754D01*
X102769482Y-141759753D01*
X102769479Y-141759751D01*
X102674407Y-141704861D01*
X102531028Y-141622080D01*
X102531017Y-141622075D01*
X102276630Y-141516704D01*
X102143649Y-141481072D01*
X102010666Y-141445440D01*
X102010660Y-141445439D01*
X102010655Y-141445438D01*
X101737684Y-141409501D01*
X101737679Y-141409500D01*
X101737674Y-141409500D01*
X101462326Y-141409500D01*
X101462320Y-141409500D01*
X101462315Y-141409501D01*
X101189344Y-141445438D01*
X101189335Y-141445439D01*
X101189334Y-141445440D01*
X101189332Y-141445440D01*
X101189325Y-141445442D01*
X101181540Y-141447528D01*
X101111690Y-141445860D01*
X101061774Y-141415432D01*
X97656819Y-138010477D01*
X97623334Y-137949154D01*
X97620500Y-137922796D01*
X97620500Y-137104311D01*
X97640185Y-137037272D01*
X97656819Y-137016630D01*
X97740793Y-136932656D01*
X97888870Y-136728845D01*
X98003241Y-136504379D01*
X98081090Y-136264785D01*
X98120500Y-136015962D01*
X98120500Y-135764038D01*
X98081090Y-135515215D01*
X98003241Y-135275621D01*
X98003239Y-135275618D01*
X98003239Y-135275616D01*
X97931434Y-135134692D01*
X97902744Y-135078385D01*
X97889849Y-135009718D01*
X97916125Y-134944977D01*
X97973232Y-134904720D01*
X98043037Y-134901728D01*
X98100911Y-134934411D01*
X99485966Y-136319466D01*
X99508053Y-136334223D01*
X99545040Y-136358936D01*
X99633453Y-136418013D01*
X99715393Y-136451953D01*
X99721480Y-136454474D01*
X99721485Y-136454477D01*
X99757940Y-136469577D01*
X99797334Y-136485895D01*
X99971303Y-136520499D01*
X99971307Y-136520500D01*
X99971308Y-136520500D01*
X99971309Y-136520500D01*
X108207770Y-136520500D01*
X108274809Y-136540185D01*
X108295451Y-136556819D01*
X108301344Y-136562712D01*
X108450666Y-136654814D01*
X108617203Y-136709999D01*
X108719991Y-136720500D01*
X108995637Y-136720499D01*
X109062676Y-136740183D01*
X109083318Y-136756818D01*
X110185960Y-137859461D01*
X110185964Y-137859464D01*
X110333446Y-137958009D01*
X110333452Y-137958012D01*
X110333453Y-137958013D01*
X110497334Y-138025895D01*
X110671303Y-138060499D01*
X110671307Y-138060500D01*
X110671308Y-138060500D01*
X110671309Y-138060500D01*
X110747769Y-138060500D01*
X110814808Y-138080185D01*
X110835450Y-138096818D01*
X110941344Y-138202712D01*
X111090666Y-138294814D01*
X111257203Y-138349999D01*
X111359991Y-138360500D01*
X111545218Y-138360499D01*
X111612256Y-138380183D01*
X111658011Y-138432987D01*
X111667955Y-138502145D01*
X111638930Y-138565701D01*
X111632898Y-138572180D01*
X95250899Y-154954181D01*
X95189576Y-154987666D01*
X95163218Y-154990500D01*
X87379615Y-154990500D01*
X87312576Y-154970815D01*
X87266821Y-154918011D01*
X87256877Y-154848853D01*
X87269130Y-154810205D01*
X87321095Y-154708217D01*
X87386757Y-154506130D01*
X87386757Y-154506127D01*
X87420000Y-154296246D01*
X87420000Y-154083753D01*
X87386757Y-153873872D01*
X87386757Y-153873869D01*
X87321095Y-153671782D01*
X87224624Y-153482449D01*
X87185270Y-153428282D01*
X87185269Y-153428282D01*
X86552962Y-154060589D01*
X86535925Y-153997007D01*
X86470099Y-153882993D01*
X86377007Y-153789901D01*
X86262993Y-153724075D01*
X86199409Y-153707037D01*
X86831716Y-153074728D01*
X86777550Y-153035375D01*
X86767954Y-153030486D01*
X86717157Y-152982512D01*
X86700361Y-152914692D01*
X86722897Y-152848556D01*
X86767954Y-152809514D01*
X86777554Y-152804622D01*
X86831716Y-152765270D01*
X86831717Y-152765270D01*
X86199408Y-152132962D01*
X86262993Y-152115925D01*
X86377007Y-152050099D01*
X86470099Y-151957007D01*
X86535925Y-151842993D01*
X86552962Y-151779408D01*
X87185270Y-152411717D01*
X87185270Y-152411716D01*
X87224622Y-152357554D01*
X87321095Y-152168217D01*
X87386757Y-151966130D01*
X87386757Y-151966127D01*
X87420000Y-151756246D01*
X87420000Y-151543753D01*
X87386757Y-151333872D01*
X87386757Y-151333869D01*
X87321095Y-151131782D01*
X87224624Y-150942449D01*
X87185270Y-150888282D01*
X87185269Y-150888282D01*
X86552962Y-151520590D01*
X86535925Y-151457007D01*
X86470099Y-151342993D01*
X86377007Y-151249901D01*
X86262993Y-151184075D01*
X86199409Y-151167037D01*
X86831716Y-150534728D01*
X86777547Y-150495373D01*
X86777547Y-150495372D01*
X86768500Y-150490763D01*
X86717706Y-150442788D01*
X86700912Y-150374966D01*
X86723451Y-150308832D01*
X86768508Y-150269793D01*
X86777816Y-150265051D01*
X86905186Y-150172512D01*
X86949786Y-150140109D01*
X86949788Y-150140106D01*
X86949792Y-150140104D01*
X87100104Y-149989792D01*
X87100106Y-149989788D01*
X87100109Y-149989786D01*
X87225048Y-149817820D01*
X87225047Y-149817820D01*
X87225051Y-149817816D01*
X87321557Y-149628412D01*
X87387246Y-149426243D01*
X87420500Y-149216287D01*
X87420500Y-149003713D01*
X87387246Y-148793757D01*
X87321557Y-148591588D01*
X87225051Y-148402184D01*
X87225049Y-148402181D01*
X87225048Y-148402179D01*
X87100109Y-148230213D01*
X86949786Y-148079890D01*
X86777820Y-147954951D01*
X86777115Y-147954591D01*
X86769054Y-147950485D01*
X86718259Y-147902512D01*
X86701463Y-147834692D01*
X86723999Y-147768556D01*
X86769054Y-147729515D01*
X86777816Y-147725051D01*
X86892888Y-147641447D01*
X86949786Y-147600109D01*
X86949788Y-147600106D01*
X86949792Y-147600104D01*
X87100104Y-147449792D01*
X87100106Y-147449788D01*
X87100109Y-147449786D01*
X87225048Y-147277820D01*
X87225047Y-147277820D01*
X87225051Y-147277816D01*
X87321557Y-147088412D01*
X87387246Y-146886243D01*
X87420500Y-146676287D01*
X87420500Y-146463713D01*
X87387246Y-146253757D01*
X87321557Y-146051588D01*
X87225051Y-145862184D01*
X87225049Y-145862181D01*
X87225048Y-145862179D01*
X87100109Y-145690213D01*
X86949786Y-145539890D01*
X86777820Y-145414951D01*
X86777115Y-145414591D01*
X86769054Y-145410485D01*
X86718259Y-145362512D01*
X86701463Y-145294692D01*
X86723999Y-145228556D01*
X86769054Y-145189515D01*
X86777816Y-145185051D01*
X86905025Y-145092629D01*
X86949786Y-145060109D01*
X86949788Y-145060106D01*
X86949792Y-145060104D01*
X87100104Y-144909792D01*
X87100106Y-144909788D01*
X87100109Y-144909786D01*
X87225048Y-144737820D01*
X87225047Y-144737820D01*
X87225051Y-144737816D01*
X87321557Y-144548412D01*
X87387246Y-144346243D01*
X87420500Y-144136287D01*
X87420500Y-143923713D01*
X87387246Y-143713757D01*
X87321557Y-143511588D01*
X87225051Y-143322184D01*
X87225049Y-143322181D01*
X87225048Y-143322179D01*
X87100109Y-143150213D01*
X86949786Y-142999890D01*
X86777820Y-142874951D01*
X86777115Y-142874591D01*
X86769054Y-142870485D01*
X86718259Y-142822512D01*
X86701463Y-142754692D01*
X86723999Y-142688556D01*
X86769054Y-142649515D01*
X86777816Y-142645051D01*
X86892888Y-142561447D01*
X86949786Y-142520109D01*
X86949788Y-142520106D01*
X86949792Y-142520104D01*
X87100104Y-142369792D01*
X87100106Y-142369788D01*
X87100109Y-142369786D01*
X87225048Y-142197820D01*
X87225047Y-142197820D01*
X87225051Y-142197816D01*
X87321557Y-142008412D01*
X87387246Y-141806243D01*
X87420500Y-141596287D01*
X87420500Y-141383713D01*
X87387246Y-141173757D01*
X87321557Y-140971588D01*
X87225051Y-140782184D01*
X87225049Y-140782181D01*
X87225048Y-140782179D01*
X87100109Y-140610213D01*
X86949786Y-140459890D01*
X86777820Y-140334951D01*
X86777115Y-140334591D01*
X86769054Y-140330485D01*
X86718259Y-140282512D01*
X86701463Y-140214692D01*
X86723999Y-140148556D01*
X86769054Y-140109515D01*
X86777816Y-140105051D01*
X86892888Y-140021447D01*
X86949786Y-139980109D01*
X86949788Y-139980106D01*
X86949792Y-139980104D01*
X87100104Y-139829792D01*
X87100106Y-139829788D01*
X87100109Y-139829786D01*
X87225048Y-139657820D01*
X87225047Y-139657820D01*
X87225051Y-139657816D01*
X87321557Y-139468412D01*
X87387246Y-139266243D01*
X87420500Y-139056287D01*
X87420500Y-138843713D01*
X87387246Y-138633757D01*
X87321557Y-138431588D01*
X87225051Y-138242184D01*
X87225049Y-138242181D01*
X87225048Y-138242179D01*
X87100109Y-138070213D01*
X86949786Y-137919890D01*
X86777820Y-137794951D01*
X86777115Y-137794591D01*
X86769054Y-137790485D01*
X86718259Y-137742512D01*
X86701463Y-137674692D01*
X86723999Y-137608556D01*
X86769054Y-137569515D01*
X86777816Y-137565051D01*
X86892888Y-137481447D01*
X86949786Y-137440109D01*
X86949788Y-137440106D01*
X86949792Y-137440104D01*
X87100104Y-137289792D01*
X87100106Y-137289788D01*
X87100109Y-137289786D01*
X87225048Y-137117820D01*
X87225047Y-137117820D01*
X87225051Y-137117816D01*
X87321557Y-136928412D01*
X87387246Y-136726243D01*
X87420500Y-136516287D01*
X87420500Y-136303713D01*
X87387246Y-136093757D01*
X87321557Y-135891588D01*
X87225051Y-135702184D01*
X87225049Y-135702181D01*
X87225048Y-135702179D01*
X87100109Y-135530213D01*
X86949786Y-135379890D01*
X86777820Y-135254951D01*
X86777115Y-135254591D01*
X86769054Y-135250485D01*
X86718259Y-135202512D01*
X86701463Y-135134692D01*
X86723999Y-135068556D01*
X86769054Y-135029515D01*
X86777816Y-135025051D01*
X86839158Y-134980484D01*
X86949786Y-134900109D01*
X86949788Y-134900106D01*
X86949792Y-134900104D01*
X87100104Y-134749792D01*
X87100106Y-134749788D01*
X87100109Y-134749786D01*
X87225048Y-134577820D01*
X87225047Y-134577820D01*
X87225051Y-134577816D01*
X87321557Y-134388412D01*
X87387246Y-134186243D01*
X87420500Y-133976287D01*
X87420500Y-133763713D01*
X87387246Y-133553757D01*
X87321557Y-133351588D01*
X87225051Y-133162184D01*
X87225049Y-133162181D01*
X87225048Y-133162179D01*
X87100109Y-132990213D01*
X86949786Y-132839890D01*
X86777820Y-132714951D01*
X86777115Y-132714591D01*
X86769054Y-132710485D01*
X86718259Y-132662512D01*
X86701463Y-132594692D01*
X86723999Y-132528556D01*
X86769054Y-132489515D01*
X86777816Y-132485051D01*
X86872085Y-132416561D01*
X86949786Y-132360109D01*
X86949788Y-132360106D01*
X86949792Y-132360104D01*
X87100104Y-132209792D01*
X87100106Y-132209788D01*
X87100109Y-132209786D01*
X87225048Y-132037820D01*
X87225047Y-132037820D01*
X87225051Y-132037816D01*
X87321557Y-131848412D01*
X87387246Y-131646243D01*
X87420500Y-131436287D01*
X87420500Y-131223713D01*
X87387246Y-131013757D01*
X87321557Y-130811588D01*
X87225051Y-130622184D01*
X87225049Y-130622181D01*
X87225048Y-130622179D01*
X87100109Y-130450213D01*
X86949786Y-130299890D01*
X86777820Y-130174951D01*
X86777115Y-130174591D01*
X86769054Y-130170485D01*
X86718259Y-130122512D01*
X86701463Y-130054692D01*
X86723999Y-129988556D01*
X86769054Y-129949515D01*
X86777816Y-129945051D01*
X86848696Y-129893554D01*
X86949786Y-129820109D01*
X86949788Y-129820106D01*
X86949792Y-129820104D01*
X87100104Y-129669792D01*
X87100106Y-129669788D01*
X87100109Y-129669786D01*
X87225048Y-129497820D01*
X87225047Y-129497820D01*
X87225051Y-129497816D01*
X87321557Y-129308412D01*
X87387246Y-129106243D01*
X87420500Y-128896287D01*
X87420500Y-128683713D01*
X87387246Y-128473757D01*
X87321557Y-128271588D01*
X87225051Y-128082184D01*
X87225049Y-128082181D01*
X87225048Y-128082179D01*
X87100109Y-127910213D01*
X86949786Y-127759890D01*
X86777820Y-127634951D01*
X86777115Y-127634591D01*
X86769054Y-127630485D01*
X86718259Y-127582512D01*
X86701463Y-127514692D01*
X86723999Y-127448556D01*
X86769054Y-127409515D01*
X86777816Y-127405051D01*
X86900051Y-127316243D01*
X86949786Y-127280109D01*
X86949788Y-127280106D01*
X86949792Y-127280104D01*
X87100104Y-127129792D01*
X87100106Y-127129788D01*
X87100109Y-127129786D01*
X87225048Y-126957820D01*
X87225047Y-126957820D01*
X87225051Y-126957816D01*
X87321557Y-126768412D01*
X87387246Y-126566243D01*
X87420500Y-126356287D01*
X87420500Y-126143713D01*
X87387246Y-125933757D01*
X87321557Y-125731588D01*
X87225051Y-125542184D01*
X87225049Y-125542181D01*
X87225048Y-125542179D01*
X87100109Y-125370213D01*
X86949786Y-125219890D01*
X86777820Y-125094951D01*
X86777115Y-125094591D01*
X86769054Y-125090485D01*
X86718259Y-125042512D01*
X86701463Y-124974692D01*
X86723999Y-124908556D01*
X86769054Y-124869515D01*
X86777816Y-124865051D01*
X86892888Y-124781447D01*
X86949786Y-124740109D01*
X86949788Y-124740106D01*
X86949792Y-124740104D01*
X87100104Y-124589792D01*
X87100106Y-124589788D01*
X87100109Y-124589786D01*
X87225050Y-124417817D01*
X87268834Y-124331887D01*
X87316808Y-124281090D01*
X87384629Y-124264295D01*
X87450764Y-124286832D01*
G37*
%TD.AperFunction*%
%TA.AperFunction,Conductor*%
G36*
X105238680Y-120500185D02*
G01*
X105284435Y-120552989D01*
X105294379Y-120622147D01*
X105270907Y-120678811D01*
X105236206Y-120725164D01*
X105236202Y-120725171D01*
X105185908Y-120860017D01*
X105182506Y-120891666D01*
X105179501Y-120919623D01*
X105179500Y-120919635D01*
X105179500Y-122920370D01*
X105179501Y-122920376D01*
X105185908Y-122979983D01*
X105236202Y-123114828D01*
X105236206Y-123114835D01*
X105322452Y-123230044D01*
X105322455Y-123230047D01*
X105437664Y-123316293D01*
X105437671Y-123316297D01*
X105475749Y-123330499D01*
X105572517Y-123366591D01*
X105632127Y-123373000D01*
X105805500Y-123372999D01*
X105872539Y-123392683D01*
X105918294Y-123445487D01*
X105929500Y-123496999D01*
X105929500Y-125846042D01*
X105909815Y-125913081D01*
X105870598Y-125951580D01*
X105861344Y-125957287D01*
X105737289Y-126081342D01*
X105645187Y-126230663D01*
X105645185Y-126230668D01*
X105624801Y-126292184D01*
X105590001Y-126397203D01*
X105590001Y-126397204D01*
X105590000Y-126397204D01*
X105579500Y-126499983D01*
X105579500Y-127500001D01*
X105579501Y-127500019D01*
X105590000Y-127602796D01*
X105590001Y-127602799D01*
X105620054Y-127693491D01*
X105645186Y-127769334D01*
X105737288Y-127918656D01*
X105861344Y-128042712D01*
X105870591Y-128048416D01*
X105917318Y-128100360D01*
X105929500Y-128153957D01*
X105929500Y-128682670D01*
X105924576Y-128717265D01*
X105882402Y-128862426D01*
X105882401Y-128862432D01*
X105879500Y-128899298D01*
X105879500Y-130205701D01*
X105882401Y-130242567D01*
X105882402Y-130242573D01*
X105928254Y-130400393D01*
X105928255Y-130400396D01*
X105928256Y-130400398D01*
X105962732Y-130458694D01*
X105980000Y-130521814D01*
X105980000Y-132662295D01*
X105980001Y-132662295D01*
X105982486Y-132662100D01*
X106140198Y-132616281D01*
X106281552Y-132532685D01*
X106281561Y-132532678D01*
X106397678Y-132416561D01*
X106397685Y-132416552D01*
X106481282Y-132275196D01*
X106481283Y-132275193D01*
X106527099Y-132117495D01*
X106527100Y-132117489D01*
X106529999Y-132080649D01*
X106530000Y-132080634D01*
X106530000Y-131748376D01*
X106533174Y-131737564D01*
X106531970Y-131726360D01*
X106542842Y-131704639D01*
X106549685Y-131681337D01*
X106558200Y-131673958D01*
X106563245Y-131663881D01*
X106584134Y-131651486D01*
X106602489Y-131635582D01*
X106613641Y-131633978D01*
X106623333Y-131628228D01*
X106647606Y-131629094D01*
X106671647Y-131625638D01*
X106681896Y-131630318D01*
X106693158Y-131630721D01*
X106713109Y-131644573D01*
X106735203Y-131654663D01*
X106742784Y-131665176D01*
X106750551Y-131670569D01*
X106768560Y-131700921D01*
X106794636Y-131763872D01*
X106820061Y-131825253D01*
X106829500Y-131872706D01*
X106829500Y-132080701D01*
X106832401Y-132117567D01*
X106832402Y-132117573D01*
X106878254Y-132275393D01*
X106878255Y-132275396D01*
X106961917Y-132416862D01*
X106961923Y-132416870D01*
X107078129Y-132533076D01*
X107078133Y-132533079D01*
X107078135Y-132533081D01*
X107219602Y-132616744D01*
X107261224Y-132628836D01*
X107377426Y-132662597D01*
X107377429Y-132662597D01*
X107377431Y-132662598D01*
X107414306Y-132665500D01*
X107543138Y-132665500D01*
X107610177Y-132685185D01*
X107630819Y-132701819D01*
X107989837Y-133060837D01*
X108023322Y-133122160D01*
X108025514Y-133161120D01*
X108019500Y-133219981D01*
X108019500Y-134020001D01*
X108019501Y-134020019D01*
X108030000Y-134122796D01*
X108030001Y-134122799D01*
X108085185Y-134289331D01*
X108085187Y-134289336D01*
X108120069Y-134345888D01*
X108146297Y-134388412D01*
X108177289Y-134438657D01*
X108246451Y-134507819D01*
X108279936Y-134569142D01*
X108274952Y-134638834D01*
X108233080Y-134694767D01*
X108167616Y-134719184D01*
X108158770Y-134719500D01*
X100484362Y-134719500D01*
X100417323Y-134699815D01*
X100396681Y-134683181D01*
X97794149Y-132080649D01*
X104930000Y-132080649D01*
X104932899Y-132117489D01*
X104932900Y-132117495D01*
X104978716Y-132275193D01*
X104978717Y-132275196D01*
X105062314Y-132416552D01*
X105062321Y-132416561D01*
X105178438Y-132532678D01*
X105178447Y-132532685D01*
X105319801Y-132616281D01*
X105477514Y-132662100D01*
X105477511Y-132662100D01*
X105479998Y-132662295D01*
X105480000Y-132662295D01*
X105480000Y-131677500D01*
X104930000Y-131677500D01*
X104930000Y-132080649D01*
X97794149Y-132080649D01*
X96487850Y-130774350D01*
X104930000Y-130774350D01*
X104930000Y-131177500D01*
X105480000Y-131177500D01*
X105480000Y-130192703D01*
X105477503Y-130192900D01*
X105319806Y-130238716D01*
X105319803Y-130238717D01*
X105178447Y-130322314D01*
X105178438Y-130322321D01*
X105062321Y-130438438D01*
X105062314Y-130438447D01*
X104978717Y-130579803D01*
X104978716Y-130579806D01*
X104932900Y-130737504D01*
X104932899Y-130737510D01*
X104930000Y-130774350D01*
X96487850Y-130774350D01*
X95795681Y-130082181D01*
X95762196Y-130020858D01*
X95767180Y-129951166D01*
X95809052Y-129895233D01*
X95874516Y-129870816D01*
X95883362Y-129870500D01*
X97420005Y-129870500D01*
X97420010Y-129870500D01*
X97522798Y-129859999D01*
X97689335Y-129804814D01*
X97838656Y-129712712D01*
X97962712Y-129588656D01*
X98054814Y-129439335D01*
X98109999Y-129272798D01*
X98120500Y-129170010D01*
X98120500Y-127369990D01*
X98109999Y-127267202D01*
X98054814Y-127100665D01*
X97962712Y-126951344D01*
X97838656Y-126827288D01*
X97689335Y-126735186D01*
X97689333Y-126735185D01*
X97683188Y-126731395D01*
X97684293Y-126729603D01*
X97639656Y-126690300D01*
X97620500Y-126624091D01*
X97620500Y-122056154D01*
X97625648Y-122038620D01*
X97625783Y-122020345D01*
X97635288Y-122005790D01*
X97640185Y-121989115D01*
X97653994Y-121977148D01*
X97663989Y-121961846D01*
X97679854Y-121954741D01*
X97692989Y-121943360D01*
X97711077Y-121940759D01*
X97727757Y-121933290D01*
X97744941Y-121935889D01*
X97762147Y-121933416D01*
X97778772Y-121941008D01*
X97796840Y-121943742D01*
X97819537Y-121959625D01*
X97825703Y-121962441D01*
X97826390Y-121963041D01*
X97829376Y-121965667D01*
X97870301Y-122006592D01*
X97914280Y-122040338D01*
X97917390Y-122043073D01*
X97933933Y-122069237D01*
X97952188Y-122094236D01*
X97953119Y-122099579D01*
X97954731Y-122102128D01*
X97954683Y-122108554D01*
X97959500Y-122136186D01*
X97959500Y-125816610D01*
X97983777Y-125969894D01*
X97986598Y-125987701D01*
X98040127Y-126152445D01*
X98118768Y-126306788D01*
X98220586Y-126446928D01*
X98220588Y-126446930D01*
X99463181Y-127689523D01*
X99496666Y-127750846D01*
X99499500Y-127777204D01*
X99499500Y-129670001D01*
X99499501Y-129670018D01*
X99510000Y-129772796D01*
X99510001Y-129772799D01*
X99565185Y-129939331D01*
X99565187Y-129939336D01*
X99568712Y-129945051D01*
X99657288Y-130088656D01*
X99781344Y-130212712D01*
X99930666Y-130304814D01*
X100097203Y-130359999D01*
X100199991Y-130370500D01*
X103000008Y-130370499D01*
X103102797Y-130359999D01*
X103269334Y-130304814D01*
X103418656Y-130212712D01*
X103542712Y-130088656D01*
X103634814Y-129939334D01*
X103689999Y-129772797D01*
X103700500Y-129670009D01*
X103700499Y-126869992D01*
X103699456Y-126859786D01*
X103689999Y-126767203D01*
X103689998Y-126767200D01*
X103684965Y-126752011D01*
X103634814Y-126600666D01*
X103542712Y-126451344D01*
X103418656Y-126327288D01*
X103269334Y-126235186D01*
X103102797Y-126180001D01*
X103102795Y-126180000D01*
X103000016Y-126169500D01*
X103000009Y-126169500D01*
X101107204Y-126169500D01*
X101040165Y-126149815D01*
X101019523Y-126133181D01*
X100196819Y-125310477D01*
X100163334Y-125249154D01*
X100160500Y-125222796D01*
X100160500Y-122136186D01*
X100180185Y-122069147D01*
X100209013Y-122037810D01*
X100249699Y-122006592D01*
X100416592Y-121839699D01*
X100560273Y-121652450D01*
X100678284Y-121448049D01*
X100768606Y-121229993D01*
X100829693Y-121002014D01*
X100860500Y-120768011D01*
X100860500Y-120604500D01*
X100880185Y-120537461D01*
X100932989Y-120491706D01*
X100984500Y-120480500D01*
X105171641Y-120480500D01*
X105238680Y-120500185D01*
G37*
%TD.AperFunction*%
%TA.AperFunction,Conductor*%
G36*
X119234703Y-127664875D02*
G01*
X119259038Y-127693491D01*
X119342029Y-127828040D01*
X119342032Y-127828044D01*
X119461955Y-127947967D01*
X119461959Y-127947970D01*
X119606294Y-128036998D01*
X119606297Y-128036999D01*
X119606303Y-128037003D01*
X119767292Y-128090349D01*
X119866655Y-128100500D01*
X120413344Y-128100499D01*
X120413352Y-128100498D01*
X120413355Y-128100498D01*
X120467760Y-128094940D01*
X120512708Y-128090349D01*
X120673697Y-128037003D01*
X120818044Y-127947968D01*
X120829193Y-127936819D01*
X120890516Y-127903334D01*
X120916874Y-127900500D01*
X123399242Y-127900500D01*
X123466281Y-127920185D01*
X123486923Y-127936819D01*
X123580213Y-128030109D01*
X123752179Y-128155048D01*
X123752181Y-128155049D01*
X123752184Y-128155051D01*
X123761493Y-128159794D01*
X123812290Y-128207766D01*
X123829087Y-128275587D01*
X123806552Y-128341722D01*
X123761505Y-128380760D01*
X123752446Y-128385376D01*
X123752440Y-128385380D01*
X123698282Y-128424727D01*
X123698282Y-128424728D01*
X124330591Y-129057037D01*
X124267007Y-129074075D01*
X124152993Y-129139901D01*
X124059901Y-129232993D01*
X123994075Y-129347007D01*
X123977037Y-129410591D01*
X123344728Y-128778282D01*
X123344727Y-128778282D01*
X123305380Y-128832439D01*
X123208904Y-129021782D01*
X123143242Y-129223869D01*
X123143242Y-129223872D01*
X123110000Y-129433753D01*
X123110000Y-129646246D01*
X123143242Y-129856127D01*
X123143242Y-129856130D01*
X123208904Y-130058217D01*
X123305375Y-130247550D01*
X123344728Y-130301716D01*
X123977037Y-129669408D01*
X123994075Y-129732993D01*
X124059901Y-129847007D01*
X124152993Y-129940099D01*
X124267007Y-130005925D01*
X124330590Y-130022962D01*
X123698282Y-130655269D01*
X123698282Y-130655270D01*
X123752452Y-130694626D01*
X123762048Y-130699516D01*
X123812844Y-130747491D01*
X123829638Y-130815312D01*
X123807100Y-130881447D01*
X123762051Y-130920483D01*
X123752440Y-130925380D01*
X123698282Y-130964727D01*
X123698282Y-130964728D01*
X124330591Y-131597037D01*
X124267007Y-131614075D01*
X124152993Y-131679901D01*
X124059901Y-131772993D01*
X123994075Y-131887007D01*
X123977037Y-131950591D01*
X123344728Y-131318282D01*
X123344727Y-131318282D01*
X123305380Y-131372439D01*
X123208904Y-131561782D01*
X123143242Y-131763869D01*
X123143242Y-131763872D01*
X123110000Y-131973753D01*
X123110000Y-132186246D01*
X123143242Y-132396127D01*
X123143242Y-132396130D01*
X123208904Y-132598217D01*
X123305375Y-132787550D01*
X123344728Y-132841716D01*
X123977037Y-132209408D01*
X123994075Y-132272993D01*
X124059901Y-132387007D01*
X124152993Y-132480099D01*
X124267007Y-132545925D01*
X124330590Y-132562962D01*
X123660370Y-133233181D01*
X123599047Y-133266666D01*
X123572698Y-133269500D01*
X123562134Y-133269500D01*
X123562123Y-133269501D01*
X123502516Y-133275908D01*
X123367671Y-133326202D01*
X123367664Y-133326206D01*
X123252455Y-133412452D01*
X123252452Y-133412455D01*
X123166206Y-133527664D01*
X123166202Y-133527671D01*
X123124742Y-133638833D01*
X123082871Y-133694767D01*
X123017407Y-133719184D01*
X123008560Y-133719500D01*
X120575181Y-133719500D01*
X120508142Y-133699815D01*
X120487500Y-133683181D01*
X119065819Y-132261500D01*
X119051115Y-132234572D01*
X119034523Y-132208754D01*
X119033631Y-132202553D01*
X119032334Y-132200177D01*
X119029500Y-132173819D01*
X119029500Y-127758588D01*
X119049185Y-127691549D01*
X119101989Y-127645794D01*
X119171147Y-127635850D01*
X119234703Y-127664875D01*
G37*
%TD.AperFunction*%
%TA.AperFunction,Conductor*%
G36*
X123502539Y-99980185D02*
G01*
X123548294Y-100032989D01*
X123559500Y-100084500D01*
X123559500Y-120410551D01*
X123539815Y-120477590D01*
X123523181Y-120498232D01*
X117829541Y-126191871D01*
X117768218Y-126225356D01*
X117698526Y-126220372D01*
X117642593Y-126178500D01*
X117639195Y-126173508D01*
X117637967Y-126171955D01*
X117518044Y-126052032D01*
X117518040Y-126052029D01*
X117373705Y-125963001D01*
X117373699Y-125962998D01*
X117373697Y-125962997D01*
X117356465Y-125957287D01*
X117212709Y-125909651D01*
X117113346Y-125899500D01*
X116566662Y-125899500D01*
X116566644Y-125899501D01*
X116467292Y-125909650D01*
X116467289Y-125909651D01*
X116306305Y-125962996D01*
X116306294Y-125963001D01*
X116161959Y-126052029D01*
X116161955Y-126052032D01*
X116150807Y-126063181D01*
X116089484Y-126096666D01*
X116063126Y-126099500D01*
X109692231Y-126099500D01*
X109625192Y-126079815D01*
X109604550Y-126063182D01*
X109556155Y-126014787D01*
X109498656Y-125957288D01*
X109403128Y-125898366D01*
X109349336Y-125865187D01*
X109349331Y-125865185D01*
X109291561Y-125846042D01*
X109182797Y-125810001D01*
X109182795Y-125810000D01*
X109080010Y-125799500D01*
X108279998Y-125799500D01*
X108279980Y-125799501D01*
X108177203Y-125810000D01*
X108177200Y-125810001D01*
X108010668Y-125865185D01*
X108010663Y-125865187D01*
X107861342Y-125957289D01*
X107767681Y-126050951D01*
X107761605Y-126054268D01*
X107757648Y-126059949D01*
X107731332Y-126070798D01*
X107706358Y-126084436D01*
X107699454Y-126083942D01*
X107693054Y-126086581D01*
X107665055Y-126081482D01*
X107636666Y-126079452D01*
X107629477Y-126075003D01*
X107624314Y-126074063D01*
X107602526Y-126058324D01*
X107595356Y-126053887D01*
X107593823Y-126052455D01*
X107498656Y-125957288D01*
X107478885Y-125945093D01*
X107469856Y-125936659D01*
X107458112Y-125916791D01*
X107442678Y-125899632D01*
X107439373Y-125885092D01*
X107434302Y-125876512D01*
X107434742Y-125864712D01*
X107430500Y-125846042D01*
X107430500Y-123496999D01*
X107450185Y-123429960D01*
X107502989Y-123384205D01*
X107554500Y-123372999D01*
X107727871Y-123372999D01*
X107727872Y-123372999D01*
X107787483Y-123366591D01*
X107922331Y-123316296D01*
X108037546Y-123230046D01*
X108123796Y-123114831D01*
X108174091Y-122979983D01*
X108180500Y-122920373D01*
X108180499Y-120919628D01*
X108174091Y-120860017D01*
X108171757Y-120853760D01*
X108123797Y-120725171D01*
X108123796Y-120725169D01*
X108052335Y-120629710D01*
X108037546Y-120609954D01*
X108037544Y-120609953D01*
X108037544Y-120609952D01*
X107922335Y-120523706D01*
X107922328Y-120523702D01*
X107894459Y-120513308D01*
X107838525Y-120471437D01*
X107814108Y-120405973D01*
X107828960Y-120337700D01*
X107837460Y-120324260D01*
X107970217Y-120141538D01*
X108074048Y-119937758D01*
X108122215Y-119789516D01*
X108144721Y-119720249D01*
X108144721Y-119720248D01*
X108144722Y-119720245D01*
X108180500Y-119494354D01*
X108180500Y-119265646D01*
X108179914Y-119261947D01*
X112800000Y-119261947D01*
X112800000Y-119498052D01*
X112836934Y-119731247D01*
X112909897Y-119955802D01*
X113017087Y-120166174D01*
X113077338Y-120249104D01*
X113077340Y-120249105D01*
X113817037Y-119509408D01*
X113834075Y-119572993D01*
X113899901Y-119687007D01*
X113992993Y-119780099D01*
X114107007Y-119845925D01*
X114170590Y-119862962D01*
X113430893Y-120602658D01*
X113513828Y-120662914D01*
X113724197Y-120770102D01*
X113948752Y-120843065D01*
X113948751Y-120843065D01*
X114181948Y-120880000D01*
X114418052Y-120880000D01*
X114651247Y-120843065D01*
X114875802Y-120770102D01*
X115086163Y-120662918D01*
X115086169Y-120662914D01*
X115169104Y-120602658D01*
X115169105Y-120602658D01*
X114429408Y-119862962D01*
X114492993Y-119845925D01*
X114607007Y-119780099D01*
X114700099Y-119687007D01*
X114765925Y-119572993D01*
X114782962Y-119509409D01*
X115522658Y-120249105D01*
X115522658Y-120249104D01*
X115582914Y-120166169D01*
X115582918Y-120166163D01*
X115690102Y-119955802D01*
X115763065Y-119731247D01*
X115800000Y-119498052D01*
X115800000Y-119261947D01*
X115763065Y-119028752D01*
X115690102Y-118804197D01*
X115582914Y-118593828D01*
X115522658Y-118510894D01*
X115522658Y-118510893D01*
X114782962Y-119250590D01*
X114765925Y-119187007D01*
X114700099Y-119072993D01*
X114607007Y-118979901D01*
X114492993Y-118914075D01*
X114429409Y-118897037D01*
X115169105Y-118157340D01*
X115169104Y-118157338D01*
X115086174Y-118097087D01*
X114875802Y-117989897D01*
X114651247Y-117916934D01*
X114651248Y-117916934D01*
X114418052Y-117880000D01*
X114181948Y-117880000D01*
X113948752Y-117916934D01*
X113724197Y-117989897D01*
X113513830Y-118097084D01*
X113430894Y-118157340D01*
X114170591Y-118897037D01*
X114107007Y-118914075D01*
X113992993Y-118979901D01*
X113899901Y-119072993D01*
X113834075Y-119187007D01*
X113817037Y-119250591D01*
X113077340Y-118510894D01*
X113017084Y-118593830D01*
X112909897Y-118804197D01*
X112836934Y-119028752D01*
X112800000Y-119261947D01*
X108179914Y-119261947D01*
X108144722Y-119039755D01*
X108144721Y-119039751D01*
X108144721Y-119039750D01*
X108074049Y-118822244D01*
X107999658Y-118676243D01*
X107970217Y-118618462D01*
X107835786Y-118433434D01*
X107674066Y-118271714D01*
X107587153Y-118208568D01*
X107585214Y-118207038D01*
X107566359Y-118180472D01*
X107546470Y-118154678D01*
X107546251Y-118152139D01*
X107544776Y-118150060D01*
X107543277Y-118117506D01*
X107540491Y-118085064D01*
X107541680Y-118082810D01*
X107541563Y-118080264D01*
X107557895Y-118052079D01*
X107573097Y-118023269D01*
X107576095Y-118020670D01*
X107576594Y-118019811D01*
X107577806Y-118019188D01*
X107589137Y-118009371D01*
X107673739Y-117947905D01*
X107835402Y-117786242D01*
X107969788Y-117601276D01*
X108073582Y-117397570D01*
X108144234Y-117180128D01*
X108158509Y-117090000D01*
X107170748Y-117090000D01*
X107192518Y-117052292D01*
X107230000Y-116912409D01*
X107230000Y-116767591D01*
X107192518Y-116627708D01*
X107170748Y-116590000D01*
X108158509Y-116590000D01*
X108144234Y-116499871D01*
X108073582Y-116282429D01*
X107969788Y-116078723D01*
X107835402Y-115893757D01*
X107673742Y-115732097D01*
X107488776Y-115597711D01*
X107285068Y-115493917D01*
X107067625Y-115423265D01*
X107067626Y-115423265D01*
X106930000Y-115401467D01*
X106930000Y-116349252D01*
X106892292Y-116327482D01*
X106752409Y-116290000D01*
X106607591Y-116290000D01*
X106467708Y-116327482D01*
X106430000Y-116349252D01*
X106430000Y-115401467D01*
X106292374Y-115423265D01*
X106074931Y-115493917D01*
X105871223Y-115597711D01*
X105686257Y-115732097D01*
X105524597Y-115893757D01*
X105390211Y-116078723D01*
X105286417Y-116282429D01*
X105215765Y-116499871D01*
X105201491Y-116590000D01*
X106189252Y-116590000D01*
X106167482Y-116627708D01*
X106130000Y-116767591D01*
X106130000Y-116912409D01*
X106167482Y-117052292D01*
X106189252Y-117090000D01*
X105201491Y-117090000D01*
X105215765Y-117180128D01*
X105286417Y-117397570D01*
X105390211Y-117601276D01*
X105524597Y-117786242D01*
X105686257Y-117947902D01*
X105686263Y-117947907D01*
X105770863Y-118009372D01*
X105788042Y-118031650D01*
X105807647Y-118051822D01*
X105809090Y-118058945D01*
X105813529Y-118064701D01*
X105815936Y-118092728D01*
X105821523Y-118120299D01*
X105818885Y-118127072D01*
X105819508Y-118134315D01*
X105806379Y-118159196D01*
X105796175Y-118185409D01*
X105788733Y-118192641D01*
X105786903Y-118196110D01*
X105770865Y-118210007D01*
X105730920Y-118239029D01*
X105707813Y-118255817D01*
X105642009Y-118279298D01*
X105634928Y-118279500D01*
X100416611Y-118279500D01*
X100243389Y-118279500D01*
X100157844Y-118293049D01*
X100072298Y-118306598D01*
X99907549Y-118360128D01*
X99753211Y-118438768D01*
X99613073Y-118540585D01*
X99332721Y-118820936D01*
X99271398Y-118854420D01*
X99228856Y-118856193D01*
X99178013Y-118849500D01*
X99178011Y-118849500D01*
X98941989Y-118849500D01*
X98941983Y-118849500D01*
X98941979Y-118849501D01*
X98707989Y-118880306D01*
X98480006Y-118941394D01*
X98261954Y-119031714D01*
X98261943Y-119031719D01*
X98057545Y-119149730D01*
X97870302Y-119293406D01*
X97870295Y-119293412D01*
X97826740Y-119336967D01*
X97765417Y-119370451D01*
X97695725Y-119365466D01*
X97639792Y-119323594D01*
X97616587Y-119268683D01*
X97603921Y-119188714D01*
X97593402Y-119122299D01*
X97539873Y-118957555D01*
X97461232Y-118803212D01*
X97359414Y-118663072D01*
X97236928Y-118540586D01*
X94369523Y-115673181D01*
X94336038Y-115611858D01*
X94341022Y-115542166D01*
X94382894Y-115486233D01*
X94448358Y-115461816D01*
X94457204Y-115461500D01*
X99207610Y-115461500D01*
X99207611Y-115461500D01*
X99378701Y-115434402D01*
X99543445Y-115380873D01*
X99697788Y-115302232D01*
X99837928Y-115200414D01*
X101052523Y-113985819D01*
X101113846Y-113952334D01*
X101140204Y-113949500D01*
X112261796Y-113949500D01*
X112328835Y-113969185D01*
X112349477Y-113985819D01*
X117763181Y-119399523D01*
X117796666Y-119460846D01*
X117799500Y-119487204D01*
X117799500Y-120180001D01*
X117799501Y-120180019D01*
X117810000Y-120282796D01*
X117810001Y-120282799D01*
X117865185Y-120449331D01*
X117865187Y-120449336D01*
X117882614Y-120477590D01*
X117957288Y-120598656D01*
X118081344Y-120722712D01*
X118230666Y-120814814D01*
X118397203Y-120869999D01*
X118499991Y-120880500D01*
X120100008Y-120880499D01*
X120202797Y-120869999D01*
X120369334Y-120814814D01*
X120518656Y-120722712D01*
X120642712Y-120598656D01*
X120734814Y-120449334D01*
X120789999Y-120282797D01*
X120800500Y-120180009D01*
X120800499Y-119487202D01*
X120820183Y-119420164D01*
X120836813Y-119399527D01*
X122759415Y-117476927D01*
X122759415Y-117476926D01*
X122759418Y-117476924D01*
X122776960Y-117452777D01*
X122810041Y-117407246D01*
X122861232Y-117336788D01*
X122939873Y-117182445D01*
X122970739Y-117087451D01*
X122993403Y-117017700D01*
X123014276Y-116885909D01*
X123020500Y-116846614D01*
X123020500Y-112583188D01*
X123040185Y-112516149D01*
X123044169Y-112510320D01*
X123075051Y-112467816D01*
X123171557Y-112278412D01*
X123237246Y-112076243D01*
X123270500Y-111866287D01*
X123270500Y-111653713D01*
X123237246Y-111443757D01*
X123171557Y-111241588D01*
X123075051Y-111052184D01*
X123075049Y-111052181D01*
X123075048Y-111052179D01*
X122950109Y-110880213D01*
X122799786Y-110729890D01*
X122627817Y-110604949D01*
X122618504Y-110600204D01*
X122567707Y-110552230D01*
X122550912Y-110484409D01*
X122573449Y-110418274D01*
X122618507Y-110379232D01*
X122627555Y-110374622D01*
X122681716Y-110335270D01*
X122681717Y-110335270D01*
X122049408Y-109702962D01*
X122112993Y-109685925D01*
X122227007Y-109620099D01*
X122320099Y-109527007D01*
X122385925Y-109412993D01*
X122402962Y-109349408D01*
X123035270Y-109981717D01*
X123035270Y-109981716D01*
X123074622Y-109927554D01*
X123171095Y-109738217D01*
X123236757Y-109536130D01*
X123236757Y-109536127D01*
X123270000Y-109326246D01*
X123270000Y-109113753D01*
X123236757Y-108903872D01*
X123236757Y-108903869D01*
X123171095Y-108701782D01*
X123074624Y-108512449D01*
X123035270Y-108458282D01*
X123035269Y-108458282D01*
X122402962Y-109090590D01*
X122385925Y-109027007D01*
X122320099Y-108912993D01*
X122227007Y-108819901D01*
X122112993Y-108754075D01*
X122049409Y-108737037D01*
X122681716Y-108104728D01*
X122627550Y-108065375D01*
X122617954Y-108060486D01*
X122567157Y-108012512D01*
X122550361Y-107944692D01*
X122572897Y-107878556D01*
X122617954Y-107839514D01*
X122627554Y-107834622D01*
X122681716Y-107795270D01*
X122681717Y-107795270D01*
X122049408Y-107162962D01*
X122112993Y-107145925D01*
X122227007Y-107080099D01*
X122320099Y-106987007D01*
X122385925Y-106872993D01*
X122402962Y-106809408D01*
X123035270Y-107441717D01*
X123035270Y-107441716D01*
X123074622Y-107387554D01*
X123171095Y-107198217D01*
X123236757Y-106996130D01*
X123236757Y-106996127D01*
X123270000Y-106786246D01*
X123270000Y-106573753D01*
X123236757Y-106363872D01*
X123236757Y-106363869D01*
X123171095Y-106161782D01*
X123074624Y-105972449D01*
X123035270Y-105918282D01*
X123035269Y-105918282D01*
X122402962Y-106550590D01*
X122385925Y-106487007D01*
X122320099Y-106372993D01*
X122227007Y-106279901D01*
X122112993Y-106214075D01*
X122049409Y-106197037D01*
X122719627Y-105526818D01*
X122780950Y-105493333D01*
X122807307Y-105490499D01*
X122817872Y-105490499D01*
X122877483Y-105484091D01*
X123012331Y-105433796D01*
X123127546Y-105347546D01*
X123213796Y-105232331D01*
X123264091Y-105097483D01*
X123270500Y-105037873D01*
X123270499Y-103242128D01*
X123264091Y-103182517D01*
X123262387Y-103177949D01*
X123213797Y-103047671D01*
X123213793Y-103047664D01*
X123127547Y-102932455D01*
X123127544Y-102932452D01*
X123012335Y-102846206D01*
X123012328Y-102846202D01*
X122877482Y-102795908D01*
X122877483Y-102795908D01*
X122817883Y-102789501D01*
X122817881Y-102789500D01*
X122817873Y-102789500D01*
X122817864Y-102789500D01*
X121022129Y-102789500D01*
X121022123Y-102789501D01*
X120962516Y-102795908D01*
X120827671Y-102846202D01*
X120827664Y-102846206D01*
X120712457Y-102932451D01*
X120712451Y-102932457D01*
X120669515Y-102989812D01*
X120613581Y-103031682D01*
X120570249Y-103039500D01*
X114386610Y-103039500D01*
X114213389Y-103039500D01*
X114127844Y-103053049D01*
X114042298Y-103066598D01*
X113877549Y-103120128D01*
X113723211Y-103198768D01*
X113663539Y-103242123D01*
X113583072Y-103300586D01*
X113583070Y-103300588D01*
X113583069Y-103300588D01*
X112872181Y-104011477D01*
X112810858Y-104044962D01*
X112741166Y-104039978D01*
X112685233Y-103998106D01*
X112660816Y-103932642D01*
X112660500Y-103923796D01*
X112660500Y-100084500D01*
X112680185Y-100017461D01*
X112732989Y-99971706D01*
X112784500Y-99960500D01*
X123435500Y-99960500D01*
X123502539Y-99980185D01*
G37*
%TD.AperFunction*%
%TA.AperFunction,Conductor*%
G36*
X59184144Y-105742240D02*
G01*
X59242732Y-105741673D01*
X59301874Y-105778875D01*
X59331426Y-105841585D01*
X59352151Y-105972439D01*
X59352754Y-105976243D01*
X59393172Y-106100637D01*
X59418444Y-106178414D01*
X59514951Y-106367820D01*
X59639890Y-106539786D01*
X59790213Y-106690109D01*
X59962182Y-106815050D01*
X59970946Y-106819516D01*
X60021742Y-106867491D01*
X60038536Y-106935312D01*
X60015998Y-107001447D01*
X59970946Y-107040484D01*
X59962182Y-107044949D01*
X59790213Y-107169890D01*
X59639890Y-107320213D01*
X59514950Y-107492180D01*
X59507503Y-107506797D01*
X59459527Y-107557592D01*
X59424042Y-107571520D01*
X59410696Y-107574500D01*
X59378393Y-107574500D01*
X59348229Y-107580500D01*
X59257548Y-107598537D01*
X59214271Y-107616463D01*
X59204337Y-107620577D01*
X59204331Y-107620579D01*
X59143715Y-107645686D01*
X59133627Y-107652428D01*
X59133626Y-107652429D01*
X59041268Y-107714140D01*
X59016601Y-107738808D01*
X58954142Y-107801267D01*
X58954139Y-107801270D01*
X57708562Y-109046848D01*
X56483229Y-110272181D01*
X56421906Y-110305666D01*
X56395548Y-110308500D01*
X54402607Y-110308500D01*
X54279393Y-110308500D01*
X54254070Y-110313537D01*
X54177547Y-110328757D01*
X54158547Y-110332537D01*
X54044716Y-110379687D01*
X54044707Y-110379692D01*
X53942268Y-110448140D01*
X53912676Y-110477733D01*
X53855142Y-110535267D01*
X53855139Y-110535270D01*
X51177227Y-113213181D01*
X51115904Y-113246666D01*
X51089546Y-113249500D01*
X50412498Y-113249500D01*
X50412480Y-113249501D01*
X50309703Y-113260000D01*
X50309700Y-113260001D01*
X50143168Y-113315185D01*
X50143163Y-113315187D01*
X49993842Y-113407289D01*
X49869789Y-113531342D01*
X49777687Y-113680663D01*
X49777685Y-113680668D01*
X49749905Y-113764504D01*
X49710132Y-113821949D01*
X49645616Y-113848772D01*
X49632199Y-113849500D01*
X47468456Y-113849500D01*
X47401417Y-113829815D01*
X47372724Y-113800602D01*
X47370943Y-113802011D01*
X47366461Y-113796343D01*
X47242407Y-113672289D01*
X47242406Y-113672288D01*
X47093084Y-113580186D01*
X46926547Y-113525001D01*
X46926545Y-113525000D01*
X46823760Y-113514500D01*
X46023748Y-113514500D01*
X46023730Y-113514501D01*
X45920953Y-113525000D01*
X45920950Y-113525001D01*
X45754418Y-113580185D01*
X45754413Y-113580187D01*
X45605092Y-113672289D01*
X45511431Y-113765951D01*
X45450108Y-113799436D01*
X45380416Y-113794452D01*
X45336069Y-113765951D01*
X45242407Y-113672289D01*
X45242406Y-113672288D01*
X45093084Y-113580186D01*
X44926547Y-113525001D01*
X44926545Y-113525000D01*
X44823760Y-113514500D01*
X44023748Y-113514500D01*
X44023730Y-113514501D01*
X43920953Y-113525000D01*
X43920950Y-113525001D01*
X43754418Y-113580185D01*
X43754413Y-113580187D01*
X43605092Y-113672289D01*
X43481039Y-113796342D01*
X43388937Y-113945663D01*
X43388936Y-113945666D01*
X43375737Y-113985500D01*
X43369439Y-114004505D01*
X43329666Y-114061949D01*
X43265150Y-114088772D01*
X43251733Y-114089500D01*
X42138250Y-114089500D01*
X42129564Y-114086949D01*
X42120604Y-114088238D01*
X42096562Y-114077259D01*
X42071211Y-114069815D01*
X42065284Y-114062975D01*
X42057048Y-114059214D01*
X42042757Y-114036978D01*
X42025456Y-114017011D01*
X42023168Y-114006498D01*
X42019273Y-114000436D01*
X42014250Y-113965501D01*
X42014249Y-113834362D01*
X42033933Y-113767322D01*
X42050563Y-113746685D01*
X43100430Y-112696819D01*
X43161753Y-112663334D01*
X43188111Y-112660500D01*
X50888693Y-112660500D01*
X50888694Y-112660499D01*
X51062666Y-112625895D01*
X51165271Y-112583394D01*
X51226547Y-112558013D01*
X51328263Y-112490048D01*
X51374036Y-112459464D01*
X54039463Y-109794036D01*
X54055922Y-109769404D01*
X54138013Y-109646547D01*
X54205894Y-109482666D01*
X54208414Y-109470000D01*
X54240499Y-109308695D01*
X54240500Y-109308693D01*
X54240500Y-105899500D01*
X54260185Y-105832461D01*
X54312989Y-105786706D01*
X54364500Y-105775500D01*
X59003693Y-105775500D01*
X59003694Y-105775499D01*
X59057315Y-105764833D01*
X59183641Y-105739707D01*
X59184144Y-105742240D01*
G37*
%TD.AperFunction*%
%TA.AperFunction,Conductor*%
G36*
X39896289Y-109309685D02*
G01*
X39942044Y-109362489D01*
X39953250Y-109414000D01*
X39953250Y-109868201D01*
X39956151Y-109905067D01*
X39956152Y-109905073D01*
X40002004Y-110062893D01*
X40002005Y-110062896D01*
X40002006Y-110062898D01*
X40036482Y-110121194D01*
X40053750Y-110184314D01*
X40053750Y-110449795D01*
X40053751Y-110449795D01*
X40056236Y-110449600D01*
X40213947Y-110403781D01*
X40215132Y-110403081D01*
X40216186Y-110402813D01*
X40221107Y-110400684D01*
X40221450Y-110401477D01*
X40282855Y-110385895D01*
X40336039Y-110401508D01*
X40336196Y-110401147D01*
X40339121Y-110402413D01*
X40341374Y-110403074D01*
X40343352Y-110404244D01*
X40343354Y-110404244D01*
X40343355Y-110404245D01*
X40501176Y-110450097D01*
X40501179Y-110450097D01*
X40501181Y-110450098D01*
X40538056Y-110453000D01*
X40538064Y-110453000D01*
X40969436Y-110453000D01*
X40969444Y-110453000D01*
X40970588Y-110452910D01*
X40970767Y-110452947D01*
X40971882Y-110452904D01*
X40971892Y-110453184D01*
X41038966Y-110467269D01*
X41068006Y-110488846D01*
X41827023Y-111247863D01*
X41860508Y-111309186D01*
X41855524Y-111378878D01*
X41827023Y-111423225D01*
X40552067Y-112698181D01*
X40490744Y-112731666D01*
X40464387Y-112734500D01*
X40263749Y-112734500D01*
X40263730Y-112734501D01*
X40160953Y-112745000D01*
X40160950Y-112745001D01*
X39994418Y-112800185D01*
X39994413Y-112800187D01*
X39845092Y-112892289D01*
X39715931Y-113021451D01*
X39654608Y-113054936D01*
X39584916Y-113049952D01*
X39528983Y-113008080D01*
X39504566Y-112942616D01*
X39504250Y-112933770D01*
X39504249Y-111920636D01*
X39488796Y-111803246D01*
X39488794Y-111803241D01*
X39488794Y-111803238D01*
X39453411Y-111717816D01*
X39438689Y-111682272D01*
X39437313Y-111675754D01*
X39435113Y-111672498D01*
X39430858Y-111645155D01*
X39429283Y-111637689D01*
X39429250Y-111636263D01*
X39429250Y-111503394D01*
X39427871Y-111496463D01*
X39412634Y-111419857D01*
X39405213Y-111382548D01*
X39384579Y-111332733D01*
X39373757Y-111306605D01*
X39358064Y-111268719D01*
X39358063Y-111268717D01*
X39351177Y-111258412D01*
X39328710Y-111224787D01*
X39289608Y-111166267D01*
X39202483Y-111079142D01*
X39202479Y-111079139D01*
X38788021Y-110664681D01*
X38754536Y-110603358D01*
X38759520Y-110533666D01*
X38801392Y-110477733D01*
X38866856Y-110453316D01*
X38875702Y-110453000D01*
X39069436Y-110453000D01*
X39069444Y-110453000D01*
X39106319Y-110450098D01*
X39106321Y-110450097D01*
X39106323Y-110450097D01*
X39185106Y-110427208D01*
X39264148Y-110404244D01*
X39264931Y-110403781D01*
X39266119Y-110403079D01*
X39267862Y-110402636D01*
X39271307Y-110401146D01*
X39271547Y-110401701D01*
X39333843Y-110385895D01*
X39386147Y-110401253D01*
X39386394Y-110400684D01*
X39391005Y-110402679D01*
X39392362Y-110403078D01*
X39393551Y-110403781D01*
X39393556Y-110403783D01*
X39551255Y-110449599D01*
X39551261Y-110449600D01*
X39553748Y-110449795D01*
X39553750Y-110449795D01*
X39553750Y-110184314D01*
X39571017Y-110121194D01*
X39605494Y-110062898D01*
X39640105Y-109943769D01*
X39651347Y-109905073D01*
X39651348Y-109905067D01*
X39653163Y-109882006D01*
X39654250Y-109868194D01*
X39654250Y-109414000D01*
X39656800Y-109405314D01*
X39655512Y-109396353D01*
X39666490Y-109372312D01*
X39673935Y-109346961D01*
X39680775Y-109341033D01*
X39684537Y-109332797D01*
X39706771Y-109318507D01*
X39726739Y-109301206D01*
X39737253Y-109298918D01*
X39743315Y-109295023D01*
X39778250Y-109290000D01*
X39829250Y-109290000D01*
X39896289Y-109309685D01*
G37*
%TD.AperFunction*%
%TA.AperFunction,Conductor*%
G36*
X52382539Y-105795185D02*
G01*
X52428294Y-105847989D01*
X52439500Y-105899500D01*
X52439500Y-108795638D01*
X52419815Y-108862677D01*
X52403181Y-108883319D01*
X50463319Y-110823181D01*
X50401996Y-110856666D01*
X50375638Y-110859500D01*
X49914164Y-110859500D01*
X49888717Y-110852027D01*
X49862470Y-110848211D01*
X49855712Y-110842336D01*
X49847125Y-110839815D01*
X49829761Y-110819776D01*
X49809740Y-110802371D01*
X49805448Y-110791717D01*
X49801370Y-110787011D01*
X49795131Y-110770242D01*
X49793605Y-110765014D01*
X49775213Y-110672549D01*
X49746109Y-110602284D01*
X49744217Y-110595802D01*
X49744232Y-110586109D01*
X49739250Y-110561060D01*
X49739250Y-110455300D01*
X49758935Y-110388261D01*
X49811739Y-110342506D01*
X49824232Y-110337599D01*
X49908084Y-110309814D01*
X50057406Y-110217712D01*
X50181462Y-110093656D01*
X50273564Y-109944334D01*
X50328749Y-109777797D01*
X50339250Y-109675009D01*
X50339249Y-109074992D01*
X50336184Y-109044992D01*
X50328749Y-108972203D01*
X50328748Y-108972200D01*
X50318807Y-108942200D01*
X50273564Y-108805666D01*
X50181462Y-108656344D01*
X50057406Y-108532288D01*
X50054092Y-108530243D01*
X50052296Y-108528248D01*
X50051739Y-108527807D01*
X50051814Y-108527711D01*
X50007368Y-108478297D01*
X49996147Y-108409334D01*
X50023990Y-108345252D01*
X50054098Y-108319165D01*
X50057092Y-108317318D01*
X50181065Y-108193345D01*
X50273106Y-108044124D01*
X50273108Y-108044119D01*
X50328255Y-107877697D01*
X50328256Y-107877690D01*
X50338749Y-107774986D01*
X50338750Y-107774973D01*
X50338750Y-107725000D01*
X47888751Y-107725000D01*
X47888751Y-107774986D01*
X47899244Y-107877697D01*
X47954391Y-108044119D01*
X47954393Y-108044124D01*
X48046434Y-108193345D01*
X48170405Y-108317316D01*
X48170409Y-108317319D01*
X48173406Y-108319168D01*
X48175029Y-108320972D01*
X48176073Y-108321798D01*
X48175931Y-108321976D01*
X48220131Y-108371116D01*
X48231352Y-108440079D01*
X48203509Y-108504161D01*
X48173411Y-108530241D01*
X48170099Y-108532283D01*
X48170093Y-108532288D01*
X48046039Y-108656342D01*
X47953937Y-108805663D01*
X47953936Y-108805666D01*
X47898751Y-108972203D01*
X47898751Y-108972204D01*
X47898750Y-108972204D01*
X47888250Y-109074983D01*
X47888250Y-109675001D01*
X47888251Y-109675019D01*
X47898750Y-109777796D01*
X47898751Y-109777799D01*
X47938204Y-109896858D01*
X47953936Y-109944334D01*
X48027066Y-110062898D01*
X48046039Y-110093657D01*
X48050201Y-110097819D01*
X48083686Y-110159142D01*
X48078702Y-110228834D01*
X48036830Y-110284767D01*
X47971366Y-110309184D01*
X47962520Y-110309500D01*
X47340359Y-110309500D01*
X47273320Y-110289815D01*
X47227565Y-110237011D01*
X47217621Y-110167853D01*
X47234821Y-110120403D01*
X47238559Y-110114342D01*
X47238558Y-110114342D01*
X47238564Y-110114334D01*
X47293749Y-109947797D01*
X47304250Y-109845009D01*
X47304249Y-109044992D01*
X47293749Y-108942203D01*
X47238564Y-108775666D01*
X47146462Y-108626344D01*
X47052445Y-108532327D01*
X47018960Y-108471004D01*
X47023944Y-108401312D01*
X47052445Y-108356964D01*
X47146067Y-108263342D01*
X47238106Y-108114124D01*
X47238108Y-108114119D01*
X47293255Y-107947697D01*
X47293256Y-107947690D01*
X47303749Y-107844986D01*
X47303750Y-107844973D01*
X47303750Y-107695000D01*
X44903751Y-107695000D01*
X44903751Y-107844986D01*
X44914244Y-107947697D01*
X44969391Y-108114119D01*
X44969393Y-108114124D01*
X45061434Y-108263345D01*
X45155054Y-108356965D01*
X45188539Y-108418288D01*
X45183555Y-108487980D01*
X45155055Y-108532327D01*
X45061037Y-108626345D01*
X44968937Y-108775663D01*
X44968935Y-108775668D01*
X44962084Y-108796344D01*
X44913751Y-108942203D01*
X44913751Y-108942204D01*
X44913750Y-108942204D01*
X44903250Y-109044983D01*
X44903250Y-109845001D01*
X44903251Y-109845019D01*
X44913750Y-109947796D01*
X44913751Y-109947799D01*
X44968935Y-110114331D01*
X44968940Y-110114342D01*
X44972679Y-110120403D01*
X44991120Y-110187795D01*
X44970198Y-110254458D01*
X44916556Y-110299228D01*
X44867141Y-110309500D01*
X44411945Y-110309500D01*
X44344906Y-110289815D01*
X44299151Y-110237011D01*
X44289207Y-110167853D01*
X44294239Y-110146497D01*
X44299636Y-110130208D01*
X44303749Y-110117797D01*
X44314250Y-110015009D01*
X44314249Y-109214992D01*
X44310451Y-109177816D01*
X44303749Y-109112203D01*
X44303748Y-109112200D01*
X44280127Y-109040917D01*
X44248564Y-108945666D01*
X44156462Y-108796344D01*
X44062799Y-108702681D01*
X44029314Y-108641358D01*
X44034298Y-108571666D01*
X44062799Y-108527319D01*
X44109620Y-108480498D01*
X44156462Y-108433656D01*
X44248564Y-108284334D01*
X44303749Y-108117797D01*
X44314250Y-108015009D01*
X44314249Y-107214992D01*
X44312535Y-107198217D01*
X44303749Y-107112203D01*
X44303748Y-107112199D01*
X44293366Y-107080868D01*
X44281485Y-107045013D01*
X44903750Y-107045013D01*
X44903750Y-107195000D01*
X45853750Y-107195000D01*
X46353750Y-107195000D01*
X47303749Y-107195000D01*
X47303749Y-107175013D01*
X47888750Y-107175013D01*
X47888750Y-107225000D01*
X48863750Y-107225000D01*
X49363750Y-107225000D01*
X50338749Y-107225000D01*
X50338749Y-107175028D01*
X50338748Y-107175013D01*
X50328255Y-107072302D01*
X50273108Y-106905880D01*
X50273106Y-106905875D01*
X50181065Y-106756654D01*
X50057095Y-106632684D01*
X49907874Y-106540643D01*
X49907869Y-106540641D01*
X49741447Y-106485494D01*
X49741440Y-106485493D01*
X49638736Y-106475000D01*
X49363750Y-106475000D01*
X49363750Y-107225000D01*
X48863750Y-107225000D01*
X48863750Y-106475000D01*
X48588779Y-106475000D01*
X48588762Y-106475001D01*
X48486052Y-106485494D01*
X48319630Y-106540641D01*
X48319625Y-106540643D01*
X48170404Y-106632684D01*
X48046434Y-106756654D01*
X47954393Y-106905875D01*
X47954391Y-106905880D01*
X47899244Y-107072302D01*
X47899243Y-107072309D01*
X47888750Y-107175013D01*
X47303749Y-107175013D01*
X47303749Y-107045028D01*
X47303748Y-107045013D01*
X47293255Y-106942302D01*
X47238108Y-106775880D01*
X47238106Y-106775875D01*
X47146065Y-106626654D01*
X47022095Y-106502684D01*
X46872874Y-106410643D01*
X46872869Y-106410641D01*
X46706447Y-106355494D01*
X46706440Y-106355493D01*
X46603736Y-106345000D01*
X46353750Y-106345000D01*
X46353750Y-107195000D01*
X45853750Y-107195000D01*
X45853750Y-106345000D01*
X45603779Y-106345000D01*
X45603762Y-106345001D01*
X45501052Y-106355494D01*
X45334630Y-106410641D01*
X45334625Y-106410643D01*
X45185404Y-106502684D01*
X45061434Y-106626654D01*
X44969393Y-106775875D01*
X44969391Y-106775880D01*
X44914244Y-106942302D01*
X44914243Y-106942309D01*
X44903750Y-107045013D01*
X44281485Y-107045013D01*
X44262263Y-106987007D01*
X44248564Y-106945666D01*
X44156462Y-106796344D01*
X44050568Y-106690450D01*
X44017084Y-106629127D01*
X44014250Y-106602769D01*
X44014250Y-105899500D01*
X44033935Y-105832461D01*
X44086739Y-105786706D01*
X44138250Y-105775500D01*
X52315500Y-105775500D01*
X52382539Y-105795185D01*
G37*
%TD.AperFunction*%
%TA.AperFunction,Conductor*%
G36*
X127981789Y-93734206D02*
G01*
X128027922Y-93786680D01*
X128039500Y-93839000D01*
X128039500Y-164475500D01*
X128019815Y-164542539D01*
X127967011Y-164588294D01*
X127915500Y-164599500D01*
X21234826Y-164599500D01*
X21167787Y-164579815D01*
X21122032Y-164527011D01*
X21110827Y-164476011D01*
X21109007Y-164034108D01*
X20958652Y-127524983D01*
X29253250Y-127524983D01*
X29253250Y-129725001D01*
X29253251Y-129725018D01*
X29263750Y-129827796D01*
X29263751Y-129827799D01*
X29314712Y-129981587D01*
X29318936Y-129994334D01*
X29411038Y-130143656D01*
X29535094Y-130267712D01*
X29684416Y-130359814D01*
X29850953Y-130414999D01*
X29953741Y-130425500D01*
X32153758Y-130425499D01*
X32256547Y-130414999D01*
X32423084Y-130359814D01*
X32572406Y-130267712D01*
X32696462Y-130143656D01*
X32788564Y-129994334D01*
X32843749Y-129827797D01*
X32854250Y-129725009D01*
X32854249Y-127524992D01*
X32843749Y-127422203D01*
X32788564Y-127255666D01*
X32696462Y-127106344D01*
X32572406Y-126982288D01*
X32470493Y-126919428D01*
X32423086Y-126890187D01*
X32423081Y-126890185D01*
X32421612Y-126889698D01*
X32256547Y-126835001D01*
X32256545Y-126835000D01*
X32153766Y-126824500D01*
X32153759Y-126824500D01*
X31803250Y-126824500D01*
X31736211Y-126804815D01*
X31690456Y-126752011D01*
X31679250Y-126700500D01*
X31679250Y-123595452D01*
X31687894Y-123566011D01*
X31694418Y-123536025D01*
X31698172Y-123531009D01*
X31698935Y-123528413D01*
X31715569Y-123507771D01*
X31856521Y-123366819D01*
X31917844Y-123333334D01*
X31944202Y-123330500D01*
X34915357Y-123330500D01*
X34915358Y-123330499D01*
X35036202Y-123306463D01*
X35150036Y-123259311D01*
X35235359Y-123202300D01*
X35302036Y-123181422D01*
X35369416Y-123199906D01*
X35416107Y-123251885D01*
X35428250Y-123305402D01*
X35428250Y-126852389D01*
X35408565Y-126919428D01*
X35355761Y-126965183D01*
X35351714Y-126966945D01*
X35255701Y-127006716D01*
X35255698Y-127006717D01*
X35255690Y-127006721D01*
X35051295Y-127124730D01*
X34864052Y-127268406D01*
X34864045Y-127268412D01*
X34697162Y-127435295D01*
X34697156Y-127435302D01*
X34553480Y-127622545D01*
X34435469Y-127826943D01*
X34435464Y-127826954D01*
X34345144Y-128045006D01*
X34284056Y-128272989D01*
X34253251Y-128506979D01*
X34253250Y-128506995D01*
X34253250Y-128743004D01*
X34253251Y-128743020D01*
X34284056Y-128977010D01*
X34345144Y-129204993D01*
X34435464Y-129423045D01*
X34435469Y-129423056D01*
X34478635Y-129497820D01*
X34553477Y-129627450D01*
X34553479Y-129627453D01*
X34553480Y-129627454D01*
X34697156Y-129814697D01*
X34697162Y-129814704D01*
X34864045Y-129981587D01*
X34864052Y-129981593D01*
X34926994Y-130029890D01*
X35051300Y-130125273D01*
X35182668Y-130201118D01*
X35255693Y-130243280D01*
X35255698Y-130243282D01*
X35255701Y-130243284D01*
X35473757Y-130333606D01*
X35701736Y-130394693D01*
X35935739Y-130425500D01*
X35935746Y-130425500D01*
X36171754Y-130425500D01*
X36171761Y-130425500D01*
X36405764Y-130394693D01*
X36633743Y-130333606D01*
X36851799Y-130243284D01*
X36853031Y-130242573D01*
X36904751Y-130212712D01*
X37056200Y-130125273D01*
X37243449Y-129981592D01*
X37410342Y-129814699D01*
X37554023Y-129627450D01*
X37672034Y-129423049D01*
X37762356Y-129204993D01*
X37823443Y-128977014D01*
X37854250Y-128743011D01*
X37854250Y-128506989D01*
X37823443Y-128272986D01*
X37762356Y-128045007D01*
X37672034Y-127826951D01*
X37672032Y-127826948D01*
X37672030Y-127826943D01*
X37628095Y-127750846D01*
X37554023Y-127622550D01*
X37410342Y-127435301D01*
X37410337Y-127435295D01*
X37243454Y-127268412D01*
X37243447Y-127268406D01*
X37056204Y-127124730D01*
X37056203Y-127124729D01*
X37056200Y-127124727D01*
X36959793Y-127069066D01*
X36851809Y-127006721D01*
X36851804Y-127006719D01*
X36851799Y-127006716D01*
X36755795Y-126966949D01*
X36701393Y-126923108D01*
X36679329Y-126856813D01*
X36679250Y-126852389D01*
X36679250Y-123159499D01*
X36698935Y-123092460D01*
X36751739Y-123046705D01*
X36803250Y-123035499D01*
X36863752Y-123035499D01*
X36863758Y-123035499D01*
X36966547Y-123024999D01*
X37133084Y-122969814D01*
X37282406Y-122877712D01*
X37406462Y-122753656D01*
X37498564Y-122604334D01*
X37553749Y-122437797D01*
X37564250Y-122335009D01*
X37564249Y-121534992D01*
X37553749Y-121432203D01*
X37498564Y-121265666D01*
X37406462Y-121116344D01*
X37312799Y-121022681D01*
X37279314Y-120961358D01*
X37284298Y-120891666D01*
X37312799Y-120847319D01*
X37345306Y-120814812D01*
X37406462Y-120753656D01*
X37498564Y-120604334D01*
X37553749Y-120437797D01*
X37564250Y-120335009D01*
X37564249Y-119769450D01*
X37570487Y-119748204D01*
X37572067Y-119726117D01*
X37580138Y-119715334D01*
X37583933Y-119702412D01*
X37600669Y-119687910D01*
X37613939Y-119670184D01*
X37626557Y-119665477D01*
X37636737Y-119656657D01*
X37658655Y-119653505D01*
X37679403Y-119645767D01*
X37692563Y-119648629D01*
X37705896Y-119646713D01*
X37726039Y-119655912D01*
X37747676Y-119660619D01*
X37765401Y-119673887D01*
X37769452Y-119675738D01*
X37775930Y-119681770D01*
X37816931Y-119722771D01*
X37850416Y-119784094D01*
X37853250Y-119810452D01*
X37853250Y-120475001D01*
X37853251Y-120475019D01*
X37863750Y-120577796D01*
X37863751Y-120577799D01*
X37918935Y-120744331D01*
X37918937Y-120744336D01*
X37934830Y-120770102D01*
X38002923Y-120880500D01*
X38011039Y-120893657D01*
X38104701Y-120987319D01*
X38138186Y-121048642D01*
X38133202Y-121118334D01*
X38104701Y-121162681D01*
X38011039Y-121256342D01*
X37918937Y-121405663D01*
X37918935Y-121405668D01*
X37904889Y-121448056D01*
X37863751Y-121572203D01*
X37863751Y-121572204D01*
X37863750Y-121572204D01*
X37853250Y-121674983D01*
X37853250Y-122475001D01*
X37853251Y-122475019D01*
X37863750Y-122577796D01*
X37863751Y-122577799D01*
X37872545Y-122604336D01*
X37918936Y-122744334D01*
X38011038Y-122893656D01*
X38135094Y-123017712D01*
X38284416Y-123109814D01*
X38284418Y-123109815D01*
X38304860Y-123116588D01*
X38343252Y-123129310D01*
X38400697Y-123169081D01*
X38427522Y-123233596D01*
X38428250Y-123247016D01*
X38428250Y-126686608D01*
X38432537Y-126708165D01*
X38452285Y-126807444D01*
X38452287Y-126807451D01*
X38460022Y-126826128D01*
X38460027Y-126826139D01*
X38461834Y-126830500D01*
X38499438Y-126921286D01*
X38531655Y-126969500D01*
X38535796Y-126975698D01*
X38535799Y-126975703D01*
X38567893Y-127023735D01*
X38659336Y-127115178D01*
X38659358Y-127115198D01*
X39358029Y-127813869D01*
X39391514Y-127875192D01*
X39386530Y-127944884D01*
X39384909Y-127949002D01*
X39345146Y-128044999D01*
X39284056Y-128272989D01*
X39253251Y-128506979D01*
X39253250Y-128506995D01*
X39253250Y-128743004D01*
X39253251Y-128743020D01*
X39284056Y-128977010D01*
X39345144Y-129204993D01*
X39435464Y-129423045D01*
X39435469Y-129423056D01*
X39478635Y-129497820D01*
X39553477Y-129627450D01*
X39553479Y-129627453D01*
X39553480Y-129627454D01*
X39697156Y-129814697D01*
X39697162Y-129814704D01*
X39864045Y-129981587D01*
X39864052Y-129981593D01*
X39926994Y-130029890D01*
X40051300Y-130125273D01*
X40182668Y-130201118D01*
X40255693Y-130243280D01*
X40255698Y-130243282D01*
X40255701Y-130243284D01*
X40473757Y-130333606D01*
X40701736Y-130394693D01*
X40935739Y-130425500D01*
X40935746Y-130425500D01*
X41171754Y-130425500D01*
X41171761Y-130425500D01*
X41405764Y-130394693D01*
X41633743Y-130333606D01*
X41851799Y-130243284D01*
X41853031Y-130242573D01*
X41904751Y-130212712D01*
X42056200Y-130125273D01*
X42243449Y-129981592D01*
X42410342Y-129814699D01*
X42554023Y-129627450D01*
X42672034Y-129423049D01*
X42762356Y-129204993D01*
X42823443Y-128977014D01*
X42854250Y-128743011D01*
X42854250Y-128506989D01*
X42823443Y-128272986D01*
X42762356Y-128045007D01*
X42672034Y-127826951D01*
X42672032Y-127826948D01*
X42672030Y-127826943D01*
X42628095Y-127750846D01*
X42554023Y-127622550D01*
X42410342Y-127435301D01*
X42410337Y-127435295D01*
X42243454Y-127268412D01*
X42243447Y-127268406D01*
X42056204Y-127124730D01*
X42056203Y-127124729D01*
X42056200Y-127124727D01*
X41974707Y-127077677D01*
X41851806Y-127006719D01*
X41851795Y-127006714D01*
X41633743Y-126916394D01*
X41405760Y-126855306D01*
X41171770Y-126824501D01*
X41171767Y-126824500D01*
X41171761Y-126824500D01*
X40935739Y-126824500D01*
X40935733Y-126824500D01*
X40935729Y-126824501D01*
X40701739Y-126855306D01*
X40473749Y-126916396D01*
X40377752Y-126956159D01*
X40308282Y-126963628D01*
X40245803Y-126932352D01*
X40242619Y-126929279D01*
X39715569Y-126402229D01*
X39682084Y-126340906D01*
X39679250Y-126314548D01*
X39679250Y-123247016D01*
X39698935Y-123179977D01*
X39751739Y-123134222D01*
X39764238Y-123129313D01*
X39823084Y-123109814D01*
X39972406Y-123017712D01*
X40096462Y-122893656D01*
X40188564Y-122744334D01*
X40243749Y-122577797D01*
X40254250Y-122475009D01*
X40254249Y-121674992D01*
X40243749Y-121572203D01*
X40188564Y-121405666D01*
X40096462Y-121256344D01*
X40002799Y-121162681D01*
X39969314Y-121101358D01*
X39974298Y-121031666D01*
X40002799Y-120987319D01*
X40028760Y-120961358D01*
X40096462Y-120893656D01*
X40188564Y-120744334D01*
X40243749Y-120577797D01*
X40254250Y-120475009D01*
X40254249Y-119674992D01*
X40252805Y-119660860D01*
X40243749Y-119572203D01*
X40243748Y-119572200D01*
X40226290Y-119519516D01*
X40188564Y-119405666D01*
X40096462Y-119256344D01*
X39972406Y-119132288D01*
X39823084Y-119040186D01*
X39656547Y-118985001D01*
X39656545Y-118985000D01*
X39553766Y-118974500D01*
X39553759Y-118974500D01*
X38903250Y-118974500D01*
X38836211Y-118954815D01*
X38790456Y-118902011D01*
X38779250Y-118850500D01*
X38779250Y-118278803D01*
X38798935Y-118211764D01*
X38851739Y-118166009D01*
X38920897Y-118156065D01*
X38984453Y-118185090D01*
X38985010Y-118185576D01*
X39003750Y-118202011D01*
X39060377Y-118194557D01*
X39060383Y-118194555D01*
X39206335Y-118134100D01*
X39331674Y-118037924D01*
X39427850Y-117912586D01*
X39488304Y-117766634D01*
X39488305Y-117766630D01*
X39503749Y-117649330D01*
X39503750Y-117649316D01*
X39503750Y-117097500D01*
X38978249Y-117097500D01*
X38969563Y-117094949D01*
X38960602Y-117096238D01*
X38936561Y-117085259D01*
X38911210Y-117077815D01*
X38905282Y-117070974D01*
X38897046Y-117067213D01*
X38882756Y-117044978D01*
X38865455Y-117025011D01*
X38863167Y-117014496D01*
X38859272Y-117008435D01*
X38854249Y-116973503D01*
X38854249Y-116821498D01*
X38873934Y-116754461D01*
X38926738Y-116708706D01*
X38978249Y-116697500D01*
X39503749Y-116697500D01*
X39503749Y-116434784D01*
X39523434Y-116367745D01*
X39576238Y-116321990D01*
X39645396Y-116312046D01*
X39708952Y-116341071D01*
X39716057Y-116348505D01*
X39716326Y-116348237D01*
X39845404Y-116477315D01*
X39994625Y-116569356D01*
X39994630Y-116569358D01*
X40161052Y-116624505D01*
X40161059Y-116624506D01*
X40263769Y-116634999D01*
X40538749Y-116634999D01*
X41038750Y-116634999D01*
X41313722Y-116634999D01*
X41313736Y-116634998D01*
X41416447Y-116624505D01*
X41582869Y-116569358D01*
X41582874Y-116569356D01*
X41732095Y-116477315D01*
X41856065Y-116353345D01*
X41948106Y-116204124D01*
X41948108Y-116204119D01*
X42003255Y-116037697D01*
X42003256Y-116037690D01*
X42013749Y-115934986D01*
X42013750Y-115934973D01*
X42013750Y-115885000D01*
X41038750Y-115885000D01*
X41038750Y-116634999D01*
X40538749Y-116634999D01*
X40538750Y-116634998D01*
X40538750Y-115885000D01*
X39543623Y-115885000D01*
X39526631Y-115894277D01*
X39456940Y-115889290D01*
X39401903Y-115848597D01*
X39331676Y-115757077D01*
X39206336Y-115660899D01*
X39060384Y-115600445D01*
X39060380Y-115600444D01*
X38961599Y-115587439D01*
X38897703Y-115559172D01*
X38859232Y-115500848D01*
X38858401Y-115430983D01*
X38895473Y-115371760D01*
X38958679Y-115341981D01*
X38977785Y-115340500D01*
X39467888Y-115340500D01*
X39534927Y-115360185D01*
X39555569Y-115376819D01*
X39563750Y-115385000D01*
X42013749Y-115385000D01*
X42021930Y-115376819D01*
X42083253Y-115343334D01*
X42109611Y-115340500D01*
X43251733Y-115340500D01*
X43318772Y-115360185D01*
X43364527Y-115412989D01*
X43369436Y-115425489D01*
X43388935Y-115484331D01*
X43388936Y-115484333D01*
X43388937Y-115484336D01*
X43399122Y-115500848D01*
X43481038Y-115633656D01*
X43605094Y-115757712D01*
X43754416Y-115849814D01*
X43920953Y-115904999D01*
X44023741Y-115915500D01*
X44823758Y-115915499D01*
X44823766Y-115915498D01*
X44823769Y-115915498D01*
X44880052Y-115909748D01*
X44926547Y-115904999D01*
X45093084Y-115849814D01*
X45242406Y-115757712D01*
X45336069Y-115664049D01*
X45397392Y-115630564D01*
X45467084Y-115635548D01*
X45511431Y-115664049D01*
X45605094Y-115757712D01*
X45754416Y-115849814D01*
X45920953Y-115904999D01*
X46023741Y-115915500D01*
X46823758Y-115915499D01*
X46823766Y-115915498D01*
X46823769Y-115915498D01*
X46880052Y-115909748D01*
X46926547Y-115904999D01*
X47093084Y-115849814D01*
X47242406Y-115757712D01*
X47366462Y-115633656D01*
X47458564Y-115484334D01*
X47513749Y-115317797D01*
X47524250Y-115215009D01*
X47524568Y-115211897D01*
X47550964Y-115147206D01*
X47608145Y-115107054D01*
X47647926Y-115100500D01*
X48198394Y-115100500D01*
X49632199Y-115100500D01*
X49699238Y-115120185D01*
X49744993Y-115172989D01*
X49749903Y-115185492D01*
X49776939Y-115267082D01*
X49777685Y-115269331D01*
X49777687Y-115269336D01*
X49807577Y-115317795D01*
X49869788Y-115418656D01*
X49993844Y-115542712D01*
X50143166Y-115634814D01*
X50309703Y-115689999D01*
X50412491Y-115700500D01*
X51187508Y-115700499D01*
X51187516Y-115700498D01*
X51187519Y-115700498D01*
X51243802Y-115694748D01*
X51290297Y-115689999D01*
X51456834Y-115634814D01*
X51606156Y-115542712D01*
X51730212Y-115418656D01*
X51732252Y-115415347D01*
X51734245Y-115413555D01*
X51734693Y-115412989D01*
X51734789Y-115413065D01*
X51784194Y-115368623D01*
X51853156Y-115357395D01*
X51917240Y-115385234D01*
X51943329Y-115415339D01*
X51945181Y-115418341D01*
X51945183Y-115418344D01*
X52069154Y-115542315D01*
X52218375Y-115634356D01*
X52218380Y-115634358D01*
X52384802Y-115689505D01*
X52384809Y-115689506D01*
X52487519Y-115699999D01*
X52624999Y-115699999D01*
X53125000Y-115699999D01*
X53262472Y-115699999D01*
X53262486Y-115699998D01*
X53365197Y-115689505D01*
X53531619Y-115634358D01*
X53531624Y-115634356D01*
X53680845Y-115542315D01*
X53804815Y-115418345D01*
X53896856Y-115269124D01*
X53896858Y-115269119D01*
X53952005Y-115102697D01*
X53952006Y-115102690D01*
X53962499Y-114999986D01*
X53962500Y-114999973D01*
X53962500Y-114725000D01*
X53125000Y-114725000D01*
X53125000Y-115699999D01*
X52624999Y-115699999D01*
X52625000Y-115699998D01*
X52625000Y-114599000D01*
X52644685Y-114531961D01*
X52697489Y-114486206D01*
X52749000Y-114475000D01*
X52875000Y-114475000D01*
X52875000Y-114349000D01*
X52894685Y-114281961D01*
X52947489Y-114236206D01*
X52999000Y-114225000D01*
X53962499Y-114225000D01*
X53962499Y-113950028D01*
X53962498Y-113950013D01*
X53952005Y-113847302D01*
X53896858Y-113680880D01*
X53896856Y-113680875D01*
X53804815Y-113531654D01*
X53680845Y-113407684D01*
X53531624Y-113315643D01*
X53531619Y-113315641D01*
X53365197Y-113260494D01*
X53365190Y-113260493D01*
X53262486Y-113250000D01*
X53208950Y-113250000D01*
X53141911Y-113230315D01*
X53096156Y-113177511D01*
X53086212Y-113108353D01*
X53115237Y-113044797D01*
X53121249Y-113038340D01*
X54563771Y-111595819D01*
X54625094Y-111562334D01*
X54651452Y-111559500D01*
X56767607Y-111559500D01*
X56828029Y-111547481D01*
X56888452Y-111535463D01*
X56934322Y-111516463D01*
X57002286Y-111488312D01*
X57060050Y-111449714D01*
X57104733Y-111419858D01*
X57191858Y-111332733D01*
X57191859Y-111332731D01*
X57198925Y-111325665D01*
X57198928Y-111325661D01*
X59455172Y-109069416D01*
X59516493Y-109035933D01*
X59586185Y-109040917D01*
X59637134Y-109076559D01*
X59639894Y-109079790D01*
X59790213Y-109230109D01*
X59962182Y-109355050D01*
X59970946Y-109359516D01*
X60021742Y-109407491D01*
X60038536Y-109475312D01*
X60015998Y-109541447D01*
X59970946Y-109580484D01*
X59962182Y-109584949D01*
X59790213Y-109709890D01*
X59639890Y-109860213D01*
X59514951Y-110032179D01*
X59418444Y-110221585D01*
X59418443Y-110221587D01*
X59418443Y-110221588D01*
X59389776Y-110309815D01*
X59352753Y-110423760D01*
X59319500Y-110633713D01*
X59319500Y-110846286D01*
X59345429Y-111009999D01*
X59352754Y-111056243D01*
X59415015Y-111247863D01*
X59418444Y-111258414D01*
X59514951Y-111447820D01*
X59639890Y-111619786D01*
X59790213Y-111770109D01*
X59962182Y-111895050D01*
X59970946Y-111899516D01*
X60021742Y-111947491D01*
X60038536Y-112015312D01*
X60015998Y-112081447D01*
X59970946Y-112120484D01*
X59962182Y-112124949D01*
X59790213Y-112249890D01*
X59639890Y-112400213D01*
X59514951Y-112572179D01*
X59418444Y-112761585D01*
X59352753Y-112963760D01*
X59329852Y-113108353D01*
X59319500Y-113173713D01*
X59319500Y-113386287D01*
X59322889Y-113407684D01*
X59350210Y-113580186D01*
X59352754Y-113596243D01*
X59417770Y-113796342D01*
X59418444Y-113798414D01*
X59514951Y-113987820D01*
X59639890Y-114159786D01*
X59790213Y-114310109D01*
X59962182Y-114435050D01*
X59970946Y-114439516D01*
X60021742Y-114487491D01*
X60038536Y-114555312D01*
X60015998Y-114621447D01*
X59970946Y-114660484D01*
X59962182Y-114664949D01*
X59790213Y-114789890D01*
X59639890Y-114940213D01*
X59514951Y-115112179D01*
X59418444Y-115301585D01*
X59352753Y-115503760D01*
X59319500Y-115713713D01*
X59319500Y-115926286D01*
X59343643Y-116078723D01*
X59352754Y-116136243D01*
X59374808Y-116204119D01*
X59418444Y-116338414D01*
X59514951Y-116527820D01*
X59639890Y-116699786D01*
X59790213Y-116850109D01*
X59962182Y-116975050D01*
X59970946Y-116979516D01*
X60021742Y-117027491D01*
X60038536Y-117095312D01*
X60015998Y-117161447D01*
X59970946Y-117200484D01*
X59962182Y-117204949D01*
X59790213Y-117329890D01*
X59639890Y-117480213D01*
X59514951Y-117652179D01*
X59418444Y-117841585D01*
X59352753Y-118043760D01*
X59319500Y-118253713D01*
X59319500Y-118466286D01*
X59350667Y-118663070D01*
X59352754Y-118676243D01*
X59410647Y-118854420D01*
X59418444Y-118878414D01*
X59514951Y-119067820D01*
X59639890Y-119239786D01*
X59790213Y-119390109D01*
X59962182Y-119515050D01*
X59970946Y-119519516D01*
X60021742Y-119567491D01*
X60038536Y-119635312D01*
X60015998Y-119701447D01*
X59970946Y-119740484D01*
X59962182Y-119744949D01*
X59790213Y-119869890D01*
X59639890Y-120020213D01*
X59514951Y-120192179D01*
X59418444Y-120381585D01*
X59352753Y-120583760D01*
X59319500Y-120793713D01*
X59319500Y-121006286D01*
X59345350Y-121169500D01*
X59352754Y-121216243D01*
X59414302Y-121405668D01*
X59418444Y-121418414D01*
X59514951Y-121607820D01*
X59639890Y-121779786D01*
X59790213Y-121930109D01*
X59962182Y-122055050D01*
X59970946Y-122059516D01*
X60021742Y-122107491D01*
X60038536Y-122175312D01*
X60015998Y-122241447D01*
X59970946Y-122280484D01*
X59962182Y-122284949D01*
X59790213Y-122409890D01*
X59639890Y-122560213D01*
X59514951Y-122732179D01*
X59418444Y-122921585D01*
X59352753Y-123123760D01*
X59332460Y-123251885D01*
X59319500Y-123333713D01*
X59319500Y-123546287D01*
X59352754Y-123756243D01*
X59372263Y-123816286D01*
X59418444Y-123958414D01*
X59514951Y-124147820D01*
X59639890Y-124319786D01*
X59790213Y-124470109D01*
X59962182Y-124595050D01*
X59970946Y-124599516D01*
X60021742Y-124647491D01*
X60038536Y-124715312D01*
X60015998Y-124781447D01*
X59970946Y-124820484D01*
X59962182Y-124824949D01*
X59790213Y-124949890D01*
X59639890Y-125100213D01*
X59514951Y-125272179D01*
X59418444Y-125461585D01*
X59352753Y-125663760D01*
X59319500Y-125873713D01*
X59319500Y-126086286D01*
X59343083Y-126235187D01*
X59352754Y-126296243D01*
X59401715Y-126446930D01*
X59418444Y-126498414D01*
X59514951Y-126687820D01*
X59639890Y-126859786D01*
X59790213Y-127010109D01*
X59962182Y-127135050D01*
X59970946Y-127139516D01*
X60021742Y-127187491D01*
X60038536Y-127255312D01*
X60015998Y-127321447D01*
X59970946Y-127360484D01*
X59962182Y-127364949D01*
X59790213Y-127489890D01*
X59639890Y-127640213D01*
X59514951Y-127812179D01*
X59418444Y-128001585D01*
X59352753Y-128203760D01*
X59319500Y-128413713D01*
X59319500Y-128626286D01*
X59352151Y-128832439D01*
X59352754Y-128836243D01*
X59406076Y-129000351D01*
X59418444Y-129038414D01*
X59514951Y-129227820D01*
X59639890Y-129399786D01*
X59790213Y-129550109D01*
X59962182Y-129675050D01*
X59970946Y-129679516D01*
X60021742Y-129727491D01*
X60038536Y-129795312D01*
X60015998Y-129861447D01*
X59970946Y-129900484D01*
X59962182Y-129904949D01*
X59790213Y-130029890D01*
X59639890Y-130180213D01*
X59514951Y-130352179D01*
X59418444Y-130541585D01*
X59352753Y-130743760D01*
X59319500Y-130953713D01*
X59319500Y-131166286D01*
X59352151Y-131372439D01*
X59352754Y-131376243D01*
X59398226Y-131516192D01*
X59418444Y-131578414D01*
X59514951Y-131767820D01*
X59639890Y-131939786D01*
X59790213Y-132090109D01*
X59962182Y-132215050D01*
X59970946Y-132219516D01*
X60021742Y-132267491D01*
X60038536Y-132335312D01*
X60015998Y-132401447D01*
X59970946Y-132440484D01*
X59962182Y-132444949D01*
X59790213Y-132569890D01*
X59639890Y-132720213D01*
X59514951Y-132892179D01*
X59418444Y-133081585D01*
X59352753Y-133283760D01*
X59332370Y-133412454D01*
X59319500Y-133493713D01*
X59319500Y-133706287D01*
X59352754Y-133916243D01*
X59386469Y-134020008D01*
X59418444Y-134118414D01*
X59514951Y-134307820D01*
X59639890Y-134479786D01*
X59790213Y-134630109D01*
X59962182Y-134755050D01*
X59970946Y-134759516D01*
X60021742Y-134807491D01*
X60038536Y-134875312D01*
X60015998Y-134941447D01*
X59970946Y-134980484D01*
X59962182Y-134984949D01*
X59790213Y-135109890D01*
X59639890Y-135260213D01*
X59514951Y-135432179D01*
X59418444Y-135621585D01*
X59352753Y-135823760D01*
X59319500Y-136033713D01*
X59319500Y-136246286D01*
X59352074Y-136451953D01*
X59352754Y-136456243D01*
X59417273Y-136654812D01*
X59418444Y-136658414D01*
X59514951Y-136847820D01*
X59639890Y-137019786D01*
X59790213Y-137170109D01*
X59962182Y-137295050D01*
X59970946Y-137299516D01*
X60021742Y-137347491D01*
X60038536Y-137415312D01*
X60015998Y-137481447D01*
X59970946Y-137520484D01*
X59962182Y-137524949D01*
X59790213Y-137649890D01*
X59639890Y-137800213D01*
X59514951Y-137972179D01*
X59418444Y-138161585D01*
X59352753Y-138363760D01*
X59341789Y-138432987D01*
X59319500Y-138573713D01*
X59319500Y-138786287D01*
X59352754Y-138996243D01*
X59401715Y-139146930D01*
X59418444Y-139198414D01*
X59514951Y-139387820D01*
X59639890Y-139559786D01*
X59790213Y-139710109D01*
X59962182Y-139835050D01*
X59970946Y-139839516D01*
X60021742Y-139887491D01*
X60038536Y-139955312D01*
X60015998Y-140021447D01*
X59970946Y-140060484D01*
X59962182Y-140064949D01*
X59790213Y-140189890D01*
X59639890Y-140340213D01*
X59514951Y-140512179D01*
X59418444Y-140701585D01*
X59352753Y-140903760D01*
X59319500Y-141113713D01*
X59319500Y-141326286D01*
X59343556Y-141478174D01*
X59352754Y-141536243D01*
X59393049Y-141660259D01*
X59418444Y-141738414D01*
X59514951Y-141927820D01*
X59639890Y-142099786D01*
X59790213Y-142250109D01*
X59962182Y-142375050D01*
X59970946Y-142379516D01*
X60021742Y-142427491D01*
X60038536Y-142495312D01*
X60015998Y-142561447D01*
X59970946Y-142600484D01*
X59962182Y-142604949D01*
X59790213Y-142729890D01*
X59639890Y-142880213D01*
X59514951Y-143052179D01*
X59418444Y-143241585D01*
X59352753Y-143443760D01*
X59320458Y-143647667D01*
X59319500Y-143653713D01*
X59319500Y-143866287D01*
X59352754Y-144076243D01*
X59372263Y-144136286D01*
X59418444Y-144278414D01*
X59514951Y-144467820D01*
X59639890Y-144639786D01*
X59790213Y-144790109D01*
X59962182Y-144915050D01*
X59970946Y-144919516D01*
X60021742Y-144967491D01*
X60038536Y-145035312D01*
X60015998Y-145101447D01*
X59970946Y-145140484D01*
X59962182Y-145144949D01*
X59790213Y-145269890D01*
X59639890Y-145420213D01*
X59514951Y-145592179D01*
X59418444Y-145781585D01*
X59352753Y-145983760D01*
X59319500Y-146193713D01*
X59319500Y-146406287D01*
X59352754Y-146616243D01*
X59372263Y-146676286D01*
X59418444Y-146818414D01*
X59514951Y-147007820D01*
X59639890Y-147179786D01*
X59790213Y-147330109D01*
X59962182Y-147455050D01*
X59970946Y-147459516D01*
X60021742Y-147507491D01*
X60038536Y-147575312D01*
X60015998Y-147641447D01*
X59970946Y-147680484D01*
X59962182Y-147684949D01*
X59790213Y-147809890D01*
X59639890Y-147960213D01*
X59514951Y-148132179D01*
X59418444Y-148321585D01*
X59352753Y-148523760D01*
X59319500Y-148733713D01*
X59319500Y-148946287D01*
X59352754Y-149156243D01*
X59372263Y-149216286D01*
X59418444Y-149358414D01*
X59514951Y-149547820D01*
X59639890Y-149719786D01*
X59790213Y-149870109D01*
X59962182Y-149995050D01*
X59970946Y-149999516D01*
X60021742Y-150047491D01*
X60038536Y-150115312D01*
X60015998Y-150181447D01*
X59970946Y-150220484D01*
X59962182Y-150224949D01*
X59790213Y-150349890D01*
X59790211Y-150349893D01*
X59639894Y-150500209D01*
X59639890Y-150500213D01*
X59514951Y-150672179D01*
X59418444Y-150861585D01*
X59352753Y-151063760D01*
X59319500Y-151273713D01*
X59319500Y-151486286D01*
X59345429Y-151649999D01*
X59352754Y-151696243D01*
X59400436Y-151842993D01*
X59418444Y-151898414D01*
X59514951Y-152087820D01*
X59639890Y-152259786D01*
X59790213Y-152410109D01*
X59962179Y-152535048D01*
X59962181Y-152535049D01*
X59962184Y-152535051D01*
X59971493Y-152539794D01*
X60022290Y-152587766D01*
X60039087Y-152655587D01*
X60016552Y-152721722D01*
X59971505Y-152760760D01*
X59962446Y-152765376D01*
X59962440Y-152765380D01*
X59908282Y-152804727D01*
X59908282Y-152804728D01*
X60540591Y-153437037D01*
X60477007Y-153454075D01*
X60362993Y-153519901D01*
X60269901Y-153612993D01*
X60204075Y-153727007D01*
X60187037Y-153790591D01*
X59554728Y-153158282D01*
X59554727Y-153158282D01*
X59515380Y-153212439D01*
X59418904Y-153401782D01*
X59353242Y-153603869D01*
X59353242Y-153603872D01*
X59320000Y-153813753D01*
X59320000Y-154026246D01*
X59353242Y-154236127D01*
X59353242Y-154236130D01*
X59418904Y-154438217D01*
X59515375Y-154627550D01*
X59554728Y-154681716D01*
X60187037Y-154049408D01*
X60204075Y-154112993D01*
X60269901Y-154227007D01*
X60362993Y-154320099D01*
X60477007Y-154385925D01*
X60540590Y-154402962D01*
X59908282Y-155035269D01*
X59908282Y-155035270D01*
X59962449Y-155074624D01*
X60151782Y-155171095D01*
X60353870Y-155236757D01*
X60563754Y-155270000D01*
X60776246Y-155270000D01*
X60986127Y-155236757D01*
X60986130Y-155236757D01*
X61188217Y-155171095D01*
X61377554Y-155074622D01*
X61431716Y-155035270D01*
X61431717Y-155035270D01*
X60799408Y-154402962D01*
X60862993Y-154385925D01*
X60977007Y-154320099D01*
X61070099Y-154227007D01*
X61135925Y-154112993D01*
X61152962Y-154049408D01*
X61785270Y-154681717D01*
X61785270Y-154681716D01*
X61824622Y-154627554D01*
X61921095Y-154438217D01*
X61986757Y-154236130D01*
X61986757Y-154236127D01*
X62020000Y-154026246D01*
X62020000Y-153813753D01*
X61986757Y-153603872D01*
X61986757Y-153603869D01*
X61921095Y-153401782D01*
X61824624Y-153212449D01*
X61785270Y-153158282D01*
X61785269Y-153158282D01*
X61152962Y-153790590D01*
X61135925Y-153727007D01*
X61070099Y-153612993D01*
X60977007Y-153519901D01*
X60862993Y-153454075D01*
X60799409Y-153437037D01*
X61431716Y-152804728D01*
X61377547Y-152765373D01*
X61377547Y-152765372D01*
X61368500Y-152760763D01*
X61317706Y-152712788D01*
X61300912Y-152644966D01*
X61323451Y-152578832D01*
X61368508Y-152539793D01*
X61377816Y-152535051D01*
X61457007Y-152477515D01*
X61549786Y-152410109D01*
X61549788Y-152410106D01*
X61549792Y-152410104D01*
X61700104Y-152259792D01*
X61700106Y-152259788D01*
X61700109Y-152259786D01*
X61825048Y-152087820D01*
X61825047Y-152087820D01*
X61825051Y-152087816D01*
X61921557Y-151898412D01*
X61987246Y-151696243D01*
X62020500Y-151486287D01*
X62020500Y-151273713D01*
X61987246Y-151063757D01*
X61921557Y-150861588D01*
X61825051Y-150672184D01*
X61825049Y-150672181D01*
X61825048Y-150672179D01*
X61700109Y-150500213D01*
X61549786Y-150349890D01*
X61377820Y-150224951D01*
X61377115Y-150224591D01*
X61369054Y-150220485D01*
X61318259Y-150172512D01*
X61301463Y-150104692D01*
X61323999Y-150038556D01*
X61369054Y-149999515D01*
X61377816Y-149995051D01*
X61441624Y-149948692D01*
X61549786Y-149870109D01*
X61549788Y-149870106D01*
X61549792Y-149870104D01*
X61700104Y-149719792D01*
X61700106Y-149719788D01*
X61700109Y-149719786D01*
X61825048Y-149547820D01*
X61825047Y-149547820D01*
X61825051Y-149547816D01*
X61921557Y-149358412D01*
X61987246Y-149156243D01*
X62020500Y-148946287D01*
X62020500Y-148733713D01*
X61987246Y-148523757D01*
X61921557Y-148321588D01*
X61825051Y-148132184D01*
X61825049Y-148132181D01*
X61825048Y-148132179D01*
X61700109Y-147960213D01*
X61549786Y-147809890D01*
X61377820Y-147684951D01*
X61377115Y-147684591D01*
X61369054Y-147680485D01*
X61318259Y-147632512D01*
X61301463Y-147564692D01*
X61323999Y-147498556D01*
X61369054Y-147459515D01*
X61377816Y-147455051D01*
X61399789Y-147439086D01*
X61549786Y-147330109D01*
X61549788Y-147330106D01*
X61549792Y-147330104D01*
X61700104Y-147179792D01*
X61700106Y-147179788D01*
X61700109Y-147179786D01*
X61825048Y-147007820D01*
X61825047Y-147007820D01*
X61825051Y-147007816D01*
X61921557Y-146818412D01*
X61987246Y-146616243D01*
X62020500Y-146406287D01*
X62020500Y-146193713D01*
X61987246Y-145983757D01*
X61921557Y-145781588D01*
X61825051Y-145592184D01*
X61825049Y-145592181D01*
X61825048Y-145592179D01*
X61700109Y-145420213D01*
X61549786Y-145269890D01*
X61377820Y-145144951D01*
X61377115Y-145144591D01*
X61369054Y-145140485D01*
X61318259Y-145092512D01*
X61301463Y-145024692D01*
X61323999Y-144958556D01*
X61369054Y-144919515D01*
X61377816Y-144915051D01*
X61401387Y-144897926D01*
X61549786Y-144790109D01*
X61549788Y-144790106D01*
X61549792Y-144790104D01*
X61700104Y-144639792D01*
X61700106Y-144639788D01*
X61700109Y-144639786D01*
X61825048Y-144467820D01*
X61825047Y-144467820D01*
X61825051Y-144467816D01*
X61921557Y-144278412D01*
X61987246Y-144076243D01*
X62020500Y-143866287D01*
X62020500Y-143653713D01*
X61987246Y-143443757D01*
X61921557Y-143241588D01*
X61825051Y-143052184D01*
X61825049Y-143052181D01*
X61825048Y-143052179D01*
X61700109Y-142880213D01*
X61549786Y-142729890D01*
X61377820Y-142604951D01*
X61377115Y-142604591D01*
X61369054Y-142600485D01*
X61318259Y-142552512D01*
X61301463Y-142484692D01*
X61323999Y-142418556D01*
X61369054Y-142379515D01*
X61377816Y-142375051D01*
X61425350Y-142340516D01*
X61549786Y-142250109D01*
X61549788Y-142250106D01*
X61549792Y-142250104D01*
X61700104Y-142099792D01*
X61700106Y-142099788D01*
X61700109Y-142099786D01*
X61825048Y-141927820D01*
X61825047Y-141927820D01*
X61825051Y-141927816D01*
X61921557Y-141738412D01*
X61987246Y-141536243D01*
X62020500Y-141326287D01*
X62020500Y-141113713D01*
X61987246Y-140903757D01*
X61921557Y-140701588D01*
X61825051Y-140512184D01*
X61825049Y-140512181D01*
X61825048Y-140512179D01*
X61700109Y-140340213D01*
X61549786Y-140189890D01*
X61377820Y-140064951D01*
X61377115Y-140064591D01*
X61369054Y-140060485D01*
X61318259Y-140012512D01*
X61301463Y-139944692D01*
X61323999Y-139878556D01*
X61369054Y-139839515D01*
X61377816Y-139835051D01*
X61399789Y-139819086D01*
X61549786Y-139710109D01*
X61549788Y-139710106D01*
X61549792Y-139710104D01*
X61700104Y-139559792D01*
X61700106Y-139559788D01*
X61700109Y-139559786D01*
X61825048Y-139387820D01*
X61825047Y-139387820D01*
X61825051Y-139387816D01*
X61921557Y-139198412D01*
X61987246Y-138996243D01*
X62020500Y-138786287D01*
X62020500Y-138573713D01*
X61987246Y-138363757D01*
X61921557Y-138161588D01*
X61825051Y-137972184D01*
X61825049Y-137972181D01*
X61825048Y-137972179D01*
X61700109Y-137800213D01*
X61549786Y-137649890D01*
X61377820Y-137524951D01*
X61377115Y-137524591D01*
X61369054Y-137520485D01*
X61318259Y-137472512D01*
X61301463Y-137404692D01*
X61323999Y-137338556D01*
X61369054Y-137299515D01*
X61377816Y-137295051D01*
X61399789Y-137279086D01*
X61549786Y-137170109D01*
X61549788Y-137170106D01*
X61549792Y-137170104D01*
X61700104Y-137019792D01*
X61700106Y-137019788D01*
X61700109Y-137019786D01*
X61825048Y-136847820D01*
X61825047Y-136847820D01*
X61825051Y-136847816D01*
X61921557Y-136658412D01*
X61987246Y-136456243D01*
X62020500Y-136246287D01*
X62020500Y-136033713D01*
X61987246Y-135823757D01*
X61921557Y-135621588D01*
X61825051Y-135432184D01*
X61825049Y-135432181D01*
X61825048Y-135432179D01*
X61700109Y-135260213D01*
X61549786Y-135109890D01*
X61377820Y-134984951D01*
X61377115Y-134984591D01*
X61369054Y-134980485D01*
X61318259Y-134932512D01*
X61301463Y-134864692D01*
X61323999Y-134798556D01*
X61369054Y-134759515D01*
X61377816Y-134755051D01*
X61443016Y-134707681D01*
X61549786Y-134630109D01*
X61549788Y-134630106D01*
X61549792Y-134630104D01*
X61700104Y-134479792D01*
X61700106Y-134479788D01*
X61700109Y-134479786D01*
X61825048Y-134307820D01*
X61825047Y-134307820D01*
X61825051Y-134307816D01*
X61921557Y-134118412D01*
X61987246Y-133916243D01*
X62020500Y-133706287D01*
X62020500Y-133493713D01*
X61987246Y-133283757D01*
X61921557Y-133081588D01*
X61825051Y-132892184D01*
X61825049Y-132892181D01*
X61825048Y-132892179D01*
X61700109Y-132720213D01*
X61549786Y-132569890D01*
X61377820Y-132444951D01*
X61374903Y-132443465D01*
X61369054Y-132440485D01*
X61318259Y-132392512D01*
X61301463Y-132324692D01*
X61323999Y-132258556D01*
X61369054Y-132219515D01*
X61377816Y-132215051D01*
X61417463Y-132186246D01*
X61549786Y-132090109D01*
X61549788Y-132090106D01*
X61549792Y-132090104D01*
X61700104Y-131939792D01*
X61700106Y-131939788D01*
X61700109Y-131939786D01*
X61825048Y-131767820D01*
X61825047Y-131767820D01*
X61825051Y-131767816D01*
X61921557Y-131578412D01*
X61987246Y-131376243D01*
X62020500Y-131166287D01*
X62020500Y-130953713D01*
X61987246Y-130743757D01*
X61921557Y-130541588D01*
X61825051Y-130352184D01*
X61825049Y-130352181D01*
X61825048Y-130352179D01*
X61700109Y-130180213D01*
X61549786Y-130029890D01*
X61377820Y-129904951D01*
X61377115Y-129904591D01*
X61369054Y-129900485D01*
X61318259Y-129852512D01*
X61301463Y-129784692D01*
X61323999Y-129718556D01*
X61369054Y-129679515D01*
X61377816Y-129675051D01*
X61473097Y-129605826D01*
X61549786Y-129550109D01*
X61549788Y-129550106D01*
X61549792Y-129550104D01*
X61700104Y-129399792D01*
X61700106Y-129399788D01*
X61700109Y-129399786D01*
X61825048Y-129227820D01*
X61825047Y-129227820D01*
X61825051Y-129227816D01*
X61921557Y-129038412D01*
X61987246Y-128836243D01*
X62020500Y-128626287D01*
X62020500Y-128413713D01*
X61987246Y-128203757D01*
X61921557Y-128001588D01*
X61825051Y-127812184D01*
X61825049Y-127812181D01*
X61825048Y-127812179D01*
X61700109Y-127640213D01*
X61549786Y-127489890D01*
X61377820Y-127364951D01*
X61377115Y-127364591D01*
X61369054Y-127360485D01*
X61318259Y-127312512D01*
X61301463Y-127244692D01*
X61323999Y-127178556D01*
X61369054Y-127139515D01*
X61377816Y-127135051D01*
X61425149Y-127100662D01*
X61549786Y-127010109D01*
X61549788Y-127010106D01*
X61549792Y-127010104D01*
X61700104Y-126859792D01*
X61700106Y-126859788D01*
X61700109Y-126859786D01*
X61825048Y-126687820D01*
X61825047Y-126687820D01*
X61825051Y-126687816D01*
X61921557Y-126498412D01*
X61987246Y-126296243D01*
X62020500Y-126086287D01*
X62020500Y-125873713D01*
X61987246Y-125663757D01*
X61921557Y-125461588D01*
X61825051Y-125272184D01*
X61825049Y-125272181D01*
X61825048Y-125272179D01*
X61700109Y-125100213D01*
X61549786Y-124949890D01*
X61377820Y-124824951D01*
X61377115Y-124824591D01*
X61369054Y-124820485D01*
X61318259Y-124772512D01*
X61301463Y-124704692D01*
X61323999Y-124638556D01*
X61369054Y-124599515D01*
X61377816Y-124595051D01*
X61399789Y-124579086D01*
X61549786Y-124470109D01*
X61549788Y-124470106D01*
X61549792Y-124470104D01*
X61700104Y-124319792D01*
X61700106Y-124319788D01*
X61700109Y-124319786D01*
X61825048Y-124147820D01*
X61825047Y-124147820D01*
X61825051Y-124147816D01*
X61921557Y-123958412D01*
X61987246Y-123756243D01*
X62020500Y-123546287D01*
X62020500Y-123333713D01*
X61987246Y-123123757D01*
X61921557Y-122921588D01*
X61825051Y-122732184D01*
X61825049Y-122732181D01*
X61825048Y-122732179D01*
X61700109Y-122560213D01*
X61549786Y-122409890D01*
X61377820Y-122284951D01*
X61377115Y-122284591D01*
X61369054Y-122280485D01*
X61318259Y-122232512D01*
X61301463Y-122164692D01*
X61323999Y-122098556D01*
X61369054Y-122059515D01*
X61377816Y-122055051D01*
X61444516Y-122006591D01*
X61549786Y-121930109D01*
X61549788Y-121930106D01*
X61549792Y-121930104D01*
X61700104Y-121779792D01*
X61700106Y-121779788D01*
X61700109Y-121779786D01*
X61825048Y-121607820D01*
X61825047Y-121607820D01*
X61825051Y-121607816D01*
X61921557Y-121418412D01*
X61987246Y-121216243D01*
X62020500Y-121006287D01*
X62020500Y-120793713D01*
X61987246Y-120583757D01*
X61921557Y-120381588D01*
X61825051Y-120192184D01*
X61825049Y-120192181D01*
X61825048Y-120192179D01*
X61700109Y-120020213D01*
X61549786Y-119869890D01*
X61377820Y-119744951D01*
X61377115Y-119744591D01*
X61369054Y-119740485D01*
X61318259Y-119692512D01*
X61301463Y-119624692D01*
X61323999Y-119558556D01*
X61369054Y-119519515D01*
X61377816Y-119515051D01*
X61438054Y-119471286D01*
X61549786Y-119390109D01*
X61549788Y-119390106D01*
X61549792Y-119390104D01*
X61700104Y-119239792D01*
X61700106Y-119239788D01*
X61700109Y-119239786D01*
X61825048Y-119067820D01*
X61825047Y-119067820D01*
X61825051Y-119067816D01*
X61921557Y-118878412D01*
X61987246Y-118676243D01*
X62020500Y-118466287D01*
X62020500Y-118253713D01*
X61987246Y-118043757D01*
X61921557Y-117841588D01*
X61825051Y-117652184D01*
X61825049Y-117652181D01*
X61825048Y-117652179D01*
X61700109Y-117480213D01*
X61549786Y-117329890D01*
X61377820Y-117204951D01*
X61377115Y-117204591D01*
X61369054Y-117200485D01*
X61318259Y-117152512D01*
X61301463Y-117084692D01*
X61323999Y-117018556D01*
X61369054Y-116979515D01*
X61377816Y-116975051D01*
X61464036Y-116912409D01*
X61549786Y-116850109D01*
X61549788Y-116850106D01*
X61549792Y-116850104D01*
X61700104Y-116699792D01*
X61700106Y-116699788D01*
X61700109Y-116699786D01*
X61825048Y-116527820D01*
X61825047Y-116527820D01*
X61825051Y-116527816D01*
X61921557Y-116338412D01*
X61987246Y-116136243D01*
X62020500Y-115926287D01*
X62020500Y-115713713D01*
X61987246Y-115503757D01*
X61921557Y-115301588D01*
X61825051Y-115112184D01*
X61825049Y-115112181D01*
X61825048Y-115112179D01*
X61700109Y-114940213D01*
X61549786Y-114789890D01*
X61377820Y-114664951D01*
X61377115Y-114664591D01*
X61369054Y-114660485D01*
X61318259Y-114612512D01*
X61301463Y-114544692D01*
X61323999Y-114478556D01*
X61369054Y-114439515D01*
X61377816Y-114435051D01*
X61496256Y-114349000D01*
X61549786Y-114310109D01*
X61549788Y-114310106D01*
X61549792Y-114310104D01*
X61700104Y-114159792D01*
X61700106Y-114159788D01*
X61700109Y-114159786D01*
X61825048Y-113987820D01*
X61825047Y-113987820D01*
X61825051Y-113987816D01*
X61921557Y-113798412D01*
X61987246Y-113596243D01*
X62020500Y-113386287D01*
X62020500Y-113173713D01*
X61987246Y-112963757D01*
X61921557Y-112761588D01*
X61825051Y-112572184D01*
X61825049Y-112572181D01*
X61825048Y-112572179D01*
X61700109Y-112400213D01*
X61549786Y-112249890D01*
X61377820Y-112124951D01*
X61377115Y-112124591D01*
X61369054Y-112120485D01*
X61318259Y-112072512D01*
X61301463Y-112004692D01*
X61323999Y-111938556D01*
X61369054Y-111899515D01*
X61377816Y-111895051D01*
X61468552Y-111829128D01*
X61549786Y-111770109D01*
X61549788Y-111770106D01*
X61549792Y-111770104D01*
X61700104Y-111619792D01*
X61700106Y-111619788D01*
X61700109Y-111619786D01*
X61825048Y-111447820D01*
X61825047Y-111447820D01*
X61825051Y-111447816D01*
X61921557Y-111258412D01*
X61987246Y-111056243D01*
X62020500Y-110846287D01*
X62020500Y-110633713D01*
X61987246Y-110423757D01*
X61921557Y-110221588D01*
X61825051Y-110032184D01*
X61825049Y-110032181D01*
X61825048Y-110032179D01*
X61700109Y-109860213D01*
X61549786Y-109709890D01*
X61377820Y-109584951D01*
X61377115Y-109584591D01*
X61369054Y-109580485D01*
X61318259Y-109532512D01*
X61301463Y-109464692D01*
X61323999Y-109398556D01*
X61369054Y-109359515D01*
X61377816Y-109355051D01*
X61428115Y-109318507D01*
X61549786Y-109230109D01*
X61549788Y-109230106D01*
X61549792Y-109230104D01*
X61700104Y-109079792D01*
X61700106Y-109079788D01*
X61700109Y-109079786D01*
X61825048Y-108907820D01*
X61825047Y-108907820D01*
X61825051Y-108907816D01*
X61921557Y-108718412D01*
X61987246Y-108516243D01*
X62020500Y-108306287D01*
X62020500Y-108093713D01*
X61987246Y-107883757D01*
X61921557Y-107681588D01*
X61825051Y-107492184D01*
X61825049Y-107492181D01*
X61825048Y-107492179D01*
X61700109Y-107320213D01*
X61549786Y-107169890D01*
X61377820Y-107044951D01*
X61377115Y-107044591D01*
X61369054Y-107040485D01*
X61318259Y-106992512D01*
X61301463Y-106924692D01*
X61323999Y-106858556D01*
X61369054Y-106819515D01*
X61377816Y-106815051D01*
X61473097Y-106745826D01*
X61549786Y-106690109D01*
X61549788Y-106690106D01*
X61549792Y-106690104D01*
X61700104Y-106539792D01*
X61700106Y-106539788D01*
X61700109Y-106539786D01*
X61825048Y-106367820D01*
X61825047Y-106367820D01*
X61825051Y-106367816D01*
X61921557Y-106178412D01*
X61987246Y-105976243D01*
X62020500Y-105766287D01*
X62020500Y-105553713D01*
X61987246Y-105343757D01*
X61973943Y-105302817D01*
X61971949Y-105232976D01*
X62008030Y-105173144D01*
X62070731Y-105142316D01*
X62091875Y-105140500D01*
X64915500Y-105140500D01*
X64982539Y-105160185D01*
X65028294Y-105212989D01*
X65039500Y-105264500D01*
X65039500Y-141284880D01*
X65039500Y-141284882D01*
X65039499Y-141284882D01*
X65077947Y-141478168D01*
X65077950Y-141478178D01*
X65153364Y-141660246D01*
X65153371Y-141660259D01*
X65262859Y-141824119D01*
X65262860Y-141824120D01*
X65262861Y-141824121D01*
X65402218Y-141963478D01*
X65402219Y-141963478D01*
X65409286Y-141970545D01*
X65409285Y-141970545D01*
X65409288Y-141970547D01*
X80067521Y-156628781D01*
X80067522Y-156628782D01*
X80206879Y-156768139D01*
X80370747Y-156877632D01*
X80477406Y-156921811D01*
X80552825Y-156953051D01*
X80746115Y-156991499D01*
X80746118Y-156991500D01*
X80746120Y-156991500D01*
X95727542Y-156991500D01*
X95758566Y-156985328D01*
X95824188Y-156972275D01*
X95920836Y-156953051D01*
X95974165Y-156930961D01*
X96102914Y-156877632D01*
X96266782Y-156768139D01*
X96406139Y-156628782D01*
X96406140Y-156628779D01*
X96413206Y-156621714D01*
X96413209Y-156621710D01*
X114397778Y-138637141D01*
X114397782Y-138637139D01*
X114537139Y-138497782D01*
X114646632Y-138333914D01*
X114713575Y-138172299D01*
X114722051Y-138151836D01*
X114732995Y-138096818D01*
X114747103Y-138025894D01*
X114747877Y-138021995D01*
X114748382Y-138019459D01*
X114764465Y-137978536D01*
X114767166Y-137974158D01*
X114794814Y-137929334D01*
X114849999Y-137762797D01*
X114860500Y-137660009D01*
X114860499Y-136659992D01*
X114849999Y-136557203D01*
X114794814Y-136390666D01*
X114702712Y-136241344D01*
X114578656Y-136117288D01*
X114485888Y-136060069D01*
X114429336Y-136025187D01*
X114429331Y-136025185D01*
X114401495Y-136015961D01*
X114262797Y-135970001D01*
X114262795Y-135970000D01*
X114160010Y-135959500D01*
X113359998Y-135959500D01*
X113359980Y-135959501D01*
X113257203Y-135970000D01*
X113257200Y-135970001D01*
X113090668Y-136025185D01*
X113090663Y-136025187D01*
X112941342Y-136117289D01*
X112847681Y-136210951D01*
X112786358Y-136244436D01*
X112716666Y-136239452D01*
X112672319Y-136210951D01*
X112578657Y-136117289D01*
X112578656Y-136117288D01*
X112485888Y-136060069D01*
X112429336Y-136025187D01*
X112429331Y-136025185D01*
X112401495Y-136015961D01*
X112262797Y-135970001D01*
X112262795Y-135970000D01*
X112160010Y-135959500D01*
X111359998Y-135959500D01*
X111359980Y-135959501D01*
X111257203Y-135970000D01*
X111257200Y-135970001D01*
X111090666Y-136025186D01*
X111090663Y-136025187D01*
X111055371Y-136046955D01*
X110987978Y-136065394D01*
X110921315Y-136044470D01*
X110902596Y-136029096D01*
X110456818Y-135583318D01*
X110423333Y-135521995D01*
X110420499Y-135495637D01*
X110420499Y-135219998D01*
X110420498Y-135219981D01*
X110409999Y-135117203D01*
X110409998Y-135117200D01*
X110407576Y-135109890D01*
X110354814Y-134950666D01*
X110262712Y-134801344D01*
X110169049Y-134707681D01*
X110135564Y-134646358D01*
X110140548Y-134576666D01*
X110169049Y-134532319D01*
X110205332Y-134496036D01*
X110262712Y-134438656D01*
X110354814Y-134289334D01*
X110409999Y-134122797D01*
X110420500Y-134020009D01*
X110420499Y-133219992D01*
X110409999Y-133117203D01*
X110354814Y-132950666D01*
X110262712Y-132801344D01*
X110138656Y-132677288D01*
X110054558Y-132625416D01*
X110016554Y-132588769D01*
X109919465Y-132443466D01*
X109863006Y-132387007D01*
X109794035Y-132318036D01*
X109130662Y-131654663D01*
X108466819Y-130990819D01*
X108433334Y-130929496D01*
X108430500Y-130903138D01*
X108430500Y-130774313D01*
X108430499Y-130774298D01*
X108427686Y-130738556D01*
X108427598Y-130737431D01*
X108404544Y-130658081D01*
X108381745Y-130579606D01*
X108381744Y-130579603D01*
X108381744Y-130579602D01*
X108298081Y-130438135D01*
X108298079Y-130438133D01*
X108298076Y-130438129D01*
X108181870Y-130321923D01*
X108181862Y-130321917D01*
X108056113Y-130247550D01*
X108040398Y-130238256D01*
X108040397Y-130238255D01*
X108040396Y-130238255D01*
X108040393Y-130238254D01*
X107882573Y-130192402D01*
X107882567Y-130192401D01*
X107845701Y-130189500D01*
X107845694Y-130189500D01*
X107604500Y-130189500D01*
X107537461Y-130169815D01*
X107491706Y-130117011D01*
X107480500Y-130065500D01*
X107480500Y-128899313D01*
X107480499Y-128899298D01*
X107477598Y-128862432D01*
X107477597Y-128862426D01*
X107435424Y-128717265D01*
X107430500Y-128682670D01*
X107430500Y-128153957D01*
X107450185Y-128086918D01*
X107469856Y-128063340D01*
X107478883Y-128054907D01*
X107498656Y-128042712D01*
X107593823Y-127947544D01*
X107595356Y-127946113D01*
X107624768Y-127931330D01*
X107653642Y-127915564D01*
X107655826Y-127915720D01*
X107657785Y-127914736D01*
X107690509Y-127918200D01*
X107723334Y-127920548D01*
X107725434Y-127921898D01*
X107727266Y-127922092D01*
X107733391Y-127927011D01*
X107767681Y-127949049D01*
X107861344Y-128042712D01*
X108010666Y-128134814D01*
X108177203Y-128189999D01*
X108279991Y-128200500D01*
X109080008Y-128200499D01*
X109080016Y-128200498D01*
X109080019Y-128200498D01*
X109136302Y-128194748D01*
X109182797Y-128189999D01*
X109349334Y-128134814D01*
X109498656Y-128042712D01*
X109604550Y-127936818D01*
X109665873Y-127903334D01*
X109692231Y-127900500D01*
X115815500Y-127900500D01*
X115882539Y-127920185D01*
X115928294Y-127972989D01*
X115939500Y-128024500D01*
X115939500Y-149435638D01*
X115919815Y-149502677D01*
X115903181Y-149523319D01*
X106343319Y-159083181D01*
X106281996Y-159116666D01*
X106255638Y-159119500D01*
X104051306Y-159119500D01*
X103877341Y-159154103D01*
X103877332Y-159154106D01*
X103713459Y-159221983D01*
X103713446Y-159221990D01*
X103565965Y-159320535D01*
X103565961Y-159320538D01*
X103440538Y-159445961D01*
X103440535Y-159445965D01*
X103341990Y-159593446D01*
X103341983Y-159593459D01*
X103274106Y-159757332D01*
X103274103Y-159757341D01*
X103239500Y-159931304D01*
X103239500Y-160108695D01*
X103274103Y-160282658D01*
X103274106Y-160282667D01*
X103341983Y-160446540D01*
X103341990Y-160446553D01*
X103440535Y-160594034D01*
X103440538Y-160594038D01*
X103565961Y-160719461D01*
X103565965Y-160719464D01*
X103713446Y-160818009D01*
X103713459Y-160818016D01*
X103795392Y-160851953D01*
X103877334Y-160885894D01*
X103877336Y-160885894D01*
X103877341Y-160885896D01*
X104051304Y-160920499D01*
X104051307Y-160920500D01*
X104051309Y-160920500D01*
X106768693Y-160920500D01*
X106768694Y-160920499D01*
X106942666Y-160885895D01*
X107024606Y-160851953D01*
X107106547Y-160818013D01*
X107194959Y-160758936D01*
X107254036Y-160719464D01*
X117539464Y-150434036D01*
X117595684Y-150349896D01*
X117638013Y-150286547D01*
X117657895Y-150238547D01*
X117705895Y-150122666D01*
X117740500Y-149948692D01*
X117740500Y-149771308D01*
X117740500Y-133782543D01*
X117760185Y-133715504D01*
X117812989Y-133669749D01*
X117882147Y-133659805D01*
X117945703Y-133688830D01*
X117952181Y-133694862D01*
X119576779Y-135319461D01*
X119576783Y-135319464D01*
X119724265Y-135418009D01*
X119724271Y-135418012D01*
X119724272Y-135418013D01*
X119888153Y-135485895D01*
X120035552Y-135515214D01*
X120062122Y-135520499D01*
X120062126Y-135520500D01*
X120062127Y-135520500D01*
X120062128Y-135520500D01*
X123008560Y-135520500D01*
X123075599Y-135540185D01*
X123121354Y-135592989D01*
X123124742Y-135601167D01*
X123166202Y-135712328D01*
X123166206Y-135712335D01*
X123252452Y-135827544D01*
X123252455Y-135827547D01*
X123367664Y-135913793D01*
X123367671Y-135913797D01*
X123502517Y-135964091D01*
X123502516Y-135964091D01*
X123509444Y-135964835D01*
X123562127Y-135970500D01*
X125357872Y-135970499D01*
X125417483Y-135964091D01*
X125552331Y-135913796D01*
X125667546Y-135827546D01*
X125753796Y-135712331D01*
X125804091Y-135577483D01*
X125810500Y-135517873D01*
X125810499Y-133722128D01*
X125804091Y-133662517D01*
X125803079Y-133659805D01*
X125753797Y-133527671D01*
X125753793Y-133527664D01*
X125667547Y-133412455D01*
X125667544Y-133412452D01*
X125552335Y-133326206D01*
X125552328Y-133326202D01*
X125417482Y-133275908D01*
X125417483Y-133275908D01*
X125357883Y-133269501D01*
X125357881Y-133269500D01*
X125357873Y-133269500D01*
X125357865Y-133269500D01*
X125347309Y-133269500D01*
X125280270Y-133249815D01*
X125259628Y-133233181D01*
X124589408Y-132562962D01*
X124652993Y-132545925D01*
X124767007Y-132480099D01*
X124860099Y-132387007D01*
X124925925Y-132272993D01*
X124942962Y-132209409D01*
X125575270Y-132841717D01*
X125575270Y-132841716D01*
X125614622Y-132787554D01*
X125711095Y-132598217D01*
X125776757Y-132396130D01*
X125776757Y-132396127D01*
X125810000Y-132186246D01*
X125810000Y-131973753D01*
X125776757Y-131763872D01*
X125776757Y-131763869D01*
X125711095Y-131561782D01*
X125614624Y-131372449D01*
X125575270Y-131318282D01*
X125575269Y-131318282D01*
X124942962Y-131950590D01*
X124925925Y-131887007D01*
X124860099Y-131772993D01*
X124767007Y-131679901D01*
X124652993Y-131614075D01*
X124589409Y-131597037D01*
X125221716Y-130964728D01*
X125167550Y-130925375D01*
X125157954Y-130920486D01*
X125107157Y-130872512D01*
X125090361Y-130804692D01*
X125112897Y-130738556D01*
X125157954Y-130699514D01*
X125167554Y-130694622D01*
X125221716Y-130655270D01*
X125221717Y-130655270D01*
X124589408Y-130022962D01*
X124652993Y-130005925D01*
X124767007Y-129940099D01*
X124860099Y-129847007D01*
X124925925Y-129732993D01*
X124942962Y-129669409D01*
X125575270Y-130301717D01*
X125575270Y-130301716D01*
X125614622Y-130247554D01*
X125711095Y-130058217D01*
X125776757Y-129856130D01*
X125776757Y-129856127D01*
X125810000Y-129646246D01*
X125810000Y-129433753D01*
X125776757Y-129223872D01*
X125776757Y-129223869D01*
X125711095Y-129021782D01*
X125614624Y-128832449D01*
X125575270Y-128778282D01*
X125575269Y-128778282D01*
X124942962Y-129410590D01*
X124925925Y-129347007D01*
X124860099Y-129232993D01*
X124767007Y-129139901D01*
X124652993Y-129074075D01*
X124589409Y-129057037D01*
X125221716Y-128424728D01*
X125167547Y-128385373D01*
X125167547Y-128385372D01*
X125158500Y-128380763D01*
X125107706Y-128332788D01*
X125090912Y-128264966D01*
X125113451Y-128198832D01*
X125158508Y-128159793D01*
X125167816Y-128155051D01*
X125268110Y-128082184D01*
X125339786Y-128030109D01*
X125339788Y-128030106D01*
X125339792Y-128030104D01*
X125490104Y-127879792D01*
X125490106Y-127879788D01*
X125490109Y-127879786D01*
X125615048Y-127707820D01*
X125615047Y-127707820D01*
X125615051Y-127707816D01*
X125711557Y-127518412D01*
X125777246Y-127316243D01*
X125810500Y-127106287D01*
X125810500Y-126893713D01*
X125777246Y-126683757D01*
X125711557Y-126481588D01*
X125615051Y-126292184D01*
X125615049Y-126292181D01*
X125615048Y-126292179D01*
X125490109Y-126120213D01*
X125339786Y-125969890D01*
X125167820Y-125844951D01*
X124978414Y-125748444D01*
X124978413Y-125748443D01*
X124978412Y-125748443D01*
X124776243Y-125682754D01*
X124776241Y-125682753D01*
X124776240Y-125682753D01*
X124614957Y-125657208D01*
X124566287Y-125649500D01*
X124353713Y-125649500D01*
X124305042Y-125657208D01*
X124143760Y-125682753D01*
X123941585Y-125748444D01*
X123752179Y-125844951D01*
X123580213Y-125969890D01*
X123580209Y-125969894D01*
X123486923Y-126063181D01*
X123425600Y-126096666D01*
X123399242Y-126099500D01*
X120916874Y-126099500D01*
X120849835Y-126079815D01*
X120845005Y-126076549D01*
X120836541Y-126070529D01*
X120818044Y-126052032D01*
X120761472Y-126017138D01*
X120758167Y-126014787D01*
X120738969Y-125990404D01*
X120718215Y-125967329D01*
X120717540Y-125963187D01*
X120714945Y-125959890D01*
X120711976Y-125928997D01*
X120706992Y-125898366D01*
X120708664Y-125894517D01*
X120708263Y-125890341D01*
X120722467Y-125862749D01*
X120734836Y-125834284D01*
X120740070Y-125828556D01*
X120740244Y-125828220D01*
X120740528Y-125828055D01*
X120742344Y-125826068D01*
X125159464Y-121408950D01*
X125225914Y-121309500D01*
X125258013Y-121261461D01*
X125296104Y-121169500D01*
X125325895Y-121097580D01*
X125360500Y-120923606D01*
X125360500Y-120746222D01*
X125360500Y-98971309D01*
X125360500Y-98971306D01*
X125360499Y-98971304D01*
X125325896Y-98797341D01*
X125325893Y-98797332D01*
X125258016Y-98633459D01*
X125258009Y-98633446D01*
X125159464Y-98485965D01*
X125159461Y-98485961D01*
X125034038Y-98360538D01*
X125034034Y-98360535D01*
X124886553Y-98261990D01*
X124886540Y-98261983D01*
X124722667Y-98194106D01*
X124722658Y-98194103D01*
X124548694Y-98159500D01*
X124548691Y-98159500D01*
X111848691Y-98159500D01*
X111671309Y-98159500D01*
X111671306Y-98159500D01*
X111497341Y-98194103D01*
X111497332Y-98194106D01*
X111333459Y-98261983D01*
X111333446Y-98261990D01*
X111185965Y-98360535D01*
X111185961Y-98360538D01*
X111060538Y-98485961D01*
X111060535Y-98485965D01*
X110961990Y-98633446D01*
X110961983Y-98633459D01*
X110894106Y-98797332D01*
X110894103Y-98797341D01*
X110859500Y-98971304D01*
X110859500Y-105049274D01*
X110839815Y-105116313D01*
X110797502Y-105156660D01*
X110757556Y-105179723D01*
X110757541Y-105179733D01*
X110570302Y-105323406D01*
X110570295Y-105323412D01*
X110403412Y-105490295D01*
X110403406Y-105490302D01*
X110259730Y-105677545D01*
X110141719Y-105881943D01*
X110141714Y-105881954D01*
X110051394Y-106100006D01*
X109990306Y-106327989D01*
X109959501Y-106561979D01*
X109959500Y-106561995D01*
X109959500Y-106798004D01*
X109959501Y-106798020D01*
X109986282Y-107001447D01*
X109990307Y-107032014D01*
X110028624Y-107175013D01*
X110051394Y-107259993D01*
X110141714Y-107478045D01*
X110141719Y-107478056D01*
X110197402Y-107574500D01*
X110259727Y-107682450D01*
X110259728Y-107682451D01*
X110259730Y-107682454D01*
X110403406Y-107869697D01*
X110403412Y-107869704D01*
X110570295Y-108036587D01*
X110570302Y-108036593D01*
X110601436Y-108060483D01*
X110757550Y-108180273D01*
X110865159Y-108242401D01*
X110961943Y-108298280D01*
X110961948Y-108298282D01*
X110961951Y-108298284D01*
X111180007Y-108388606D01*
X111407986Y-108449693D01*
X111641989Y-108480500D01*
X111641996Y-108480500D01*
X111878004Y-108480500D01*
X111878011Y-108480500D01*
X112112014Y-108449693D01*
X112339993Y-108388606D01*
X112558049Y-108298284D01*
X112762450Y-108180273D01*
X112949699Y-108036592D01*
X113116592Y-107869699D01*
X113260273Y-107682450D01*
X113378284Y-107478049D01*
X113468606Y-107259993D01*
X113529693Y-107032014D01*
X113560500Y-106798011D01*
X113560500Y-106561989D01*
X113553588Y-106509488D01*
X113553421Y-106507897D01*
X113559425Y-106475099D01*
X113564569Y-106442110D01*
X113565780Y-106440387D01*
X113566003Y-106439170D01*
X113568550Y-106436447D01*
X113589060Y-106407280D01*
X114719523Y-105276819D01*
X114780846Y-105243334D01*
X114807204Y-105240500D01*
X120570249Y-105240500D01*
X120637288Y-105260185D01*
X120669515Y-105290188D01*
X120709619Y-105343759D01*
X120712454Y-105347546D01*
X120712457Y-105347548D01*
X120827664Y-105433793D01*
X120827671Y-105433797D01*
X120855915Y-105444331D01*
X120962517Y-105484091D01*
X121022127Y-105490500D01*
X121032685Y-105490499D01*
X121099723Y-105510179D01*
X121120372Y-105526818D01*
X121790591Y-106197037D01*
X121727007Y-106214075D01*
X121612993Y-106279901D01*
X121519901Y-106372993D01*
X121454075Y-106487007D01*
X121437037Y-106550591D01*
X120804728Y-105918282D01*
X120804727Y-105918282D01*
X120765380Y-105972439D01*
X120668904Y-106161782D01*
X120603242Y-106363869D01*
X120603242Y-106363872D01*
X120570000Y-106573753D01*
X120570000Y-106786246D01*
X120603242Y-106996127D01*
X120603242Y-106996130D01*
X120668904Y-107198217D01*
X120765375Y-107387550D01*
X120804728Y-107441716D01*
X121437037Y-106809408D01*
X121454075Y-106872993D01*
X121519901Y-106987007D01*
X121612993Y-107080099D01*
X121727007Y-107145925D01*
X121790591Y-107162962D01*
X121189971Y-107763581D01*
X121268711Y-107880895D01*
X121269920Y-107884729D01*
X121272844Y-107887491D01*
X121280343Y-107917778D01*
X121289727Y-107947529D01*
X121288671Y-107951408D01*
X121289638Y-107955312D01*
X121279573Y-107984844D01*
X121271383Y-108014947D01*
X121268397Y-108017640D01*
X121267100Y-108021447D01*
X121222051Y-108060483D01*
X121212440Y-108065380D01*
X121158282Y-108104727D01*
X121158282Y-108104728D01*
X121790591Y-108737037D01*
X121727007Y-108754075D01*
X121612993Y-108819901D01*
X121519901Y-108912993D01*
X121454075Y-109027007D01*
X121437037Y-109090591D01*
X120804728Y-108458282D01*
X120804727Y-108458282D01*
X120765380Y-108512439D01*
X120668904Y-108701782D01*
X120603242Y-108903869D01*
X120603242Y-108903872D01*
X120570000Y-109113753D01*
X120570000Y-109326246D01*
X120603242Y-109536127D01*
X120603242Y-109536130D01*
X120668904Y-109738217D01*
X120765375Y-109927550D01*
X120804728Y-109981716D01*
X121437037Y-109349408D01*
X121454075Y-109412993D01*
X121519901Y-109527007D01*
X121612993Y-109620099D01*
X121727007Y-109685925D01*
X121790590Y-109702962D01*
X121158282Y-110335269D01*
X121158282Y-110335270D01*
X121212452Y-110374626D01*
X121212451Y-110374626D01*
X121221495Y-110379234D01*
X121272292Y-110427208D01*
X121289087Y-110495029D01*
X121266550Y-110561164D01*
X121221499Y-110600202D01*
X121212182Y-110604949D01*
X121040213Y-110729890D01*
X120889890Y-110880213D01*
X120764951Y-111052179D01*
X120668444Y-111241585D01*
X120602753Y-111443760D01*
X120569500Y-111653713D01*
X120569500Y-111866286D01*
X120582361Y-111947491D01*
X120602754Y-112076243D01*
X120662966Y-112261557D01*
X120668444Y-112278414D01*
X120764949Y-112467817D01*
X120779293Y-112487559D01*
X120795817Y-112510303D01*
X120819298Y-112576107D01*
X120819500Y-112583188D01*
X120819500Y-116252796D01*
X120799815Y-116319835D01*
X120783181Y-116340477D01*
X119387681Y-117735977D01*
X119326358Y-117769462D01*
X119256666Y-117764478D01*
X119212319Y-117735977D01*
X113485930Y-112009588D01*
X113485928Y-112009586D01*
X113345788Y-111907768D01*
X113191445Y-111829127D01*
X113026701Y-111775598D01*
X113026699Y-111775597D01*
X113026698Y-111775597D01*
X112895271Y-111754781D01*
X112855611Y-111748500D01*
X100719611Y-111748500D01*
X100546389Y-111748500D01*
X100506728Y-111754781D01*
X100375302Y-111775597D01*
X100210552Y-111829128D01*
X100056211Y-111907768D01*
X100013836Y-111938556D01*
X99916072Y-112009586D01*
X99916070Y-112009588D01*
X99916069Y-112009588D01*
X98982180Y-112943477D01*
X98920857Y-112976962D01*
X98851165Y-112971978D01*
X98795232Y-112930106D01*
X98770815Y-112864642D01*
X98770499Y-112855796D01*
X98770499Y-111117204D01*
X98790184Y-111050165D01*
X98806818Y-111029523D01*
X100815142Y-109021200D01*
X102019523Y-107816819D01*
X102080846Y-107783334D01*
X102107204Y-107780500D01*
X104847837Y-107780500D01*
X104914876Y-107800185D01*
X104960631Y-107852989D01*
X104969089Y-107878541D01*
X104969999Y-107882792D01*
X105025185Y-108049331D01*
X105025187Y-108049336D01*
X105035080Y-108065375D01*
X105117288Y-108198656D01*
X105241344Y-108322712D01*
X105390666Y-108414814D01*
X105557203Y-108469999D01*
X105659991Y-108480500D01*
X107860008Y-108480499D01*
X107962797Y-108469999D01*
X108129334Y-108414814D01*
X108278656Y-108322712D01*
X108402712Y-108198656D01*
X108494814Y-108049334D01*
X108549999Y-107882797D01*
X108560500Y-107780009D01*
X108560499Y-105579992D01*
X108549999Y-105477203D01*
X108494814Y-105310666D01*
X108402712Y-105161344D01*
X108278656Y-105037288D01*
X108130357Y-104945817D01*
X108129336Y-104945187D01*
X108129331Y-104945185D01*
X108127862Y-104944698D01*
X107962797Y-104890001D01*
X107962795Y-104890000D01*
X107860010Y-104879500D01*
X105659998Y-104879500D01*
X105659981Y-104879501D01*
X105557203Y-104890000D01*
X105557200Y-104890001D01*
X105390668Y-104945185D01*
X105390663Y-104945187D01*
X105241342Y-105037289D01*
X105117289Y-105161342D01*
X105025187Y-105310663D01*
X105025185Y-105310668D01*
X104970000Y-105477204D01*
X104969088Y-105481467D01*
X104935801Y-105542898D01*
X104874586Y-105576581D01*
X104847837Y-105579500D01*
X101686611Y-105579500D01*
X101513389Y-105579500D01*
X101473728Y-105585781D01*
X101342302Y-105606597D01*
X101177552Y-105660128D01*
X101023211Y-105738768D01*
X100957231Y-105786706D01*
X100883072Y-105840586D01*
X100883070Y-105840588D01*
X100883069Y-105840588D01*
X97250475Y-109473181D01*
X97189152Y-109506666D01*
X97162794Y-109509500D01*
X94722129Y-109509500D01*
X94722123Y-109509501D01*
X94662516Y-109515908D01*
X94527671Y-109566202D01*
X94527664Y-109566206D01*
X94412455Y-109652452D01*
X94412452Y-109652455D01*
X94326206Y-109767664D01*
X94326202Y-109767671D01*
X94307988Y-109816507D01*
X94266117Y-109872441D01*
X94200652Y-109896858D01*
X94132379Y-109882006D01*
X94082974Y-109832601D01*
X94067981Y-109766594D01*
X94069999Y-109728615D01*
X94070000Y-109728578D01*
X94070000Y-109010000D01*
X92320000Y-109010000D01*
X92320000Y-108510000D01*
X94069999Y-108510000D01*
X94069999Y-107791423D01*
X94069998Y-107791411D01*
X94067205Y-107738808D01*
X94022762Y-107509012D01*
X93940120Y-107290024D01*
X93821660Y-107088158D01*
X93821655Y-107088151D01*
X93670788Y-106909213D01*
X93670786Y-106909211D01*
X93491848Y-106758344D01*
X93491841Y-106758339D01*
X93289975Y-106639879D01*
X93070987Y-106557237D01*
X92841190Y-106512794D01*
X92788617Y-106510001D01*
X92788579Y-106510000D01*
X92070000Y-106510000D01*
X92070000Y-107326988D01*
X92012993Y-107294075D01*
X91885826Y-107260000D01*
X91754174Y-107260000D01*
X91627007Y-107294075D01*
X91570000Y-107326988D01*
X91570000Y-106510000D01*
X90851423Y-106510000D01*
X90851411Y-106510001D01*
X90798808Y-106512794D01*
X90569012Y-106557237D01*
X90350024Y-106639879D01*
X90148158Y-106758339D01*
X90148151Y-106758344D01*
X89969213Y-106909211D01*
X89969211Y-106909213D01*
X89818344Y-107088151D01*
X89818339Y-107088158D01*
X89699879Y-107290024D01*
X89617237Y-107509012D01*
X89572794Y-107738808D01*
X89572794Y-107738809D01*
X89570001Y-107791382D01*
X89570000Y-107791421D01*
X89570000Y-108510000D01*
X91320000Y-108510000D01*
X91320000Y-109010000D01*
X89570001Y-109010000D01*
X89570001Y-109728588D01*
X89572794Y-109781191D01*
X89617237Y-110010987D01*
X89699879Y-110229975D01*
X89818339Y-110431841D01*
X89818344Y-110431848D01*
X89969211Y-110610786D01*
X89969213Y-110610788D01*
X90148151Y-110761655D01*
X90148158Y-110761660D01*
X90350024Y-110880120D01*
X90569012Y-110962762D01*
X90798809Y-111007205D01*
X90851382Y-111009998D01*
X90851421Y-111009999D01*
X91569999Y-111009999D01*
X91570000Y-111009998D01*
X91570000Y-110193012D01*
X91627007Y-110225925D01*
X91754174Y-110260000D01*
X91885826Y-110260000D01*
X92012993Y-110225925D01*
X92070000Y-110193012D01*
X92070000Y-111009999D01*
X92788576Y-111009999D01*
X92788588Y-111009998D01*
X92841191Y-111007205D01*
X93070987Y-110962762D01*
X93289975Y-110880120D01*
X93491841Y-110761660D01*
X93491848Y-110761655D01*
X93670786Y-110610788D01*
X93670788Y-110610786D01*
X93821655Y-110431848D01*
X93821660Y-110431841D01*
X93940120Y-110229975D01*
X94022762Y-110010986D01*
X94023756Y-110005851D01*
X94055811Y-109943769D01*
X94116342Y-109908872D01*
X94186130Y-109912240D01*
X94243019Y-109952805D01*
X94268946Y-110017686D01*
X94269500Y-110029395D01*
X94269500Y-111595819D01*
X94269501Y-113136500D01*
X94249816Y-113203539D01*
X94197012Y-113249294D01*
X94145501Y-113260500D01*
X91587611Y-113260500D01*
X91414389Y-113260500D01*
X91374728Y-113266781D01*
X91243302Y-113287597D01*
X91078552Y-113341128D01*
X90924211Y-113419768D01*
X90844256Y-113477859D01*
X90784072Y-113521586D01*
X90784070Y-113521588D01*
X90784069Y-113521588D01*
X90661588Y-113644069D01*
X90661588Y-113644070D01*
X90661586Y-113644072D01*
X90629786Y-113687841D01*
X90559768Y-113784211D01*
X90481128Y-113938552D01*
X90481127Y-113938554D01*
X90481127Y-113938555D01*
X90477571Y-113949500D01*
X90427597Y-114103302D01*
X90400500Y-114274389D01*
X90400500Y-114447610D01*
X90426617Y-114612512D01*
X90427598Y-114618701D01*
X90481127Y-114783445D01*
X90559768Y-114937788D01*
X90661586Y-115077928D01*
X90661588Y-115077930D01*
X94221477Y-118637819D01*
X94254962Y-118699142D01*
X94249978Y-118768834D01*
X94208106Y-118824767D01*
X94142642Y-118849184D01*
X94133796Y-118849500D01*
X92879998Y-118849500D01*
X92879981Y-118849501D01*
X92777203Y-118860000D01*
X92777200Y-118860001D01*
X92610668Y-118915185D01*
X92610663Y-118915187D01*
X92461342Y-119007289D01*
X92337289Y-119131342D01*
X92245187Y-119280663D01*
X92245185Y-119280668D01*
X92230961Y-119323594D01*
X92190001Y-119447203D01*
X92190001Y-119447204D01*
X92190000Y-119447204D01*
X92179500Y-119549983D01*
X92179500Y-121750001D01*
X92179501Y-121750018D01*
X92190000Y-121852796D01*
X92190001Y-121852799D01*
X92245185Y-122019331D01*
X92245187Y-122019336D01*
X92267214Y-122055048D01*
X92337288Y-122168656D01*
X92461344Y-122292712D01*
X92610666Y-122384814D01*
X92777203Y-122439999D01*
X92777209Y-122439999D01*
X92781448Y-122440907D01*
X92842884Y-122474185D01*
X92876576Y-122535394D01*
X92879500Y-122562162D01*
X92879500Y-125816610D01*
X92903777Y-125969894D01*
X92906598Y-125987701D01*
X92960127Y-126152445D01*
X93038768Y-126306788D01*
X93140586Y-126446928D01*
X93140588Y-126446930D01*
X94883181Y-128189523D01*
X94916666Y-128250846D01*
X94919500Y-128277204D01*
X94919500Y-128906638D01*
X94899815Y-128973677D01*
X94847011Y-129019432D01*
X94777853Y-129029376D01*
X94714297Y-129000351D01*
X94707819Y-128994319D01*
X88507819Y-122794319D01*
X88474334Y-122732996D01*
X88471500Y-122706638D01*
X88471500Y-112422310D01*
X88471500Y-112422309D01*
X88465743Y-112393368D01*
X88465169Y-112390484D01*
X88444250Y-112285312D01*
X88436895Y-112248334D01*
X88371596Y-112090689D01*
X88371596Y-112090688D01*
X88369014Y-112084454D01*
X88369011Y-112084449D01*
X88270465Y-111936966D01*
X88223285Y-111889786D01*
X88145035Y-111811536D01*
X87819398Y-111485899D01*
X87456819Y-111123319D01*
X87423334Y-111061996D01*
X87420500Y-111035638D01*
X87420500Y-110903713D01*
X87411709Y-110848211D01*
X87387246Y-110693757D01*
X87321557Y-110491588D01*
X87225051Y-110302184D01*
X87225049Y-110302181D01*
X87225048Y-110302179D01*
X87100109Y-110130213D01*
X86949786Y-109979890D01*
X86777820Y-109854951D01*
X86777115Y-109854591D01*
X86769054Y-109850485D01*
X86718259Y-109802512D01*
X86701463Y-109734692D01*
X86723999Y-109668556D01*
X86769054Y-109629515D01*
X86777816Y-109625051D01*
X86858813Y-109566204D01*
X86949786Y-109500109D01*
X86949788Y-109500106D01*
X86949792Y-109500104D01*
X87100104Y-109349792D01*
X87100106Y-109349788D01*
X87100109Y-109349786D01*
X87225050Y-109177818D01*
X87237097Y-109154174D01*
X87321557Y-108988412D01*
X87387246Y-108786243D01*
X87420500Y-108576287D01*
X87420500Y-108363713D01*
X87387246Y-108153757D01*
X87321557Y-107951588D01*
X87225051Y-107762184D01*
X87225050Y-107762182D01*
X87100109Y-107590213D01*
X86949786Y-107439890D01*
X86777820Y-107314951D01*
X86776587Y-107314323D01*
X86769054Y-107310485D01*
X86718259Y-107262512D01*
X86701463Y-107194692D01*
X86723999Y-107128556D01*
X86769054Y-107089515D01*
X86777816Y-107085051D01*
X86799789Y-107069086D01*
X86949786Y-106960109D01*
X86949788Y-106960106D01*
X86949792Y-106960104D01*
X87100104Y-106809792D01*
X87100106Y-106809788D01*
X87100109Y-106809786D01*
X87225048Y-106637820D01*
X87225047Y-106637820D01*
X87225051Y-106637816D01*
X87321557Y-106448412D01*
X87387246Y-106246243D01*
X87420500Y-106036287D01*
X87420500Y-105823713D01*
X87387246Y-105613757D01*
X87321557Y-105411588D01*
X87225051Y-105222184D01*
X87225049Y-105222181D01*
X87225048Y-105222179D01*
X87100109Y-105050213D01*
X86995699Y-104945803D01*
X94270000Y-104945803D01*
X94270000Y-105510000D01*
X95086988Y-105510000D01*
X95054075Y-105567007D01*
X95020000Y-105694174D01*
X95020000Y-105825826D01*
X95054075Y-105952993D01*
X95086988Y-106010000D01*
X94270001Y-106010000D01*
X94270001Y-106574197D01*
X94280400Y-106706332D01*
X94335377Y-106924519D01*
X94428428Y-107129374D01*
X94428431Y-107129380D01*
X94556559Y-107314323D01*
X94556569Y-107314335D01*
X94715664Y-107473430D01*
X94715676Y-107473440D01*
X94900619Y-107601568D01*
X94900625Y-107601571D01*
X95105480Y-107694622D01*
X95323667Y-107749599D01*
X95455810Y-107759999D01*
X96269999Y-107759999D01*
X96270000Y-107759998D01*
X96270000Y-106260000D01*
X96770000Y-106260000D01*
X96770000Y-107759999D01*
X97584182Y-107759999D01*
X97584197Y-107759998D01*
X97716332Y-107749599D01*
X97934519Y-107694622D01*
X98139374Y-107601571D01*
X98139380Y-107601568D01*
X98324323Y-107473440D01*
X98324335Y-107473430D01*
X98483430Y-107314335D01*
X98483440Y-107314323D01*
X98611568Y-107129380D01*
X98611571Y-107129374D01*
X98704622Y-106924519D01*
X98759599Y-106706332D01*
X98769999Y-106574196D01*
X98770000Y-106574184D01*
X98770000Y-106010000D01*
X97953012Y-106010000D01*
X97985925Y-105952993D01*
X98020000Y-105825826D01*
X98020000Y-105694174D01*
X97985925Y-105567007D01*
X97953012Y-105510000D01*
X98769999Y-105510000D01*
X98769999Y-104945817D01*
X98769998Y-104945802D01*
X98759599Y-104813667D01*
X98704622Y-104595480D01*
X98611571Y-104390625D01*
X98611568Y-104390619D01*
X98483440Y-104205676D01*
X98483430Y-104205664D01*
X98324335Y-104046569D01*
X98324323Y-104046559D01*
X98139380Y-103918431D01*
X98139374Y-103918428D01*
X97934519Y-103825377D01*
X97716332Y-103770400D01*
X97584196Y-103760000D01*
X96770000Y-103760000D01*
X96770000Y-105260000D01*
X96270000Y-105260000D01*
X96270000Y-103760000D01*
X95455817Y-103760000D01*
X95455802Y-103760001D01*
X95323667Y-103770400D01*
X95105480Y-103825377D01*
X94900625Y-103918428D01*
X94900619Y-103918431D01*
X94715676Y-104046559D01*
X94715664Y-104046569D01*
X94556569Y-104205664D01*
X94556559Y-104205676D01*
X94428431Y-104390619D01*
X94428428Y-104390625D01*
X94335377Y-104595480D01*
X94280400Y-104813667D01*
X94270000Y-104945803D01*
X86995699Y-104945803D01*
X86949786Y-104899890D01*
X86777820Y-104774951D01*
X86777115Y-104774591D01*
X86769054Y-104770485D01*
X86718259Y-104722512D01*
X86701463Y-104654692D01*
X86723999Y-104588556D01*
X86769054Y-104549515D01*
X86777816Y-104545051D01*
X86878082Y-104472204D01*
X86949786Y-104420109D01*
X86949788Y-104420106D01*
X86949792Y-104420104D01*
X87100104Y-104269792D01*
X87100106Y-104269788D01*
X87100109Y-104269786D01*
X87225048Y-104097820D01*
X87225047Y-104097820D01*
X87225051Y-104097816D01*
X87321557Y-103908412D01*
X87387246Y-103706243D01*
X87420500Y-103496287D01*
X87420500Y-103283713D01*
X87387246Y-103073757D01*
X87321557Y-102871588D01*
X87225051Y-102682184D01*
X87225049Y-102682181D01*
X87225048Y-102682179D01*
X87100109Y-102510213D01*
X86986181Y-102396285D01*
X86952696Y-102334962D01*
X86957680Y-102265270D01*
X86999552Y-102209337D01*
X87030529Y-102192422D01*
X87162086Y-102143354D01*
X87162093Y-102143350D01*
X87277187Y-102057190D01*
X87277190Y-102057187D01*
X87363350Y-101942093D01*
X87363354Y-101942086D01*
X87413596Y-101807379D01*
X87413598Y-101807372D01*
X87419999Y-101747844D01*
X87420000Y-101747827D01*
X87420000Y-101100000D01*
X86503012Y-101100000D01*
X86535925Y-101042993D01*
X86570000Y-100915826D01*
X86570000Y-100784174D01*
X86535925Y-100657007D01*
X86503012Y-100600000D01*
X87420000Y-100600000D01*
X87420000Y-99952172D01*
X87419999Y-99952155D01*
X87413598Y-99892627D01*
X87413596Y-99892620D01*
X87363354Y-99757913D01*
X87363350Y-99757906D01*
X87277190Y-99642812D01*
X87277187Y-99642809D01*
X87162093Y-99556649D01*
X87162086Y-99556645D01*
X87027379Y-99506403D01*
X87027372Y-99506401D01*
X86967844Y-99500000D01*
X86320000Y-99500000D01*
X86320000Y-100416988D01*
X86262993Y-100384075D01*
X86135826Y-100350000D01*
X86004174Y-100350000D01*
X85877007Y-100384075D01*
X85820000Y-100416988D01*
X85820000Y-99500000D01*
X85172155Y-99500000D01*
X85112627Y-99506401D01*
X85112620Y-99506403D01*
X84977913Y-99556645D01*
X84977906Y-99556649D01*
X84862812Y-99642809D01*
X84862809Y-99642812D01*
X84776649Y-99757906D01*
X84776645Y-99757913D01*
X84726403Y-99892620D01*
X84726401Y-99892627D01*
X84720000Y-99952155D01*
X84720000Y-100600000D01*
X85636988Y-100600000D01*
X85604075Y-100657007D01*
X85570000Y-100784174D01*
X85570000Y-100915826D01*
X85604075Y-101042993D01*
X85636988Y-101100000D01*
X84720000Y-101100000D01*
X84720000Y-101747844D01*
X84726401Y-101807372D01*
X84726403Y-101807379D01*
X84776645Y-101942086D01*
X84776649Y-101942093D01*
X84862809Y-102057187D01*
X84862812Y-102057190D01*
X84977906Y-102143350D01*
X84977913Y-102143354D01*
X85109470Y-102192422D01*
X85165404Y-102234293D01*
X85189821Y-102299758D01*
X85174969Y-102368031D01*
X85153819Y-102396285D01*
X85039889Y-102510215D01*
X84914951Y-102682179D01*
X84818444Y-102871585D01*
X84752753Y-103073760D01*
X84742341Y-103139500D01*
X84719500Y-103283713D01*
X84719500Y-103496287D01*
X84727076Y-103544119D01*
X84746394Y-103666092D01*
X84752754Y-103706243D01*
X84816363Y-103902011D01*
X84818444Y-103908414D01*
X84914951Y-104097820D01*
X85039890Y-104269786D01*
X85190213Y-104420109D01*
X85362182Y-104545050D01*
X85370946Y-104549516D01*
X85421742Y-104597491D01*
X85438536Y-104665312D01*
X85415998Y-104731447D01*
X85370946Y-104770484D01*
X85362182Y-104774949D01*
X85190213Y-104899890D01*
X85039890Y-105050213D01*
X84914951Y-105222179D01*
X84818444Y-105411585D01*
X84752753Y-105613760D01*
X84719500Y-105823713D01*
X84719500Y-106036286D01*
X84752098Y-106242106D01*
X84752754Y-106246243D01*
X84816395Y-106442110D01*
X84818444Y-106448414D01*
X84914951Y-106637820D01*
X85039890Y-106809786D01*
X85190213Y-106960109D01*
X85362182Y-107085050D01*
X85370946Y-107089516D01*
X85421742Y-107137491D01*
X85438536Y-107205312D01*
X85415998Y-107271447D01*
X85370946Y-107310484D01*
X85362182Y-107314949D01*
X85190213Y-107439890D01*
X85039890Y-107590213D01*
X84914951Y-107762179D01*
X84818444Y-107951585D01*
X84818443Y-107951587D01*
X84818443Y-107951588D01*
X84797836Y-108015009D01*
X84752753Y-108153760D01*
X84719500Y-108363713D01*
X84719500Y-108576286D01*
X84751078Y-108775666D01*
X84752754Y-108786243D01*
X84813176Y-108972203D01*
X84818444Y-108988414D01*
X84914950Y-109177818D01*
X85039890Y-109349786D01*
X85190213Y-109500109D01*
X85362182Y-109625050D01*
X85370946Y-109629516D01*
X85421742Y-109677491D01*
X85438536Y-109745312D01*
X85415998Y-109811447D01*
X85370946Y-109850484D01*
X85362182Y-109854949D01*
X85190213Y-109979890D01*
X85039890Y-110130213D01*
X84914951Y-110302179D01*
X84818444Y-110491585D01*
X84752753Y-110693760D01*
X84719500Y-110903713D01*
X84719500Y-111116286D01*
X84749643Y-111306606D01*
X84752754Y-111326243D01*
X84792872Y-111449714D01*
X84818444Y-111528414D01*
X84914951Y-111717820D01*
X85039890Y-111889786D01*
X85190213Y-112040109D01*
X85362182Y-112165050D01*
X85370946Y-112169516D01*
X85421742Y-112217491D01*
X85438536Y-112285312D01*
X85415998Y-112351447D01*
X85370946Y-112390484D01*
X85362182Y-112394949D01*
X85190213Y-112519890D01*
X85039890Y-112670213D01*
X84914951Y-112842179D01*
X84818444Y-113031585D01*
X84752753Y-113233760D01*
X84719500Y-113443713D01*
X84719500Y-113656287D01*
X84723361Y-113680663D01*
X84747704Y-113834362D01*
X84752754Y-113866243D01*
X84816676Y-114062975D01*
X84818444Y-114068414D01*
X84914951Y-114257820D01*
X85039890Y-114429786D01*
X85190213Y-114580109D01*
X85362182Y-114705050D01*
X85370946Y-114709516D01*
X85421742Y-114757491D01*
X85438536Y-114825312D01*
X85415998Y-114891447D01*
X85370946Y-114930484D01*
X85362182Y-114934949D01*
X85190213Y-115059890D01*
X85039890Y-115210213D01*
X84914951Y-115382179D01*
X84818444Y-115571585D01*
X84752753Y-115773760D01*
X84728595Y-115926287D01*
X84719500Y-115983713D01*
X84719500Y-116196287D01*
X84720741Y-116204124D01*
X84751747Y-116399890D01*
X84752754Y-116406243D01*
X84783962Y-116502292D01*
X84818444Y-116608414D01*
X84914951Y-116797820D01*
X85039890Y-116969786D01*
X85190213Y-117120109D01*
X85362182Y-117245050D01*
X85370946Y-117249516D01*
X85421742Y-117297491D01*
X85438536Y-117365312D01*
X85415998Y-117431447D01*
X85370946Y-117470484D01*
X85362182Y-117474949D01*
X85190213Y-117599890D01*
X85039890Y-117750213D01*
X84914951Y-117922179D01*
X84818444Y-118111585D01*
X84752753Y-118313760D01*
X84719500Y-118523713D01*
X84719500Y-118736286D01*
X84747949Y-118915910D01*
X84752754Y-118946243D01*
X84813204Y-119132289D01*
X84818444Y-119148414D01*
X84914951Y-119337820D01*
X85039890Y-119509786D01*
X85190213Y-119660109D01*
X85362182Y-119785050D01*
X85370946Y-119789516D01*
X85421742Y-119837491D01*
X85438536Y-119905312D01*
X85415998Y-119971447D01*
X85370946Y-120010484D01*
X85362182Y-120014949D01*
X85190213Y-120139890D01*
X85039890Y-120290213D01*
X84914951Y-120462179D01*
X84818444Y-120651585D01*
X84752753Y-120853760D01*
X84728595Y-121006287D01*
X84719500Y-121063713D01*
X84719500Y-121276287D01*
X84729534Y-121339644D01*
X84746705Y-121448056D01*
X84752754Y-121486243D01*
X84814082Y-121674991D01*
X84818444Y-121688414D01*
X84914951Y-121877820D01*
X85039890Y-122049786D01*
X85190213Y-122200109D01*
X85362182Y-122325050D01*
X85370946Y-122329516D01*
X85421742Y-122377491D01*
X85438536Y-122445312D01*
X85415998Y-122511447D01*
X85370946Y-122550484D01*
X85362182Y-122554949D01*
X85190213Y-122679890D01*
X85039890Y-122830213D01*
X84914951Y-123002179D01*
X84818444Y-123191585D01*
X84752753Y-123393760D01*
X84719500Y-123603713D01*
X84719500Y-123816286D01*
X84742010Y-123958412D01*
X84752754Y-124026243D01*
X84800453Y-124173046D01*
X84818444Y-124228414D01*
X84914951Y-124417820D01*
X85039890Y-124589786D01*
X85190213Y-124740109D01*
X85362182Y-124865050D01*
X85370946Y-124869516D01*
X85421742Y-124917491D01*
X85438536Y-124985312D01*
X85415998Y-125051447D01*
X85370946Y-125090484D01*
X85362182Y-125094949D01*
X85190213Y-125219890D01*
X85039890Y-125370213D01*
X84914951Y-125542179D01*
X84818444Y-125731585D01*
X84752753Y-125933760D01*
X84719500Y-126143713D01*
X84719500Y-126356286D01*
X84752302Y-126563393D01*
X84752754Y-126566243D01*
X84818159Y-126767539D01*
X84818444Y-126768414D01*
X84914951Y-126957820D01*
X85039890Y-127129786D01*
X85190213Y-127280109D01*
X85362182Y-127405050D01*
X85370946Y-127409516D01*
X85421742Y-127457491D01*
X85438536Y-127525312D01*
X85415998Y-127591447D01*
X85370946Y-127630484D01*
X85362182Y-127634949D01*
X85190213Y-127759890D01*
X85039890Y-127910213D01*
X84914951Y-128082179D01*
X84818444Y-128271585D01*
X84752753Y-128473760D01*
X84728595Y-128626287D01*
X84719500Y-128683713D01*
X84719500Y-128896287D01*
X84729534Y-128959644D01*
X84742010Y-129038412D01*
X84752754Y-129106243D01*
X84806871Y-129272798D01*
X84818444Y-129308414D01*
X84914951Y-129497820D01*
X85039890Y-129669786D01*
X85190213Y-129820109D01*
X85362182Y-129945050D01*
X85370946Y-129949516D01*
X85421742Y-129997491D01*
X85438536Y-130065312D01*
X85415998Y-130131447D01*
X85370946Y-130170484D01*
X85362182Y-130174949D01*
X85190213Y-130299890D01*
X85039890Y-130450213D01*
X84914951Y-130622179D01*
X84818444Y-130811585D01*
X84818443Y-130811587D01*
X84818443Y-130811588D01*
X84795744Y-130881447D01*
X84752753Y-131013760D01*
X84719500Y-131223713D01*
X84719500Y-131436286D01*
X84750295Y-131630721D01*
X84752754Y-131646243D01*
X84790973Y-131763869D01*
X84818444Y-131848414D01*
X84914951Y-132037820D01*
X85039890Y-132209786D01*
X85190213Y-132360109D01*
X85362182Y-132485050D01*
X85370946Y-132489516D01*
X85421742Y-132537491D01*
X85438536Y-132605312D01*
X85415998Y-132671447D01*
X85370946Y-132710484D01*
X85362182Y-132714949D01*
X85190213Y-132839890D01*
X85039890Y-132990213D01*
X84914951Y-133162179D01*
X84818444Y-133351585D01*
X84752753Y-133553760D01*
X84719500Y-133763713D01*
X84719500Y-133976286D01*
X84742010Y-134118412D01*
X84752754Y-134186243D01*
X84786304Y-134289500D01*
X84818444Y-134388414D01*
X84914951Y-134577820D01*
X85039890Y-134749786D01*
X85190213Y-134900109D01*
X85362182Y-135025050D01*
X85370946Y-135029516D01*
X85421742Y-135077491D01*
X85438536Y-135145312D01*
X85415998Y-135211447D01*
X85370946Y-135250484D01*
X85362182Y-135254949D01*
X85190213Y-135379890D01*
X85039890Y-135530213D01*
X84914951Y-135702179D01*
X84818444Y-135891585D01*
X84752753Y-136093760D01*
X84719500Y-136303713D01*
X84719500Y-136516286D01*
X84742010Y-136658412D01*
X84752754Y-136726243D01*
X84762688Y-136756818D01*
X84818444Y-136928414D01*
X84914951Y-137117820D01*
X85039890Y-137289786D01*
X85190213Y-137440109D01*
X85362182Y-137565050D01*
X85370946Y-137569516D01*
X85421742Y-137617491D01*
X85438536Y-137685312D01*
X85415998Y-137751447D01*
X85370946Y-137790484D01*
X85362182Y-137794949D01*
X85190213Y-137919890D01*
X85039890Y-138070213D01*
X84914951Y-138242179D01*
X84818444Y-138431585D01*
X84752753Y-138633760D01*
X84719500Y-138843713D01*
X84719500Y-139056286D01*
X84752753Y-139266239D01*
X84818444Y-139468414D01*
X84914951Y-139657820D01*
X85039890Y-139829786D01*
X85190213Y-139980109D01*
X85362182Y-140105050D01*
X85370946Y-140109516D01*
X85421742Y-140157491D01*
X85438536Y-140225312D01*
X85415998Y-140291447D01*
X85370946Y-140330484D01*
X85362182Y-140334949D01*
X85190213Y-140459890D01*
X85039890Y-140610213D01*
X84914951Y-140782179D01*
X84818444Y-140971585D01*
X84752753Y-141173760D01*
X84728595Y-141326287D01*
X84719500Y-141383713D01*
X84719500Y-141596287D01*
X84723585Y-141622077D01*
X84742010Y-141738412D01*
X84752754Y-141806243D01*
X84806140Y-141970548D01*
X84818444Y-142008414D01*
X84914951Y-142197820D01*
X85039890Y-142369786D01*
X85190213Y-142520109D01*
X85362182Y-142645050D01*
X85370946Y-142649516D01*
X85421742Y-142697491D01*
X85438536Y-142765312D01*
X85415998Y-142831447D01*
X85370946Y-142870484D01*
X85362182Y-142874949D01*
X85190213Y-142999890D01*
X85039890Y-143150213D01*
X84914951Y-143322179D01*
X84818444Y-143511585D01*
X84752753Y-143713760D01*
X84719500Y-143923713D01*
X84719500Y-144136286D01*
X84742010Y-144278412D01*
X84752754Y-144346243D01*
X84783549Y-144441021D01*
X84818444Y-144548414D01*
X84914951Y-144737820D01*
X85039890Y-144909786D01*
X85190213Y-145060109D01*
X85362182Y-145185050D01*
X85370946Y-145189516D01*
X85421742Y-145237491D01*
X85438536Y-145305312D01*
X85415998Y-145371447D01*
X85370946Y-145410484D01*
X85362182Y-145414949D01*
X85190213Y-145539890D01*
X85039890Y-145690213D01*
X84914951Y-145862179D01*
X84818444Y-146051585D01*
X84752753Y-146253760D01*
X84719500Y-146463713D01*
X84719500Y-146676286D01*
X84752753Y-146886239D01*
X84818444Y-147088414D01*
X84914951Y-147277820D01*
X85039890Y-147449786D01*
X85190213Y-147600109D01*
X85362182Y-147725050D01*
X85370946Y-147729516D01*
X85421742Y-147777491D01*
X85438536Y-147845312D01*
X85415998Y-147911447D01*
X85370946Y-147950484D01*
X85362182Y-147954949D01*
X85190213Y-148079890D01*
X85039890Y-148230213D01*
X84914951Y-148402179D01*
X84818444Y-148591585D01*
X84752753Y-148793760D01*
X84719500Y-149003713D01*
X84719500Y-149216286D01*
X84742010Y-149358412D01*
X84752754Y-149426243D01*
X84772495Y-149487000D01*
X84818444Y-149628414D01*
X84914951Y-149817820D01*
X85039890Y-149989786D01*
X85190213Y-150140109D01*
X85362179Y-150265048D01*
X85362181Y-150265049D01*
X85362184Y-150265051D01*
X85371493Y-150269794D01*
X85422290Y-150317766D01*
X85439087Y-150385587D01*
X85416552Y-150451722D01*
X85371505Y-150490760D01*
X85362446Y-150495376D01*
X85362440Y-150495380D01*
X85308282Y-150534727D01*
X85308282Y-150534728D01*
X85940591Y-151167037D01*
X85877007Y-151184075D01*
X85762993Y-151249901D01*
X85669901Y-151342993D01*
X85604075Y-151457007D01*
X85587037Y-151520591D01*
X84954728Y-150888282D01*
X84954727Y-150888282D01*
X84915380Y-150942439D01*
X84818904Y-151131782D01*
X84753242Y-151333869D01*
X84753242Y-151333872D01*
X84720000Y-151543753D01*
X84720000Y-151756246D01*
X84753242Y-151966127D01*
X84753242Y-151966130D01*
X84818904Y-152168217D01*
X84915375Y-152357550D01*
X84954728Y-152411716D01*
X85587037Y-151779408D01*
X85604075Y-151842993D01*
X85669901Y-151957007D01*
X85762993Y-152050099D01*
X85877007Y-152115925D01*
X85940591Y-152132962D01*
X85339971Y-152733581D01*
X85418711Y-152850895D01*
X85419920Y-152854729D01*
X85422844Y-152857491D01*
X85430343Y-152887778D01*
X85439727Y-152917529D01*
X85438671Y-152921408D01*
X85439638Y-152925312D01*
X85429573Y-152954844D01*
X85421383Y-152984947D01*
X85418397Y-152987640D01*
X85417100Y-152991447D01*
X85372051Y-153030483D01*
X85362440Y-153035380D01*
X85308282Y-153074727D01*
X85308282Y-153074728D01*
X85940591Y-153707037D01*
X85877007Y-153724075D01*
X85762993Y-153789901D01*
X85669901Y-153882993D01*
X85604075Y-153997007D01*
X85587037Y-154060591D01*
X84954728Y-153428282D01*
X84954727Y-153428282D01*
X84915380Y-153482439D01*
X84818904Y-153671782D01*
X84753242Y-153873869D01*
X84753242Y-153873872D01*
X84720000Y-154083753D01*
X84720000Y-154296246D01*
X84753242Y-154506127D01*
X84753242Y-154506130D01*
X84818904Y-154708217D01*
X84870870Y-154810205D01*
X84883766Y-154878874D01*
X84857490Y-154943615D01*
X84800383Y-154983872D01*
X84760385Y-154990500D01*
X81310444Y-154990500D01*
X81243405Y-154970815D01*
X81222763Y-154954181D01*
X67076819Y-140808237D01*
X67043334Y-140746914D01*
X67040500Y-140720556D01*
X67040500Y-104041456D01*
X67002052Y-103848170D01*
X67002051Y-103848169D01*
X67002051Y-103848165D01*
X66991130Y-103821798D01*
X66926635Y-103666092D01*
X66926628Y-103666079D01*
X66817139Y-103502218D01*
X66817136Y-103502214D01*
X66677785Y-103362863D01*
X66677781Y-103362860D01*
X66513920Y-103253371D01*
X66513907Y-103253364D01*
X66331839Y-103177950D01*
X66331829Y-103177947D01*
X66138543Y-103139500D01*
X66138541Y-103139500D01*
X62155782Y-103139500D01*
X62126341Y-103130855D01*
X62096355Y-103124332D01*
X62091339Y-103120577D01*
X62088743Y-103119815D01*
X62068101Y-103103181D01*
X62056423Y-103091503D01*
X62022938Y-103030180D01*
X62020657Y-103014708D01*
X62020500Y-103013716D01*
X62020500Y-103013713D01*
X61987246Y-102803757D01*
X61921557Y-102601588D01*
X61825051Y-102412184D01*
X61825049Y-102412181D01*
X61825048Y-102412179D01*
X61700109Y-102240213D01*
X61606819Y-102146923D01*
X61592115Y-102119995D01*
X61575523Y-102094177D01*
X61574631Y-102087976D01*
X61573334Y-102085600D01*
X61570500Y-102059242D01*
X61570500Y-102031439D01*
X61590185Y-101964400D01*
X61642989Y-101918645D01*
X61651168Y-101915257D01*
X61762326Y-101873798D01*
X61762326Y-101873797D01*
X61762331Y-101873796D01*
X61877546Y-101787546D01*
X61963796Y-101672331D01*
X62014091Y-101537483D01*
X62020500Y-101477873D01*
X62020499Y-99682128D01*
X62014091Y-99622517D01*
X61989522Y-99556645D01*
X61963797Y-99487671D01*
X61963793Y-99487664D01*
X61877547Y-99372455D01*
X61877544Y-99372452D01*
X61762335Y-99286206D01*
X61762328Y-99286202D01*
X61627482Y-99235908D01*
X61627483Y-99235908D01*
X61567883Y-99229501D01*
X61567881Y-99229500D01*
X61567873Y-99229500D01*
X61567864Y-99229500D01*
X59772129Y-99229500D01*
X59772123Y-99229501D01*
X59712516Y-99235908D01*
X59577671Y-99286202D01*
X59577664Y-99286206D01*
X59462455Y-99372452D01*
X59462452Y-99372455D01*
X59376206Y-99487664D01*
X59376202Y-99487671D01*
X59325908Y-99622517D01*
X59319501Y-99682116D01*
X59319501Y-99682123D01*
X59319500Y-99682135D01*
X59319500Y-101477870D01*
X59319501Y-101477876D01*
X59325908Y-101537483D01*
X59376202Y-101672328D01*
X59376206Y-101672335D01*
X59462452Y-101787544D01*
X59462455Y-101787547D01*
X59577664Y-101873793D01*
X59577673Y-101873798D01*
X59688832Y-101915257D01*
X59706558Y-101928526D01*
X59726703Y-101937726D01*
X59733984Y-101949056D01*
X59744766Y-101957127D01*
X59752504Y-101977874D01*
X59764477Y-101996504D01*
X59767628Y-102018421D01*
X59769184Y-102022592D01*
X59769500Y-102031439D01*
X59769500Y-102059242D01*
X59749815Y-102126281D01*
X59733181Y-102146923D01*
X59639894Y-102240209D01*
X59639890Y-102240213D01*
X59514951Y-102412179D01*
X59418444Y-102601585D01*
X59352753Y-102803760D01*
X59319500Y-103013713D01*
X59319500Y-103145638D01*
X59299815Y-103212677D01*
X59283181Y-103233319D01*
X58578319Y-103938181D01*
X58516996Y-103971666D01*
X58490638Y-103974500D01*
X39779273Y-103974500D01*
X39712234Y-103954815D01*
X39666479Y-103902011D01*
X39656535Y-103832853D01*
X39685560Y-103769297D01*
X39691592Y-103762819D01*
X39761065Y-103693345D01*
X39853106Y-103544124D01*
X39853108Y-103544119D01*
X39908255Y-103377697D01*
X39908256Y-103377690D01*
X39918749Y-103274986D01*
X39918750Y-103274973D01*
X39918750Y-103225000D01*
X37468751Y-103225000D01*
X37468751Y-103274986D01*
X37479244Y-103377697D01*
X37534391Y-103544119D01*
X37534393Y-103544124D01*
X37626434Y-103693345D01*
X37750405Y-103817316D01*
X37750409Y-103817319D01*
X37753406Y-103819168D01*
X37755029Y-103820972D01*
X37756073Y-103821798D01*
X37755931Y-103821976D01*
X37800131Y-103871116D01*
X37811352Y-103940079D01*
X37783509Y-104004161D01*
X37753411Y-104030241D01*
X37750099Y-104032283D01*
X37750093Y-104032288D01*
X37626039Y-104156342D01*
X37533937Y-104305663D01*
X37533936Y-104305666D01*
X37478751Y-104472203D01*
X37478751Y-104472204D01*
X37478750Y-104472204D01*
X37468250Y-104574983D01*
X37468250Y-105175001D01*
X37468251Y-105175019D01*
X37478750Y-105277796D01*
X37478751Y-105277799D01*
X37533935Y-105444331D01*
X37533937Y-105444336D01*
X37562289Y-105490302D01*
X37626038Y-105593656D01*
X37750094Y-105717712D01*
X37894347Y-105806687D01*
X37941071Y-105858633D01*
X37953250Y-105912225D01*
X37953250Y-107103695D01*
X37987854Y-107277658D01*
X37987857Y-107277670D01*
X38043811Y-107412755D01*
X38053250Y-107460207D01*
X38053250Y-107593201D01*
X38056151Y-107630067D01*
X38056152Y-107630073D01*
X38102004Y-107787893D01*
X38102005Y-107787896D01*
X38102006Y-107787898D01*
X38135760Y-107844973D01*
X38185667Y-107929362D01*
X38185673Y-107929370D01*
X38301882Y-108045579D01*
X38301884Y-108045580D01*
X38301885Y-108045581D01*
X38302195Y-108045764D01*
X38302388Y-108045970D01*
X38308048Y-108050361D01*
X38307339Y-108051273D01*
X38349880Y-108096830D01*
X38362388Y-108165571D01*
X38335746Y-108230162D01*
X38324482Y-108242401D01*
X38314290Y-108252082D01*
X38301885Y-108259419D01*
X38212984Y-108348319D01*
X38211845Y-108349402D01*
X38182133Y-108364649D01*
X38152801Y-108380666D01*
X38150424Y-108380921D01*
X38149683Y-108381302D01*
X38148214Y-108381159D01*
X38126442Y-108383500D01*
X37621357Y-108383500D01*
X37498143Y-108383500D01*
X37443792Y-108394311D01*
X37443791Y-108394310D01*
X37377305Y-108407535D01*
X37377291Y-108407539D01*
X37364077Y-108413013D01*
X37263463Y-108454688D01*
X37263458Y-108454690D01*
X37161022Y-108523138D01*
X37161014Y-108523144D01*
X37073889Y-108610270D01*
X36637310Y-109046848D01*
X36609160Y-109067942D01*
X36603268Y-109071166D01*
X36507855Y-109110689D01*
X36407393Y-109177816D01*
X36405407Y-109179143D01*
X36404723Y-109179826D01*
X36404719Y-109179829D01*
X35001370Y-110583181D01*
X34974442Y-110597884D01*
X34948624Y-110614477D01*
X34942423Y-110615368D01*
X34940047Y-110616666D01*
X34913689Y-110619500D01*
X34911491Y-110619500D01*
X34911471Y-110619499D01*
X34905357Y-110619499D01*
X34782144Y-110619499D01*
X34681347Y-110639548D01*
X34681342Y-110639548D01*
X34661299Y-110643536D01*
X34622760Y-110659500D01*
X34622759Y-110659500D01*
X34547471Y-110690684D01*
X34547458Y-110690691D01*
X34445017Y-110759141D01*
X34445013Y-110759144D01*
X33337873Y-111866286D01*
X33005019Y-112199140D01*
X33005017Y-112199142D01*
X32961455Y-112242703D01*
X32917894Y-112286264D01*
X32917892Y-112286267D01*
X32896723Y-112317949D01*
X32896722Y-112317951D01*
X32896721Y-112317950D01*
X32849439Y-112388712D01*
X32849437Y-112388716D01*
X32828174Y-112440047D01*
X32828175Y-112440048D01*
X32802288Y-112502546D01*
X32802285Y-112502554D01*
X32795406Y-112537138D01*
X32795407Y-112537139D01*
X32780737Y-112610893D01*
X32778250Y-112623394D01*
X32778250Y-117206606D01*
X32802287Y-117327452D01*
X32806154Y-117336787D01*
X32849438Y-117441286D01*
X32873254Y-117476928D01*
X32877965Y-117483979D01*
X32877966Y-117483980D01*
X32917890Y-117543731D01*
X32917891Y-117543732D01*
X32917892Y-117543733D01*
X33005017Y-117630858D01*
X33005018Y-117630858D01*
X33012085Y-117637925D01*
X33012084Y-117637925D01*
X33012087Y-117637927D01*
X33687891Y-118313732D01*
X33687892Y-118313733D01*
X33775017Y-118400858D01*
X33831753Y-118438768D01*
X33838110Y-118443016D01*
X33838113Y-118443018D01*
X33872937Y-118466286D01*
X33877464Y-118469311D01*
X33991298Y-118516463D01*
X34112138Y-118540499D01*
X34112142Y-118540500D01*
X34112143Y-118540500D01*
X34112144Y-118540500D01*
X34614298Y-118540500D01*
X34681337Y-118560185D01*
X34727092Y-118612989D01*
X34737036Y-118682147D01*
X34708011Y-118745703D01*
X34701985Y-118752174D01*
X34633223Y-118820936D01*
X34457880Y-118996278D01*
X34457872Y-118996286D01*
X34455019Y-118999140D01*
X34455017Y-118999142D01*
X34367892Y-119086267D01*
X34337142Y-119132288D01*
X34332623Y-119139050D01*
X34332622Y-119139052D01*
X34299437Y-119188715D01*
X34299435Y-119188718D01*
X34275447Y-119246631D01*
X34275448Y-119246632D01*
X34264494Y-119273076D01*
X34264492Y-119273083D01*
X34261023Y-119281459D01*
X34252287Y-119302549D01*
X34234872Y-119390104D01*
X34234267Y-119393143D01*
X34234262Y-119393165D01*
X34228250Y-119423391D01*
X34228250Y-121955500D01*
X34208565Y-122022539D01*
X34155761Y-122068294D01*
X34104250Y-122079500D01*
X31695357Y-122079500D01*
X31572143Y-122079500D01*
X31521869Y-122089500D01*
X31521868Y-122089499D01*
X31451305Y-122103535D01*
X31451295Y-122103538D01*
X31417707Y-122117451D01*
X31337468Y-122150686D01*
X31337461Y-122150690D01*
X31320370Y-122162110D01*
X31311940Y-122167743D01*
X31311939Y-122167744D01*
X31311938Y-122167743D01*
X31235016Y-122219142D01*
X31235015Y-122219143D01*
X31212712Y-122241447D01*
X31147892Y-122306267D01*
X30657804Y-122796354D01*
X30657796Y-122796362D01*
X30655020Y-122799139D01*
X30655017Y-122799142D01*
X30567892Y-122886267D01*
X30538584Y-122930130D01*
X30534005Y-122936981D01*
X30534001Y-122936987D01*
X30499440Y-122988709D01*
X30499438Y-122988713D01*
X30493861Y-123002179D01*
X30480059Y-123035500D01*
X30475418Y-123046705D01*
X30452286Y-123102548D01*
X30443213Y-123148163D01*
X30443214Y-123148164D01*
X30428990Y-123219676D01*
X30428989Y-123219681D01*
X30428250Y-123223393D01*
X30428250Y-126700500D01*
X30408565Y-126767539D01*
X30355761Y-126813294D01*
X30304250Y-126824500D01*
X29953748Y-126824500D01*
X29953730Y-126824501D01*
X29850953Y-126835000D01*
X29850950Y-126835001D01*
X29684418Y-126890185D01*
X29684413Y-126890187D01*
X29535092Y-126982289D01*
X29411039Y-127106342D01*
X29318937Y-127255663D01*
X29318935Y-127255668D01*
X29314712Y-127268412D01*
X29263751Y-127422203D01*
X29263751Y-127422204D01*
X29263750Y-127422204D01*
X29253250Y-127524983D01*
X20958652Y-127524983D01*
X20924700Y-119280668D01*
X20856313Y-102675013D01*
X37468750Y-102675013D01*
X37468750Y-102725000D01*
X38443750Y-102725000D01*
X38943750Y-102725000D01*
X39918749Y-102725000D01*
X39918749Y-102675028D01*
X39918748Y-102675013D01*
X39908255Y-102572302D01*
X39853108Y-102405880D01*
X39853106Y-102405875D01*
X39761065Y-102256654D01*
X39637095Y-102132684D01*
X39487874Y-102040643D01*
X39487869Y-102040641D01*
X39321447Y-101985494D01*
X39321440Y-101985493D01*
X39218736Y-101975000D01*
X38943750Y-101975000D01*
X38943750Y-102725000D01*
X38443750Y-102725000D01*
X38443750Y-101975000D01*
X38168779Y-101975000D01*
X38168762Y-101975001D01*
X38066052Y-101985494D01*
X37899630Y-102040641D01*
X37899625Y-102040643D01*
X37750404Y-102132684D01*
X37626434Y-102256654D01*
X37534393Y-102405875D01*
X37534391Y-102405880D01*
X37479244Y-102572302D01*
X37479243Y-102572309D01*
X37468750Y-102675013D01*
X20856313Y-102675013D01*
X20856302Y-102672375D01*
X20823078Y-94605011D01*
X20842486Y-94537891D01*
X20895101Y-94491919D01*
X20947077Y-94480500D01*
X21255937Y-94480500D01*
X21257704Y-94480960D01*
X21321758Y-94480500D01*
X21385892Y-94480500D01*
X21389441Y-94480500D01*
X21397268Y-94479956D01*
X127914613Y-93715003D01*
X127981789Y-93734206D01*
G37*
%TD.AperFunction*%
%TD*%
M02*
